<?xml version="1.0" encoding="UTF-8"?><svg id="_レイヤー_2" xmlns="http://www.w3.org/2000/svg" viewBox="0 0 919.16 170"><defs><style>.cls-1{fill:red;}</style></defs><g id="contents_1"><g><path class="cls-1" d="m76.22,12.73c-.1.24-.14.43-.19.57-.14.57-.14.62-.29,1.15-2.2,10.05-4.21,15.17-8.62,22.02-1.96-1.63-3.35-2.54-5.07-3.4,4.6-6.32,7.8-14.6,8.38-21.83l5.79,1.48Zm12.01-11.54c-.19,1.48-.29,3.35-.29,5.84v31.64c0,2.3-.62,3.73-1.96,4.5-.96.57-2.35.81-4.98.81-1.82,0-3.83-.1-6.13-.24-.29-2.15-.67-3.59-1.53-5.6,2.97.43,4.98.62,6.85.62,1.58,0,2.06-.24,2.06-1.15V6.99c0-2.44-.1-4.31-.29-5.79h6.27Zm10.58,9.86c.33,2.54.96,5.07,2.2,8.42,1.77,4.88,4.02,9.05,7.13,13.21-1.91,1.1-3.54,2.39-4.83,3.73-4.02-5.74-6.46-10.96-8.52-18.14-.05-.19-.53-2.06-1.48-5.65l5.5-1.58Z"/><path class="cls-1" d="m118.66,23.31c-1.58,0-3.02.05-4.02.14.1-1.48.19-3.11.19-4.74V6.89c0-1.87-.05-3.21-.19-4.4,1.44.14,2.78.19,4.6.19h11.82c2.01,0,3.16-.05,4.4-.19-.1,1.24-.14,2.44-.14,4.45v12.25c0,2.44,0,3.3.1,4.26-.91-.1-2.2-.14-3.83-.14h-4.26v3.93h4.26c1.92,0,3.06-.05,4.4-.24v5.03c-1.29-.19-2.44-.24-4.4-.24h-4.26v4.21c3.45-.53,4.88-.77,8.71-1.63l.1,4.4c-6.94,1.63-10.63,2.3-16.94,3.26-3.26.48-3.59.53-5.03.86l-1-5.55c2.87-.05,4.64-.14,9.62-.72v-4.83h-4.31c-1.67,0-3.01.1-4.36.24v-5.03c1.29.14,2.63.24,4.36.24h4.31v-3.93h-4.12Zm.38-16.08v3.69h3.73v-3.69h-3.73Zm0,7.95v3.83h3.73v-3.83h-3.73Zm8.28-4.26h3.83v-3.69h-3.83v3.69Zm0,8.09h3.83v-3.83h-3.83v3.83Zm23.84-3.93l-2.3,2.44h2.49c2.01,0,3.02-.05,3.93-.19l2.58,3.16c-.53,1.1-.57,1.2-1.1,2.35-1.53,3.4-2.73,5.5-4.74,8.23-2.06-1.58-2.44-1.82-3.88-2.58,1.72-2.06,2.78-3.59,3.93-5.94h-4.26v17.14c0,3.64-1.48,4.69-6.65,4.69-.81,0-1.92-.05-3.59-.14-.19-2.06-.33-2.73-1.15-5.07,1.91.29,3.83.48,4.88.48,1.15,0,1.53-.29,1.53-1.15v-15.94h-2.25c-1.96,0-3.02.05-4.31.24v-5.5c1.29.19,2.2.24,4.31.24h5.98c-2.11-1.77-4.64-3.45-8.52-5.65l2.73-3.4c2.39,1.29,3.16,1.72,4.64,2.68,1.72-1.44,2.73-2.44,3.69-3.64h-7.56c-1.68,0-2.97.1-4.31.24V2.39c1.29.19,2.63.24,4.64.24h7.75c2.01,0,3.02-.05,3.93-.19l2.78,3.16c-.77.91-1.1,1.39-1.87,2.35-2.44,3.02-3.26,3.88-5.27,5.74l1.96,1.39Z"/><path class="cls-1" d="m182.25,7.75h-12.54c-2.25,0-4.07.1-6.08.29V2.63c1.82.19,3.69.29,6.03.29h27.72c2.25,0,4.12-.1,6.08-.29v5.41c-1.91-.19-3.97-.29-6.08-.29h-9.62v11.68h8.19c2.3,0,3.83-.1,5.36-.29v5.31c-1.48-.19-3.25-.29-5.36-.29h-8.19v13.55h10.96c2.39,0,4.4-.1,6.32-.34v5.55c-1.87-.24-3.73-.34-6.27-.34h-30.59c-2.39,0-4.26.1-6.32.34v-5.55c1.77.29,3.06.34,6.22.34h1v-15.46c0-2.49-.1-4.45-.33-6.22h6.08c-.24,1.68-.33,3.69-.33,6.17v15.51h7.75V7.75Z"/><path class="cls-1" d="m219.73,8.66c-3.11.62-4.12.77-6.99,1.2-.38-1.63-.86-2.78-1.77-4.6,7.9-.81,15.46-2.68,18.43-4.6l3.11,4.4c-3.45,1.2-5.65,1.87-7.76,2.44v6.18h3.83c1.72,0,2.92-.05,4.02-.24v5.22c-1.2-.19-2.35-.24-4.12-.24h-3.49c1.87,3.45,4.12,6.08,7.66,8.95-.96,1.29-1.91,3.11-2.54,4.69-2.82-2.87-3.88-4.36-5.6-7.66.14,1.63.24,3.59.24,6.03v8.33c0,3.02.05,4.4.29,6.08h-5.7c.24-1.77.33-3.35.33-6.08v-7.99c0-1.91.1-4.12.24-5.74-1.39,3.49-2.06,4.83-3.26,6.75-1.34,2.06-2.35,3.35-4.16,5.27-.96-2.25-1.67-3.59-2.68-5.03,2.06-1.91,3.59-3.78,5.22-6.41,1.24-2.01,3.11-5.55,3.73-7.18h-3.45c-1.87,0-3.06.1-4.4.29v-5.31c1.24.24,2.35.29,4.5.29h4.31v-5.03Zm21.06-4.5c-.24,1.58-.29,2.97-.29,5.79v18.09c0,3.06.05,4.26.24,5.7h-5.65c.19-1.39.24-2.39.24-5.6V9.96c0-2.78-.05-4.12-.29-5.79h5.74Zm11.39-2.87c-.24,1.91-.33,3.78-.33,6.51v30.78c0,2.54-.62,3.93-2.15,4.74-1.15.62-2.78.81-6.65.81-1.2,0-1.91,0-3.54-.1-.38-2.15-.77-3.26-1.63-5.31,2.73.29,4.55.43,6.32.43,2.11,0,2.44-.19,2.44-1.44V7.8c0-2.39-.1-4.4-.29-6.51h5.84Z"/><path class="cls-1" d="m279.02,29.68c-2.73,6.17-5.79,9-9.72,9-5.46,0-9.38-5.55-9.38-13.26,0-5.27,1.87-10.2,5.27-13.93,4.02-4.4,9.67-6.7,16.47-6.7,11.49,0,18.96,6.99,18.96,17.76,0,8.28-4.31,14.89-11.63,17.85-2.3.96-4.16,1.44-7.52,2.01-.81-2.54-1.39-3.59-2.92-5.6,4.4-.57,7.28-1.34,9.53-2.63,4.16-2.3,6.65-6.85,6.65-11.97,0-4.6-2.06-8.33-5.89-10.63-1.48-.86-2.73-1.24-4.83-1.44-.91,7.52-2.59,14.12-4.98,19.53Zm-7.04-17.14c-4.02,2.87-6.51,7.8-6.51,12.92,0,3.93,1.68,7.04,3.78,7.04,1.58,0,3.21-2.01,4.93-6.13,1.82-4.31,3.4-10.77,3.97-16.18-2.49.29-4.21.96-6.18,2.35Z"/><path class="cls-1" d="m323.46,24.29v-5.23c2.59,0,4.34-.29,5.23-.87,1.6-1.02,2.39-2.65,2.39-4.89,0-1.74-.58-3.15-1.74-4.23-1.14-1.1-2.62-1.66-4.44-1.66-1.7,0-3.01.41-3.94,1.24-.89.84-1.56,2.26-2,4.26h-6.1c.63-3.82,1.93-6.62,3.89-8.4,1.96-1.78,4.71-2.67,8.23-2.67s6.46,1.05,8.7,3.16c2.24,2.09,3.37,4.78,3.37,8.07,0,3.72-1.47,6.61-4.42,8.68,3.37,1.98,5.05,5.2,5.05,9.65,0,3.65-1.23,6.63-3.68,8.94s-5.6,3.47-9.44,3.47c-4.89,0-8.52-1.8-10.89-5.39-.98-1.51-1.6-3.59-1.87-6.26h5.92c.32,1.96,1.08,3.47,2.3,4.51,1.22,1.04,2.81,1.56,4.77,1.56s3.62-.66,4.92-1.97c1.3-1.35,1.95-3.06,1.95-5.13,0-2.73-.97-4.68-2.92-5.84-1.14-.67-2.9-1-5.28-1Z"/><path class="cls-1" d="m346.64,22.58c0-6.47,1.51-11.63,4.52-15.49,2.7-3.49,5.97-5.23,9.81-5.23s7.11,1.74,9.81,5.23c3.01,3.86,4.52,9.11,4.52,15.75s-1.51,11.87-4.52,15.72c-2.7,3.49-5.96,5.23-9.78,5.23s-7.1-1.74-9.83-5.23c-3.01-3.86-4.52-9.18-4.52-15.99Zm6.02.03c0,4.5.78,8.25,2.34,11.23,1.56,2.93,3.55,4.39,5.97,4.39s4.39-1.46,5.97-4.39c1.58-2.91,2.37-6.58,2.37-11.02s-.79-8.12-2.37-11.04c-1.58-2.91-3.57-4.36-5.97-4.36s-4.36,1.46-5.94,4.36c-1.58,2.89-2.37,6.5-2.37,10.83Z"/><path class="cls-1" d="m417.71,2.15c2.54,0,3.73-.05,5.07-.19-.19,1.72-.24,2.97-.24,5.41v31.74c0,4.02-1.44,4.98-7.56,4.98-1,0-3.02-.05-5.27-.14-.29-1.96-.67-3.3-1.48-5.22,3.06.33,5.41.48,6.99.48,2.01,0,2.25-.1,2.25-1.15V6.8h-27.05v5.46c0,12.45-.57,19.58-2.01,24.46-.96,3.35-1.77,5.17-3.64,8.23-1.15-1.53-2.44-2.87-4.31-4.21,1.63-2.3,2.58-4.45,3.25-7.13,1.1-4.55,1.63-11.82,1.63-23.31,0-4.83-.05-6.13-.24-8.33,1.48.14,2.63.19,5.07.19h27.52Zm-16.42,12.69h-4.64c-1.53,0-2.68.05-3.64.19v-4.6c1.1.14,2.11.19,3.69.19h4.55c0-1.58-.05-1.87-.14-2.87h5.31c-.14.96-.14,1.34-.19,2.87h4.83c1.48,0,2.49-.05,3.64-.19v4.6c-1-.14-2.11-.19-3.64-.19h-4.83v3.3h5.94c2.06,0,3.3-.05,4.31-.24v4.74c-1.2-.14-2.35-.19-4.31-.19h-16.47c-1.91,0-3.16.05-4.31.19v-4.74c1.1.19,2.06.24,4.36.24h5.55v-3.3Zm12.06,19.63c0,1.34.05,2.49.14,3.21-1.29-.1-2.2-.14-3.59-.14h-11.34v2.87h-5.22c.19-1.1.24-2.2.24-3.83v-8.52c0-1.58-.05-2.3-.19-3.26,1.58.14,2.01.14,3.54.14h12.83c2.11,0,2.63,0,3.73-.14-.1,1.01-.14,1.77-.14,3.35v6.32Zm-14.84-1.29h9.91v-4.07h-9.91v4.07Z"/><path class="cls-1" d="m437.78,19.2c0-1.05-.05-1.77-.14-2.78,1.01.1,2.06.14,3.35.14h10.44v-6.22h-10c-2.49,3.88-4.83,6.65-7.9,9.43-1.39-2.06-1.91-2.68-3.54-4.26,4.88-4.16,7.37-7.32,9.33-12.01.67-1.53,1-2.54,1.15-3.49l5.7,1.15c-.29.57-.38.72-.72,1.44-.05.14-.53,1.15-1.39,3.02h22.4c2.25,0,3.45-.05,4.88-.24v5.22c-1.48-.19-2.73-.24-4.88-.24h-9.77v6.22h7.71c2.2,0,3.49-.05,4.93-.24v5.07c-1.44-.14-2.73-.19-4.79-.19h-7.85v7.75h11.11c2.2,0,3.73-.1,5.22-.29v5.46c-1.48-.19-3.16-.29-5.22-.29h-11.11v5.98c0,2.44.05,3.73.29,5.12h-5.84c.19-1.39.29-2.68.29-5.22v-5.89h-16.08c-2.11,0-3.64.1-5.22.29v-5.46c1.53.19,3.06.29,5.22.29h2.44v-9.76Zm13.64,9.76v-7.75h-8.62v7.75h8.62Z"/><path class="cls-1" d="m480.29,6.41c1.96.43,5.03.62,11.11.62,1.29-2.87,1.72-4.31,1.91-5.94l6.27.67q-.29.48-1.91,4.31c-.24.53-.33.67-.43.86q.38-.05,3.01-.19c5.55-.33,9.91-.86,12.54-1.63l.33,5.46q-1.34.1-3.78.38c-3.49.43-9.57.81-14.41.96-1.39,2.73-2.73,4.64-4.4,6.37l.05.1q.33-.24.96-.72c1.77-1.34,4.31-2.15,6.75-2.15,3.73,0,6.08,1.77,6.84,5.07,3.69-1.34,6.13-2.2,7.32-2.58,2.59-.91,2.78-.96,3.54-1.44l2.25,5.5c-1.34.19-2.78.57-5.31,1.29-.67.19-3.06,1.01-7.18,2.44v.53q.05,1.24.05,1.91v1.91c-.05.81-.05,1.24-.05,1.58,0,1.05.05,1.72.14,2.54l-5.55.14c.19-.86.29-3.3.29-5.55v-1.15c-2.35,1.1-3.59,1.77-4.6,2.49-1.68,1.24-2.49,2.54-2.49,3.93,0,2.49,2.3,3.49,8.09,3.49s10.67-.72,14.07-2.01l.48,6.18c-.81,0-1.05.05-2.2.19-3.45.53-8.04.86-12.25.86-5.07,0-8.23-.57-10.67-2.01-2.2-1.24-3.49-3.54-3.49-6.17,0-1.96.57-3.49,2.11-5.31,2.15-2.68,4.88-4.5,10.29-6.75-.24-1.77-1.2-2.58-2.92-2.58-2.78,0-6.13,1.68-9.81,4.93-2.01,1.68-3.11,2.87-4.16,4.36l-4.36-4.31c1.24-.96,2.63-2.3,4.31-4.26,1.87-2.2,4.79-6.37,5.74-8.19q.19-.38.38-.62c-.19,0-.81.05-.81.05-.77,0-4.98-.1-6.03-.1q-.91-.05-1.34-.05c-.14,0-.43,0-.77.05l.1-5.46Z"/><path class="cls-1" d="m535.49,39.44c0,2.39.1,3.69.29,5.17h-5.6c.24-1.53.29-2.73.29-5.17v-11.63c-1.87,1.82-2.97,2.73-5.5,4.6-.57-2.06-1.1-3.35-2.2-5.27,3.01-1.82,4.93-3.49,7.47-6.27,2.44-2.63,3.78-4.6,5.41-7.85h-7.13c-1.77,0-2.82.05-4.02.19v-5.03c1.1.14,2.01.19,3.73.19h2.25v-4.26c0-1.29-.1-2.35-.29-3.73h5.6c-.14,1.1-.24,2.3-.24,3.78v4.21h1.34c1.39,0,2.25-.05,2.87-.14l2.39,2.78q-.48.81-2.15,4.4c-.57,1.24-1.91,3.35-3.4,5.46,1.67,1.72,3.69,3.21,6.61,4.83-1.05,1.58-1.63,2.68-2.39,4.69-2.01-1.34-3.21-2.35-5.31-4.5v13.55Zm10.82-17.52c-1.53,0-2.54.05-3.88.19.14-1.29.19-2.35.19-4.02V6.51c0-1.39-.05-2.68-.19-4.12,1.29.14,2.44.19,4.5.19h14.17c1.96,0,3.06-.05,4.36-.19-.14,1.24-.19,2.54-.19,4.12v11.49c0,1.63.05,2.87.19,4.12-1.24-.14-2.35-.19-3.93-.19h-1.87v16.37c0,.77.29.91,1.72.91s1.96-.1,2.25-.43c.38-.48.43-1.15.48-7.99,1.72,1.2,2.68,1.63,4.55,2.01-.33,7.99-.62,9.43-2.15,10.34-.96.62-2.87.86-6.13.86-2.92,0-4.02-.24-4.88-1.1-.57-.57-.77-1.24-.77-2.68v-18.29h-2.49c-.24,5.5-.81,8.47-2.35,12.21-1.15,2.87-2.58,4.98-4.6,6.99-1.53,1.48-2.63,2.25-5.12,3.64-1.2-1.82-1.91-2.68-3.59-4.31,3.06-1.34,4.64-2.44,6.41-4.55,2.82-3.35,4.16-7.71,4.36-13.98h-1.05Zm1.34-4.64h12.64V7.37h-12.64v9.91Z"/><path class="cls-1" d="m584.69,2.68c-.29,1.39-.38,2.78-.57,6.46-.19,4.45-.48,14.17-.48,17.57,0,4.55.29,6.27,1.24,7.71,1.1,1.58,3.4,2.49,6.41,2.49,5.17,0,9.33-2.92,11.58-8.19,1.05-2.49,1.67-4.74,2.2-8.04,2.59,2.11,3.45,2.63,5.79,3.69-1.91,6.46-3.35,9.57-5.7,12.21-3.59,4.07-8.33,6.08-14.36,6.08-3.3,0-6.37-.77-8.38-2.11-3.3-2.2-4.69-5.89-4.69-12.3,0-2.49.1-7.28.38-19.29.05-1.44.05-2.44.05-3.11,0-1.34-.05-2.01-.19-3.26l6.7.1Z"/><path class="cls-1" d="m614.33,7.56c1.05.05,1.58.05,1.82.05q.86,0,7.9-.48c2.68-.14,10.63-.57,23.89-1.2,3.93-.19,4.64-.24,5.5-.48l.33,6.13q-.53-.05-1-.05c-2.87,0-6.41.96-9.48,2.58-6.08,3.16-9.67,7.95-9.67,12.78,0,3.73,2.35,6.61,6.37,7.8,2.35.72,5.41,1.24,7.13,1.24.05,0,.48,0,.96-.05l-.86,6.51c-.57-.14-.81-.19-1.63-.29-5.27-.67-8.28-1.53-11.2-3.16-4.4-2.49-6.85-6.56-6.85-11.54,0-4.07,1.63-8.09,4.55-11.3,1.82-1.96,3.54-3.21,6.65-4.79-3.88.57-5.74.72-16.13,1.48-3.21.24-6.08.57-7.95.96l-.33-6.22Z"/><path class="cls-1" d="m695.32,2.15c2.54,0,3.73-.05,5.07-.19-.19,1.72-.24,2.97-.24,5.41v31.74c0,4.02-1.44,4.98-7.56,4.98-1.01,0-3.02-.05-5.27-.14-.29-1.96-.67-3.3-1.48-5.22,3.06.33,5.41.48,6.99.48,2.01,0,2.25-.1,2.25-1.15V6.8h-27.05v5.46c0,12.45-.57,19.58-2.01,24.46-.96,3.35-1.77,5.17-3.64,8.23-1.15-1.53-2.44-2.87-4.31-4.21,1.63-2.3,2.58-4.45,3.26-7.13,1.1-4.55,1.63-11.82,1.63-23.31,0-4.83-.05-6.13-.24-8.33,1.48.14,2.63.19,5.07.19h27.52Zm-16.42,12.69h-4.64c-1.53,0-2.68.05-3.64.19v-4.6c1.1.14,2.11.19,3.69.19h4.55c0-1.58-.05-1.87-.14-2.87h5.31c-.14.96-.14,1.34-.19,2.87h4.83c1.48,0,2.49-.05,3.64-.19v4.6c-1.01-.14-2.11-.19-3.64-.19h-4.83v3.3h5.94c2.06,0,3.3-.05,4.31-.24v4.74c-1.2-.14-2.35-.19-4.31-.19h-16.47c-1.92,0-3.16.05-4.31.19v-4.74c1.1.19,2.06.24,4.36.24h5.55v-3.3Zm12.06,19.63c0,1.34.05,2.49.14,3.21-1.29-.1-2.2-.14-3.59-.14h-11.34v2.87h-5.22c.19-1.1.24-2.2.24-3.83v-8.52c0-1.58-.05-2.3-.19-3.26,1.58.14,2.01.14,3.54.14h12.83c2.11,0,2.63,0,3.73-.14-.1,1.01-.14,1.77-.14,3.35v6.32Zm-14.84-1.29h9.91v-4.07h-9.91v4.07Z"/><path class="cls-1" d="m715.39,19.2c0-1.05-.05-1.77-.14-2.78,1,.1,2.06.14,3.35.14h10.44v-6.22h-10c-2.49,3.88-4.83,6.65-7.9,9.43-1.39-2.06-1.91-2.68-3.54-4.26,4.88-4.16,7.37-7.32,9.33-12.01.67-1.53,1.01-2.54,1.15-3.49l5.7,1.15c-.29.57-.38.72-.72,1.44-.05.14-.53,1.15-1.39,3.02h22.4c2.25,0,3.45-.05,4.88-.24v5.22c-1.48-.19-2.73-.24-4.88-.24h-9.77v6.22h7.71c2.2,0,3.49-.05,4.93-.24v5.07c-1.44-.14-2.73-.19-4.79-.19h-7.85v7.75h11.11c2.2,0,3.73-.1,5.22-.29v5.46c-1.48-.19-3.16-.29-5.22-.29h-11.11v5.98c0,2.44.05,3.73.29,5.12h-5.84c.19-1.39.29-2.68.29-5.22v-5.89h-16.08c-2.11,0-3.64.1-5.22.29v-5.46c1.53.19,3.06.29,5.22.29h2.44v-9.76Zm13.64,9.76v-7.75h-8.62v7.75h8.62Z"/><path class="cls-1" d="m779.86,1.05c2.11,3.21,4.5,5.7,8.19,8.52,3.64,2.82,7.61,5.03,12.06,6.85-1.1,1.58-1.77,2.92-2.63,5.27-4.07-1.82-8.42-4.5-11.82-7.23-3.73-3.02-5.74-5.07-8.38-8.57-2.63,3.54-4.4,5.41-7.9,8.38-3.69,3.11-7.61,5.7-11.92,7.85-.81-2.2-1.34-3.26-2.68-5.12,4.16-1.82,8.14-4.26,11.78-7.23,3.35-2.73,5.79-5.5,7.8-8.71h5.5Zm1.1,37.1h11.92c2.68,0,4.5-.1,6.03-.33v5.74c-1.53-.24-3.49-.34-6.03-.34h-31.16c-2.68,0-4.6.1-6.13.34v-5.74c1.29.24,3.06.33,5.7.33h2.11v-11.49c0-2.2-.1-3.73-.29-5.46h5.89c-.24,1.48-.33,3.06-.33,5.41v11.54h6.99v-19.53c0-2.3-.1-3.78-.29-5.31h5.89c-.19,1.48-.29,2.78-.29,5.17v4.74h7.9c2.35,0,3.88-.1,5.27-.24v5.55c-1.44-.14-3.01-.24-5.22-.24h-7.95v9.86Z"/><path class="cls-1" d="m811.06,6.7c-2.15,0-3.93.1-5.89.29V1.72c1.77.19,3.54.29,5.79.29h31.59c2.15,0,4.02-.1,5.89-.29v5.27c-1.72-.19-3.88-.29-5.84-.29h-13.5v4.26h5.7c1.72,0,2.82-.05,3.93-.19-.14,1.05-.19,2.06-.19,3.59v17.14c0,1.77.05,2.49.19,3.54-1.24-.14-2.01-.19-4.21-.19h-15.46c-2.3,0-3.06.05-4.31.19.14-1.15.19-1.82.19-3.54V14.36c0-1.53-.05-2.39-.19-3.59,1.1.14,2.2.19,3.93.19h5.55v-4.26h-13.16Zm36.28,4.98c-.19,1.68-.29,3.69-.29,5.36v21.44c0,2.49.1,4.4.33,6.41h-5.55v-2.25h-30.2v2.25h-5.46c.19-2.01.29-3.83.29-6.37v-21.54c0-1.91-.1-3.59-.29-5.31h5.55c-.14,1.1-.19,2.11-.19,4.26v22.07h30.44V15.84c0-1.91-.05-2.97-.24-4.16h5.6Zm-27.76,3.73v5.03h4.64v-5.03h-4.64Zm0,9.33v5.84h4.64v-5.84h-4.64Zm9.53-4.31h4.83v-5.03h-4.83v5.03Zm0,10.15h4.83v-5.84h-4.83v5.84Z"/><path class="cls-1" d="m858.78,29.87c4.4,3.35,7.08,5.98,10.77,10.53l-4.45,4.16c-3.49-4.74-6.22-7.61-10.39-10.91l4.07-3.78Z"/><path class="cls-1" d="m230.81,95.17c-4.21,4.4-9.96,7.85-16.61,10-.96-1.77-1.68-2.82-3.11-4.55,6.65-1.58,12.3-4.4,16.32-8.09h-8.28c-.24.81-.38,1.24-.72,2.39l-5.6-.1c1.34-3.16,2.11-5.7,2.73-8.86.38-2.11.67-4.21.72-5.22.86.1,2.2.14,4.55.14h9.81l-.05-3.11h-10.72c-1.87,0-3.11.05-4.4.19v-4.64c-.53.53-.77.72-1.44,1.34-.96-1.58-1.96-2.82-3.11-3.88,4.07-3.11,6.41-6.13,7.51-9.72l5.12.96c-.67,1.24-.86,1.63-1.44,2.58h6.13c2.3,0,3.54-.05,4.69-.29v3.88c1.87-2.15,3.01-4.31,3.88-7.13l5.07.91c-.38,1.01-.43,1.1-1.2,2.68h9.1c2.58,0,3.69-.05,5.27-.29v4.93c-1.48-.19-2.87-.24-5.03-.24h-3.73c.91,1.34,1.34,2.06,2.11,3.3l-3.93,1.15h2.3c2.34,0,3.21-.05,4.45-.19-.14.96-.19,1.72-.19,3.45v4.93c0,1.72.05,2.49.19,3.49-1.2-.1-2.54-.14-4.45-.14h-11.06l.05,3.21h13.64c1.82,0,2.97-.05,4.12-.19-.1.67-.14.96-.19,1.48-.14,1.82-.33,3.35-.43,4.55-.48,4.64-.81,5.89-1.77,6.99-.91,1.05-2.35,1.44-5.6,1.44-1.44,0-2.39-.05-4.45-.19-.29-1.91-.57-3.02-1.2-4.69,1.82.24,4.12.48,5.17.48,2.63,0,2.78-.24,3.11-5.6h-12.35l.1,7.99c.05,2.54.14,3.83.38,5.31h-5.65c.24-1.39.29-2.25.29-4.12v-1.24l-.1-5.31Zm-6.8-21.64c-.57-1.58-1.2-2.82-2.15-4.5h-2.63c-1.24,1.72-2.15,2.78-3.73,4.31,1.1.14,2.15.19,4.36.19h4.16Zm6.65,11.54h-9.81c-.19,1.2-.24,1.48-.62,3.21h10.48l-.05-3.21Zm2.73-11.54c-.72-.96-1.72-1.87-3.06-2.87.81-.67,1.05-.91,1.72-1.53-.77-.05-1.68-.1-2.68-.1h-2.63c.57.91.86,1.39,1.92,3.26l-3.97,1.24h8.71Zm10.15,0c-.53-1.24-1.44-2.87-2.44-4.45h-2.92c-1.24,1.82-2.35,3.06-3.88,4.45h9.24Zm-7.9,7.37h10.39v-3.11h-10.44l.05,3.11Z"/><path class="cls-1" d="m303.52,85.89c-2.2-.24-4.4-.34-7.28-.34h-28.34c-2.68,0-5.17.14-7.32.34v-6.32c2.06.24,4.21.34,7.32.34h28.34c3.21,0,5.41-.1,7.28-.34v6.32Z"/><path class="cls-1" d="m321.28,84.31c1.87,0,2.68-.05,3.69-.14q-.05.72-.19,2.11c0,.14-.05,1.01-.1,2.3-.29,5.94-.96,10.63-1.92,12.92-1.1,2.68-2.78,3.49-7.18,3.49-.57,0-.86,0-3.69-.19-.05-2.2-.24-3.4-.96-5.27,1.67.24,3.78.43,4.74.43,2.01,0,2.44-.38,3.06-2.73.43-1.77.72-4.21.91-8.38h-5.17c-1.58,0-2.39.05-3.54.1.86-5.07,1.29-10.34,1.29-15.17,1.15.14,1.67.19,3.59.19h4.26v-5.84h-4.83c-1.77,0-3.02.1-4.16.24v-5.12c1.29.19,2.49.24,4.6.24h5.6c2.15,0,2.87-.05,3.88-.14-.1,1.1-.14,2.15-.14,3.64v7.23q0,2.92.14,4.36c-1.1-.1-1.63-.1-3.26-.1h-4.79c-.1,1.63-.24,3.59-.48,5.84h4.64Zm10.15,5.74c-1.87,0-3.26.05-4.5.19.1-1.1.14-2.01.14-4.16v-11.25c0-2.2-.05-3.21-.14-4.21.77.1,1.34.14,2.73.19-.91-2.92-1.53-4.26-3.35-7.37l4.6-1.63c1.63,2.92,2.54,4.83,3.45,7.37l-4.5,1.63h13.93c1.96-3.4,3.11-5.98,4.16-9.53l4.98,1.68c-1.87,4.21-2.44,5.46-3.88,7.85,1.77,0,2.54-.05,3.59-.19-.14,1.24-.19,2.63-.19,4.4v10.82c0,1.72.05,3.21.19,4.4-1.2-.14-2.44-.19-4.4-.19h-6.22v2.97h7.08c2.87,0,4.26-.05,5.6-.24v5.03c-1.82-.19-3.64-.29-5.65-.29h-7.04v3.02c0,2.73.05,3.88.29,5.36h-5.55c.24-1.48.29-2.68.29-5.41v-2.97h-5.94c-2.2,0-4.21.1-5.79.29v-5.03c1.24.14,3.01.24,5.7.24h6.03v-2.97h-5.6Zm.38-15.08v3.3h5.22v-3.3h-5.22Zm0,7.32v3.54h5.22v-3.54h-5.22Zm6.7-12.21c-.77-2.78-1.58-4.83-3.11-7.71l4.55-1.39c1.44,2.78,2.3,4.88,3.11,7.61l-4.55,1.48Zm3.49,8.19h5.65v-3.3h-5.65v3.3Zm0,7.56h5.65v-3.54h-5.65v3.54Z"/><path class="cls-1" d="m379.84,90.58c-2.73,6.18-5.79,9-9.72,9-5.46,0-9.38-5.55-9.38-13.26,0-5.27,1.87-10.2,5.27-13.93,4.02-4.4,9.67-6.7,16.47-6.7,11.49,0,18.96,6.99,18.96,17.76,0,8.28-4.31,14.89-11.63,17.85-2.3.96-4.16,1.44-7.52,2.01-.81-2.54-1.39-3.59-2.92-5.6,4.4-.57,7.28-1.34,9.53-2.63,4.16-2.3,6.65-6.85,6.65-11.97,0-4.6-2.06-8.33-5.89-10.63-1.48-.86-2.73-1.24-4.83-1.44-.91,7.52-2.59,14.12-4.98,19.53Zm-7.04-17.14c-4.02,2.87-6.51,7.8-6.51,12.92,0,3.93,1.68,7.04,3.78,7.04,1.58,0,3.21-2.01,4.93-6.13,1.82-4.31,3.4-10.77,3.97-16.18-2.49.29-4.21.96-6.18,2.35Z"/><path class="cls-1" d="m412.19,70.42c-2.44,0-4.02.05-5.79.29v-5.27c1.67.24,3.45.34,6.13.34h12.64c-.05-1.96-.1-2.78-.33-4.31h5.84c-.24,1.48-.29,2.49-.29,4.31h13.07c2.97,0,4.79-.1,6.27-.34v5.27c-1.58-.19-3.59-.29-5.94-.29h-13.4v2.68h10c2.92,0,3.83-.05,5.31-.19-.14,1.44-.19,3.02-.19,4.83v8.86q0,2.68.19,4.88c-1.39-.19-2.73-.24-5.36-.24h-5.74c4.26,4.02,9.33,6.51,16.61,8.19-1.24,1.91-1.67,2.78-2.73,5.07-3.88-1.29-6.75-2.58-9.81-4.36-3.54-2.11-5.79-3.93-8.38-6.89.05,1.58.1,2.49.1,3.3v3.45c0,2.44.05,3.83.33,5.46h-5.89c.24-1.87.33-3.26.33-5.46v-3.45c0-.57.05-2.35.1-3.25-2.44,3.02-5.36,5.41-9.14,7.56-2.3,1.34-5.31,2.68-8.19,3.69-1.05-2.39-1.48-3.21-2.68-4.83,3.59-1.01,6.08-1.96,9-3.54,2.92-1.58,5.22-3.25,6.84-4.93h-5.17c-2.97,0-3.93.05-5.41.24q0-.48.14-1.39,0-.19.05-3.49v-8.81c0-2.49-.05-3.25-.19-4.93,1.29.19,2.44.24,5.22.24h9.43v-2.68h-12.97Zm3.59,6.8v2.92h9.38v-2.92h-9.38Zm0,6.89v3.02h9.38v-3.02h-9.38Zm14.6-3.97h10.05v-2.92h-10.05v2.92Zm0,6.99h10.05v-3.02h-10.05v3.02Z"/><path class="cls-1" d="m468.92,73.68c3.11,2.2,3.21,2.25,5.98,4.79,3.35-2.73,5.07-4.5,8.19-8.28h-12.59c-3.73,4.02-7.61,6.99-12.92,9.96-.81-1.63-1.63-2.58-3.26-4.02,7.85-3.83,14.17-9.57,16.99-15.46l5.65,1.39c-1.24,1.82-1.68,2.39-2.49,3.49h9.81c1.82,0,2.97-.05,4.21-.24l2.82,3.02c-.57.72-.62.77-1.72,2.2-4.16,5.46-8.76,9.86-14.41,13.83h15.51c1.91,0,2.87-.05,4.02-.19-.19,1.29-.24,2.54-.24,4.4v12.3c0,1.91.1,3.49.29,4.74h-5.46v-2.58h-18.28v2.58h-5.55c.19-1.44.29-3.02.29-4.74v-10.39c-2.92,1.63-4.79,2.49-9.09,4.31-.81-2.06-1.48-3.06-3.06-4.79,4.12-1.34,8.04-3.02,11.49-4.88,1.53-.86,3.11-1.87,5.7-3.59-2.01-2.11-3.35-3.26-5.84-5.03l3.97-2.82Zm2.06,24.8h18.38v-9.43h-18.38v9.43Z"/><path class="cls-1" d="m503.69,67.31c0-1.72-.05-3.3-.14-4.6.91.1,1.77.14,3.11.14h8.19c1.58,0,2.35-.05,3.21-.19l2.49,3.59q-.24.43-.48,1.01s-.05.19-.14.38c-.05.1-.14.48-.33,1.01-1,2.73-2.06,5.03-4.16,9.19,2.44,3.78,3.49,6.7,3.49,9.77,0,4.69-2.25,6.7-7.51,6.7h-.96c-.05-2.44-.29-3.54-1-4.88,1.68.14,1.96.14,2.35.14.91,0,1.53-.1,1.77-.24.43-.29.67-.96.67-1.82,0-1.1-.29-2.44-.77-3.78-.77-2.01-1.53-3.21-3.59-5.46,2.15-3.49,3.16-5.84,4.74-10.82h-5.89v33.12c0,1.91.05,3.35.24,4.93h-5.55c.19-1.34.29-3.06.29-5.5v-32.69Zm40.78,9.48c-.38.96-.38,1.05-1.44,4.93-1.24,4.5-2.97,8.47-5.22,11.92,2.54,2.82,5.03,4.6,9.19,6.65-1.2,1.53-1.82,2.73-2.63,5.22-4.6-2.78-7.13-4.83-9.67-7.75-3.11,3.4-5.74,5.36-10.82,7.99-1-1.77-2.11-3.11-3.4-4.21,4.93-2.2,8.09-4.4,11.15-7.9-2.73-4.45-3.83-7.75-4.88-14.7h-.72c-.33,7.42-1.05,11.44-2.73,15.89-1.63,4.21-3.49,6.99-7.18,10.87-1.67-1.96-2.35-2.58-4.12-3.69,3.83-3.4,5.7-6.13,7.18-10.39.91-2.73,1.44-6.13,1.72-11.97.19-3.59.33-7.8.33-10.67,0-2.54-.05-4.36-.19-5.84,1.68.14,3.54.24,5.65.24h13.45c2.3,0,3.88-.1,5.36-.29v5.31c-1.63-.19-2.87-.24-5.22-.24h-14.07v6.13h11.87c1.91,0,3.02-.05,3.88-.24l2.49,2.73Zm-13.16,2.15c.81,4.64,1.77,7.61,3.4,10.44,1.82-3.16,2.63-5.36,3.88-10.44h-7.28Z"/><path class="cls-1" d="m558.21,67.31c2.49,4.4,4.02,8.09,5.79,14.07l-5.89,1.82c-1.34-5.36-3.21-10.29-5.46-14.26l5.55-1.63Zm34.03.24c-.43,1.05-.53,1.39-1.2,4.64-3.4,15.37-11.01,24.99-25.37,31.98-1.29-2.3-1.92-3.16-4.21-5.36,5.31-1.96,9.57-4.6,13.45-8.33,3.88-3.64,6.41-7.66,8.38-13.16,1.48-4.12,2.3-8.04,2.39-11.25l6.56,1.48Zm-21.54-2.54c2.3,3.93,4.12,8.19,5.74,13.55l-5.84,1.87c-1.39-5.31-2.82-9-5.36-13.88l5.46-1.53Z"/><path class="cls-1" d="m620.93,74.78c-.14.91-.14.96-.19,3.88-.19,8.19-1.48,12.78-4.74,16.95-2.87,3.69-6.37,6.13-12.35,8.62-1.24-2.58-1.87-3.45-3.78-5.46,3.88-1.15,6.03-2.2,8.38-4.07,4.88-3.88,6.41-7.99,6.41-17.04,0-1.44-.05-1.87-.24-2.87h6.51Zm19.43-6.03c-.67.81-.67.86-1.91,3.35-1.68,3.54-4.45,7.13-7.37,9.62-1.92,1.68-3.49,2.73-5.74,3.97-1.44-2.01-2.15-2.73-4.31-4.36,3.21-1.44,5.03-2.54,6.99-4.4,1.96-1.82,3.45-3.78,4.55-6.08h-25.13c-3.35,0-4.55.05-6.51.29v-5.98c1.82.29,3.3.38,6.61.38h24.99c2.87,0,3.3-.05,4.64-.43l3.21,3.64Z"/><path class="cls-1" d="m643.89,80.05c2.11.29,3.02.34,7.76.34h25.51c4.74,0,5.65-.05,7.75-.34v6.65c-1.91-.24-2.44-.24-7.8-.24h-25.42c-5.36,0-5.89,0-7.8.24v-6.65Z"/><path class="cls-1" d="m701.94,92.11c.05-1.01.1-1.48.1-2.06q0-.53-.14-3.4l-.67-16.28c-.1-2.11-.24-4.5-.43-5.84h7.85c-.14,1.29-.33,3.78-.43,5.84l-.67,16.28q-.1,2.78-.1,3.45c0,.57,0,1.05.1,2.01h-5.6Zm-.67,10.48v-6.56h6.94v6.56h-6.94Z"/><path class="cls-1" d="m5.22,145.44c-2.01,0-3.11.05-4.36.19v-5.12c1.2.19,2.2.24,4.45.24h1.15c-.67-2.68-1.15-3.93-2.11-5.65l4.21-1.05h-2.25c-2.11,0-3.21.05-4.5.19v-5.12c1.2.19,2.3.24,4.6.24h3.64v-.72c0-1.63-.05-2.3-.24-3.49h5.79c-.19,1.15-.24,1.77-.24,3.49v.72h3.25c2.25,0,3.21-.05,4.45-.24v5.12c-1.29-.14-2.44-.19-4.5-.19h-1.96l4.07,1.15q-.29.62-.72,1.68-.29.48-.81,1.77c-.33.81-.53,1.15-1.05,2.11h.96c2.15,0,3.16-.05,4.4-.24v5.12c-1.34-.14-2.35-.19-4.4-.19h-3.88v3.4h3.69c2.06,0,3.11-.05,4.36-.24v5.03c-1.24-.14-2.34-.19-4.36-.19h-1.77c1.44,1.68,2.63,2.68,4.93,4.21-1.05,1.77-1.58,2.78-2.3,4.55-2.39-2.15-3.16-2.97-4.69-5.17q.05.62.1,1.87c0,.14.05,1.63.05,1.87v4.79c0,1.68.1,2.82.29,3.97h-5.5c.14-1.1.24-2.25.24-3.78v-4.79c0-.91.05-2.15.14-3.26-1.96,3.69-4.16,6.18-7.9,8.86-.67-1.96-1.34-3.3-2.44-4.88,3.64-2.25,6.32-4.88,8.38-8.23h-3.11c-2.06,0-3.06.05-4.36.24v-5.07c1.25.19,2.2.24,4.45.24h4.83v-3.4h-4.98Zm3.69-11.39c1.05,2.06,1.44,3.06,2.06,5.55l-4.26,1.15h6.56c1.34-2.49,1.96-4.02,2.68-6.7h-7.04Zm31.98,5.79c2.11,0,3.3-.1,4.36-.29v5.31c-1.2-.14-1.96-.19-3.83-.19h-1.2v19.29c0,2.87.05,4.21.29,5.65h-5.6c.24-1.48.29-2.87.29-5.65v-19.29h-5.12c-.05,6.08-.62,11.11-1.77,15.46-.96,3.73-2.44,7.08-4.26,9.62-1.91-1.58-2.73-2.11-4.74-3.16,4.55-5.55,5.74-11.82,5.74-29.97,0-4.02-.05-5.55-.29-7.47,5.41-.14,13.69-2.25,16.13-4.07l3.93,4.64c-.53.14-.72.24-1.58.53-3.83,1.44-6.85,2.15-13.12,3.26v6.32h10.77Z"/><path class="cls-1" d="m74.95,133.62v-3.02c0-1.96-.05-3.3-.29-4.88h5.55c-.19,1.53-.29,2.97-.29,4.93v2.97h7.37c1.96,0,3.26-.05,4.88-.24-.14,1.58-.19,2.92-.19,4.55v26.57c0,1.87.1,3.3.29,4.88h-5.6v-2.2h-29.49v2.2h-5.55c.19-1.58.29-3.21.29-4.93v-26.52c0-1.63-.05-2.87-.24-4.55,1.63.19,2.92.24,4.93.24h6.94v-3.02c0-1.87-.1-3.21-.33-4.88h5.6c-.19,1.53-.29,2.87-.29,4.93v2.97h6.41Zm-17.76,4.83v9.05h6.37v-9.05h-6.37Zm0,13.83v10h6.37v-10h-6.37Zm17.76-4.79v-9.05h-6.41v9.05h6.41Zm0,14.79v-10h-6.41v10h6.41Zm11.73-14.79v-9.05h-6.75v9.05h6.75Zm0,14.79v-10h-6.75v10h6.75Z"/><path class="cls-1" d="m101.37,131.13c1.96.43,5.03.62,11.11.62,1.29-2.87,1.72-4.31,1.91-5.94l6.27.67q-.29.48-1.92,4.31c-.24.53-.33.67-.43.86q.38-.05,3.02-.19c5.55-.34,9.91-.86,12.54-1.63l.33,5.46q-1.34.1-3.78.38c-3.49.43-9.57.81-14.41.96-1.39,2.73-2.73,4.64-4.4,6.37l.05.1q.33-.24.96-.72c1.77-1.34,4.31-2.15,6.75-2.15,3.73,0,6.08,1.77,6.84,5.07,3.69-1.34,6.13-2.2,7.32-2.58,2.58-.91,2.78-.96,3.54-1.44l2.25,5.5c-1.34.19-2.78.57-5.31,1.29-.67.19-3.06,1.01-7.18,2.44v.53q.05,1.24.05,1.91v1.91c-.05.81-.05,1.24-.05,1.58,0,1.05.05,1.72.14,2.54l-5.55.14c.19-.86.29-3.3.29-5.55v-1.15c-2.34,1.1-3.59,1.77-4.6,2.49-1.67,1.24-2.49,2.54-2.49,3.93,0,2.49,2.3,3.49,8.09,3.49s10.67-.72,14.07-2.01l.48,6.17c-.81,0-1.05.05-2.2.19-3.45.53-8.04.86-12.25.86-5.07,0-8.23-.57-10.67-2.01-2.2-1.24-3.49-3.54-3.49-6.18,0-1.96.57-3.49,2.11-5.31,2.15-2.68,4.88-4.5,10.29-6.75-.24-1.77-1.2-2.58-2.92-2.58-2.78,0-6.13,1.68-9.81,4.93-2.01,1.68-3.11,2.87-4.16,4.36l-4.36-4.31c1.24-.96,2.63-2.3,4.31-4.26,1.87-2.2,4.79-6.37,5.74-8.19q.19-.38.38-.62c-.19,0-.81.05-.81.05-.77,0-4.98-.1-6.03-.1q-.91-.05-1.34-.05c-.14,0-.43,0-.77.05l.1-5.46Z"/><path class="cls-1" d="m179.35,146.5h5.79c2.2,0,3.3-.05,4.36-.24v4.21c-1.2-.19-2.44-.24-4.31-.24h-18.72c-1.2,0-1.96.05-3.59.14.05-1.24.1-2.06.1-3.64v-4.02c0-1.63,0-1.96.1-3.59-.53.86-1.29,1.77-2.35,2.73-.67-1.44-1.15-2.06-2.15-3.21h-1.77v7.47c1.48-.53,2.2-.77,4.79-1.77l-.05,4.69c-2.3.91-2.82,1.1-4.74,1.77v13.88l-.05.77c5.7-1.48,8.71-4.26,9.72-8.9h-2.97c-1.34,0-2.2.05-3.4.24v-4.98c1.24.19,2.2.24,3.78.24h15.75c1.82,0,2.92-.05,3.97-.14q-.24.86-.62,2.2c-.19.57-.57,1.77-.86,2.58h3.83c1.67,0,2.63-.05,3.49-.24-.24,1.48-.24,1.58-.43,2.78-.67,4.02-1.44,6.7-2.39,7.95-1.1,1.53-2.54,2.06-5.55,2.06-1.44,0-3.4-.1-5.55-.29-.24-2.06-.48-3.11-1.2-4.69,2.54.43,4.07.62,5.7.62,1.53,0,1.96-.14,2.44-.91.43-.72.53-1.05,1.05-3.11h-4.88c-1.15,0-2.25.05-3.02.14.62-1.34,1.05-2.54,1.63-4.45h-5.74c-.67,3.4-1.91,6.03-3.92,8.28-2.06,2.25-4.45,3.73-8.33,5.12-.81-1.63-1.53-2.78-2.54-4.07-.24,1.77-.77,2.44-2.3,2.92-1.39.43-2.54.57-4.55.57-.62,0-1.24-.05-2.44-.1-.14-2.01-.38-3.11-1.05-5.03,1.48.24,2.73.33,3.83.33,1.24,0,1.53-.29,1.53-1.39v-10.67c-1.2.38-1.58.53-2.59.81-.77.24-1.53.53-2.34.86l-.91-5.36c1.63-.14,2.92-.43,5.84-1.24v-8.95h-1.82c-1.29,0-2.35.05-3.49.19v-5.17c1.2.24,2.15.34,3.54.34h1.77v-3.69c0-2.25-.05-3.3-.29-4.83h5.65c-.19,1.58-.29,2.73-.29,4.79v3.73h.67c1.2,0,1.77-.05,2.63-.24v1.91c3.06-3.4,5.17-7.23,6.08-10.72l5.03,1.05c-.91,2.25-1.2,2.82-1.96,4.02h5.89c1.01-1.48,1.58-2.68,2.25-4.6l5.03.91c-1,1.87-1.48,2.63-2.2,3.69h4.69c2.15,0,3.21-.05,4.31-.19v4.31c-1.1-.19-2.15-.24-3.73-.24h-6.13v1.91h3.97c2.44,0,3.4-.05,4.4-.19v3.78c-1.1-.1-2.15-.14-4.4-.14h-3.97v1.87h3.97c2.44,0,3.4-.05,4.4-.19v3.78c-1-.1-2.11-.14-4.4-.14h-3.97v1.91Zm-4.6-12.59h-7.08v1.91h7.08v-1.91Zm0,5.36h-7.08v1.87h7.08v-1.87Zm-7.08,5.31v1.91h7.08v-1.91h-7.08Z"/><path class="cls-1" d="m200.39,138.79c1.29.14,1.77.14,2.82.14,4.64,0,11.01-.38,16.99-1.05,2.15-.24,3.02-.38,3.83-.77l3.21,4.12c-.91.62-1.91,1.48-4.07,3.59-2.58,2.49-6.7,6.18-8.19,7.32,1.2-.43,1.82-.57,2.92-.57,1.82,0,3.06.62,3.97,2.01.67,1.05.86,1.72,1.05,4.4.33,3.78.96,4.45,4.12,4.45s6.94-.72,9.43-1.82l.72,5.94c-.81.05-1.1.1-4.21.57-2.92.43-4.64.57-6.7.57-3.4,0-5.31-.53-6.7-1.82-1.34-1.24-1.72-2.39-1.96-6.17-.1-1.82-.19-2.49-.48-3.06-.33-.62-1.1-1.01-2.01-1.01-2.25,0-4.4,1.34-8.28,5.07-2.44,2.35-5.03,5.12-6.75,7.13l-4.4-4.98q2.11-1.44,11.11-9.57c1.1-1.01,1.96-1.82,5.55-5.27,1.29-1.24,3.16-3.02,5.6-5.31-2.73.43-3.97.62-6.22.81q-.67.05-4.83.38-.91.1-2.49.24c-1.77.14-2.11.19-3.69.38l-.33-5.74Zm5.94-12.4c5.41,1.68,11.63,2.54,19.05,2.68l-.91,5.36c-9.53-.57-13.26-1.15-19.87-2.82l1.72-5.22Z"/><path class="cls-1" d="m245.43,133.76c1.72.29,3.64.43,6.41.43.57,0,1.1,0,2.2-.05.43-2.3.91-5.98.91-7.32,0-.19,0-.48-.05-.86l6.32.57q-.33,1.1-.91,4.6c-.24,1.34-.29,1.63-.48,2.73,3.54-.34,5.79-.72,8.18-1.44l.24,5.5q-.38.05-1.53.24c-2.44.48-6.27.96-7.85,1.01-.53,2.97-1.72,8.04-2.97,12.4-1.39,4.98-2.2,7.37-5.36,15.84l-6.03-2.35c3.3-6.08,6.99-17.23,8.57-25.75-.33.05-.53.05-.62.05h-2.78c-.24,0-.72,0-1.53-.05-.86-.05-1.53-.05-1.92-.05-.24,0-.48,0-.91.05l.1-5.55Zm23.74,18.57c-1.91,2.39-2.49,3.59-2.49,5.27,0,2.44,2.39,3.69,7.18,3.69,3.49,0,8.09-.77,10.87-1.77l.43,5.89c-.86.1-1.24.14-2.34.33-3.97.57-6.08.77-8.9.77-4.26,0-7.32-.62-9.62-1.91-2.06-1.2-3.4-3.49-3.4-5.89,0-2.54.91-4.69,3.54-8.28l4.74,1.91Zm14.22-6.27c-2.3-.24-3.64-.34-6.03-.34-4.74,0-7.9.34-12.64,1.39l-.43-5.27c6.8-1.29,9.1-1.53,14.27-1.53,1.29,0,1.72,0,4.74.05l.1,5.7Z"/><path class="cls-1" d="m310.59,148.89c0-1.01-.1-2.25-.24-3.3h5.79c-.14,1.05-.24,2.06-.24,3.26v2.06h8.9c2.35,0,4.4-.1,5.74-.24v5.22c-1.53-.14-3.3-.24-5.55-.24h-9.1v7.37h13.26c2.49,0,4.12-.1,5.94-.29v5.36c-1.82-.19-3.35-.29-5.89-.29h-31.07c-2.39,0-4.12.1-5.89.29v-5.36c1.72.19,3.3.29,5.98.29h12.35v-7.37h-8.43c-2.25,0-4.02.1-5.55.24v-5.27c1.44.19,3.11.29,5.55.29h8.43v-2.01Zm-11.58-16.95c-2.11,0-4.02.1-5.89.29v-5.36c1.48.19,3.25.29,5.89.29h29.34c2.58,0,4.16-.1,5.94-.29v5.36c-1.72-.19-3.26-.29-5.7-.29h-16.37c-1.44,3.21-3.06,6.17-4.55,8.33q10.29-.43,14.84-.86c-1.48-1.53-2.2-2.15-4.45-4.02l4.02-2.54c5.12,4.31,7.76,6.94,11.3,11.25l-4.26,3.16c-1.44-1.96-1.96-2.63-2.97-3.88-7.85.86-18.24,1.63-25.13,1.82-3.16.1-4.36.19-5.89.38l-.77-5.31c1.15.14,1.91.19,3.4.19h1.82c.48-.05,1.29-.05,2.2-.05,1.72-2.39,3.21-5.03,4.69-8.47h-7.47Z"/><path class="cls-1" d="m354.4,146.07c-.43.96-.57,1.24-.77,1.72,0,0-.29.81-.81,2.49-1.48-2.35-2.01-3.4-2.63-5.17,0,.38.05.72.05.91.14,1.91.19,2.87.19,4.69v13.21c0,2.54.1,4.16.29,5.55h-5.31c.19-1.53.29-3.45.29-5.84v-9.77c0-1.48.1-3.49.24-5.84-.96,3.73-2.39,7.18-4.02,10-.81-1.91-1.58-3.16-2.82-4.6,1.67-2.3,2.54-3.97,3.88-7.28.96-2.44,1.87-5.31,2.39-7.85h-1.58c-1.1,0-2.11.1-3.21.24v-5.07c.91.14,1.87.19,3.21.19h1.91v-3.54c0-2.49-.1-3.78-.29-4.98h5.31c-.24,1.39-.29,2.68-.29,4.98v3.54c1.39,0,2.01-.05,2.87-.19v5.07c-.38-.19-.96-.24-2.82-.24,1.1,3.16,1.91,4.64,3.93,7.18v-5.31c0-.81-.05-1.34-.14-2.3.81.1,1.53.14,2.49.14h3.35c1.01-1.77,2.39-4.74,3.02-6.46h-4.64c-2.3,0-4.07.1-5.41.24v-5.03c1.39.19,3.02.29,5.5.29h19.82c2.68,0,4.16-.1,5.5-.29v5.03c-1.39-.14-3.21-.24-5.5-.24h-10c-.67,1.63-.96,2.2-1.63,3.64h1.34c2.01,0,2.68-.05,3.45-.14q-.1,1.72-.29,7.37c-.14,6.7-.67,12.49-1.34,15.46,2.59-2.06,3.4-3.02,5.03-5.6-1.29-2.54-1.91-4.26-3.26-8.81l3.49-2.15c.91,3.3,1.39,4.69,2.06,6.27.77-2.39,1.1-3.83,1.48-6.75h-4.02c-1.05,0-1.63.05-2.35.14v-4.69c.96.14,1.77.19,3.4.19h3.4c.96,0,1.87-.05,2.63-.14l1.87,2.58c-1.82,8.38-2.3,10.1-3.88,13.31,1.63,2.25,2.3,2.92,5.12,5.22-1.2,1.34-1.91,2.49-2.49,4.26-2.34-2.01-3.54-3.3-5.03-5.36-1.63,2.39-2.25,3.11-4.83,5.5-.77-1.48-1.44-2.44-2.68-3.73-.91,3.4-1.96,4.16-5.94,4.16-.57,0-1.63-.05-3.16-.14-.24-2.11-.43-3.02-1.1-4.64,2.3.38,3.4.53,4.36.53,1.44,0,1.53-.19,2.06-4.12.53-4.07.72-7.99.77-14.5h-2.68v14.93c0,.67.05,1.24.1,2.11-1.24-.1-1.53-.1-2.3-.1h-5.36c-1.05,0-1.63.05-2.35.14.1-1.05.14-1.72.14-3.64v-6.8Zm-2.15,16.9c1.44.19,2.87.29,5.22.29h21.4c2.44,0,4.16-.1,5.41-.29v5.07c-1.58-.14-3.21-.24-5.5-.24h-21.35c-2.35,0-3.73.05-5.17.24v-5.07Zm5.89-10.72h2.35v-10.1h-2.35v10.1Z"/><path class="cls-1" d="m409.9,154.4c-2.73,6.18-5.79,9-9.72,9-5.46,0-9.38-5.55-9.38-13.26,0-5.27,1.87-10.2,5.27-13.93,4.02-4.4,9.67-6.7,16.47-6.7,11.49,0,18.96,6.99,18.96,17.76,0,8.28-4.31,14.89-11.63,17.85-2.3.96-4.16,1.44-7.52,2.01-.81-2.54-1.39-3.59-2.92-5.6,4.4-.57,7.28-1.34,9.53-2.63,4.16-2.3,6.65-6.85,6.65-11.97,0-4.6-2.06-8.33-5.89-10.63-1.48-.86-2.73-1.24-4.83-1.44-.91,7.52-2.59,14.12-4.98,19.53Zm-7.04-17.14c-4.02,2.87-6.51,7.8-6.51,12.92,0,3.93,1.68,7.04,3.78,7.04,1.58,0,3.21-2.01,4.93-6.13,1.82-4.31,3.4-10.77,3.97-16.18-2.49.29-4.21.96-6.18,2.35Z"/><path class="cls-1" d="m477.1,142.43c-.48.86-.77,1.53-1.34,3.02-2.49,7.04-6.13,12.35-11.11,16.18-3.4,2.63-6.51,4.26-12.54,6.51-1.05-2.39-1.63-3.21-3.73-5.55,5.84-1.48,9.62-3.26,13.31-6.32,3.54-2.97,5.6-5.89,7.71-11.2h-23.31c-3.21,0-4.4.05-6.13.24v-5.84c1.82.29,2.87.34,6.22.34h22.79c2.97,0,3.93-.1,5.41-.43l2.73,3.06Zm-33.08-14.5c1.58.29,2.59.34,5.6.34h16.71c3.02,0,4.02-.05,5.6-.34v5.89c-1.48-.19-2.39-.24-5.5-.24h-16.9c-3.11,0-4.02.05-5.5.24v-5.89Z"/><path class="cls-1" d="m523.27,130.51c-.81.72-1.05.91-1.77,1.68-3.59,3.73-7.18,6.85-11.3,9.86v20.44c0,2.63.05,4.02.24,5.31h-6.7c.24-1.39.29-2.35.29-5.17v-16.85c-5.6,3.35-8.28,4.6-17.09,7.75-1-2.49-1.53-3.3-3.21-5.46,9.48-2.58,17.52-6.56,25.13-12.45,4.26-3.3,7.51-6.61,8.9-8.95l5.5,3.83Z"/><path class="cls-1" d="m568.5,135.77c-.38.72-.53,1.15-.81,2.15-3.73,15.08-12.35,24.89-27.24,31.07-1.25-2.49-2.06-3.59-4.21-5.7,13.26-4.12,21.92-13.02,24.99-25.75h-22.78c-3.54,0-4.45.05-6.03.29v-6.22c1.72.29,2.87.34,6.13.34h21.97c1.72,0,2.54-.05,3.45-.14-.81-1.72-1.72-3.16-2.97-4.83l3.49-1.29c1.87,2.44,2.97,4.4,4.26,7.56l-1.91.77,1.67,1.77Zm2.82-3.4c-1.15-2.82-2.49-5.27-4.12-7.42l3.45-1.29c1.96,2.54,3.11,4.45,4.21,7.28l-3.54,1.44Z"/><path class="cls-1" d="m581.68,131.13c1.96.43,5.03.62,11.11.62,1.29-2.87,1.72-4.31,1.91-5.94l6.27.67q-.29.48-1.91,4.31c-.24.53-.33.67-.43.86q.38-.05,3.01-.19c5.55-.34,9.91-.86,12.54-1.63l.33,5.46q-1.34.1-3.78.38c-3.49.43-9.57.81-14.41.96-1.39,2.73-2.73,4.64-4.4,6.37l.05.1q.33-.24.96-.72c1.77-1.34,4.31-2.15,6.75-2.15,3.73,0,6.08,1.77,6.84,5.07,3.69-1.34,6.13-2.2,7.32-2.58,2.59-.91,2.78-.96,3.54-1.44l2.25,5.5c-1.34.19-2.78.57-5.31,1.29-.67.19-3.06,1.01-7.18,2.44v.53q.05,1.24.05,1.91v1.91c-.05.81-.05,1.24-.05,1.58,0,1.05.05,1.72.14,2.54l-5.55.14c.19-.86.29-3.3.29-5.55v-1.15c-2.35,1.1-3.59,1.77-4.6,2.49-1.68,1.24-2.49,2.54-2.49,3.93,0,2.49,2.3,3.49,8.09,3.49s10.67-.72,14.07-2.01l.48,6.17c-.81,0-1.05.05-2.2.19-3.45.53-8.04.86-12.25.86-5.07,0-8.23-.57-10.67-2.01-2.2-1.24-3.49-3.54-3.49-6.18,0-1.96.57-3.49,2.11-5.31,2.15-2.68,4.88-4.5,10.29-6.75-.24-1.77-1.2-2.58-2.92-2.58-2.78,0-6.13,1.68-9.81,4.93-2.01,1.68-3.11,2.87-4.16,4.36l-4.36-4.31c1.24-.96,2.63-2.3,4.31-4.26,1.87-2.2,4.79-6.37,5.74-8.19q.19-.38.38-.62c-.19,0-.81.05-.81.05-.77,0-4.98-.1-6.03-.1q-.91-.05-1.34-.05c-.14,0-.43,0-.77.05l.1-5.46Z"/><path class="cls-1" d="m642.57,160.33c0,1.96-.1,3.11-.38,4.07-.43,1.68-2.15,2.78-4.4,2.78-3.02,0-6.65-1.34-9.05-3.4-1.72-1.48-2.63-3.35-2.63-5.41,0-2.25,1.48-4.79,4.12-7.08,1.72-1.48,3.83-2.73,6.99-4.07l-.05-7.37q-.38,0-1.96.1c-.72.05-1.39.05-2.59.05-.72,0-2.06-.05-2.63-.05-.62-.05-1.05-.05-1.2-.05-.19,0-.57,0-1,.05l-.05-5.36c1.34.29,3.25.43,5.79.43.48,0,1.01,0,1.68-.05,1.15-.05,1.39-.05,1.91-.05v-3.16c0-2.73-.05-3.97-.29-5.5h5.98c-.24,1.53-.29,2.54-.29,5.22v3.06c3.59-.43,6.8-1.05,9.24-1.82l.19,5.36c-.86.14-1.77.29-5.07.86-1.58.29-2.54.43-4.36.62v6.22c3.25-.96,6.27-1.34,9.77-1.34,7.99,0,13.69,4.88,13.69,11.68,0,6.22-4.64,10.91-10.87,10.91-3.88,0-6.61-1.87-7.85-5.31-.62-1.63-.81-3.21-.81-6.13,2.44-.67,3.25-1.01,5.31-2.11-.1.91-.1,1.34-.1,2.11,0,2.01.19,3.3.67,4.21.53,1.01,1.67,1.63,3.02,1.63,2.82,0,4.83-2.25,4.83-5.31,0-4.12-3.35-6.8-8.47-6.8-2.87,0-5.79.53-9.19,1.58l.05,9.43Zm-5.41-7.71c-3.59,1.91-5.7,4.02-5.7,5.74,0,.81.48,1.53,1.58,2.2.96.67,2.15,1.05,3.06,1.05.81,0,1.05-.43,1.05-2.01v-6.99Zm26.52-9.67c-2.39-3.78-5.89-7.56-9.57-10.34l4.5-3.02c4.16,3.21,6.94,6.08,9.48,9.81l-4.4,3.54Z"/><path class="cls-1" d="m682.42,155.4c-2.3,0-3.93.05-5.17.14.19-1.39.24-2.87.24-5.07v-17.47c0-2.63-.1-4.74-.24-5.98,1.44.19,2.82.24,5.03.24h22.07c2.2,0,3.69-.05,5.07-.24-.14,1.15-.24,3.35-.24,5.98v17.47c0,2.3.05,3.73.24,5.07-1.24-.1-3.11-.14-5.07-.14h-4.12v7.37c0,1.34.43,1.48,4.16,1.48s4.64-.19,5.22-1.01c.48-.67.72-2.49.86-6.13,1.96,1.05,3.11,1.53,4.93,2.01-.48,5.31-.96,7.08-2.15,8.23-1.34,1.24-3.4,1.63-8.81,1.63-7.95,0-9.38-.67-9.38-4.26v-9.33h-4.31c-.57,3.69-2.11,6.61-4.55,8.86-3.01,2.82-6.65,4.5-12.16,5.74-.81-2.01-1.39-3.02-2.78-4.69,4.5-.81,7.04-1.68,9.33-3.16,2.59-1.68,3.97-3.73,4.55-6.75h-2.73Zm.1-20.25h21.59v-3.11h-21.59v3.11Zm0,7.71h21.59v-3.21h-21.59v3.21Zm0,7.9h21.59v-3.4h-21.59v3.4Z"/><path class="cls-1" d="m721.75,143.72c1.2.19,1.96.24,3.83.24h3.3c1.67,0,2.39-.05,3.64-.19-.19,1.34-.19,2.3-.19,5.17v10c.81,1.24,1.29,1.77,2.2,2.44,2.2,1.68,4.55,2.3,8.86,2.3,7.95,0,17.85-.43,23.26-1.05-.91,2.54-1.05,3.11-1.44,5.65-4.4.19-12.49.34-16.61.34-8.9,0-11.58-.34-14.46-1.72-1.72-.81-2.92-1.82-4.31-3.64-1.92,1.87-2.63,2.44-4.69,3.97-.91.67-1.24.96-2.06,1.63l-2.35-5.41c1.82-.77,4.16-2.39,6.56-4.64v-10.15h-2.34c-1.29,0-2.06.05-3.21.24v-5.17Zm4.26-17.66c3.45,2.97,6.03,5.65,8.28,8.66l-3.97,3.83c-2.92-3.93-4.5-5.7-8.14-8.95l3.83-3.54Zm10.77,2.25c2.49,3.78,3.3,5.22,5.12,9l-3.97,2.97c-1.63-3.78-2.92-6.08-5.12-9.14l3.97-2.82Zm-3.64,17.09c3.26-.77,5.55-1.72,9.24-3.88.05-1.48.1-2.35.1-3.83v-7.23c0-2.2-.1-3.73-.29-5.07h5.36c-.14,1.15-.19,2.2-.19,4.88v7.56c0,6.51-.57,10.91-1.82,14.31-1.44,3.97-3.11,6.13-7.52,9.53-1-1.53-2.01-2.63-3.73-4.02,3.45-2.44,4.5-3.59,5.74-5.89.86-1.63,1.39-3.02,1.77-4.93-2.39,1.44-2.97,1.77-6.85,3.69l-1.82-5.12Zm21.83,9.33c0,.91.33,1.05,2.58,1.05s2.73-.14,3.06-1.15c.24-.77.33-1.39.33-3.78,1.68.96,2.73,1.39,4.6,1.87-.67,7.08-1.48,7.75-9.33,7.75-2.2,0-3.83-.24-4.69-.62-1.1-.57-1.44-1.34-1.44-3.11v-26.71c0-2.39-.05-3.45-.24-4.64h5.36c-.19,1.44-.24,2.58-.24,5.12v9.29c4.4,2.58,6.13,3.78,9.81,6.85l-2.82,3.93c-3.11-2.73-4.55-3.88-6.99-5.5v9.67Zm.24-17.85c2.25-2.58,3.49-4.5,5.79-8.86l4.07,2.87c-2.06,3.54-3.64,5.84-6.37,9.09l-3.49-3.11Z"/><path class="cls-1" d="m782.2,127.4c-.29,1.39-.38,2.78-.57,6.46-.19,4.45-.48,14.17-.48,17.57,0,4.55.29,6.27,1.24,7.71,1.1,1.58,3.4,2.49,6.41,2.49,5.17,0,9.33-2.92,11.58-8.19,1.05-2.49,1.67-4.74,2.2-8.04,2.59,2.11,3.45,2.63,5.79,3.69-1.91,6.46-3.35,9.57-5.7,12.21-3.59,4.07-8.33,6.08-14.36,6.08-3.3,0-6.37-.77-8.38-2.11-3.3-2.2-4.69-5.89-4.69-12.3,0-2.49.1-7.28.38-19.29.05-1.44.05-2.44.05-3.11,0-1.34-.05-2.01-.19-3.26l6.7.1Z"/><path class="cls-1" d="m832.72,126.49q-.29.91-.77,3.21c-.24,1.15-.48,2.11-1,4.21,3.3-.34,5.79-.77,7.66-1.34l.14,5.5c-.53.05-.62.05-1.53.24-1.72.29-4.64.62-7.61.86-1.39,4.79-3.11,9.33-5.27,13.88-1.1,2.35-1.53,3.21-3.35,6.56q-.62,1.15-.91,1.72l-5.5-3.06c1.67-2.2,3.02-4.36,4.64-7.66,1.87-3.83,2.68-5.79,4.5-11.3-2.15.05-2.44.05-3.02.05-.62,0-.91,0-1.92-.05l-2.54-.05v-5.46c1.72.34,3.54.43,6.46.43.57,0,1.39,0,2.44-.05.81-3.4,1.34-6.27,1.44-8.33l6.13.62Zm21.68,38.77c-1.72-2.06-4.5-4.31-7.32-5.94.05.43.1.77.1.96,0,1.77-.81,3.83-2.06,5.07-1.67,1.72-4.55,2.68-7.95,2.68-6.32,0-10.44-3.16-10.44-8.04s4.26-8.23,10.34-8.23c1.44,0,2.44.1,4.45.43-.14-2.2-.24-4.07-.24-5.5,0-1.87.1-3.26.38-4.83l5.55.29c-.48,1.77-.57,2.87-.57,4.83s.1,3.83.43,6.56c3.45,1.53,3.93,1.77,7.56,4.4.72.48.91.67,1.68,1.29q.38.38.72.67l-2.63,5.36Zm-16.99-8.76c-3.11,0-5.12,1.29-5.12,3.3s1.72,3.11,4.69,3.11c3.25,0,4.83-1.34,4.83-4.02,0-.48-.1-1.63-.1-1.63-1.67-.57-2.82-.77-4.31-.77Zm17.23-13.26c-4.16-2.78-8.42-4.83-13.79-6.7l2.87-4.64c5.65,2.15,9.24,3.83,13.5,6.41l-2.59,4.93Z"/><path class="cls-1" d="m891.12,130.03c-.81.57-1.72,1.39-5.89,5.27-2.44,2.25-5.79,4.93-11.39,9.19-1.48,1.1-1.82,1.48-1.82,2.01,0,.72.1.81,4.31,3.97,7.47,5.65,8.85,6.85,15.08,12.49.48.48.77.72,1.39,1.2l-4.93,4.98c-1.24-1.72-2.97-3.54-6.22-6.56-3.4-3.16-4.98-4.45-12.35-10.2-3.16-2.44-4.02-3.73-4.02-5.94,0-1.44.53-2.73,1.58-3.88.62-.67.67-.72,4.21-3.45,5.17-3.93,7.85-6.22,11.06-9.33,2.15-2.15,2.68-2.78,3.49-3.97l5.5,4.21Z"/><path class="cls-1" d="m912.46,155.93c.05-1.01.1-1.48.1-2.06q0-.53-.14-3.4l-.67-16.28c-.1-2.11-.24-4.5-.43-5.84h7.85c-.14,1.29-.33,3.78-.43,5.84l-.67,16.28q-.1,2.78-.1,3.45c0,.57,0,1.05.1,2.01h-5.6Zm-.67,10.48v-6.56h6.94v6.56h-6.94Z"/></g></g></svg>