<svg width="26" height="29" viewBox="0 0 26 29" fill="none" xmlns="http://www.w3.org/2000/svg">
<path d="M18.2465 0.000592332H13.5969V19.3042C13.5969 21.8339 11.7372 23.4613 9.47539 23.4613C7.21358 23.4613 5.20308 21.8339 5.20308 19.3042C5.20308 16.3815 7.54058 14.8382 10.6569 15.1578V10.2663C10.2045 10.1924 9.75213 10.1681 9.37486 10.1681C4.27292 10.1681 0 14.1713 0 19.132C0 24.388 4.22205 28.4154 9.39969 28.4154C13.9487 28.4154 18.7746 25.149 18.7746 18.9847V8.93963C20.7851 10.9043 23.2231 11.5185 25.8367 11.5185V6.99927C22.6199 6.77795 19.0507 4.7151 18.2465 0V0.000592332Z" fill="#03121F"/>
</svg>
