<svg width="31" height="22" viewBox="0 0 31 22" fill="none" xmlns="http://www.w3.org/2000/svg">
<path d="M30.3544 3.43556C29.9971 2.08255 28.9483 1.01928 27.6137 0.657102C25.1945 0 15.5 0 15.5 0C15.5 0 5.80548 0 3.38887 0.657102C2.05425 1.01928 1.00543 2.08255 0.648172 3.43556C0 5.88547 0 11 0 11C0 11 0 16.1145 0.648172 18.5644C1.00543 19.9174 2.05425 20.9807 3.38887 21.3429C5.80548 22 15.5 22 15.5 22C15.5 22 25.1945 22 27.6111 21.3429C28.9457 20.9807 29.9946 19.9174 30.3518 18.5644C31 16.1145 31 11 31 11C31 11 31 5.88547 30.3518 3.43556H30.3544ZM12.3995 15.7135V6.28645L20.4532 11L12.3995 15.7135Z" fill="#03121F"/>
</svg>
