<svg width="30" height="30" viewBox="0 0 30 30" fill="none" xmlns="http://www.w3.org/2000/svg">
<g clip-path="url(#clip0_2190_4140)">
<path d="M23.2369 0H6.76312C3.02795 0 0 3.02795 0 6.76312V23.2369C0 26.972 3.02795 30 6.76312 30H23.2369C26.972 30 30 26.972 30 23.2369V6.76312C30 3.02795 26.972 0 23.2369 0Z" fill="#06C755"/>
<path d="M24.9985 13.5866C24.9985 9.11098 20.5116 5.46973 14.9963 5.46973C9.48102 5.46973 4.99414 9.11098 4.99414 13.5866C4.99414 17.5991 8.55289 20.9591 13.3595 21.5947C13.6848 21.665 14.1282 21.8094 14.2407 22.0879C14.342 22.341 14.3063 22.7366 14.2735 22.9925C14.2735 22.9925 14.1563 23.6985 14.131 23.8485C14.087 24.1016 13.9304 24.8375 14.9973 24.3875C16.0651 23.9375 20.7573 20.9957 22.8554 18.5807C24.3048 16.9907 24.9995 15.3782 24.9995 13.5866H24.9985Z" fill="white"/>
<path d="M21.6709 16.1713H18.8612C18.7552 16.1713 18.6699 16.086 18.6699 15.9801V15.9773V11.6198V11.6151C18.6699 11.5091 18.7552 11.4238 18.8612 11.4238H21.6709C21.7759 11.4238 21.8621 11.5101 21.8621 11.6151V12.3248C21.8621 12.4307 21.7768 12.516 21.6709 12.516H19.7612V13.2529H21.6709C21.7759 13.2529 21.8621 13.3391 21.8621 13.4441V14.1538C21.8621 14.2598 21.7768 14.3451 21.6709 14.3451H19.7612V15.082H21.6709C21.7759 15.082 21.8621 15.1682 21.8621 15.2732V15.9829C21.8621 16.0888 21.7768 16.1741 21.6709 16.1741V16.1713Z" fill="#06C755"/>
<path d="M11.2773 16.1713C11.3823 16.1713 11.4685 16.086 11.4685 15.98V15.2704C11.4685 15.1654 11.3823 15.0791 11.2773 15.0791H9.36758V11.6141C9.36758 11.5091 9.28133 11.4229 9.17633 11.4229H8.46664C8.3607 11.4229 8.27539 11.5082 8.27539 11.6141V15.9763V15.98C8.27539 16.086 8.3607 16.1713 8.46664 16.1713H11.2763H11.2773Z" fill="#06C755"/>
<path d="M12.9684 11.4238H12.2596C12.154 11.4238 12.0684 11.5095 12.0684 11.6151V15.9801C12.0684 16.0857 12.154 16.1713 12.2596 16.1713H12.9684C13.074 16.1713 13.1596 16.0857 13.1596 15.9801V11.6151C13.1596 11.5095 13.074 11.4238 12.9684 11.4238Z" fill="#06C755"/>
<path d="M17.7971 11.4238H17.0874C16.9815 11.4238 16.8962 11.5091 16.8962 11.6151V14.2073L14.8993 11.5101C14.8946 11.5035 14.889 11.497 14.8843 11.4904C14.8843 11.4904 14.8843 11.4904 14.8834 11.4895C14.8796 11.4857 14.8759 11.481 14.8721 11.4773C14.8712 11.4763 14.8693 11.4754 14.8684 11.4745C14.8646 11.4716 14.8618 11.4688 14.858 11.466C14.8562 11.4651 14.8543 11.4632 14.8524 11.4623C14.8496 11.4595 14.8459 11.4576 14.8421 11.4557C14.8402 11.4548 14.8384 11.4529 14.8365 11.452C14.8327 11.4501 14.8299 11.4482 14.8262 11.4463C14.8243 11.4454 14.8224 11.4445 14.8205 11.4435C14.8168 11.4416 14.813 11.4398 14.8093 11.4388C14.8074 11.4388 14.8055 11.437 14.8027 11.437C14.799 11.436 14.7952 11.4341 14.7915 11.4332C14.7896 11.4332 14.7868 11.4323 14.7849 11.4313C14.7812 11.4313 14.7774 11.4295 14.7737 11.4285C14.7709 11.4285 14.768 11.4285 14.7652 11.4276C14.7615 11.4276 14.7587 11.4266 14.7549 11.4266C14.7512 11.4266 14.7484 11.4266 14.7446 11.4266C14.7427 11.4266 14.7399 11.4266 14.738 11.4266H14.033C13.928 11.4266 13.8418 11.512 13.8418 11.6179V15.9829C13.8418 16.0879 13.9271 16.1741 14.033 16.1741H14.7427C14.8487 16.1741 14.934 16.0888 14.934 15.9829V13.3907L16.9337 16.0916C16.9477 16.1113 16.9646 16.1273 16.9834 16.1395C16.9834 16.1395 16.9852 16.1404 16.9852 16.1413C16.989 16.1441 16.9927 16.146 16.9974 16.1488C16.9993 16.1498 17.0012 16.1507 17.003 16.1516C17.0059 16.1535 17.0096 16.1545 17.0124 16.1563C17.0152 16.1582 17.019 16.1591 17.0218 16.1601C17.0237 16.1601 17.0255 16.162 17.0274 16.162C17.0321 16.1638 17.0359 16.1648 17.0405 16.1657C17.0405 16.1657 17.0424 16.1657 17.0434 16.1657C17.0593 16.1695 17.0762 16.1723 17.093 16.1723H17.798C17.903 16.1723 17.9893 16.087 17.9893 15.981V11.616C17.9893 11.511 17.904 11.4248 17.798 11.4248L17.7971 11.4238Z" fill="#06C755"/>
</g>
<defs>
<clipPath id="clip0_2190_4140">
<rect width="30" height="30" fill="white"/>
</clipPath>
</defs>
</svg>
