<svg width="35" height="40" viewBox="0 0 35 40" fill="none" xmlns="http://www.w3.org/2000/svg">
<g clip-path="url(#clip0_35_111)">
<path d="M33.9167 8.08341L11.1888 12.2321C10.7511 12.3144 10.4338 12.6931 10.4338 13.1431V25.1338H7.65437C3.43599 25.1338 0 28.4648 0 32.5641C0 35.2806 1.4499 37.7775 3.98312 39.1713C5.03361 39.753 6.2373 40.0055 7.43552 40.0055H7.44099C11.5335 40.0055 14.8656 36.5702 14.8656 32.3556V16.079L30.5628 13.2199V22.0551H27.7833C23.5704 22.0551 20.1399 25.3862 20.1344 29.48C20.1344 31.4666 20.9059 33.3324 22.312 34.7373C23.7181 36.1421 25.5839 36.9214 27.5754 36.9214C31.668 36.9214 35 33.4861 35 29.2715V8.99437C35 8.41816 34.4802 7.98463 33.9167 8.08341ZM24.5717 29.48C24.5717 27.8282 25.9176 26.4837 27.57 26.4837H30.5682V29.48C30.5682 31.1318 29.2223 32.4763 27.57 32.4763C25.9176 32.4763 24.5717 31.1318 24.5717 29.48ZM4.43724 32.5696C4.43724 30.9178 5.78318 29.5733 7.43552 29.5733H10.4338V32.5696C10.4338 34.2214 9.08785 35.5659 7.43552 35.5659C5.78318 35.5659 4.43724 34.2214 4.43724 32.5696Z" fill="white"/>
<path d="M34.245 4.48346L11.5171 8.65961C10.9536 8.76388 10.4283 8.33035 10.4283 7.74865V5.09808C10.4283 4.65358 10.7457 4.26944 11.1834 4.18712L33.9167 0.0164518C34.4802 -0.0878149 35.0055 0.345715 35.0055 0.927414V3.57798C35.0055 4.02249 34.6882 4.40663 34.2504 4.48895L34.245 4.48346Z" fill="white"/>
</g>
<defs>
<clipPath id="clip0_35_111">
<rect width="35" height="40" fill="white"/>
</clipPath>
</defs>
</svg>
