<svg xmlns="http://www.w3.org/2000/svg" width="31" height="30" fill="none"><path fill="#fff" d="M15.642.012C7.339-.317.34 6.127.012 14.405S6.147 29.66 14.448 29.99c8.303.329 15.3-6.115 15.63-14.394C30.407 7.317 23.944.34 15.642.012m6.35 21.974a.9.9 0 0 1-1.225.336 18.1 18.1 0 0 0-6.441-2.184 18.1 18.1 0 0 0-6.796.329.895.895 0 1 1-.424-1.741 19.9 19.9 0 0 1 7.47-.362 19.9 19.9 0 0 1 7.08 2.4c.431.246.582.791.338 1.222zm1.978-3.938a1.17 1.17 0 0 1-1.583.47 22.2 22.2 0 0 0-7.488-2.448 22.2 22.2 0 0 0-7.874.296q-.21.046-.414.016a1.166 1.166 0 0 1-.088-2.29 24.6 24.6 0 0 1 8.702-.33 24.5 24.5 0 0 1 8.273 2.707c.568.305.778 1.012.472 1.578zm2.192-4.438a1.44 1.44 0 0 1-1.94.61 26.9 26.9 0 0 0-8.672-2.76 26.9 26.9 0 0 0-9.1.27 1.433 1.433 0 1 1-.572-2.808c3.313-.67 6.701-.77 10.072-.298 3.37.471 6.6 1.5 9.6 3.056a1.43 1.43 0 0 1 .612 1.931"/></svg>