<svg xmlns="http://www.w3.org/2000/svg" width="30" height="30" fill="none"><path fill="#fff" fill-rule="evenodd" d="M29.589 8.195q0-.446-.012-.892a13 13 0 0 0-.173-1.944 6.6 6.6 0 0 0-.608-1.85 6.3 6.3 0 0 0-1.143-1.573A6.3 6.3 0 0 0 26.08.793a6.5 6.5 0 0 0-1.846-.608C23.594.07 22.94.033 22.29.012L21.395 0h-13.2q-.446 0-.892.012C6.653.03 6 .07 5.359.185a6.5 6.5 0 0 0-1.845.612A6.2 6.2 0 0 0 1.94 1.94c-.46.46-.851.99-1.147 1.574a6.5 6.5 0 0 0-.608 1.849C.07 6.004.033 6.658.012 7.307L0 8.199v13.2q0 .445.012.891c.017.65.058 1.303.173 1.944a6.6 6.6 0 0 0 .608 1.85c.296.579.682 1.113 1.143 1.573s.994.847 1.574 1.143c.591.3 1.195.493 1.845.608.64.115 1.294.152 1.944.173.296.008.596.012.891.012.354.004.707 0 1.06 0h12.136c.296 0 .596-.004.892-.012.65-.017 1.303-.058 1.944-.173a6.5 6.5 0 0 0 1.845-.608 6.175 6.175 0 0 0 2.717-2.716c.3-.592.493-1.196.608-1.85.115-.64.152-1.294.172-1.944q.013-.445.013-.891c.004-.354 0-.707 0-1.06V9.254c.012-.354.012-.707.012-1.06m-7.927 11.058c0 .374-.005.715-.082 1.09a2.8 2.8 0 0 1-.432 1.015 2.6 2.6 0 0 1-.81.747c-.324.194-.665.3-1.027.375-.682.135-1.147.168-1.586.082a2.2 2.2 0 0 1-1.069-.543 2.34 2.34 0 0 1-.748-1.463 2.35 2.35 0 0 1 .629-1.84c.242-.256.55-.457.962-.617.427-.165.9-.268 1.627-.411.193-.037.382-.078.575-.115.251-.05.469-.116.642-.33.176-.213.176-.476.176-.73V9.994c0-.498-.222-.633-.698-.543-.341.066-7.653 1.541-7.653 1.541-.41.099-.558.234-.558.748v9.547c0 .374-.021.715-.099 1.089a2.8 2.8 0 0 1-.431 1.015 2.6 2.6 0 0 1-.81.748 3.2 3.2 0 0 1-1.028.378c-.682.135-1.146.168-1.586.082a2.23 2.23 0 0 1-1.068-.547 2.34 2.34 0 0 1-.12-3.304c.243-.255.551-.456.962-.616.428-.165.9-.267 1.628-.411.193-.037.382-.078.575-.115.25-.05.468-.115.641-.329s.193-.464.193-.72V7.55c0-.148.012-.246.02-.296.038-.23.128-.431.297-.57q.209-.174.546-.247h.004l8.803-1.78c.078-.016.71-.127.785-.135.477-.042.744.27.744.776z" clip-rule="evenodd"/></svg>