<svg width="30" height="30" viewBox="0 0 30 30" fill="none" xmlns="http://www.w3.org/2000/svg">
<g clip-path="url(#clip0_2190_4152)">
<path d="M30 15C30 6.7158 23.2842 0 15 0C6.7158 0 0 6.7158 0 15C0 22.0344 4.8432 27.9372 11.3766 29.5584V19.584H8.2836V15H11.3766V13.0248C11.3766 7.9194 13.6872 5.553 18.6996 5.553C19.65 5.553 21.2898 5.7396 21.9606 5.9256V10.0806C21.6066 10.0434 20.9916 10.0248 20.2278 10.0248C17.7684 10.0248 16.818 10.9566 16.818 13.3788V15H21.7176L20.8758 19.584H16.818V29.8902C24.2454 28.9932 30.0006 22.6692 30.0006 15H30Z" fill="#0866FF"/>
<path d="M20.8754 19.5837L21.7172 14.9997H16.8176V13.3785C16.8176 10.9563 17.768 10.0245 20.2274 10.0245C20.9912 10.0245 21.6062 10.0431 21.9602 10.0803V5.92533C21.2894 5.73873 19.6496 5.55273 18.6992 5.55273C13.6868 5.55273 11.3762 7.91913 11.3762 13.0245V14.9997H8.2832V19.5837H11.3762V29.5581C12.5366 29.8461 13.7504 29.9997 14.9996 29.9997C15.6146 29.9997 16.2212 29.9619 16.817 29.8899V19.5837H20.8748H20.8754Z" fill="white"/>
</g>
<defs>
<clipPath id="clip0_2190_4152">
<rect width="30" height="30" fill="white"/>
</clipPath>
</defs>
</svg>
