<?xml version="1.0" encoding="utf-8"?>
<!-- Generator: Adobe Illustrator 22.1.0, SVG Export Plug-In . SVG Version: 6.00 Build 0)  -->
<svg version="1.1" id="レイヤー_1" xmlns="http://www.w3.org/2000/svg" xmlns:xlink="http://www.w3.org/1999/xlink" x="0px"
	 y="0px" viewBox="0 0 1920 1080" style="enable-background:new 0 0 1920 1080;" xml:space="preserve">
<style type="text/css">
	.st0{fill:#FFFFFF;}
</style>
<g>
	<g>
		<path class="st0" d="M616.4,897.9h-10.7c-1.9,0-3.5,0.1-4.9,0.2V893c1.1,0.2,2.9,0.2,5.3,0.3h10.3c0-1.1-0.1-2.2-0.3-3.2h5.5
			c-0.2,1-0.3,2-0.3,3.2H632c2.6,0,4.3-0.1,5.4-0.3v5.1c-1.3-0.2-2.9-0.2-5-0.2h-11v2h8.3c1.9,0,3.4,0,4.4-0.1
			c-0.1,0.8-0.1,2.1-0.2,4v7.8c0,1.3,0,2.3,0.1,2.8c0,0.2,0,0.7,0.1,1.2c-1-0.1-2.5-0.2-4.4-0.2h-4.2c3,2.9,7.4,4.9,13.1,6.1
			c-1,1.5-1.9,3.2-2.6,5.1c-6.2-2.1-11.1-5.1-14.7-9c0.1,1.1,0.1,2,0.1,2.8v2.3c0,1.9,0.1,3.4,0.3,4.6h-5.6c0.2-1.5,0.3-3,0.3-4.6
			v-2.3c0-0.7,0.1-1.6,0.1-2.7c-3.1,3.8-7.8,6.8-14,9c-0.8-1.9-1.7-3.5-2.6-4.8c5.5-1.5,9.7-3.6,12.5-6.3h-3.8c-2,0-3.5,0.1-4.5,0.2
			c0-0.3,0.1-0.7,0.2-1.2c0-0.1,0-1.1,0-2.8v-7.8c0-1.6-0.1-3-0.2-4c0.9,0.1,2.4,0.2,4.4,0.2h7.9V897.9z M616.4,903.8h-7.1v1.9h7.1
			V903.8z M616.4,909.5h-7.1v2h7.1V909.5z M621.4,903.8v1.9h7.5v-1.9H621.4z M621.4,909.5v2h7.5v-2H621.4z"/>
		<path class="st0" d="M653.9,906.9c-1.3-1.4-2.9-2.8-4.7-4.2l-0.2-0.2c-1.4,1-3.1,2.1-5.1,3.2c-0.9-1.7-2-3-3.2-4
			c3.2-1.5,6.3-3.5,9.1-6c2.3-2.1,4-4.2,5-6.4l5.7,1.3c-0.6,0.8-1.2,1.7-1.9,2.6h7.9c1.5,0,2.6-0.1,3.4-0.2l2.8,2.9
			c-0.3,0.4-0.8,1-1.5,1.9c-3.3,4.2-7.2,7.9-11.5,10.9h12.1c1.6,0,2.8,0,3.6-0.1c-0.1,0.9-0.2,2.2-0.2,3.9v10.6
			c0,1.9,0.1,3.2,0.2,4.1H670v-2.1h-14.6v2.1H650c0.1-1,0.2-2.4,0.2-4.2v-8.5c-2.2,1.2-4.6,2.3-7.1,3.3c-0.7-1.7-1.7-3.3-3-4.7
			c2.5-0.7,5.2-1.7,8-3C650.2,909.1,652.1,908,653.9,906.9z M658,904c2.7-2.2,4.8-4.2,6.4-6.2h-9.9c-0.7,0.7-1.3,1.3-1.9,1.8
			c0.2,0.2,0.5,0.3,0.8,0.5C654.9,901.3,656.5,902.5,658,904z M655.4,913.4v7.2h14.7v-7.2H655.4z"/>
		<path class="st0" d="M696.4,894.5c-0.1,0.3-0.3,0.7-0.4,1l-0.1,0.3c-0.5,1.4-1,2.7-1.6,4.1c-0.4,1-1.1,2.4-2.1,4.2
			c0.9,1.7,1.6,3.1,2,4.3c0.4,1.3,0.6,2.5,0.6,3.7c0,2.5-0.8,4.2-2.4,5.1c-0.7,0.4-1.5,0.6-2.5,0.7c-0.5,0.1-1.1,0.1-1.9,0.1
			c0-2.1-0.3-3.7-0.9-4.8c0.6,0.1,1,0.1,1.3,0.1c0.7,0,1.1,0,1.3-0.1c0.4-0.2,0.5-0.6,0.5-1.4c0-1-0.2-2.1-0.5-3.1
			c-0.3-0.9-0.7-1.7-1.2-2.5c-0.3-0.4-0.7-1-1.3-1.7c1.4-2.2,2.6-5,3.6-8.6h-4v27.1c0,1.7,0.1,3.2,0.2,4.4h-5.5c0.2-1,0.2-2.7,0.2-5
			v-27c0-1.6,0-3-0.1-4.2c0.7,0.1,1.6,0.2,2.6,0.2h7c1.2,0,2.1-0.1,2.8-0.2L696.4,894.5z M708.1,921.1c-0.9,1-1.8,1.9-2.8,2.7
			c-1.4,1.2-3.3,2.4-5.6,3.7c-0.7-1.6-1.5-3.1-2.5-4.3c-0.2,0.4-0.5,0.8-0.7,1.2c-0.6,0.9-1.3,1.9-2.1,2.9c-1.4-1.7-2.8-3-4-3.8
			c1.1-1.1,2-2.3,2.7-3.5c1.3-2.2,2.1-4.4,2.5-6.7c0.5-2.7,0.8-6.9,1-12.7c0.1-2.6,0.1-4.7,0.1-6.3c0-0.8-0.1-1.9-0.2-3.1
			c1.4,0.1,3,0.2,4.9,0.2h11.1c2,0,3.5-0.1,4.7-0.2v5.3c-1.2-0.1-2.7-0.2-4.6-0.2h-11l0,3.8l0,0.5h9.3c1.6,0,2.6-0.1,3.2-0.2
			l2.4,2.6c-0.1,0.3-0.2,0.8-0.4,1.3c-0.7,2.4-1.2,4.3-1.7,5.8c-0.8,2.3-1.6,4.2-2.5,5.7c-0.2,0.4-0.5,0.8-0.8,1.2
			c1.8,1.9,4.3,3.6,7.2,4.9c-1,1.3-1.8,3.1-2.5,5.3C712.7,925.3,710.1,923.3,708.1,921.1z M701.3,907.4c-0.2,3.4-0.7,6.2-1.2,8.5
			c-0.6,2.5-1.5,4.7-2.5,6.7c1.5-0.7,3-1.6,4.5-2.7c1.2-0.9,2.2-1.8,3-2.8C703.2,914.3,701.9,911,701.3,907.4z M708,912.9
			c1.2-2.2,2.1-4.8,2.7-7.8h-5.5c0.3,1.3,0.6,2.5,1,3.6C706.8,910.5,707.4,911.9,708,912.9z"/>
		<path class="st0" d="M736.1,907.6h-4.7c-2.2,0-3.7,0.1-4.7,0.2v-2.7c-1.4,0.8-2.7,1.4-4,2c-0.5-1.3-1-2.2-1.4-2.9
			c-0.3-0.5-0.8-1.3-1.5-2.2c3.2-1.1,6.4-2.7,9.4-4.9c3-2.3,5.2-4.5,6.6-6.8h5.8c1.8,2.5,4.1,4.7,7,6.7c1.9,1.3,3.7,2.3,5.5,3.2
			c1.2,0.5,2.5,1.1,4.1,1.6c-1.2,1.9-2.2,3.7-2.8,5.4c-1.4-0.6-2.8-1.3-4.3-2.2v2.7c-1-0.1-2.5-0.2-4.6-0.2h-5.2v4h6.1
			c2.2,0,3.7-0.1,4.7-0.2v5.3c-1-0.2-2.5-0.2-4.8-0.2h-6.1v4.7h9.6c2.4,0,4.2-0.1,5.5-0.2v5.4c-1.1-0.2-2.9-0.2-5.4-0.3h-24.4
			c-2.3,0-4.1,0.1-5.3,0.3v-5.4c1,0.2,2.8,0.2,5.4,0.2h9.2v-4.7h-5.5c-2.2,0-3.8,0.1-4.7,0.2v-5.3c1.1,0.1,2.6,0.2,4.7,0.2h5.5
			V907.6z M730.3,902.9h0.6H747h0.6c-1.6-1.1-2.9-2.1-4.1-3c-1.7-1.4-3.2-3-4.7-4.9C737.1,897.6,734.2,900.2,730.3,902.9z"/>
		<path class="st0" d="M763.3,910.6c-1-1.9-2.2-3.6-3.5-4.9c4-2.7,7.2-6,9.6-10.1c1.2-2,1.9-3.7,2.1-4.9l5.7,2.1
			c-0.1,0.2-0.2,0.4-0.4,0.6c-0.1,0.1-0.1,0.3-0.2,0.4c-0.1,0.3-0.3,0.6-0.5,1c-1.7,3.6-3.9,6.8-6.6,9.9
			C767.7,906.8,765.6,908.8,763.3,910.6z M788.9,923.1l-0.7,0.1c-6.2,1-13.1,1.7-20.7,2.1c-2.3,0.1-3.8,0.2-4.7,0.4l-0.9-5.9
			c0.7,0.1,1.7,0.1,2.9,0.1c0.7,0,1.5,0,2.2,0c2-3.4,4-7.3,5.8-11.5c1.3-3,2.1-5.3,2.4-6.9l6.2,1.6c-0.2,0.3-0.4,0.8-0.6,1.3
			c-2.6,6.3-5.1,11.3-7.5,15.3c5.5-0.3,9.8-0.7,13.1-1.2c-1.4-2.3-3-4.6-4.7-6.6l4.6-2.6c1.5,2,3.3,4.4,5.2,7.3
			c1.8,2.7,3.3,5.2,4.6,7.8l-5.1,2.9C790.2,925.6,789.5,924.2,788.9,923.1z M794.8,910.7c-6-4.5-10.4-10.1-13.4-16.6
			c-0.3-0.6-0.5-1-0.6-1.2l5.1-2.1c0.2,0.6,0.4,1.1,0.6,1.7c2.6,5.5,6.5,9.9,11.7,13.1C797,907,795.8,908.8,794.8,910.7z"/>
		<path class="st0" d="M802.8,900.2c2.3,1.3,4.6,2.9,6.9,4.8l-2.9,4.4c-2-1.9-4.4-3.6-7-5.2L802.8,900.2z M809.8,914.2
			c-1.2,4.6-2.9,9-5.1,13l-4.6-3.9c0.6-0.6,1.1-1.4,1.6-2.3c1.5-2.8,2.8-6,3.8-9.8L809.8,914.2z M810.6,896.1l-2.5,3.3
			c-1.1-1.2-2.2-2.2-3.2-3c-1-0.8-2.1-1.6-3.5-2.5l3.3-3.8c2.2,1.4,4.1,2.9,5.9,4.6c0-1,0-1.7-0.1-2.1c0.9,0.1,2.2,0.2,4,0.2h6.4
			c0-1.1-0.1-2-0.2-2.6h5.6c-0.1,0.7-0.2,1.6-0.2,2.6h6.9c1.9,0,3.3-0.1,4.2-0.2c-0.1,0.8-0.1,1.8-0.1,2.9v2.4c0,1.2,0.1,2.2,0.2,3
			h-3.4v2.1c-0.8-0.1-2.1-0.1-3.8-0.2h-4.1v1.8h6.5c1.5,0,2.7,0,3.4-0.1c-0.1,1-0.2,2.1-0.2,3.5v8.4c0,1.4,0.1,2.6,0.2,3.6
			c-0.7-0.1-1.9-0.1-3.5-0.1h-4c2.7,1.8,6,2.9,9.9,3.2c-1,1.3-1.8,2.8-2.4,4.4c-2-0.4-3.8-1-5.4-1.6c-1.4-0.6-2.6-1.2-3.8-1.9
			c-0.3-0.2-1-0.6-1.9-1.3l2.9-2.9h-8.6l3.2,2.9c-2,1.4-3.7,2.4-5.2,3.1c-1.5,0.6-3.4,1.2-5.7,1.7c-0.7-1.7-1.7-3.1-2.8-4.3
			c3.9-0.4,7.2-1.6,9.8-3.4H815c-1.5,0-2.6,0.1-3.4,0.1c0.1-0.7,0.2-1.9,0.2-3.6v-8.6c0-1.5,0-2.6-0.1-3.4c0.8,0.1,1.9,0.1,3.3,0.1
			h6.1v-1.8h-3.7c-1.6,0-2.9,0.1-3.8,0.2v-2h-3.2c0.1-0.7,0.2-1.6,0.2-2.7V896.1z M831.9,898.8V897h-16.5v1.9c0.5,0,1.2,0,2,0h12.6
			C830.7,898.9,831.4,898.9,831.9,898.8z M821.1,908.2h-4.6v2.1h4.6V908.2z M821.1,913.9h-4.6v2.1h4.6V913.9z M825.8,908.2v2.1h4.9
			v-2.1H825.8z M825.8,913.9v2.1h4.9v-2.1H825.8z"/>
		<path class="st0" d="M849.3,899.8c0.7-4,1-6.7,1-8.1c0-0.1,0-0.3,0-0.6l6.2,0.6c-0.1,0.4-0.2,0.8-0.3,1.3l-0.1,0.6l-0.2,1.4
			c-0.5,2.6-0.7,4-0.8,4.4c0.8-0.1,1.5-0.1,2.1-0.1c2.9,0,5,0.8,6.3,2.3c0.8,0.9,1.3,2,1.5,3.2c0.2,1.2,0.4,2.6,0.4,4.2
			c0,4.8-0.5,8.7-1.5,11.6c-0.5,1.5-1.1,2.6-1.8,3.3c-0.9,0.9-1.9,1.5-3.1,1.7c-0.5,0.1-1,0.1-1.5,0.1c-1.7,0-3.8-0.4-6.3-1.1
			c0.1-0.8,0.1-1.4,0.1-1.8c0-1.2-0.2-2.6-0.5-4.3c1,0.5,2.1,0.8,3.3,1.1c1,0.3,1.8,0.4,2.4,0.4c0.5,0,1-0.2,1.4-0.6
			c0.6-0.7,1-2.4,1.4-5.1c0.3-2,0.4-3.8,0.4-5.7c0-1.8-0.3-3-1-3.6c-0.4-0.3-0.9-0.5-1.6-0.6c-0.3,0-0.6,0-1,0c-0.5,0-1.2,0-2,0.1
			c-1.4,6.6-3.9,13.4-7.3,20.4c-0.3,0.5-0.5,1-0.6,1.4l-5.6-3c0.5-0.7,1.2-1.7,2-3.2c1.5-2.7,3-6.2,4.4-10.3
			c0.6-1.8,1.1-3.4,1.4-4.8c-3.5,0.5-5.7,0.9-6.7,1.2l-0.5-5.6c0.1,0,0.2,0,0.2,0c0.8,0,1.7-0.1,2.9-0.2
			C846.6,900.1,848.3,899.9,849.3,899.8z M864.3,894l3.5-1.7c1.4,1.5,2.6,3.3,3.7,5.3l-3.5,1.8c-0.4-0.7-0.9-1.6-1.6-2.7
			C865.6,895.6,864.9,894.7,864.3,894z M866.8,901.2l4.9-2.3c2.9,4,5,8.6,6.3,13.8l-5.5,2.7c-0.6-2.9-1.5-6-2.9-9.1
			c-0.7-1.6-1.3-2.8-1.9-3.7C867.5,902.3,867.2,901.8,866.8,901.2z M869.2,891.9l3.4-1.6c0.6,0.7,1.3,1.4,1.9,2.3
			c0.7,1,1.3,1.9,1.8,2.8l-3.4,1.8C871.7,895.1,870.5,893.3,869.2,891.9z"/>
		<path class="st0" d="M881.6,912.5l3.8,0.6c-0.1,2.6-0.2,4.7-0.3,6.6c-0.2,1.9-0.5,3.8-1,5.7l-3.9-2.1
			C881.1,920.6,881.6,917,881.6,912.5z M895.8,911l-2.3,1.1c-0.1-0.7-0.2-1.2-0.3-1.7l-0.6,0.1l-0.6,0.1l-0.4,0l-0.4,0.1v12.3
			c0,1.9,0.1,3.3,0.2,4.3h-5c0.2-1.2,0.2-2.6,0.2-4.3v-12c-1.4,0.1-2.5,0.2-3.2,0.3c-1.3,0.1-2.1,0.1-2.6,0.2l-0.4-4.7
			c0.9,0.1,1.9,0.1,3.1,0.1c0.6-0.7,1.2-1.6,1.9-2.5c-1.8-2.5-3.5-4.5-5.1-5.9l2.4-4.1c0.5,0.5,0.9,1,1.2,1.3c0.6-1,1.1-2,1.6-3.2
			c0.5-1.1,0.8-2,1-2.9l4.6,1.6c-0.2,0.2-0.4,0.6-0.6,1.2c-1.5,3-2.7,5.2-3.7,6.7c0.4,0.5,0.7,1,1.1,1.5c2.2-3.5,3.4-5.7,3.7-6.6
			l4.2,2.2c-0.2,0.3-0.7,1.1-1.5,2.4c-0.9,1.4-2.2,3.4-4,5.9c-0.6,0.8-1.2,1.6-1.8,2.3c1.3-0.1,2.5-0.1,3.7-0.2
			c-0.2-0.8-0.6-1.7-1-2.9l3.2-1.3c0.8,2.1,1.5,4,2.1,5.7c1.9-0.7,3.8-1.7,5.9-3.1c-0.9-1-1.8-2.2-2.7-3.7c-1,0.9-2,1.8-3,2.6
			c-0.7-1.6-1.7-2.9-3.1-4.1c2.1-1.3,3.9-2.9,5.4-5c0.8-1,1.4-2,1.9-3.1c0.4-0.8,0.6-1.4,0.7-1.8l5.2,1.2c-0.2,0.2-0.4,0.6-0.6,1
			c-0.3,0.5-0.5,1-0.7,1.4h4.9c1.5,0,2.6-0.1,3.4-0.2l2.4,2.7c-0.2,0.3-0.5,0.9-1,1.7c-1.8,3.1-3.5,5.5-5.2,7.2
			c2.4,1.5,5.2,2.7,8.4,3.5c-1,1.5-1.9,3.3-2.6,5.3c-3.8-1.5-7.1-3.3-9.8-5.3c-3,2.3-6.1,4-9.2,5.1
			C896.6,912.5,896.2,911.7,895.8,911z M892.1,913.2l3.4-0.7c0.4,2.2,0.7,3.9,0.8,4.9c0.1,0.6,0.2,2.2,0.5,5l-3.8,0.9
			C892.9,919.9,892.6,916.6,892.1,913.2z M915.4,922.5l-2,4.9c-1.5-0.7-2.9-1.3-4-1.8c-3.2-1.2-7.2-2.3-12.1-3.4l2.3-4.6
			c2.9,0.7,5.5,1.4,7.8,2.1C910.1,920.5,912.8,921.4,915.4,922.5z M913.4,915.1l-2.7,4.5c-3-2.2-6.4-4-10.2-5.5l2.8-3.9
			C907.1,911.6,910.4,913.3,913.4,915.1z M906.1,901.7c1.2-1.1,2.3-2.5,3.4-4.2h-6.7l-0.1,0.1C903.7,899.2,904.9,900.5,906.1,901.7z
			"/>
		<path class="st0" d="M947.5,896.8h-18.9c-2.3,0-4.2,0.1-5.7,0.3v-5.6c1.3,0.2,3.2,0.3,5.7,0.3h20.2c2.3,0,3.8-0.1,4.6-0.2l3.3,3.7
			c-0.6,0.6-1.9,1.8-3.9,3.7c-3.2,3-6.8,5.7-10.5,8v15.4c0,1.7-0.5,2.9-1.6,3.5c-1,0.6-2.6,0.9-5.1,0.9c-1.2,0-3-0.1-5.5-0.2
			c-0.3-2-0.7-3.9-1.4-5.6c2.5,0.4,4.6,0.6,6.2,0.6c0.8,0,1.3-0.1,1.6-0.3c0.2-0.1,0.3-0.4,0.3-0.7V906c0-1.7-0.1-3-0.2-4h4.1
			C942.9,900.8,945.2,899,947.5,896.8z"/>
		<path class="st0" d="M966.6,891.7l6.7,0.1c-0.2,1.1-0.4,3-0.5,5.7c-0.3,5.7-0.4,10.5-0.4,14.3c0,1.6,0,2.9,0.1,3.8
			c0.2,2.1,1.2,3.5,2.9,4.1c0.8,0.3,1.8,0.4,2.8,0.4c1.9,0,3.6-0.4,5.1-1.3c2.4-1.4,4.1-4.1,5.2-8.2c0.3-1.2,0.6-2.6,0.8-4.3
			c1.2,1,2.3,1.7,3.1,2.3c0.7,0.4,1.6,0.9,2.7,1.3c-0.6,2.1-1.1,3.7-1.6,5c-0.6,1.6-1.2,2.9-1.9,3.9s-1.4,2-2.4,2.9
			c-3,2.8-6.7,4.2-11.3,4.2c-3.1,0-5.5-0.6-7.4-1.8c-1.8-1.2-3-2.8-3.6-4.8c-0.4-1.4-0.6-3.3-0.6-5.7c0-1.2,0.1-4.4,0.2-9.7
			c0.1-5.4,0.2-8.5,0.2-9.2C966.8,893.6,966.7,892.6,966.6,891.7z"/>
		<path class="st0" d="M1023.1,918.2c0,0.3,0,0.6,0,0.7c0,2.2-0.7,3.9-2.2,5c-1.6,1.2-4,1.8-7.2,1.8c-2.1,0-3.9-0.3-5.4-0.9
			c-2.7-1.1-4.1-3-4.1-5.8c0-2.8,1.5-4.8,4.5-6.1c1.8-0.8,4.1-1.1,6.9-1.1c0.6,0,1.2,0,1.9,0.1l-0.1-3.2c-1.3,0-2.4,0-3.2,0
			c-2.4,0-5-0.1-7.9-0.2c-0.5,0-1,0-1.6,0l0.1-5.1c0.7,0.1,1.5,0.2,2.4,0.3c2.5,0.2,4.8,0.3,6.9,0.3c1,0,2.1,0,3.3,0l0-1.3l0-1.6
			v-0.4c-0.7,0-1.4,0-2.1,0c-1.7,0-4.6-0.1-8.8-0.3c-1.5-0.1-2.3-0.1-2.4-0.1c-0.1,0-0.3,0-0.6,0l0.1-5.3c0.8,0.2,1.5,0.3,2.2,0.4
			c2.7,0.3,5.6,0.4,8.7,0.4c0.7,0,1.6,0,2.8,0c0-0.9,0-1.8,0-2.8c0-0.5-0.1-1.1-0.2-1.9h6c-0.2,0.8-0.3,2.3-0.3,4.5
			c2.6-0.1,4.9-0.3,6.9-0.6c1.9-0.3,3.4-0.5,4.6-0.9l0.2,5.3c-0.7,0-1.8,0.2-3.3,0.4c-3.4,0.4-6.2,0.7-8.4,0.8l0,0.5l0,1.4l0,1.3
			c4.7-0.3,8.2-0.7,10.5-1.3l0.2,5.2c-0.2,0-0.5,0-0.8,0.1c-0.1,0-0.3,0-0.7,0.1c-0.4,0-1.4,0.1-3,0.3c-2.6,0.3-4.7,0.4-6.1,0.5
			l0,0.8c0.1,1.6,0.1,2.7,0.1,3.4c3.3,1,7,2.8,10.9,5.6c0.5,0.4,1,0.7,1.5,1l-3.2,5.5c-0.5-0.6-1.2-1.2-1.9-1.9
			c-1.1-0.9-2.3-1.8-3.8-2.8C1025.3,919.3,1024.2,918.7,1023.1,918.2z M1017.6,916.9c-1-0.2-1.9-0.3-2.9-0.3c-1.5,0-2.7,0.2-3.5,0.7
			c-0.7,0.4-1.1,1-1.1,1.6c0,0.7,0.4,1.2,1.2,1.5c0.6,0.3,1.5,0.4,2.6,0.4c1.6,0,2.7-0.4,3.2-1.1c0.3-0.5,0.5-1.2,0.5-2.1
			C1017.6,917.2,1017.6,916.9,1017.6,916.9z"/>
		<path class="st0" d="M1046.6,891.7l6.7,0.1c-0.2,1.1-0.4,3-0.5,5.7c-0.3,5.7-0.4,10.5-0.4,14.3c0,1.6,0,2.9,0.1,3.8
			c0.2,2.1,1.2,3.5,2.9,4.1c0.8,0.3,1.8,0.4,2.8,0.4c1.9,0,3.6-0.4,5.1-1.3c2.4-1.4,4.1-4.1,5.2-8.2c0.3-1.2,0.6-2.6,0.8-4.3
			c1.2,1,2.3,1.7,3.1,2.3c0.7,0.4,1.6,0.9,2.7,1.3c-0.6,2.1-1.1,3.7-1.6,5c-0.6,1.6-1.2,2.9-1.9,3.9s-1.4,2-2.4,2.9
			c-3,2.8-6.7,4.2-11.3,4.2c-3.1,0-5.5-0.6-7.4-1.8c-1.8-1.2-3-2.8-3.6-4.8c-0.4-1.4-0.6-3.3-0.6-5.7c0-1.2,0.1-4.4,0.2-9.7
			c0.1-5.4,0.2-8.5,0.2-9.2C1046.8,893.6,1046.7,892.6,1046.6,891.7z"/>
		<path class="st0" d="M1089.5,897.2c0.1-0.7,0.3-1.7,0.4-2.9c0.2-1.4,0.3-2.4,0.3-3.1c0-0.2,0-0.4,0-0.6l6.3,0.5
			c-0.2,0.6-0.4,1.9-0.8,3.8c-0.1,0.8-0.3,1.5-0.4,2c2.5-0.2,4.8-0.6,6.7-1.1l0.2,5.5c-0.5,0.1-1.3,0.2-2.2,0.4
			c-1.8,0.3-3.7,0.5-5.6,0.6c-1.1,6.3-3.2,13.8-6.4,22.6l-0.4,1l-6.1-2.3c1.5-2.8,3.1-7,4.9-12.7c0.9-3,1.6-5.9,2.1-8.5
			c-0.6,0-1,0-1.1,0l-1.4,0l-1.5,0c-0.7,0-1.2-0.1-1.3-0.1c-0.2,0-0.4,0-0.8,0l0.1-5.5c1.4,0.3,3.4,0.4,5.8,0.4
			C1088.5,897.2,1088.9,897.2,1089.5,897.2z M1098.5,911.1l4.8,1.7c-0.5,0.7-0.9,1.2-1.1,1.6c-0.6,1-0.9,1.9-0.9,2.8
			c0,1.9,1.9,2.8,5.6,2.8c1.9,0,4.1-0.3,6.5-0.8c0.9-0.2,1.8-0.4,2.7-0.8l0.4,5.9c-0.5,0.1-1.2,0.1-2,0.3c-3,0.4-5.5,0.6-7.6,0.6
			c-3.6,0-6.4-0.6-8.3-1.7c-1-0.6-1.7-1.4-2.3-2.4c-0.5-0.9-0.7-1.8-0.7-2.8c0-1.4,0.4-2.8,1.2-4.4
			C1097,913.2,1097.7,912.2,1098.5,911.1z M1114.8,902.5l0.1,5.7c-1.7-0.2-3.4-0.3-5.2-0.3c-2.9,0-5.5,0.2-7.9,0.5
			c-0.8,0.1-1.8,0.3-2.9,0.5l-0.4-5.3c2.6-0.5,4.4-0.8,5.6-0.9c2.1-0.2,4.4-0.4,7-0.4C1111.7,902.4,1112.9,902.4,1114.8,902.5z"/>
		<path class="st0" d="M1141.8,915.3h-5.6c0.1-0.8,0.1-1.4,0.1-1.9c0-0.4,0-1.3-0.1-2.9l-0.7-13.2c-0.1-2.4-0.3-4.1-0.4-5.1h7.8
			c-0.2,1-0.3,2.7-0.4,5.1l-0.7,13.2c-0.1,1.4-0.1,2.4-0.1,2.9C1141.7,914,1141.7,914.6,1141.8,915.3z M1142.4,924.8h-6.9v-6.5h6.9
			V924.8z"/>
		<path class="st0" d="M610.2,984.2c-1.2,4.4-2.9,8.7-5.3,13l-4.6-3.9c0.4-0.5,0.8-1,1.2-1.6c1.8-3.1,3.2-6.5,4.3-10.4L610.2,984.2z
			 M603.4,970.2c2.4,1.3,4.8,3,7.3,5l-3,4.5c-2.2-2-4.7-3.8-7.3-5.4L603.4,970.2z M605.2,960.3c2.4,1.4,4.8,3.2,7.2,5.2l-3.3,4.4
			c-2.2-2.1-4.6-4-7.1-5.6L605.2,960.3z M628.2,978.1c0.2,1,0.4,1.9,0.7,2.8c0.7,2.1,1.5,3.8,2.3,5.1c1.6,2.4,3.7,4.4,6.4,6.1
			c-1.4,1.5-2.6,3.2-3.5,4.9c-3.4-2.5-6-5.6-8-9.3c-1.5-2.9-2.5-6.1-3-9.6h-4.4c-0.2,3.1-0.5,5.5-0.8,7.3c-0.4,2-0.8,3.6-1.3,5
			c-1,2.8-2.3,5.1-3.7,6.9c-1.2-1.5-2.6-2.8-4.4-3.8c1.8-2.4,3-4.8,3.7-7.3c0.5-1.9,0.9-4.2,1.1-6.7c0.2-2.8,0.4-6.5,0.4-11.1
			c0-2.6-0.1-4.9-0.2-6.7c1.1,0.1,2.6,0.2,4.6,0.2h13.2c1.9,0,3.3-0.1,4.3-0.2c-0.1,1.2-0.2,2.6-0.2,4.3v8c0,1.8,0.1,3.2,0.2,4.2
			c-0.9-0.1-2.3-0.2-3.9-0.2H628.2z M618.8,973.4h11.4v-6.7h-11.4v1.9C618.9,970.1,618.9,971.7,618.8,973.4z"/>
		<path class="st0" d="M656,989.1v-24.6c0-1.7-0.1-3-0.3-4.2h6.2c-0.2,1.2-0.3,2.6-0.3,4.2v24.6h8.7v-17.8c0-1.6-0.1-2.9-0.2-3.9
			h5.9c-0.2,1.2-0.2,2.5-0.2,3.9v20.4c0,1.9,0.1,3.7,0.3,5.2h-5.7v-2.7h-22.5v2.7h-5.6c0.1-1.2,0.2-2.9,0.2-5.2v-20.4
			c0-1.5-0.1-2.8-0.2-4h5.8c-0.1,1-0.2,2.3-0.2,3.9v17.8H656z"/>
		<path class="st0" d="M702.6,968.6c-0.8,6.5-2.2,12-4.3,16.5c-1.2,2.6-2.5,4.5-3.9,5.8c-1.3,1.1-2.7,1.7-4.5,1.7
			c-1.7,0-3.2-0.5-4.5-1.5c-1.1-0.9-2-2.1-2.7-3.6c-0.9-1.9-1.3-4.1-1.3-6.6c0-3.1,0.7-6,2.1-8.6c0.9-1.6,2-3.1,3.4-4.4
			c1.9-1.7,4.1-3,6.6-3.8c2-0.6,4.2-0.9,6.4-0.9c2.9,0,5.7,0.5,8.2,1.6c2.8,1.3,5,3.2,6.5,5.9c1.2,2.3,1.8,4.9,1.8,7.8
			c0,1.9-0.3,3.7-0.8,5.4c-0.5,1.8-1.3,3.3-2.2,4.7c-2,2.9-5.1,4.9-9.2,6.1c-1.1,0.3-2.5,0.6-4.1,0.9c-0.4-1.2-0.9-2.3-1.4-3.3
			c-0.4-0.7-0.9-1.5-1.6-2.4c3.4-0.3,6-0.9,7.9-1.9c1.7-0.9,3-2.2,4-4c1-1.8,1.5-3.7,1.5-5.8c0-2.5-0.7-4.6-2.1-6.4
			c-1-1.3-2.3-2.2-3.7-2.8C704.2,968.8,703.5,968.7,702.6,968.6z M696.8,968.6c-1.8,0.2-3.4,0.9-4.8,2c-1.9,1.5-3.3,3.4-4.1,5.7
			c-0.5,1.5-0.8,3-0.8,4.5c0,1.6,0.3,2.9,0.8,3.9c0.4,0.8,0.9,1.2,1.5,1.5c0.2,0.1,0.3,0.1,0.5,0.1c1.2,0,2.4-1.6,3.7-4.8
			c1-2.3,1.8-5.2,2.5-8.6C696.4,971.6,696.6,970.1,696.8,968.6z"/>
		<path class="st0" d="M729.8,977.2l4.2,3.1c-2.4,1.9-3.6,3.7-3.6,5.2c0,1.3,0.9,2.2,2.7,2.8c1.3,0.4,3.4,0.6,6.3,0.6
			c3.2,0,6.4-0.3,9.4-0.8c1.5-0.3,2.7-0.6,3.6-0.9l0.4,6.5c-0.6,0-1.8,0.1-3.6,0.4c-3.3,0.4-6.3,0.6-9,0.6c-4.8,0-8.3-0.4-10.5-1.3
			c-3.6-1.4-5.3-3.7-5.3-7c0-2.1,0.7-4,2.1-5.9C727.3,979.5,728.4,978.4,729.8,977.2z M726.6,968.8l0.4-5.7c2.5,0.7,6.7,1,12.7,1
			c5.1,0,8.6-0.2,10.8-0.7l0.2,5.3c-0.7,0.3-2,1-4,2.2c-2.4,1.5-4.7,3-6.9,4.6l-4.1-3c1.7-1.1,3-2,4.2-2.6c0.4-0.3,0.8-0.5,1.1-0.7
			c-1.5,0.1-3,0.2-4.6,0.2c-3,0-5.8-0.2-8.3-0.5C727.4,968.8,726.9,968.8,726.6,968.8z M744.5,973.7l3.3-1.8c1.4,1.4,2.6,3.1,3.6,5
			l-3.3,1.9C747.1,976.9,745.9,975.1,744.5,973.7z M749.1,971.2l3.1-1.7c1.4,1.5,2.6,3.1,3.6,4.8l-3.2,1.9c-0.4-0.8-1-1.7-1.7-2.6
			C750.3,972.7,749.7,971.9,749.1,971.2z"/>
		<path class="st0" d="M773.2,981.4h-7.4c-2,0-3.6,0.1-4.9,0.2v-5.2c1.1,0.2,2.7,0.2,4.8,0.2h2.6c-0.7-2.1-1.5-4.1-2.7-6l4.7-1.6
			c1,1.7,1.9,3.8,2.8,6.3l-3.8,1.3h6.7v-7.9h-8.9c-1.9,0-3.4,0.1-4.5,0.2v-5.3c1.2,0.2,2.8,0.3,4.8,0.3h8.6v-1.1
			c0-1.1-0.1-2.1-0.2-2.9h5.5c-0.1,0.8-0.2,1.8-0.2,3v1h9.3c2.3,0,3.9-0.1,4.9-0.3v5.3c-1-0.1-2.5-0.2-4.5-0.2h-9.6v7.9h2.3
			c1.5-2.4,2.6-4.8,3.4-7.4l5.1,1.4c-0.8,2-1.8,4-3,6h3.4c2.2,0,3.8-0.1,4.7-0.2v5.2c-1.2-0.2-2.8-0.2-5-0.2h-8.1
			c1.8,2.3,3.8,4.2,6.1,5.8c2.1,1.4,4.7,2.8,7.9,4c-1.2,1.5-2.3,3.2-3.2,5.1c-3.3-1.7-6.1-3.6-8.4-5.6c-2-1.8-3.8-3.8-5.4-6.1
			c0,0.3,0,0.8,0.1,1.4l0,0.9l0.1,1.3v4.9c0,1.5,0.1,2.9,0.3,4.2h-5.7c0.2-1.1,0.3-2.5,0.3-4.2v-4.9c0-0.5,0-1.2,0.1-2.1
			c0-0.7,0.1-1.2,0.1-1.6c-1.2,1.7-2.2,3.2-3.2,4.2c-2.5,2.8-5.8,5.2-9.8,7.3c-0.8-1.8-1.9-3.5-3.2-4.9
			C765.9,988.6,770.3,985.3,773.2,981.4z"/>
		<path class="st0" d="M819,985h-2.5c-1.4,1.1-2.9,2.1-4.7,3c-0.3-0.6-0.7-1.2-1.2-1.8c-2.1,1.3-4.5,2.5-7,3.7l-0.7,0.3
			c-0.5,0.2-1,0.5-1.5,0.8l-1.1-5.5c0.9-0.2,2.3-0.7,4.2-1.4v-9.8h-0.9c-1.1,0-2.1,0.1-2.9,0.2v-5c0.8,0.1,1.7,0.2,3,0.2h0.9v-4.7
			c0-2-0.1-3.5-0.3-4.5h5.5c-0.2,1-0.2,2.5-0.2,4.5v4.7h0.6c1.2,0,2,0,2.6-0.1v4.9c-0.7-0.1-1.6-0.1-2.5-0.1h-0.6v7.6
			c0.5-0.2,1.3-0.7,2.5-1.3v2.7c1.9-1.1,3.3-2.3,4.2-3.4h-0.5c-1.8,0-3,0.1-3.7,0.2v-4.5c0.8,0.1,2,0.2,3.8,0.2h17.7
			c1.9,0,3.4-0.1,4.2-0.2v4.5c-0.9-0.1-2.3-0.2-4.2-0.2h-12.2c-0.3,0.5-0.6,1-1,1.4h12.7c1.6,0,2.9,0,3.9-0.1
			c-0.1,0.6-0.1,1.4-0.2,2.4c-0.1,3.3-0.3,6-0.8,8.3c-0.4,1.8-0.8,3.1-1.5,3.8c-0.6,0.7-1.6,1.2-3,1.3c-0.7,0.1-1.6,0.1-2.7,0.1
			c-0.7,0-1.8,0-3.1-0.1c-0.1-1.3-0.5-2.6-1-3.8c-2.1,1.8-4.4,3.3-7.2,4.5c-0.9-1.3-1.9-2.5-3.1-3.4c1.7-0.7,3.1-1.3,4.2-1.9
			c2.4-1.4,4.3-2.9,5.6-4.4c0.7-0.8,1.3-1.8,1.9-2.8h-2c-1.3,1.9-3,3.6-4.9,5c-1,0.7-2.3,1.5-4,2.3c-0.6,0.3-1.4,0.7-2.3,1
			c-0.6-1.2-1.5-2.3-2.7-3.3C814.1,988.8,817.1,987.1,819,985z M814,974.4c0.1-1,0.2-2.4,0.2-4v-5.7c0-1.5-0.1-2.7-0.2-3.7
			c1,0.1,2.4,0.2,4.2,0.2h12.1c1.9,0,3.4-0.1,4.3-0.2c-0.1,0.9-0.2,2.3-0.2,4.1v5.4c0,1.7,0,3,0.2,3.9c-0.6-0.1-1.8-0.1-3.6-0.1
			h-13.3C815.9,974.2,814.7,974.3,814,974.4z M818.9,965v1.4h10.7V965H818.9z M818.9,969.4v1.4h10.7v-1.4H818.9z M830.6,985
			c-0.7,1.5-1.5,2.7-2.2,3.8c-0.8,1.2-1.8,2.3-2.9,3.4c1.3,0.1,2.3,0.2,3.2,0.2c1,0,1.6-0.3,1.9-0.8c0.4-0.8,0.7-3,1-6.5H830.6z"/>
		<path class="st0" d="M851.8,965.6c0-0.5,0.1-1.2,0.2-2.1c0.1-1.4,0.1-2.4,0-2.9l5.9,0.3c-0.3,0.8-0.5,2.3-0.7,4.6
			c3.3-0.2,6.2-0.4,8.7-0.8c3-0.4,5.1-0.8,6.3-1.3l0.3,5.5c-0.4,0-1,0.1-1.7,0.2c-2.7,0.4-5.2,0.7-7.5,0.9c-3.1,0.3-5.3,0.4-6.5,0.4
			c0,0.4,0,0.9-0.1,1.5c0,0.4,0,1-0.1,1.6c0.9-0.2,1.8-0.3,2.7-0.4c0.5,0,1.2-0.1,2.3-0.1c0.4,0,0.9,0,1.4,0.1
			c0.4-1.1,0.6-2,0.7-2.8l5.4,1.5c-0.1,0.2-0.3,0.6-0.5,1.3c-0.2,0.5-0.3,0.9-0.4,1.1c1.5,0.4,2.9,1.1,4.1,2.1
			c2.4,1.9,3.6,4.4,3.6,7.5c0,2.8-0.9,5.3-2.8,7.3c-1.9,2.1-4.6,3.6-8.2,4.4c-1.1,0.3-2.6,0.5-4.3,0.7c-0.5-1.8-1.3-3.7-2.4-5.6
			c2.9,0,5.2-0.4,7.1-1.2c1.9-0.8,3.2-1.8,4-3.1c0.5-0.9,0.8-1.9,0.8-2.9c0-1.2-0.3-2.2-1-3c-0.5-0.7-1.4-1.3-2.5-1.8
			c-1.2,2.6-2.4,4.7-3.6,6.4c-2.1,2.9-4.4,5.3-6.9,7.1c-2.5,1.8-4.9,2.7-7.3,2.7c-1.3,0-2.4-0.3-3.5-0.9c-1.2-0.7-2.1-1.7-2.6-2.9
			c-0.5-1.1-0.7-2.4-0.7-3.7c0-3.4,1.3-6.5,4-9.1c1.5-1.5,3.3-2.7,5.5-3.6c0-1.3,0-2.6,0.1-3.8l0-0.4c-0.2,0-0.6,0-1.1,0
			c-0.7,0-2.1,0-4-0.1c-1.2,0-1.8,0-1.9,0c-0.2,0-0.6,0-1.1,0l0-5.4c1.4,0.2,2.6,0.4,3.7,0.5c1.2,0.1,2.4,0.1,3.7,0.1
			C851,965.6,851.3,965.6,851.8,965.6z M851.6,980.1c-1.1,0.7-2,1.5-2.7,2.5c-1,1.3-1.5,2.7-1.5,4.2c0,0.9,0.2,1.5,0.5,2
			c0.4,0.5,0.9,0.7,1.5,0.7c0.9,0,1.9-0.4,2.9-1.2C851.8,985.5,851.6,982.8,851.6,980.1z M856.6,978c0,2.5,0.1,4.7,0.3,6.7
			c1.3-1.6,2.2-2.8,2.8-3.8c0.8-1.3,1.4-2.4,1.8-3.5c-0.3,0-0.6-0.1-0.9-0.1C859.2,977.4,857.8,977.6,856.6,978z"/>
		<path class="st0" d="M887.4,960.9l6,0.3c-0.6,1.6-1.1,4.9-1.8,9.9c1.1-2.3,2.3-4.1,3.6-5.3c2-1.8,4.2-2.8,6.6-2.8
			c1.6,0,3.1,0.4,4.4,1.2c1.9,1.1,3.4,2.9,4.5,5.5c0.9,2.1,1.3,4.6,1.3,7.6c0,7.2-2.6,12.4-7.7,15.6c-2.8,1.8-6.6,3-11.3,3.8
			c-0.7-2.1-1.6-4.1-2.8-5.8c3.8-0.3,6.9-1,9.2-2c2.7-1.2,4.5-3.1,5.6-5.5c0.7-1.7,1.1-3.8,1.1-6.2c0-3.1-0.6-5.4-1.8-6.9
			c-0.8-1-1.8-1.5-3.2-1.5c-1.6,0-3.2,0.9-4.7,2.6c-2.4,2.8-3.8,6-4.3,9.6c-0.1,0.7-0.1,1.7-0.1,3.2l-5.7,0.1c0-0.3,0-0.5,0-0.7
			s0-0.4,0-0.7c-0.1-2.1-0.1-3.8-0.1-5c0-2.6,0.1-5.5,0.4-8.5c0.1-0.7,0.3-2.7,0.6-5.9C887.3,962.2,887.4,961.3,887.4,960.9z"/>
		<path class="st0" d="M929.3,969.8c0.7-4,1-6.7,1-8.1c0-0.1,0-0.3,0-0.6l6.2,0.6c-0.1,0.4-0.2,0.8-0.3,1.3l-0.1,0.6l-0.2,1.4
			c-0.5,2.6-0.7,4-0.8,4.4c0.8-0.1,1.5-0.1,2.1-0.1c2.9,0,5,0.8,6.3,2.3c0.8,0.9,1.3,2,1.5,3.2c0.2,1.2,0.4,2.6,0.4,4.2
			c0,4.8-0.5,8.7-1.5,11.6c-0.5,1.5-1.1,2.6-1.8,3.3c-0.9,0.9-1.9,1.5-3.1,1.7c-0.5,0.1-1,0.1-1.5,0.1c-1.7,0-3.8-0.4-6.3-1.1
			c0.1-0.8,0.1-1.4,0.1-1.8c0-1.2-0.2-2.6-0.5-4.3c1,0.5,2.1,0.8,3.3,1.1c1,0.3,1.8,0.4,2.4,0.4c0.5,0,1-0.2,1.4-0.6
			c0.6-0.7,1-2.4,1.4-5.1c0.3-2,0.4-3.8,0.4-5.7c0-1.8-0.3-3-1-3.6c-0.4-0.3-0.9-0.5-1.6-0.6c-0.3,0-0.6,0-1,0c-0.5,0-1.2,0-2,0.1
			c-1.4,6.6-3.9,13.4-7.3,20.4c-0.3,0.5-0.5,1-0.6,1.4l-5.6-3c0.5-0.7,1.2-1.7,2-3.2c1.5-2.7,3-6.2,4.4-10.3
			c0.6-1.8,1.1-3.4,1.4-4.8c-3.5,0.5-5.7,0.9-6.7,1.2l-0.5-5.6c0.1,0,0.2,0,0.2,0c0.8,0,1.7-0.1,2.9-0.2
			C926.6,970.1,928.3,969.9,929.3,969.8z M944.3,964l3.5-1.7c1.4,1.5,2.6,3.3,3.7,5.3l-3.5,1.8c-0.4-0.7-0.9-1.6-1.6-2.7
			C945.6,965.6,944.9,964.7,944.3,964z M946.8,971.2l4.9-2.3c2.9,4,5,8.6,6.3,13.8l-5.5,2.7c-0.6-2.9-1.5-6-2.9-9.1
			c-0.7-1.6-1.3-2.8-1.9-3.7C947.5,972.3,947.2,971.8,946.8,971.2z M949.2,961.9l3.4-1.6c0.6,0.7,1.3,1.4,1.9,2.3
			c0.7,1,1.3,1.9,1.8,2.8l-3.4,1.8C951.7,965.1,950.5,963.3,949.2,961.9z"/>
		<path class="st0" d="M970.6,961.8l6.2-1c0.1,1.1,0.3,2.8,0.8,5.2c0.5,2.7,1.1,5.1,1.7,7c1.6-0.6,4.9-1.7,10.1-3.3
			c0.6-0.2,1.2-0.4,1.6-0.6l2,6.1c-2,0.4-4,0.8-6,1.3c-6.4,1.8-10.8,3.5-13,5c-2,1.4-3,2.8-3,4.4c0,0.8,0.3,1.6,0.9,2.2
			c1.1,1.1,3.7,1.6,7.6,1.6c4.1,0,7.9-0.4,11.3-1.2c0.8-0.2,1.5-0.4,2.1-0.6l0.5,6.5c-0.6,0-1.7,0.1-3.4,0.3c-4,0.4-7.4,0.6-10,0.6
			c-4,0-7.2-0.4-9.5-1.3c-2.1-0.8-3.5-1.9-4.5-3.3c-0.9-1.4-1.3-2.9-1.3-4.7c0-1.9,0.5-3.7,1.6-5.3c1.1-1.6,2.9-3.2,5.4-4.6
			c0.5-0.3,1.1-0.6,2.1-1.1c-0.8-2.7-1.7-6.3-2.6-10.7C970.9,963.1,970.7,962.2,970.6,961.8z"/>
		<path class="st0" d="M1005.2,979.8l-1.3-6.3c0.7,0,1.2-0.1,1.7-0.1c0.3-0.1,1.4-0.2,3.3-0.5c5.2-0.9,9.5-1.3,12.8-1.3
			c3.4,0,6,0.5,7.8,1.6c1.3,0.8,2.4,1.9,3.1,3.3c0.7,1.3,1.1,2.8,1.1,4.4c0,2.3-0.7,4.6-2.1,6.7c-1.3,2-3.3,3.7-5.9,5.2
			c-1.8,1-3.7,1.7-5.7,2.3c-1.9,0.5-4.4,1-7.4,1.4c-0.3-1.3-0.6-2.4-1-3.3c-0.3-0.8-0.8-1.6-1.4-2.6c2.6-0.2,4.8-0.4,6.6-0.8
			c2.8-0.6,5-1.4,6.8-2.6c1.4-0.9,2.4-2,3-3.3c0.4-0.9,0.7-1.8,0.7-2.6c0-1.2-0.4-2.2-1.1-2.9c-0.9-0.9-2.5-1.3-4.7-1.3
			c-2,0-4.4,0.2-7.2,0.6C1010.3,978.3,1007.4,979,1005.2,979.8z M1008.5,966.2l1.8-5.6c1.7,0.6,3.4,1,5,1.3c3.8,0.7,7.6,1,11.5,1
			c0.5,0,1.2,0,2,0l-0.8,5.8C1020.5,968.4,1014,967.6,1008.5,966.2z"/>
		<path class="st0" d="M1049.8,977.2l4.2,3.1c-2.4,1.9-3.6,3.7-3.6,5.2c0,1.3,0.9,2.2,2.7,2.8c1.3,0.4,3.4,0.6,6.3,0.6
			c3.2,0,6.4-0.3,9.4-0.8c1.5-0.3,2.7-0.6,3.6-0.9l0.4,6.5c-0.6,0-1.8,0.1-3.6,0.4c-3.3,0.4-6.3,0.6-9,0.6c-4.8,0-8.3-0.4-10.5-1.3
			c-3.6-1.4-5.3-3.7-5.3-7c0-2.1,0.7-4,2.1-5.9C1047.3,979.5,1048.4,978.4,1049.8,977.2z M1046.6,968.8l0.4-5.7
			c2.5,0.7,6.7,1,12.7,1c5.1,0,8.6-0.2,10.8-0.7l0.2,5.3c-0.7,0.3-2,1-4,2.2c-2.4,1.5-4.7,3-6.9,4.6l-4.1-3c1.7-1.1,3-2,4.2-2.6
			c0.4-0.3,0.8-0.5,1.1-0.7c-1.5,0.1-3,0.2-4.6,0.2c-3,0-5.8-0.2-8.3-0.5C1047.4,968.8,1046.9,968.8,1046.6,968.8z M1064.5,973.7
			l3.3-1.8c1.4,1.4,2.6,3.1,3.6,5l-3.3,1.9C1067.1,976.9,1065.9,975.1,1064.5,973.7z M1069.1,971.2l3.1-1.7c1.4,1.5,2.6,3.1,3.6,4.8
			l-3.2,1.9c-0.4-0.8-1-1.7-1.7-2.6C1070.3,972.7,1069.7,971.9,1069.1,971.2z"/>
		<path class="st0" d="M1097.9,968.2c-0.1-0.3-0.3-0.8-0.6-1.5c-0.9-2.4-1.5-3.9-1.9-4.5l6.2-0.8c0.2,1.3,0.8,3.3,2,6.1
			c4.5-0.7,7.7-1.5,9.8-2.3l0.6,5.7c-0.6,0.1-1.7,0.3-3.1,0.6c-1.7,0.3-3.5,0.7-5.4,1l0.3,0.5c1.9,3.7,4.1,7.3,6.6,10.8l-5.6,2.4
			c-0.6-0.5-1.1-0.9-1.5-1.2c-1.7-1-4.2-1.4-7.3-1.4c-2.8,0-4.9,0.4-6.4,1.3c-1.1,0.6-1.6,1.5-1.6,2.6c0,0.9,0.3,1.6,1,2.2
			c0.5,0.4,1.3,0.8,2.2,1c1.3,0.3,2.8,0.5,4.6,0.5c3,0,6.1-0.5,9.2-1.4c1.1-0.3,2.1-0.8,3.1-1.3l0.8,6.1c-1,0.2-2.1,0.5-3.4,0.8
			c-3.1,0.8-6.3,1.2-9.6,1.2c-2.9,0-5.4-0.3-7.5-0.9c-2.3-0.6-4-1.8-5.2-3.5c-1-1.4-1.4-2.8-1.4-4.5c0-2.3,0.9-4.2,2.6-5.9
			c2.3-2.2,5.8-3.2,10.5-3.2c2.6,0,4.7,0.3,6.5,1c-0.6-0.8-1.2-1.8-1.9-2.9c-0.5-0.9-1-1.7-1.4-2.6c-0.2-0.4-0.4-0.8-0.5-1
			c-3.8,0.5-8.5,0.8-14.1,0.9c-0.7,0-1.3,0.1-1.9,0.1l-0.4-5.7c1.2,0.1,2.5,0.2,4.1,0.2c1.9,0,4-0.1,6.6-0.3
			C1095.1,968.5,1096.4,968.4,1097.9,968.2z M1105.6,960.7l3.5-1.1c1.1,1.5,2,3.1,2.7,4.8l-3.6,1.3
			C1107.4,963.7,1106.6,962.1,1105.6,960.7z M1110.8,959.8l3.4-1.2c1.2,1.7,2.1,3.2,2.7,4.7l-3.5,1.3
			C1112.7,962.9,1111.8,961.3,1110.8,959.8z"/>
		<path class="st0" d="M1122.7,963.9l6.5,0c-0.3,1.6-0.4,3.7-0.4,6.5c0,6.4,0.5,11.1,1.5,14.1c0.6,1.7,1.3,2.6,2,2.6
			c0.5,0,1-0.5,1.5-1.6c0.9-2.2,1.6-4.6,2.1-7.1c0.9,1.1,1.8,2,2.7,2.7c0.6,0.5,1.3,1,2.1,1.6c-0.8,3.1-1.8,5.6-2.9,7.6
			c-1.4,2.5-3.2,3.8-5.5,3.8c-2.9,0-5.3-2.1-7-6.3c-1.1-2.7-1.8-6.7-2.1-12c-0.1-2.2-0.2-5.3-0.3-9.3
			C1122.9,965.5,1122.8,964.6,1122.7,963.9z M1142.8,967.9l5.1-2.4c5.1,6,8.1,13.5,9.1,22.4l-6,2.2c-0.1-1.9-0.4-4-0.8-6.3
			C1148.9,977.7,1146.4,972.4,1142.8,967.9z"/>
		<path class="st0" d="M1183.1,988.2c0,0.3,0,0.6,0,0.7c0,2.2-0.7,3.9-2.2,5c-1.6,1.2-4,1.8-7.2,1.8c-2.1,0-3.9-0.3-5.4-0.9
			c-2.7-1.1-4.1-3-4.1-5.8c0-2.8,1.5-4.8,4.5-6.1c1.8-0.8,4.1-1.1,6.9-1.1c0.6,0,1.2,0,1.9,0.1l-0.1-3.2c-1.3,0-2.4,0-3.2,0
			c-2.4,0-5-0.1-7.9-0.2c-0.5,0-1,0-1.6,0l0.1-5.1c0.7,0.1,1.5,0.2,2.4,0.3c2.5,0.2,4.8,0.3,6.9,0.3c1,0,2.1,0,3.3,0l0-1.3l0-1.6
			v-0.4c-0.7,0-1.4,0-2.1,0c-1.7,0-4.6-0.1-8.8-0.3c-1.5-0.1-2.3-0.1-2.4-0.1c-0.1,0-0.3,0-0.6,0l0.1-5.3c0.8,0.2,1.5,0.3,2.2,0.4
			c2.7,0.3,5.6,0.4,8.7,0.4c0.7,0,1.6,0,2.8,0c0-0.9,0-1.8,0-2.8c0-0.5-0.1-1.1-0.2-1.9h6c-0.2,0.8-0.3,2.3-0.3,4.5
			c2.6-0.1,4.9-0.3,6.9-0.6c1.9-0.3,3.4-0.5,4.6-0.9l0.2,5.3c-0.7,0-1.8,0.2-3.3,0.4c-3.4,0.4-6.2,0.7-8.4,0.8l0,0.5l0,1.4l0,1.3
			c4.7-0.3,8.2-0.7,10.5-1.3l0.2,5.2c-0.2,0-0.5,0-0.8,0.1c-0.1,0-0.3,0-0.7,0.1c-0.4,0-1.4,0.1-3,0.3c-2.6,0.3-4.7,0.4-6.1,0.5
			l0,0.8c0.1,1.6,0.1,2.7,0.1,3.4c3.3,1,7,2.8,10.9,5.6c0.5,0.4,1,0.7,1.5,1l-3.2,5.5c-0.5-0.6-1.2-1.2-1.9-1.9
			c-1.1-0.9-2.3-1.8-3.8-2.8C1185.3,989.3,1184.2,988.7,1183.1,988.2z M1177.6,986.9c-1-0.2-1.9-0.3-2.9-0.3c-1.5,0-2.7,0.2-3.5,0.7
			c-0.7,0.4-1.1,1-1.1,1.6c0,0.7,0.4,1.2,1.2,1.5c0.6,0.3,1.5,0.4,2.6,0.4c1.6,0,2.7-0.4,3.2-1.1c0.3-0.5,0.5-1.2,0.5-2.1
			C1177.6,987.2,1177.6,986.9,1177.6,986.9z"/>
		<path class="st0" d="M1206.6,961.7l6.7,0.1c-0.2,1.1-0.4,3-0.5,5.7c-0.3,5.7-0.4,10.5-0.4,14.3c0,1.6,0,2.9,0.1,3.8
			c0.2,2.1,1.2,3.5,2.9,4.1c0.8,0.3,1.8,0.4,2.8,0.4c1.9,0,3.6-0.4,5.1-1.3c2.4-1.4,4.1-4.1,5.2-8.2c0.3-1.2,0.6-2.6,0.8-4.3
			c1.2,1,2.3,1.7,3.1,2.3c0.7,0.4,1.6,0.9,2.7,1.3c-0.6,2.1-1.1,3.7-1.6,5c-0.6,1.6-1.2,2.9-1.9,3.9s-1.4,2-2.4,2.9
			c-3,2.8-6.7,4.2-11.3,4.2c-3.1,0-5.5-0.6-7.4-1.8c-1.8-1.2-3-2.8-3.6-4.8c-0.4-1.4-0.6-3.3-0.6-5.7c0-1.2,0.1-4.4,0.2-9.7
			c0.1-5.4,0.2-8.5,0.2-9.2C1206.8,963.6,1206.7,962.6,1206.6,961.7z"/>
		<path class="st0" d="M1249.5,967.2c0.1-0.7,0.3-1.7,0.4-2.9c0.2-1.4,0.3-2.4,0.3-3.1c0-0.2,0-0.4,0-0.6l6.3,0.5
			c-0.2,0.6-0.4,1.9-0.8,3.8c-0.1,0.8-0.3,1.5-0.4,2c2.5-0.2,4.8-0.6,6.7-1.1l0.2,5.5c-0.5,0.1-1.3,0.2-2.2,0.4
			c-1.8,0.3-3.7,0.5-5.6,0.6c-1.1,6.3-3.2,13.8-6.4,22.6l-0.4,1l-6.1-2.3c1.5-2.8,3.1-7,4.9-12.7c0.9-3,1.6-5.9,2.1-8.5
			c-0.6,0-1,0-1.1,0l-1.4,0l-1.5,0c-0.7,0-1.2-0.1-1.3-0.1c-0.2,0-0.4,0-0.8,0l0.1-5.5c1.4,0.3,3.4,0.4,5.8,0.4
			C1248.5,967.2,1248.9,967.2,1249.5,967.2z M1258.5,981.1l4.8,1.7c-0.5,0.7-0.9,1.2-1.1,1.6c-0.6,1-0.9,1.9-0.9,2.8
			c0,1.9,1.9,2.8,5.6,2.8c1.9,0,4.1-0.3,6.5-0.8c0.9-0.2,1.8-0.4,2.7-0.8l0.4,5.9c-0.5,0.1-1.2,0.1-2,0.3c-3,0.4-5.5,0.6-7.6,0.6
			c-3.6,0-6.4-0.6-8.3-1.7c-1-0.6-1.7-1.4-2.3-2.4c-0.5-0.9-0.7-1.8-0.7-2.8c0-1.4,0.4-2.8,1.2-4.4
			C1257,983.2,1257.7,982.2,1258.5,981.1z M1274.8,972.5l0.1,5.7c-1.7-0.2-3.4-0.3-5.2-0.3c-2.9,0-5.5,0.2-7.9,0.5
			c-0.8,0.1-1.8,0.3-2.9,0.5l-0.4-5.3c2.6-0.5,4.4-0.8,5.6-0.9c2.1-0.2,4.4-0.4,7-0.4C1271.7,972.4,1272.9,972.4,1274.8,972.5z"/>
		<path class="st0" d="M1301.8,985.3h-5.6c0.1-0.8,0.1-1.4,0.1-1.9c0-0.4,0-1.3-0.1-2.9l-0.7-13.2c-0.1-2.4-0.3-4.1-0.4-5.1h7.8
			c-0.2,1-0.3,2.7-0.4,5.1l-0.7,13.2c-0.1,1.4-0.1,2.4-0.1,2.9C1301.7,984,1301.7,984.6,1301.8,985.3z M1302.4,994.8h-6.9v-6.5h6.9
			V994.8z"/>
	</g>
</g>
<g>
	<path class="st0" d="M600.2,277.7c0.3-2,0.5-4.9,0.5-8.6v-31.7c0-3.2-0.2-6-0.5-8.4c2,0.1,4.8,0.2,8.5,0.2h15.2
		c2.9,0,5.5,0.5,8,1.4c2.3,0.9,4,2.3,5.3,4.3c1.1,1.8,1.7,4,1.7,6.5c0,3.6-1.1,6.3-3.4,8.3c-0.8,0.8-1.7,1.3-2.7,1.8
		c-0.5,0.2-1.2,0.5-2,0.8c1.4,0.3,2.6,0.7,3.4,1.1c1.9,0.9,3.5,2.2,4.6,4c1.2,1.9,1.9,4.2,1.9,6.9s-0.6,5.1-1.8,7.1
		c-1.1,1.9-2.7,3.3-4.8,4.3c-2.6,1.3-5.8,2-9.4,2h-15.8C604.9,277.5,602.1,277.6,600.2,277.7z M612,247.9h10.2
		c1.6,0,2.8-0.4,3.7-1.3c0.9-0.9,1.3-2,1.3-3.3c0-1.4-0.4-2.4-1.2-3.2c-0.9-0.9-2.2-1.3-3.9-1.3H612V247.9z M612,257.2v10.7h10.7
		c1.9,0,3.4-0.5,4.4-1.6c1-0.9,1.4-2.2,1.4-3.9s-0.5-2.9-1.4-3.8c-1.1-1-2.6-1.5-4.5-1.5H612z"/>
	<path class="st0" d="M658.1,242.1c-0.3,2-0.5,4.9-0.5,8.8v17.9c0,3.8,0.2,6.7,0.5,8.8h-12.2c0.3-2.5,0.4-5.4,0.5-8.8v-17.9
		c0-3.7-0.2-6.6-0.5-8.8H658.1z M646.1,229.3h11.8v8.7h-11.8V229.3z"/>
	<path class="st0" d="M693.1,242.1l-2.8,10.5c-2.3-0.7-4.3-1.1-5.9-1.1c-2.9,0-5.2,1-6.9,3.1c-0.7,0.9-1.2,1.8-1.4,2.9
		c-0.1,0.5-0.2,1.3-0.3,2.3v9c0,3.5,0.2,6.4,0.5,8.7h-12c0.3-2.3,0.5-5.3,0.5-8.8v-17.9c0-3.9-0.2-6.8-0.5-8.8h11.6v4.6
		c0.9-1.2,1.9-2.2,2.9-2.8c2.3-1.6,5.3-2.4,8.8-2.4C688.9,241.4,690.8,241.7,693.1,242.1z"/>
	<path class="st0" d="M701.2,242.1v-1.2c0-3-0.2-5.7-0.5-7.9h11.8c-0.3,2.1-0.5,4.8-0.5,7.9v1.2h2c2.3,0,4.2-0.1,5.7-0.3v9.6
		c-1.4-0.2-3.1-0.3-5.3-0.3h-2.4V266c0,0.9,0.1,1.6,0.3,2c0.4,1,1.6,1.5,3.4,1.5c1.4,0,2.7-0.3,4.1-1l0.9,8.8c-2.4,0.8-5,1.2-8,1.2
		c-3.9,0-6.7-0.7-8.5-2c-1.2-0.9-2-2-2.5-3.3c-0.4-1-0.5-2.4-0.5-4.3v-17.8H699c-2,0-3.7,0.1-5.1,0.3v-9.7c1.4,0.2,3.1,0.3,5.2,0.3
		H701.2z"/>
	<path class="st0" d="M724.3,277.5c0.3-2.6,0.5-5.5,0.5-8.8V238c0-4-0.2-6.9-0.5-8.7h12c-0.3,2.1-0.5,5-0.5,8.8v6.1
		c0,0.3,0,0.7,0,1.2c0,0.3,0,0.6,0,0.7c1.4-1.3,2.7-2.3,4.1-3c2.4-1.2,5-1.8,7.9-1.8c4,0,7.1,1.1,9.2,3.3c1.5,1.5,2.4,3.2,2.9,5.2
		c0.3,1.4,0.5,2.9,0.5,4.6v14.6c0,3.7,0.2,6.6,0.5,8.7h-12.1c0.3-2.4,0.5-5.3,0.5-8.8v-11.9c0-1.6-0.1-2.7-0.4-3.4
		c-0.7-1.7-2.1-2.6-4.3-2.6c-2.2,0-4.2,0.9-6.1,2.7c-1,1-1.9,2.1-2.7,3.4v11.8c0,3.1,0.2,6.1,0.5,8.8H724.3z"/>
	<path class="st0" d="M794.1,277.5v-1.9c0-0.4,0-0.8,0-1.2c-1.5,1.2-2.7,2-3.8,2.5c-2.2,1.1-4.8,1.6-7.9,1.6c-5,0-8.9-1.5-11.8-4.4
		c-1.5-1.6-2.7-3.3-3.5-5.3c-1.1-2.9-1.6-5.9-1.6-9.2c0-3.3,0.6-6.3,1.7-9.1c1.2-3,3.2-5.4,6.1-7.2c2.6-1.6,5.6-2.4,9-2.4
		c3,0,5.8,0.6,8.2,1.8c1.1,0.5,2.3,1.4,3.7,2.5c0-0.7,0-1.2,0-1.6v-0.6v-4.8c0-3.9-0.2-7-0.5-9.1h11.8c-0.3,2.1-0.5,5.1-0.5,9.1
		v30.1c0,3.7,0.2,6.8,0.5,9.1H794.1z M784.9,249.9c-2.2,0-4,0.7-5.5,2.2c-0.8,0.8-1.4,1.7-1.8,2.8c-0.6,1.5-0.9,3.2-0.9,4.9
		c0,3.4,0.9,6,2.7,7.7c1.5,1.5,3.4,2.2,5.6,2.2c2.1,0,3.9-0.7,5.5-2c1-0.8,1.8-1.9,2.4-3.3c0.7-1.6,1-3.2,1-4.8c0-2-0.5-3.9-1.4-5.6
		c-0.9-1.5-2.1-2.6-3.6-3.3C787.7,250.2,786.3,249.9,784.9,249.9z"/>
	<path class="st0" d="M834.8,254.6v-1.3c0-1.2-0.3-2.2-0.9-2.7c-0.9-0.9-2.4-1.3-4.6-1.3c-2.3,0-4.1,0.6-5.3,1.7
		c-0.5,0.5-1,1.3-1.3,2.4l-11.1-1.8c0.5-1.6,1.1-2.9,1.7-3.8c2.9-4.4,8.3-6.5,16.2-6.5c3.3,0,6.2,0.4,8.9,1.3c1.6,0.5,3,1.3,4.3,2.5
		c2,1.9,2.9,4.8,2.9,8.7v15.7c0,3.3,0.1,6.1,0.4,8.2h-11.3v-2.7c-1.1,0.8-2.1,1.5-3.1,1.9c-2.3,1-5,1.6-8.1,1.6
		c-4.4,0-7.7-1.1-10-3.2c-2.1-2-3.2-4.6-3.2-7.9c0-3.7,1.4-6.5,4.3-8.5c2.9-2,6.9-3.3,12.1-3.7C828.6,254.8,831.3,254.7,834.8,254.6
		z M834.8,262c-4.6,0.1-7.9,0.5-10,1.2c-1.2,0.4-2.2,1-2.7,1.8c-0.4,0.6-0.7,1.3-0.7,2c0,1.1,0.4,1.9,1.2,2.4c0.9,0.6,2,0.9,3.5,0.9
		c1.4,0,2.8-0.3,4.2-0.8c3-1.2,4.4-3.1,4.4-5.8V262z"/>
	<path class="st0" d="M863.9,274.4L853,249.9c-1.7-4-2.9-6.6-3.5-7.8h12.6c0.3,1.8,1,4.3,2.3,7.5l5.4,13.4l5.2-13.1
		c1.4-3.6,2.2-6.1,2.5-7.7H890c-1,2.2-2.2,4.7-3.5,7.8l-13.3,30.7c-0.9,2.2-2.1,3.9-3.6,5c-2.4,1.9-5.6,2.9-9.6,2.9
		c-2.3,0-5-0.3-8-1l1.3-9.2c1.7,0.9,3.2,1.3,4.5,1.3c2.2,0,3.8-0.9,4.7-2.7L863.9,274.4z"/>
	<path class="st0" d="M936.1,254.6v-1.3c0-1.2-0.3-2.2-0.9-2.7c-0.9-0.9-2.4-1.3-4.6-1.3c-2.3,0-4.1,0.6-5.3,1.7
		c-0.5,0.5-1,1.3-1.3,2.4l-11.1-1.8c0.5-1.6,1.1-2.9,1.7-3.8c2.9-4.4,8.3-6.5,16.2-6.5c3.3,0,6.2,0.4,8.9,1.3c1.6,0.5,3,1.3,4.3,2.5
		c2,1.9,2.9,4.8,2.9,8.7v15.7c0,3.3,0.1,6.1,0.4,8.2h-11.3v-2.7c-1.1,0.8-2.1,1.5-3.1,1.9c-2.3,1-5,1.6-8.1,1.6
		c-4.4,0-7.7-1.1-10-3.2c-2.1-2-3.2-4.6-3.2-7.9c0-3.7,1.4-6.5,4.3-8.5c2.9-2,6.9-3.3,12.1-3.7C929.8,254.8,932.5,254.7,936.1,254.6
		z M936.1,262c-4.6,0.1-7.9,0.5-10,1.2c-1.2,0.4-2.2,1-2.7,1.8c-0.4,0.6-0.7,1.3-0.7,2c0,1.1,0.4,1.9,1.2,2.4c0.9,0.6,2,0.9,3.5,0.9
		c1.4,0,2.8-0.3,4.2-0.8c3-1.2,4.4-3.1,4.4-5.8V262z"/>
	<path class="st0" d="M953.5,277.5c0.3-2.6,0.5-5.5,0.5-8.8v-17.9c0-3.9-0.2-6.8-0.5-8.8H965v2.4c0,0.1,0,0.2,0,0.5
		c0,0.2,0,0.4,0,0.7c0,0.2,0,0.3,0,0.5c1.4-1.3,2.8-2.4,4.1-3.1c2.3-1.2,5-1.9,7.9-1.9c4,0,7.1,1.1,9.3,3.3c1.5,1.5,2.4,3.2,2.9,5.2
		c0.3,1.4,0.5,2.9,0.5,4.6v14.6c0,3.7,0.2,6.6,0.5,8.7h-12.1c0.3-2.4,0.5-5.3,0.5-8.8v-11.9c0-1.6-0.1-2.7-0.4-3.3
		c-0.7-1.8-2.1-2.7-4.4-2.7c-3.3,0-6.1,2-8.6,6.1v11.8c0,3.1,0.2,6.1,0.5,8.8H953.5z"/>
	<path class="st0" d="M1023.2,277.5v-1.9c0-0.4,0-0.8,0-1.2c-1.5,1.2-2.7,2-3.8,2.5c-2.2,1.1-4.8,1.6-7.9,1.6c-5,0-8.9-1.5-11.8-4.4
		c-1.5-1.6-2.7-3.3-3.5-5.3c-1.1-2.9-1.6-5.9-1.6-9.2c0-3.3,0.6-6.3,1.7-9.1c1.2-3,3.2-5.4,6.1-7.2c2.6-1.6,5.6-2.4,9-2.4
		c3,0,5.8,0.6,8.2,1.8c1.1,0.5,2.3,1.4,3.7,2.5c0-0.7,0-1.2,0-1.6v-0.6v-4.8c0-3.9-0.2-7-0.5-9.1h11.8c-0.3,2.1-0.5,5.1-0.5,9.1
		v30.1c0,3.7,0.2,6.8,0.5,9.1H1023.2z M1014,249.9c-2.2,0-4,0.7-5.5,2.2c-0.8,0.8-1.4,1.7-1.8,2.8c-0.6,1.5-0.8,3.2-0.8,4.9
		c0,3.4,0.9,6,2.7,7.7c1.5,1.5,3.4,2.2,5.6,2.2c2.1,0,3.9-0.7,5.5-2c1-0.8,1.8-1.9,2.4-3.3c0.7-1.6,1-3.2,1-4.8c0-2-0.5-3.9-1.4-5.6
		c-0.9-1.5-2.1-2.6-3.6-3.3C1016.8,250.2,1015.5,249.9,1014,249.9z"/>
	<path class="st0" d="M1089.8,277.5c-0.2-1.5-1.2-4.5-2.8-9.1c-1.1-2.9-1.9-4.9-2.5-5.8c-1.4-2.3-3.4-3.4-6-3.4h-6v9.5
		c0,3.6,0.2,6.5,0.5,8.8h-12.4c0.3-2.1,0.5-5,0.5-8.7v-31.2c0-3.4-0.2-6.3-0.5-8.6c2.2,0.1,5.1,0.2,8.6,0.2h15.1
		c4.9,0,8.7,1.3,11.3,3.9c2.3,2.2,3.5,5.4,3.5,9.4c0,4.2-1.1,7.3-3.4,9.5c-1,0.9-2.1,1.7-3.3,2.2c-0.6,0.3-1.3,0.5-2.2,0.8
		c1.3,0.4,2.3,0.9,3.1,1.6c1,0.9,2,2.5,3.1,4.8c0.8,1.7,2.2,5,4.3,10.1c0.7,1.6,1.6,3.6,2.8,6.1H1089.8z M1072.6,249.3h9
		c1.7,0,3.1-0.5,4.1-1.5c0.9-0.9,1.4-2.2,1.4-3.9c0-1.5-0.4-2.7-1.2-3.5c-0.9-0.9-2.3-1.4-4.2-1.4h-9.1V249.3z"/>
	<path class="st0" d="M1143.1,263.1H1117c0.2,1.9,0.8,3.4,1.8,4.6c1.3,1.7,3.4,2.6,6.1,2.6c2.4,0,4.4-0.7,5.9-2.1
		c0.7-0.7,1.3-1.7,1.7-2.9l10.1,2.8c-0.8,1.7-1.4,3-2,3.8c-3.3,4.7-8.5,7-15.5,7c-5.7,0-10.2-1.6-13.5-4.9c-1.6-1.6-2.9-3.5-3.7-5.6
		c-1.1-2.7-1.6-5.5-1.6-8.6c0-4.2,0.9-7.8,2.7-10.9c1.7-2.7,3.9-4.8,6.7-6.2c2.7-1.3,5.7-2,9-2c4.7,0,8.6,1.3,11.7,3.8
		c3.6,3,5.7,7.3,6.3,12.9c0.2,1.6,0.3,3,0.3,4.4C1143,262.2,1143.1,262.5,1143.1,263.1z M1117.2,255.1h14.9
		c-0.3-1.3-0.8-2.4-1.4-3.3c-1.3-1.6-3.3-2.4-5.8-2.4C1120.7,249.4,1118.1,251.3,1117.2,255.1z"/>
	<path class="st0" d="M1159.8,229.3c-0.3,2-0.5,4.9-0.5,8.8v30.8c0,3.3,0.2,6.2,0.5,8.7h-12.1c0.3-2.1,0.5-5,0.5-8.7V238
		c0-3.9-0.2-6.8-0.5-8.7H1159.8z"/>
	<path class="st0" d="M1201.2,263.1h-26.1c0.2,1.9,0.8,3.4,1.8,4.6c1.3,1.7,3.4,2.6,6.1,2.6c2.4,0,4.4-0.7,5.9-2.1
		c0.7-0.7,1.3-1.7,1.7-2.9l10.1,2.8c-0.8,1.7-1.4,3-2,3.8c-3.3,4.7-8.5,7-15.5,7c-5.7,0-10.2-1.6-13.5-4.9c-1.6-1.6-2.9-3.5-3.7-5.6
		c-1.1-2.7-1.6-5.5-1.6-8.6c0-4.2,0.9-7.8,2.7-10.9c1.7-2.7,3.9-4.8,6.7-6.2c2.7-1.3,5.7-2,9-2c4.7,0,8.6,1.3,11.7,3.8
		c3.6,3,5.7,7.3,6.3,12.9c0.2,1.6,0.3,3,0.3,4.4C1201.2,262.2,1201.2,262.5,1201.2,263.1z M1175.3,255.1h14.9
		c-0.3-1.3-0.8-2.4-1.4-3.3c-1.3-1.6-3.3-2.4-5.8-2.4C1178.8,249.4,1176.3,251.3,1175.3,255.1z"/>
	<path class="st0" d="M1229.1,254.6v-1.3c0-1.2-0.3-2.2-0.9-2.7c-0.9-0.9-2.4-1.3-4.6-1.3c-2.3,0-4.1,0.6-5.3,1.7
		c-0.5,0.5-1,1.3-1.3,2.4l-11.1-1.8c0.5-1.6,1.1-2.9,1.7-3.8c2.9-4.4,8.3-6.5,16.2-6.5c3.3,0,6.2,0.4,8.9,1.3c1.6,0.5,3,1.3,4.3,2.5
		c2,1.9,2.9,4.8,2.9,8.7v15.7c0,3.3,0.1,6.1,0.4,8.2h-11.3v-2.7c-1.1,0.8-2.1,1.5-3.1,1.9c-2.3,1-5,1.6-8.1,1.6
		c-4.4,0-7.7-1.1-10-3.2c-2.1-2-3.2-4.6-3.2-7.9c0-3.7,1.4-6.5,4.3-8.5c2.9-2,6.9-3.3,12.1-3.7
		C1222.8,254.8,1225.5,254.7,1229.1,254.6z M1229.1,262c-4.6,0.1-7.9,0.5-10,1.2c-1.2,0.4-2.2,1-2.7,1.8c-0.4,0.6-0.7,1.3-0.7,2
		c0,1.1,0.4,1.9,1.2,2.4c0.9,0.6,2,0.9,3.5,0.9c1.4,0,2.8-0.3,4.2-0.8c3-1.2,4.4-3.1,4.4-5.8V262z"/>
	<path class="st0" d="M1256.7,265.8c0.2,1.1,0.6,1.9,1.1,2.5c1,1.2,2.8,1.8,5.3,1.8c3.6,0,5.5-0.9,5.5-2.8c0-0.9-0.4-1.6-1.3-2.1
		c-0.6-0.4-2.2-0.8-4.8-1.3c-4-0.8-6.9-1.5-8.6-2.1c-2.8-1-4.7-2.4-5.8-4.1c-1-1.6-1.5-3.4-1.5-5.5c0-2.9,0.9-5.3,2.8-7.1
		c2.9-2.7,7.1-4.1,12.7-4.1c5.5,0,9.7,1.2,12.4,3.7c1.3,1.2,2.3,2.6,3,4.3c0.2,0.5,0.5,1.3,0.7,2.3l-11.2,1.2
		c-0.1-0.9-0.4-1.6-0.8-2.1c-0.8-0.9-2.1-1.3-4.1-1.3c-1.7,0-3,0.3-3.9,0.9c-0.6,0.4-1,0.9-1,1.6c0,1,0.8,1.7,2.4,2.2
		c1,0.3,2.5,0.7,4.6,1.2c2.9,0.6,5,1.1,6.2,1.5c2.6,0.8,4.6,1.8,6.1,3.2c1.9,1.7,2.8,4.1,2.8,7c0,3.2-1,5.8-2.9,7.7
		c-1.3,1.3-2.9,2.2-4.6,2.8c-2.9,0.9-5.9,1.4-9.2,1.4c-3.2,0-6.3-0.5-9.2-1.4c-3.1-1-5.4-2.9-6.9-5.7c-0.6-1.1-1.1-2.6-1.5-4.5
		L1256.7,265.8z"/>
	<path class="st0" d="M1319.7,263.1h-26.1c0.2,1.9,0.8,3.4,1.8,4.6c1.3,1.7,3.4,2.6,6.1,2.6c2.4,0,4.4-0.7,5.9-2.1
		c0.7-0.7,1.3-1.7,1.7-2.9l10.1,2.8c-0.8,1.7-1.4,3-2,3.8c-3.3,4.7-8.5,7-15.5,7c-5.7,0-10.2-1.6-13.5-4.9c-1.6-1.6-2.9-3.5-3.7-5.6
		c-1.1-2.7-1.6-5.5-1.6-8.6c0-4.2,0.9-7.8,2.7-10.9c1.7-2.7,3.9-4.8,6.7-6.2c2.7-1.3,5.7-2,9-2c4.7,0,8.6,1.3,11.7,3.8
		c3.6,3,5.7,7.3,6.3,12.9c0.2,1.6,0.3,3,0.3,4.4C1319.7,262.2,1319.7,262.5,1319.7,263.1z M1293.8,255.1h14.9
		c-0.3-1.3-0.8-2.4-1.4-3.3c-1.3-1.6-3.3-2.4-5.8-2.4C1297.3,249.4,1294.8,251.3,1293.8,255.1z"/>
	<path class="st0" d="M807.2,320.6v29.2c0,3.6,0.2,6.6,0.5,8.8h-12.8c0.3-2.3,0.5-5.2,0.5-8.8v-29.2h-6.9c-2.7,0-4.6,0-5.8,0.1
		c-0.3,0-1.3,0.1-3,0.3V310c1.7,0.2,4.6,0.4,8.7,0.4h25.4c3.9,0,6.9-0.1,9-0.4v11.1c-2.1-0.3-5.1-0.4-9-0.4H807.2z"/>
	<path class="st0" d="M844.2,321.9c4,0,7.5,0.9,10.6,2.7c2.7,1.6,4.8,3.8,6.2,6.6c1.4,2.8,2.1,6,2.1,9.5c0,4.1-0.9,7.7-2.7,10.7
		c-1.7,2.8-4,4.9-6.9,6.4c-2.8,1.4-6,2.1-9.5,2.1c-3,0-5.8-0.5-8.5-1.6c-3.3-1.3-5.9-3.5-7.8-6.6c-1-1.6-1.7-3.5-2.2-5.6
		c-0.4-1.7-0.6-3.4-0.6-5.2c0-3,0.5-5.8,1.6-8.5c1.3-3.3,3.5-5.9,6.7-7.8C836.1,322.8,839.8,321.9,844.2,321.9z M843.9,330.6
		c-2.1,0-3.9,0.7-5.3,2.1c-1.8,1.8-2.7,4.5-2.7,8.1c0,3.7,0.9,6.5,2.7,8.3c1.4,1.4,3.1,2.1,5.3,2.1c2.2,0,3.9-0.7,5.2-2
		c1.8-1.8,2.7-4.5,2.7-8.2c0-3.5-0.8-6.1-2.4-8C848.2,331.4,846.3,330.6,843.9,330.6z"/>
	<path class="st0" d="M904.3,323.2c-0.3,2.5-0.5,5.4-0.5,8.8v17.9c0,3.9,0.2,6.8,0.5,8.8h-11.5v-2.5c0-0.3,0-0.6,0-0.9
		c0-0.3,0-0.6,0-0.7c-1.5,1.4-2.9,2.5-4.1,3.1c-2.3,1.2-5,1.9-8,1.9c-4,0-7.1-1.1-9.2-3.3c-1.5-1.5-2.5-3.2-2.9-5.2
		c-0.3-1.4-0.4-2.9-0.4-4.6v-14.6c0-3.7-0.2-6.6-0.5-8.7h12.1c-0.3,2.4-0.5,5.3-0.5,8.8v11.9c0,1.6,0.1,2.7,0.4,3.4
		c0.7,1.7,2.1,2.6,4.3,2.6c2.1,0,4.1-0.9,6.1-2.7c1-1,1.9-2.1,2.7-3.3V332c0-3.1-0.2-6.1-0.5-8.8H904.3z"/>
	<path class="st0" d="M939.3,323.2l-2.8,10.5c-2.3-0.7-4.3-1.1-5.9-1.1c-2.9,0-5.2,1-6.9,3.1c-0.7,0.9-1.2,1.8-1.4,2.9
		c-0.1,0.5-0.2,1.3-0.3,2.3v9c0,3.5,0.2,6.4,0.5,8.7h-12c0.3-2.3,0.5-5.3,0.5-8.8V332c0-3.9-0.2-6.8-0.5-8.8h11.6v4.6
		c0.9-1.2,1.9-2.2,2.9-2.8c2.3-1.6,5.3-2.4,8.8-2.4C935.1,322.5,937,322.8,939.3,323.2z"/>
	<path class="st0" d="M961.8,358.8c0.2-2.4,0.6-4.7,1.2-6.8c1.5-4.8,4.3-9.2,8.3-13c2.2-2,5.6-4.6,10.4-7.8c2.8-1.9,4.5-3.3,5.3-4.4
		c0.6-0.9,0.9-1.8,0.9-2.9c0-1-0.3-1.9-0.9-2.7c-1.1-1.4-2.9-2.2-5.4-2.2c-2.8,0-4.8,1-6,2.9c-0.5,0.8-0.8,1.6-1.1,2.5
		c-0.1,0.5-0.2,1.3-0.3,2.3l-12.2-1.2c0.5-2.7,1-4.7,1.6-6.1c1.4-3.1,3.4-5.5,6.1-7.3c1.3-0.9,2.9-1.5,4.8-2
		c2.3-0.6,4.6-0.9,7.1-0.9c3.5,0,6.8,0.6,9.9,1.7c2.6,1,4.7,2.6,6.3,4.8c1.6,2.2,2.5,4.8,2.5,7.7c0,4.2-1.8,7.8-5.3,10.8
		c-1.4,1.2-4.2,3.2-8.4,6.1c-2.9,2.1-4.9,3.7-6,4.8c-1.1,1.2-2,2.3-2.5,3.3h13.5c4.3,0,7.4-0.1,9.3-0.4v11c-2.9-0.3-6.2-0.4-9.9-0.4
		h-20.4C966.2,358.6,963.3,358.7,961.8,358.8z"/>
	<path class="st0" d="M1026.6,309.3c3.9,0,7.4,0.9,10.5,2.8c3.1,1.9,5.4,4.4,6.9,7.6c0.9,1.9,1.6,4.1,2.1,6.8c0.5,2.7,0.8,5.3,0.8,8
		c0,4.8-0.8,9.2-2.3,13.3c-0.9,2.4-2.3,4.5-4.2,6.4c-3.6,3.6-8.3,5.4-14.1,5.4c-5.8,0-10.4-1.8-14-5.4c-1.9-1.9-3.3-4.1-4.2-6.4
		c-1.5-4.1-2.3-8.5-2.3-13.2c0-4.8,0.8-9.2,2.3-13.4c0.9-2.4,2.3-4.5,4.2-6.4C1015.9,311.2,1020.7,309.3,1026.6,309.3z
		 M1026.3,319.1c-2.2,0-4.1,0.9-5.5,2.8c-2,2.7-3.1,6.7-3.1,12.2c0,6.4,1.1,10.9,3.4,13.5c1.3,1.5,3.1,2.2,5.3,2.2
		c5.7,0,8.6-5.2,8.6-15.6c0-5.9-1.1-10.1-3.2-12.6C1030.5,319.9,1028.6,319.1,1026.3,319.1z"/>
	<path class="st0" d="M1057.1,310c1.7,0.3,4,0.4,7,0.4h7.4c3.1,0,5.5-0.1,7.2-0.3c-0.3,2.6-0.4,5.7-0.4,9.4v30.4
		c0,3.5,0.2,6.4,0.5,8.8H1066c0.3-2.3,0.5-5.2,0.5-8.8v-29.6h-2.3c-2.7,0-5.1,0.2-7.1,0.4V310z"/>
	<path class="st0" d="M1126.3,333.2c1.4,0.2,2.5,0.5,3.3,0.9c2.2,0.9,4,2.5,5.3,4.6c1.1,1.8,1.7,3.9,1.7,6.4c0,3.2-0.8,5.9-2.5,8.1
		c-1.4,1.9-3.4,3.4-5.9,4.5c-1.6,0.7-3.4,1.2-5.6,1.6c-2.2,0.4-4.3,0.6-6.5,0.6c-3.8,0-7.3-0.5-10.7-1.6c-2.4-0.8-4.5-2-6.2-3.7
		c-2.3-2.3-3.5-5.4-3.5-9.1c0-4,1.5-7.2,4.5-9.5c1.2-0.9,2.4-1.6,3.7-2c0.5-0.2,1.3-0.4,2.3-0.6c-1.5-0.5-2.6-0.9-3.3-1.3
		c-1.7-1-3-2.4-3.9-4.1c-0.8-1.5-1.2-3.3-1.2-5.3c0-3,0.8-5.5,2.4-7.5c1.5-1.9,3.7-3.4,6.5-4.4c2.7-1,5.8-1.5,9.4-1.5
		c6.3,0,11.2,1.5,14.7,4.6c2.5,2.2,3.7,5,3.7,8.6c0,3.4-1,6.1-3.1,8.1c-0.9,0.8-1.8,1.5-2.9,2C1128,332.6,1127.3,332.9,1126.3,333.2
		z M1116.1,338.2c-3,0-5.2,0.7-6.7,2.2c-1.1,1-1.7,2.4-1.7,4.1c0,1.6,0.5,2.8,1.5,3.8c1.5,1.5,3.9,2.2,7,2.2c3.1,0,5.3-0.7,6.8-2.1
		c1.1-1,1.6-2.3,1.6-4c0-1.6-0.5-2.9-1.6-4C1121.5,338.9,1119.2,338.2,1116.1,338.2z M1116.1,318.3c-2.3,0-4.2,0.6-5.5,1.9
		c-0.9,0.8-1.3,1.9-1.3,3.2c0,1.4,0.5,2.5,1.4,3.4c1.3,1.2,3.1,1.8,5.5,1.8c2.4,0,4.2-0.6,5.4-1.8c0.9-0.9,1.4-2,1.4-3.4
		c0-1.3-0.4-2.4-1.3-3.3C1120.4,318.9,1118.5,318.3,1116.1,318.3z"/>
	<path class="st0" d="M769.1,496.4h-28.6v-89.5h54.9v26.7h-26.3V496.4z"/>
	<path class="st0" d="M870.2,525.5l0.8-3.3c0.7-2.3,1.4-5.1,2.4-8.2l24-80.1c2.2-7.3,3.5-13.2,4-18h39c-1.8,3.8-4.4,10.6-7.9,20.3
		l-35.3,100.1c-3,8.4-4.8,14.4-5.4,18h-43.4c-0.6-3.7-2.4-9.8-5.3-18l-35.4-100.1c-2.8-8.1-5.4-14.8-7.9-20.3h39
		c0.5,4.2,1.8,10.2,4,18l24.1,80.1c0.9,3,1.7,5.7,2.4,8.3L870.2,525.5z"/>
	<path class="st0" d="M950,520.9h33.6v33.6H950V520.9z"/>
	<path class="st0" d="M1032.9,509.4c0.3,3.2,0.8,5.6,1.4,7.2c1.4,3.7,3.7,6.7,7,8.9c4,2.7,9.2,4.1,15.4,4.1c9.1,0,15.3-2.5,18.5-7.6
		c1.3-2.1,2-4.5,2-7.3c0-3.8-1.2-7-3.7-9.4c-1.8-1.8-4.8-3.3-8.9-4.5c-3.2-0.9-9.7-2.4-19.4-4.6c-8.5-1.9-14.4-3.5-17.7-4.9
		c-6.8-2.7-12.4-6.5-16.6-11.5c-5.8-6.9-8.7-15.3-8.7-25.3c0-11.2,3.6-20.3,10.8-27.4c4.7-4.7,10.2-8,16.3-10.2
		c8.2-2.9,16.9-4.3,26.3-4.3c11.1,0,20.7,1.8,28.9,5.3c10.1,4.3,17.4,11.4,21.8,21.2c1.4,3.1,2.7,7.3,3.9,12.6l-35.4,3.8
		c-0.7-4.1-2-7.2-3.8-9.4c-3.4-4-8.7-6-15.8-6c-5.5,0-9.9,1.1-13.1,3.3c-3.6,2.6-5.4,5.9-5.4,9.8c0,4.7,2.6,8.2,7.7,10.6
		c1.9,0.9,4.8,1.8,8.7,2.7c0.5,0.1,5.3,1.1,14.4,3c12,2.5,21,5.6,27,9.3c12,7.5,18,18.8,18,34c0,12.8-3.9,23-11.6,30.6
		c-4.3,4.3-9.1,7.4-14.3,9.3c-8.9,3.3-18.7,5-29.6,5c-11.6,0-21.8-1.7-30.7-5.1c-10.9-4.1-18.7-11.3-23.3-21.5
		c-2-4.3-3.6-10.4-4.7-18.3L1032.9,509.4z"/>
	<path class="st0" d="M1148.8,475.7h28.6v89.5h-54.9v-26.7h26.3V475.7z"/>
</g>
<g>
	<g>
		<path class="st0" d="M776.1,159.7c-2-1.7-4.2-3.4-6.4-5c-2.8-2-5.4-3.6-7.8-4.7c5.1-7.4,9.3-16.4,12.5-27.1
			c1.7-5.9,2.8-11.9,3.3-17.9l16.3,4.4c-0.2,0.7-0.4,1.8-0.7,3.1c-1.8,8.9-3.8,16.4-5.9,22.7c-1.7,5.2-3.6,9.7-5.4,13.7
			C780.6,151.6,778.7,155.3,776.1,159.7z M801.6,85.6h17.8c-0.4,2.9-0.6,7.6-0.7,14.1v62.8c0,5.7-1.6,9.6-4.8,11.7
			c-1.4,0.9-3.2,1.5-5.5,1.9c-1.9,0.3-4.4,0.4-7.5,0.4c-3.7,0-7.7-0.1-12.1-0.3c-0.6-5.3-2.1-10.4-4.5-15.6
			c5.7,0.6,10.2,0.9,13.6,0.9c1.7,0,2.9-0.2,3.4-0.6c0.5-0.3,0.8-0.9,0.8-1.8V99.6C802.3,93,802,88.3,801.6,85.6z M858.7,148.8
			c-2.5,1.4-4.9,3-7.4,4.7c-2.4,1.8-4.6,3.6-6.6,5.6c-8.6-12.6-14.7-28-18.4-46.2c-0.3-1.3-0.6-2.5-0.9-3.7l15.6-4.4l0.1,0.9
			c0.3,3,1,6.5,2.1,10.5c1.8,6.7,4.3,13.4,7.6,20C853.3,140.8,855.9,145,858.7,148.8z"/>
		<path class="st0" d="M882.1,133.6h-8.6c-2.9,0-5.5,0.1-7.8,0.2c0.3-4,0.4-7.5,0.4-10.4V96.6c0-3.5-0.1-6.5-0.4-9.2
			c2.6,0.3,5.8,0.4,9.9,0.4h26.7c3.7,0,6.8-0.1,9.3-0.4c-0.2,2.6-0.3,5.7-0.3,9.4v28.4c0,4.1,0.1,7,0.2,8.6
			c-1.7-0.2-4.1-0.2-7.1-0.2h-9.1v5h7.8c4.1,0,7.3-0.2,9.6-0.5v13.7c-2-0.3-5.2-0.4-9.6-0.4h-7.8v6.1l1-0.1
			c4.6-0.5,10.1-1.3,16.5-2.4v7.9c2.9,0.3,5.3,0.5,7,0.5c1.3,0,2.2-0.1,2.7-0.4c0.5-0.3,0.7-0.9,0.7-1.9v-28.1h-0.6
			c-3.9,0-7,0.1-9.2,0.4v-14.6c2,0.3,5.1,0.4,9.2,0.4h2.7c-3-2.8-6.7-5.7-11-8.7l9.1-9.1c3.2,2.1,5.7,3.8,7.4,5.2
			c2-1.9,3.7-3.6,5-5.3h-12.3c-3.7,0-6.8,0.2-9.3,0.5V87.2c2.5,0.3,6,0.5,10.5,0.5H939c4.2,0,7.2-0.1,8.8-0.4l7.9,9.1
			c-1,1.2-2.4,3.1-4.3,5.7c-3.7,5.2-7.3,9.6-10.9,13.2l2.2,2l-2.1,1.9h1.7c4.2,0,7.2-0.1,8.8-0.4l6.7,9c-0.7,1.6-1.4,3.6-2.2,5.9
			c-1,3.1-2.2,6.3-3.5,9.4c-1.4,3.2-2.9,6.2-4.4,8.9c-3.6-2.8-6.9-5.1-10-6.8v19.9c0,3.7-0.6,6.4-1.7,8c-1.4,2-4,3.2-7.7,3.8
			c-1.8,0.3-4.2,0.4-7.1,0.4c-1.9,0-4.3-0.1-7.2-0.2c-0.3-3.6-0.9-6.9-1.7-9.8l-3,0.6c-10.9,2.2-23.9,4.2-38.9,6
			c-1.9,0.3-3.5,0.5-4.8,0.8l-2.5-15.2c5.2,0,11.5-0.3,18.9-0.8v-7.3h-7.7c-3.6,0-6.8,0.2-9.6,0.5v-13.8c2.9,0.3,6.2,0.5,9.7,0.5
			h7.6V133.6z M882.3,100.5h-4.5v5.3h4.5V100.5z M882.4,116.1h-4.5v5.3h4.5V116.1z M895.1,100.5v5.3h4.5v-5.3H895.1z M895.2,116.1
			v5.3h4.5v-5.3H895.2z M937.8,132.9v11.6c2.3-3.9,4.1-7.7,5.5-11.6H937.8z"/>
		<path class="st0" d="M1004.6,159.9v-57.3h-24.1c-5.1,0-9.8,0.2-14.1,0.6V87.9c3.7,0.4,8.4,0.6,14.1,0.6h56.8
			c5.3,0,9.9-0.2,14.1-0.6v15.3c-4.4-0.4-9.1-0.6-14.1-0.6h-17.3v20.1h14.6c4.8,0,8.8-0.2,12-0.6v15c-3.4-0.4-7.4-0.6-12-0.6h-14.6
			v23.5h19.8c6,0,10.9-0.3,14.7-0.7v15.5c-3.8-0.5-8.6-0.7-14.5-0.7h-62.3c-5.6,0-10.5,0.3-14.8,0.7v-15.5c3.1,0.4,7.7,0.6,14,0.6
			v-29.7c0-6.2-0.2-11-0.6-14.4h16.3c-0.4,3.3-0.6,8-0.6,14.2v29.9H1004.6z"/>
		<path class="st0" d="M1079.8,104.3c-4.7,0.7-8.7,1.3-12,1.7c-1.1-4.8-2.6-9.4-4.6-13.8c8.5-0.6,17.3-2.1,26.3-4.3
			c5.7-1.4,9.7-2.8,12-4.2l8.7,13.2c-0.3,0.1-1,0.3-2.2,0.7c-4.5,1.4-8.9,2.7-13.2,3.7v10.1h6.2c3.4,0,6.1-0.2,8.1-0.5v14.6
			c-2.1-0.3-4.9-0.4-8.4-0.4h-5.4c4.4,6.3,9.4,11.4,14.9,15.3c-2.7,4.4-5,9.1-6.7,14.1c-3.7-3.5-6.7-7.3-9-11.4
			c0.2,1.7,0.3,4.4,0.3,8.1v13.4c0,5.6,0.2,9.9,0.6,13h-16.2c0.4-3.3,0.6-7.6,0.6-13v-11.7l0-1.7c0-2.1,0.1-4.1,0.2-6.1
			c-2.8,7.1-6.7,13.2-11.9,18.4c-2.1-5.9-4.5-10.9-7.1-15.2c3.4-2.8,6.5-6.5,9.4-11c3-4.7,5.1-8.8,6.2-12.2h-4.5
			c-3.6,0-6.5,0.2-8.8,0.5v-14.7c2.1,0.4,5.1,0.5,9,0.5h7.4V104.3z M1112.4,92h15.8c-0.3,3-0.5,7.3-0.5,12.7v36.7
			c0,5.5,0.2,9.5,0.5,12.1h-15.8c0.3-2.3,0.5-6.2,0.5-11.7v-37.1C1112.9,99.1,1112.7,94.9,1112.4,92z M1135,85.6h16.3
			c-0.4,3.9-0.6,8.7-0.6,14.5v62.5c0,6.3-1.7,10.3-5.1,12.1c-1.9,1-4.9,1.6-9,1.9c-2.6,0.2-5.3,0.2-8.3,0.2c-1.8,0-4.1-0.1-6.8-0.2
			c-1-5.2-2.5-10.3-4.7-15.3c5.4,0.5,9.9,0.7,13.6,0.7c2.2,0,3.6-0.2,4.2-0.5c0.7-0.4,1.1-1.2,1.1-2.5v-59
			C1135.6,95,1135.3,90.1,1135,85.6z"/>
	</g>
</g>
</svg>
