<?xml version="1.0" encoding="UTF-8"?><svg id="_レイヤー_2" xmlns="http://www.w3.org/2000/svg" xmlns:xlink="http://www.w3.org/1999/xlink" viewBox="0 0 472 472"><defs><style>.cls-1{fill:url(#linear-gradient);}.cls-2{fill:url(#linear-gradient-2);}</style><linearGradient id="linear-gradient" x1="0" y1="236" x2="472" y2="236" gradientUnits="userSpaceOnUse"><stop offset=".1" stop-color="#b8945d"/><stop offset=".29" stop-color="#d4ba83"/><stop offset=".46" stop-color="#e1cf8e"/><stop offset=".63" stop-color="#c1a46a"/><stop offset=".77" stop-color="#b8945d"/><stop offset=".93" stop-color="#695437"/></linearGradient><linearGradient id="linear-gradient-2" x1="41.34" y1="271.52" x2="423.13" y2="201.7" xlink:href="#linear-gradient"/></defs><g id="contents_1"><g><path class="cls-1" d="m464,8v456H8V8h456m8-8H0v472h472V0h0Z"/><path class="cls-2" d="m176.26,155.18c-.07.18-.11.33-.15.44-.11.44-.11.47-.22.87-1.68,7.65-3.21,11.55-6.56,16.76-1.49-1.24-2.55-1.93-3.86-2.59,3.5-4.81,5.94-11.11,6.38-16.62l4.41,1.13Zm9.15-8.78c-.15,1.13-.22,2.55-.22,4.45v24.09c0,1.75-.47,2.84-1.49,3.43-.73.44-1.79.62-3.79.62-1.38,0-2.91-.07-4.66-.18-.22-1.64-.51-2.73-1.17-4.26,2.26.33,3.79.47,5.21.47,1.2,0,1.57-.18,1.57-.87v-23.32c0-1.86-.07-3.28-.22-4.41h4.77Zm8.05,7.51c.26,1.93.73,3.86,1.68,6.41,1.35,3.72,3.06,6.89,5.43,10.06-1.46.84-2.7,1.82-3.68,2.84-3.06-4.37-4.92-8.35-6.49-13.81-.04-.15-.4-1.57-1.13-4.3l4.19-1.2Zm15.11,9.33c-1.2,0-2.3.04-3.06.11.07-1.13.15-2.37.15-3.61v-9c0-1.42-.04-2.44-.15-3.35,1.09.11,2.11.15,3.5.15h9c1.53,0,2.41-.04,3.35-.15-.07.95-.11,1.86-.11,3.39v9.33c0,1.86,0,2.51.07,3.24-.69-.07-1.68-.11-2.92-.11h-3.24v2.99h3.24c1.46,0,2.33-.04,3.35-.18v3.83c-.98-.15-1.86-.18-3.35-.18h-3.24v3.21c2.62-.4,3.72-.58,6.63-1.24l.07,3.35c-5.28,1.24-8.09,1.75-12.9,2.48-2.48.36-2.73.4-3.83.66l-.77-4.23c2.19-.04,3.53-.11,7.32-.55v-3.68h-3.28c-1.28,0-2.3.07-3.32.18v-3.83c.98.11,2,.18,3.32.18h3.28v-2.99h-3.13Zm.29-12.24v2.81h2.84v-2.81h-2.84Zm0,6.05v2.92h2.84v-2.92h-2.84Zm6.3-3.24h2.92v-2.81h-2.92v2.81Zm0,6.16h2.92v-2.92h-2.92v2.92Zm18.15-2.99l-1.75,1.86h1.9c1.53,0,2.3-.04,2.99-.15l1.97,2.41c-.4.84-.44.91-.84,1.79-1.17,2.59-2.08,4.19-3.61,6.27-1.57-1.2-1.86-1.38-2.95-1.97,1.31-1.57,2.11-2.73,2.99-4.52h-3.24v13.05c0,2.77-1.13,3.57-5.07,3.57-.62,0-1.46-.04-2.73-.11-.15-1.57-.26-2.08-.87-3.86,1.46.22,2.91.36,3.72.36.87,0,1.17-.22,1.17-.87v-12.13h-1.71c-1.49,0-2.3.04-3.28.18v-4.19c.98.15,1.68.18,3.28.18h4.56c-1.6-1.35-3.53-2.62-6.49-4.3l2.08-2.59c1.82.98,2.4,1.31,3.53,2.04,1.31-1.09,2.08-1.86,2.81-2.77h-5.76c-1.28,0-2.26.07-3.28.18v-4.08c.98.15,2,.18,3.54.18h5.9c1.53,0,2.3-.04,2.99-.15l2.11,2.41c-.58.69-.84,1.06-1.42,1.79-1.86,2.3-2.48,2.95-4.01,4.37l1.49,1.06Zm23.66-5.58h-9.55c-1.71,0-3.1.07-4.63.22v-4.12c1.38.15,2.81.22,4.59.22h21.1c1.71,0,3.13-.07,4.63-.22v4.12c-1.46-.15-3.02-.22-4.63-.22h-7.33v8.89h6.23c1.75,0,2.91-.07,4.08-.22v4.05c-1.13-.15-2.48-.22-4.08-.22h-6.23v10.31h8.35c1.82,0,3.35-.07,4.81-.26v4.23c-1.42-.18-2.84-.26-4.77-.26h-23.29c-1.82,0-3.24.07-4.81.26v-4.23c1.35.22,2.33.26,4.74.26h.77v-11.77c0-1.89-.07-3.39-.26-4.74h4.63c-.18,1.28-.26,2.81-.26,4.7v11.81h5.9v-22.81Zm28.53.69c-2.37.47-3.13.58-5.32.91-.29-1.24-.66-2.11-1.35-3.5,6.01-.62,11.77-2.04,14.03-3.5l2.37,3.35c-2.62.91-4.3,1.42-5.9,1.86v4.7h2.91c1.31,0,2.22-.04,3.06-.18v3.97c-.91-.15-1.79-.18-3.13-.18h-2.66c1.42,2.62,3.13,4.63,5.83,6.81-.73.98-1.46,2.37-1.93,3.57-2.15-2.19-2.95-3.32-4.26-5.83.11,1.24.18,2.73.18,4.59v6.34c0,2.3.04,3.35.22,4.63h-4.34c.18-1.35.26-2.55.26-4.63v-6.09c0-1.46.07-3.13.18-4.37-1.06,2.66-1.57,3.68-2.48,5.14-1.02,1.57-1.79,2.55-3.17,4.01-.73-1.71-1.28-2.73-2.04-3.83,1.57-1.46,2.73-2.88,3.97-4.88.95-1.53,2.37-4.23,2.84-5.47h-2.62c-1.42,0-2.33.07-3.35.22v-4.04c.95.18,1.79.22,3.43.22h3.28v-3.83Zm16.03-3.43c-.18,1.2-.22,2.26-.22,4.41v13.77c0,2.33.04,3.24.18,4.34h-4.3c.15-1.06.18-1.82.18-4.26v-13.85c0-2.11-.04-3.13-.22-4.41h4.37Zm8.67-2.19c-.18,1.46-.26,2.88-.26,4.96v23.43c0,1.93-.47,2.99-1.64,3.61-.87.47-2.11.62-5.07.62-.91,0-1.46,0-2.7-.07-.29-1.64-.58-2.48-1.24-4.04,2.08.22,3.46.33,4.81.33,1.6,0,1.86-.15,1.86-1.09v-22.78c0-1.82-.07-3.35-.22-4.96h4.45ZM48.67,209.2v-2.95c1.46,0,2.45-.16,2.95-.49.9-.57,1.35-1.49,1.35-2.76,0-.98-.33-1.77-.98-2.39-.64-.62-1.48-.93-2.51-.93-.96,0-1.7.23-2.22.7-.5.47-.88,1.28-1.13,2.4h-3.44c.36-2.15,1.09-3.73,2.19-4.74,1.11-1,2.65-1.5,4.64-1.5s3.64.59,4.91,1.78c1.27,1.18,1.9,2.69,1.9,4.55,0,2.1-.83,3.73-2.49,4.89,1.9,1.12,2.85,2.93,2.85,5.44,0,2.06-.69,3.74-2.08,5.04s-3.16,1.96-5.32,1.96c-2.76,0-4.8-1.01-6.14-3.04-.55-.85-.9-2.03-1.05-3.53h3.34c.18,1.11.61,1.95,1.3,2.54.69.59,1.58.88,2.69.88s2.04-.37,2.77-1.11c.73-.76,1.1-1.72,1.1-2.89,0-1.54-.55-2.64-1.65-3.29-.64-.38-1.64-.56-2.98-.56Zm11.7-.96c0-3.65.85-6.56,2.55-8.73,1.52-1.97,3.37-2.95,5.53-2.95s4.01.98,5.53,2.95c1.7,2.17,2.55,5.14,2.55,8.88s-.85,6.69-2.55,8.87c-1.52,1.97-3.36,2.95-5.52,2.95s-4-.98-5.55-2.95c-1.7-2.17-2.55-5.18-2.55-9.01Zm3.4.01c0,2.54.44,4.65,1.32,6.33.88,1.65,2,2.48,3.37,2.48s2.48-.83,3.37-2.48c.89-1.64,1.33-3.71,1.33-6.21s-.44-4.58-1.33-6.23c-.89-1.64-2.01-2.46-3.37-2.46s-2.46.82-3.35,2.46c-.89,1.63-1.33,3.67-1.33,6.11Zm19.97.25v11.33h-3.34v-11.33h-1.42v-3.11h1.42v-5.29h3.34v5.29h2.59v3.11h-2.59Zm4.95-13.71h3.34v11.8c1.19-1.07,2.5-1.6,3.93-1.6,1.63,0,2.94.53,3.91,1.59.83.92,1.25,2.39,1.25,4.4v8.85h-3.34v-8.54c0-1.16-.21-1.99-.62-2.51s-1.07-.78-1.98-.78c-1.17,0-1.99.36-2.46,1.08-.46.73-.7,1.99-.7,3.77v6.98h-3.34v-25.04Zm36.67,10.6h3.35v14.44h-3.35v-1.51c-1.37,1.29-2.85,1.93-4.43,1.93-2,0-3.65-.72-4.95-2.16-1.3-1.47-1.94-3.31-1.94-5.52s.65-3.97,1.94-5.41c1.3-1.44,2.92-2.16,4.86-2.16,1.68,0,3.19.69,4.52,2.08v-1.68Zm-7.92,7.18c0,1.38.37,2.51,1.11,3.38.76.88,1.72,1.32,2.88,1.32,1.24,0,2.23-.42,2.99-1.28.76-.88,1.14-2,1.14-3.35s-.38-2.47-1.14-3.35c-.76-.86-1.75-1.29-2.97-1.29-1.15,0-2.11.43-2.88,1.3-.76.88-1.14,1.97-1.14,3.26Zm15.39-7.18h3.35v1.33c1.17-1.16,2.48-1.73,3.94-1.73,1.68,0,2.99.53,3.93,1.59.81.9,1.22,2.37,1.22,4.4v8.85h-3.35v-8.07c0-1.42-.2-2.41-.59-2.95-.39-.55-1.09-.83-2.11-.83-1.11,0-1.89.37-2.36,1.1-.45.72-.68,1.98-.68,3.78v6.97h-3.35v-14.44Zm16.54,0h3.35v1.33c1.17-1.16,2.48-1.73,3.94-1.73,1.68,0,2.99.53,3.93,1.59.81.9,1.22,2.37,1.22,4.4v8.85h-3.35v-8.07c0-1.42-.2-2.41-.59-2.95-.39-.55-1.09-.83-2.11-.83-1.11,0-1.89.37-2.36,1.1-.45.72-.68,1.98-.68,3.78v6.97h-3.35v-14.44Zm16.02-6c0-.58.21-1.09.64-1.51.42-.42.93-.64,1.53-.64s1.12.21,1.54.64c.42.42.64.92.64,1.53s-.21,1.12-.64,1.54c-.42.43-.92.64-1.53.64s-1.12-.21-1.54-.64c-.42-.42-.64-.94-.64-1.56Zm3.84,6v14.44h-3.34v-14.44h3.34Zm6.03,0l3.74,8.11,3.72-8.11h3.75l-7.5,15.43-7.44-15.43h3.74Zm25.88,8.01h-10.35c.09,1.19.47,2.13,1.16,2.83.68.69,1.56,1.04,2.62,1.04.83,0,1.52-.2,2.06-.59.53-.4,1.14-1.13,1.82-2.19l2.82,1.57c-.44.74-.89,1.38-1.38,1.91-.48.53-1,.96-1.56,1.3s-1.15.59-1.79.75c-.64.16-1.34.24-2.09.24-2.16,0-3.88-.69-5.19-2.08-1.3-1.39-1.96-3.24-1.96-5.55s.63-4.13,1.9-5.55c1.28-1.39,2.97-2.09,5.07-2.09s3.81.68,5.04,2.03c1.23,1.34,1.84,3.21,1.84,5.59v.79Zm-3.44-2.73c-.46-1.78-1.59-2.67-3.37-2.67-.41,0-.79.06-1.14.19-.36.12-.68.3-.97.53-.29.23-.54.51-.75.84s-.37.7-.47,1.11h6.7Zm6.93-5.28h3.34v1.29c.61-.64,1.16-1.08,1.63-1.32.48-.25,1.06-.37,1.72-.37.88,0,1.8.29,2.76.86l-1.53,3.05c-.63-.45-1.25-.68-1.85-.68-1.82,0-2.73,1.37-2.73,4.12v7.49h-3.34v-14.44Zm19.59,2.46l-2.76,1.47c-.44-.89-.97-1.33-1.62-1.33-.31,0-.57.1-.79.3-.22.2-.33.46-.33.78,0,.55.64,1.1,1.93,1.65,1.77.76,2.96,1.46,3.57,2.11.61.64.92,1.51.92,2.59,0,1.39-.51,2.56-1.54,3.5-1,.89-2.2,1.33-3.62,1.33-2.42,0-4.14-1.18-5.14-3.54l2.85-1.32c.4.69.7,1.13.9,1.32.41.38.89.56,1.45.56,1.13,0,1.69-.51,1.69-1.54,0-.59-.44-1.15-1.3-1.66-.34-.17-.67-.33-1.01-.49-.34-.16-.68-.32-1.02-.49-.97-.47-1.65-.95-2.05-1.42-.5-.6-.76-1.38-.76-2.33,0-1.26.43-2.29,1.29-3.11.88-.82,1.95-1.23,3.2-1.23,1.85,0,3.22.95,4.12,2.86Zm14.47-2.46h3.35v14.44h-3.35v-1.51c-1.37,1.29-2.85,1.93-4.43,1.93-2,0-3.65-.72-4.95-2.16-1.3-1.47-1.94-3.31-1.94-5.52s.65-3.97,1.94-5.41c1.3-1.44,2.92-2.16,4.86-2.16,1.68,0,3.19.69,4.52,2.08v-1.68Zm-7.92,7.18c0,1.38.37,2.51,1.11,3.38.76.88,1.72,1.32,2.88,1.32,1.24,0,2.23-.42,2.99-1.28.76-.88,1.14-2,1.14-3.35s-.38-2.47-1.14-3.35c-.76-.86-1.75-1.29-2.97-1.29-1.15,0-2.11.43-2.88,1.3-.76.88-1.14,1.97-1.14,3.26Zm15.39-7.18h3.34v1.29c.61-.64,1.16-1.08,1.63-1.32.48-.25,1.06-.37,1.72-.37.88,0,1.8.29,2.76.86l-1.53,3.05c-.63-.45-1.25-.68-1.85-.68-1.82,0-2.73,1.37-2.73,4.12v7.49h-3.34v-14.44Zm17.08,11.76l-6.49-11.76h3.87l4.42,8.3,4.12-8.3h3.77l-11.51,22.3h-3.81l5.63-10.54Zm28.27-16.96v19.65h-3.45v-19.65h-5.26v-3.25h13.97v3.25h-5.25Zm6.07,8.1c0-3.22,1.18-5.99,3.54-8.3,2.35-2.31,5.18-3.47,8.48-3.47s6.06,1.17,8.39,3.5c2.34,2.33,3.51,5.14,3.51,8.41s-1.18,6.08-3.53,8.38c-2.36,2.3-5.21,3.45-8.55,3.45-2.96,0-5.61-1.02-7.96-3.07-2.59-2.26-3.88-5.23-3.88-8.9Zm3.48.04c0,2.53.85,4.61,2.55,6.24,1.69,1.63,3.64,2.45,5.86,2.45,2.4,0,4.43-.83,6.08-2.49,1.65-1.68,2.48-3.73,2.48-6.14s-.82-4.49-2.45-6.14c-1.62-1.66-3.63-2.49-6.02-2.49s-4.39.83-6.03,2.49c-1.64,1.64-2.46,3.67-2.46,6.08Zm27.82-11.39v13.79c0,1.97.32,3.41.96,4.31.96,1.31,2.31,1.97,4.05,1.97s3.1-.66,4.06-1.97c.64-.88.96-2.32.96-4.31v-13.79h3.45v14.74c0,2.41-.75,4.4-2.25,5.96-1.69,1.74-3.77,2.61-6.23,2.61s-4.53-.87-6.21-2.61c-1.5-1.56-2.25-3.55-2.25-5.96v-14.74h3.45Zm26.41,13.14l7.09,9.76h-4.23l-6.54-9.37h-.62v9.37h-3.45v-22.89h4.05c3.02,0,5.21.57,6.55,1.71,1.48,1.27,2.22,2.94,2.22,5.01,0,1.62-.46,3.01-1.39,4.18-.93,1.17-2.16,1.91-3.68,2.24Zm-4.3-2.62h1.1c3.27,0,4.91-1.25,4.91-3.75,0-2.34-1.59-3.51-4.77-3.51h-1.23v7.27Zm25.35-2.06l3.74,8.11,3.72-8.11h3.75l-7.5,15.43-7.44-15.43h3.74Zm11.95,7.12c0-2.09.75-3.86,2.24-5.32,1.49-1.46,3.31-2.19,5.46-2.19s3.98.74,5.49,2.21c1.48,1.47,2.22,3.28,2.22,5.43s-.75,3.98-2.24,5.44c-1.5,1.45-3.35,2.18-5.53,2.18s-3.98-.74-5.44-2.22c-1.46-1.46-2.19-3.3-2.19-5.52Zm3.41.06c0,1.44.39,2.58,1.16,3.42.79.85,1.83,1.28,3.13,1.28s2.35-.42,3.13-1.26c.78-.84,1.17-1.96,1.17-3.37s-.39-2.53-1.17-3.37c-.79-.85-1.83-1.28-3.13-1.28s-2.31.43-3.1,1.28c-.79.85-1.19,1.95-1.19,3.29Zm18.7-17.78v25.04h-3.34v-25.04h3.34Zm4.3,23.38c0-.55.2-1.03.61-1.44.41-.41.89-.61,1.45-.61s1.05.2,1.45.61c.41.41.61.89.61,1.45s-.2,1.06-.61,1.47c-.4.4-.88.59-1.45.59s-1.07-.2-1.47-.59-.59-.89-.59-1.48Zm11.7-18h-3.96l1.9-3.23h5.52v22.89h-3.45v-19.66ZM59.22,271.6h-6.36l-1.61-23.25h9.58l-1.61,23.25Zm13.7,0h-6.36l-1.61-23.25h9.58l-1.61,23.25Zm21.02-23.25v34.82c0,4.97.81,8.6,2.43,10.89,2.42,3.32,5.83,4.98,10.22,4.98s7.84-1.66,10.26-4.98c1.62-2.22,2.43-5.85,2.43-10.89v-34.82h8.72v37.21c0,6.09-1.9,11.11-5.69,15.05-4.27,4.39-9.51,6.59-15.72,6.59s-11.44-2.2-15.69-6.59c-3.79-3.94-5.69-8.96-5.69-15.05v-37.21h8.72Zm53.11,77.64h-8.42v-56.31h8.42v3.97c3.32-3.32,7.09-4.98,11.31-4.98,5.02,0,9.15,1.85,12.39,5.54,3.29,3.67,4.94,8.3,4.94,13.89s-1.63,10.02-4.9,13.66c-3.24,3.62-7.34,5.43-12.28,5.43-4.27,0-8.09-1.71-11.46-5.13v23.92Zm20.03-37.85c0-3.49-.95-6.34-2.85-8.54-1.92-2.22-4.34-3.33-7.26-3.33-3.1,0-5.6,1.07-7.52,3.22-1.92,2.15-2.88,4.97-2.88,8.46s.96,6.24,2.88,8.46c1.9,2.17,4.39,3.26,7.49,3.26,2.92,0,5.33-1.1,7.23-3.29,1.95-2.2,2.92-4.94,2.92-8.24Zm36.94-12.24l-6.96,3.71c-1.1-2.25-2.46-3.37-4.08-3.37-.77,0-1.44.26-1.98.77-.55.51-.82,1.17-.82,1.97,0,1.4,1.62,2.78,4.87,4.16,4.47,1.92,7.47,3.69,9.02,5.32,1.55,1.62,2.32,3.81,2.32,6.55,0,3.52-1.3,6.46-3.89,8.84-2.52,2.25-5.57,3.37-9.13,3.37-6.12,0-10.45-2.98-12.99-8.95l7.19-3.33c1,1.75,1.76,2.86,2.28,3.33,1.02.95,2.25,1.42,3.67,1.42,2.85,0,4.27-1.3,4.27-3.89,0-1.5-1.1-2.89-3.29-4.19-.85-.42-1.7-.84-2.55-1.24-.85-.4-1.71-.81-2.58-1.24-2.45-1.2-4.17-2.4-5.17-3.59-1.27-1.52-1.91-3.48-1.91-5.88,0-3.17,1.09-5.79,3.26-7.86,2.22-2.07,4.92-3.11,8.09-3.11,4.67,0,8.14,2.41,10.41,7.23Zm18.09,1.65v28.6h-8.42v-28.6h-3.59v-7.86h3.59v-13.37h8.42v13.37h6.55v7.86h-6.55Zm11.79-7.86h8.42v3.26c1.55-1.62,2.92-2.73,4.12-3.33,1.22-.62,2.67-.94,4.34-.94,2.22,0,4.54.72,6.96,2.17l-3.86,7.71c-1.6-1.15-3.16-1.72-4.68-1.72-4.59,0-6.89,3.47-6.89,10.41v18.91h-8.42v-36.46Zm59.94,20.22h-26.13c.22,2.99,1.2,5.38,2.92,7.15,1.72,1.75,3.93,2.62,6.63,2.62,2.1,0,3.83-.5,5.2-1.5,1.35-1,2.88-2.85,4.61-5.54l7.11,3.97c-1.1,1.87-2.26,3.48-3.48,4.81-1.22,1.34-2.53,2.43-3.93,3.29-1.4.86-2.91,1.49-4.53,1.89-1.62.4-3.38.6-5.28.6-5.44,0-9.81-1.75-13.1-5.24-3.29-3.52-4.94-8.19-4.94-14s1.6-10.43,4.79-14c3.22-3.52,7.49-5.28,12.8-5.28s9.61,1.71,12.73,5.13c3.09,3.39,4.64,8.1,4.64,14.11l-.04,1.98Zm-8.65-6.89c-1.17-4.49-4.01-6.74-8.5-6.74-1.02,0-1.98.16-2.88.47-.9.31-1.72.76-2.45,1.35-.74.59-1.37,1.29-1.89,2.12s-.92,1.76-1.2,2.81h16.92Zm43.45-13.33h8.46v36.46h-8.46v-3.82c-3.47,3.24-7.2,4.87-11.19,4.87-5.04,0-9.21-1.82-12.5-5.47-3.27-3.72-4.9-8.36-4.9-13.93s1.63-10.02,4.9-13.66c3.27-3.64,7.36-5.47,12.28-5.47,4.24,0,8.05,1.75,11.42,5.24v-4.23Zm-19.99,18.12c0,3.49.94,6.34,2.81,8.54,1.92,2.22,4.34,3.33,7.26,3.33,3.12,0,5.64-1.07,7.56-3.22,1.92-2.22,2.88-5.04,2.88-8.46s-.96-6.24-2.88-8.46c-1.92-2.17-4.42-3.26-7.49-3.26-2.89,0-5.32,1.1-7.26,3.29-1.92,2.22-2.88,4.97-2.88,8.24Zm38.12-18.12h8.42v3.37c1.62-1.7,3.01-2.85,4.16-3.44,1.22-.62,2.76-.94,4.6-.94,4.12,0,7.38,1.8,9.77,5.39,2.65-3.59,6.23-5.39,10.74-5.39,8.21,0,12.32,4.98,12.32,14.94v22.54h-8.46v-20.25c0-3.49-.42-5.96-1.27-7.41-.87-1.47-2.31-2.21-4.3-2.21-2.32,0-4.01.87-5.07,2.62-1.06,1.75-1.59,4.56-1.59,8.42v18.83h-8.46v-20.14c0-6.49-1.87-9.73-5.62-9.73-2.37,0-4.1.89-5.18,2.66-1.09,1.77-1.63,4.57-1.63,8.39v18.83h-8.42v-36.46Zm64.44,1.91h-6.36l-1.61-23.25h9.58l-1.61,23.25Zm13.7,0h-6.36l-1.61-23.25h9.58l-1.61,23.25Z"/></g></g></svg>