<?xml version="1.0" encoding="UTF-8"?><svg id="_レイヤー_2" xmlns="http://www.w3.org/2000/svg" viewBox="0 0 941.12 200"><defs><style>.cls-1{fill:red;}</style></defs><g id="contents_1"><path class="cls-1" d="m15.84,13.33c-.1.24-.14.43-.19.58-.14.58-.14.62-.29,1.15-2.21,10.07-4.22,15.2-8.63,22.05-1.97-1.63-3.36-2.54-5.08-3.4,4.6-6.33,7.81-14.62,8.39-21.86l5.8,1.49ZM27.87,1.77c-.19,1.49-.29,3.36-.29,5.85v31.69c0,2.3-.62,3.74-1.97,4.51-.96.58-2.35.82-4.99.82-1.82,0-3.84-.1-6.14-.24-.29-2.16-.67-3.6-1.53-5.61,2.97.43,4.99.62,6.86.62,1.58,0,2.06-.24,2.06-1.15V7.57c0-2.45-.1-4.31-.29-5.8h6.28Zm10.6,9.88c.34,2.54.96,5.08,2.21,8.44,1.77,4.89,4.03,9.06,7.14,13.23-1.92,1.1-3.55,2.4-4.84,3.74-4.03-5.75-6.47-10.98-8.53-18.17-.05-.19-.53-2.06-1.49-5.66l5.51-1.58Z"/><path class="cls-1" d="m58.35,23.92c-1.58,0-3.02.05-4.03.14.1-1.49.19-3.12.19-4.75V7.48c0-1.87-.05-3.21-.19-4.41,1.44.14,2.78.19,4.6.19h11.84c2.01,0,3.16-.05,4.41-.19-.1,1.25-.14,2.45-.14,4.46v12.27c0,2.45,0,3.31.1,4.27-.91-.1-2.21-.14-3.84-.14h-4.27v3.93h4.27c1.92,0,3.07-.05,4.41-.24v5.03c-1.29-.19-2.45-.24-4.41-.24h-4.27v4.22c3.45-.53,4.89-.77,8.73-1.63l.1,4.41c-6.95,1.63-10.64,2.3-16.97,3.26-3.26.48-3.6.53-5.03.86l-1.01-5.56c2.88-.05,4.65-.14,9.64-.72v-4.84h-4.32c-1.68,0-3.02.1-4.36.24v-5.03c1.29.14,2.64.24,4.36.24h4.32v-3.93h-4.12Zm.38-16.11v3.69h3.74v-3.69h-3.74Zm0,7.96v3.84h3.74v-3.84h-3.74Zm8.29-4.27h3.84v-3.69h-3.84v3.69Zm0,8.1h3.84v-3.84h-3.84v3.84Zm23.88-3.93l-2.3,2.45h2.49c2.01,0,3.02-.05,3.93-.19l2.59,3.16c-.53,1.1-.58,1.2-1.1,2.35-1.53,3.4-2.73,5.51-4.75,8.25-2.06-1.58-2.44-1.82-3.88-2.59,1.73-2.06,2.78-3.6,3.93-5.94h-4.27v17.16c0,3.64-1.49,4.7-6.66,4.7-.82,0-1.92-.05-3.6-.14-.19-2.06-.34-2.73-1.15-5.08,1.92.29,3.84.48,4.89.48,1.15,0,1.53-.29,1.53-1.15v-15.96h-2.25c-1.97,0-3.02.05-4.31.24v-5.51c1.29.19,2.21.24,4.31.24h5.99c-2.11-1.77-4.65-3.45-8.53-5.66l2.73-3.4c2.4,1.29,3.16,1.73,4.65,2.68,1.73-1.44,2.73-2.45,3.69-3.64h-7.57c-1.68,0-2.97.1-4.31.24V2.97c1.29.19,2.64.24,4.65.24h7.77c2.01,0,3.02-.05,3.93-.19l2.78,3.16c-.77.91-1.1,1.39-1.87,2.35-2.45,3.02-3.26,3.88-5.27,5.75l1.97,1.39Z"/><path class="cls-1" d="m122.03,8.34h-12.56c-2.25,0-4.08.1-6.09.29V3.21c1.82.19,3.69.29,6.04.29h27.76c2.25,0,4.12-.1,6.09-.29v5.42c-1.92-.19-3.98-.29-6.09-.29h-9.64v11.7h8.2c2.3,0,3.84-.1,5.37-.29v5.32c-1.49-.19-3.26-.29-5.37-.29h-8.2v13.57h10.98c2.4,0,4.41-.1,6.33-.34v5.56c-1.87-.24-3.74-.34-6.28-.34h-30.63c-2.4,0-4.27.1-6.33.34v-5.56c1.77.29,3.07.34,6.23.34h1.01v-15.49c0-2.49-.1-4.46-.34-6.23h6.09c-.24,1.68-.34,3.69-.34,6.18v15.53h7.77V8.34Z"/><path class="cls-1" d="m159.57,9.25c-3.12.62-4.12.77-7,1.2-.38-1.63-.86-2.78-1.77-4.6,7.91-.82,15.49-2.68,18.46-4.6l3.12,4.41c-3.45,1.2-5.66,1.87-7.77,2.44v6.18h3.84c1.73,0,2.92-.05,4.03-.24v5.23c-1.2-.19-2.35-.24-4.12-.24h-3.5c1.87,3.45,4.12,6.09,7.67,8.96-.96,1.29-1.92,3.12-2.54,4.7-2.83-2.88-3.88-4.36-5.61-7.67.14,1.63.24,3.6.24,6.04v8.34c0,3.02.05,4.41.29,6.09h-5.71c.24-1.77.34-3.36.34-6.09v-8.01c0-1.92.1-4.12.24-5.75-1.39,3.5-2.06,4.84-3.26,6.76-1.34,2.06-2.35,3.36-4.17,5.27-.96-2.25-1.68-3.6-2.68-5.03,2.06-1.92,3.6-3.79,5.23-6.42,1.25-2.01,3.12-5.56,3.74-7.19h-3.45c-1.87,0-3.07.1-4.41.29v-5.32c1.25.24,2.35.29,4.51.29h4.31v-5.03Zm21.09-4.51c-.24,1.58-.29,2.97-.29,5.8v18.12c0,3.07.05,4.27.24,5.71h-5.66c.19-1.39.24-2.4.24-5.61V10.55c0-2.78-.05-4.12-.29-5.8h5.75Zm11.41-2.88c-.24,1.92-.34,3.79-.34,6.52v30.83c0,2.54-.62,3.93-2.16,4.75-1.15.62-2.78.82-6.66.82-1.2,0-1.92,0-3.55-.1-.38-2.16-.77-3.26-1.63-5.32,2.73.29,4.55.43,6.33.43,2.11,0,2.45-.19,2.45-1.44V8.39c0-2.4-.1-4.41-.29-6.52h5.85Z"/><path class="cls-1" d="m217.6,31.64c.62,2.21,1.05,2.97,2.25,3.93,1.58,1.25,3.5,1.87,5.8,1.87,4.75,0,7.77-2.45,7.77-6.23,0-2.21-.96-4.03-2.68-5.03-1.15-.67-3.4-1.15-5.51-1.15s-3.5.05-5.13.24v-5.94c1.53.19,2.59.24,4.65.24,4.79,0,7.62-2.21,7.62-5.9,0-3.31-2.25-5.18-6.33-5.18-2.35,0-4.08.53-5.23,1.49-.96.91-1.44,1.73-2.01,3.69l-6.86-1.15c1.2-3.55,2.3-5.23,4.55-6.86,2.45-1.77,5.56-2.64,9.4-2.64,8.01,0,13.18,4.03,13.18,10.26,0,2.88-1.25,5.51-3.31,7.05-1.05.82-2.11,1.2-4.65,1.87,3.4.53,5.18,1.34,6.86,3.21,1.58,1.77,2.3,3.79,2.3,6.62,0,2.59-1.1,5.23-2.88,7-2.64,2.54-6.66,3.88-11.79,3.88-5.61,0-9.44-1.44-12.18-4.55-1.2-1.34-1.82-2.59-2.68-5.37l6.86-1.34Z"/><path class="cls-1" d="m251.46,38.93c-1.44-1.44-2.54-3.12-3.16-4.84-1.25-3.4-1.87-7.14-1.87-11.03,0-5.08,1.15-10.36,2.92-13.28,2.59-4.31,6.9-6.66,12.22-6.66,4.08,0,7.58,1.34,10.12,3.88,1.44,1.44,2.54,3.12,3.16,4.84,1.25,3.36,1.87,7.19,1.87,11.12,0,5.9-1.29,11.07-3.55,14.19-2.68,3.74-6.66,5.66-11.65,5.66-4.08,0-7.53-1.34-10.07-3.88Zm15.29-3.69c2.16-2.25,3.36-6.71,3.36-12.32s-1.2-9.92-3.36-12.27c-1.15-1.29-3.07-2.01-5.23-2.01-2.3,0-3.98.77-5.37,2.45-2.11,2.49-3.16,6.42-3.16,11.65s.91,9.2,2.45,11.41c1.49,2.11,3.5,3.12,6.14,3.12,2.11,0,3.98-.72,5.18-2.01Z"/><path class="cls-1" d="m330.28,2.73c2.54,0,3.74-.05,5.08-.19-.19,1.73-.24,2.97-.24,5.42v31.79c0,4.03-1.44,4.99-7.57,4.99-1.01,0-3.02-.05-5.27-.14-.29-1.97-.67-3.31-1.49-5.23,3.07.34,5.42.48,7,.48,2.01,0,2.25-.1,2.25-1.15V7.38h-27.09v5.47c0,12.47-.58,19.61-2.01,24.5-.96,3.36-1.77,5.18-3.64,8.25-1.15-1.53-2.45-2.88-4.32-4.22,1.63-2.3,2.59-4.46,3.26-7.14,1.1-4.55,1.63-11.84,1.63-23.35,0-4.84-.05-6.14-.24-8.34,1.49.14,2.64.19,5.08.19h27.57Zm-16.44,12.7h-4.65c-1.53,0-2.68.05-3.64.19v-4.6c1.1.14,2.11.19,3.69.19h4.55c0-1.58-.05-1.87-.14-2.88h5.32c-.14.96-.14,1.34-.19,2.88h4.84c1.49,0,2.49-.05,3.64-.19v4.6c-1.01-.14-2.11-.19-3.64-.19h-4.84v3.31h5.94c2.06,0,3.31-.05,4.32-.24v4.75c-1.2-.14-2.35-.19-4.32-.19h-16.49c-1.92,0-3.16.05-4.31.19v-4.75c1.1.19,2.06.24,4.36.24h5.56v-3.31Zm12.08,19.66c0,1.34.05,2.49.14,3.21-1.29-.1-2.21-.14-3.6-.14h-11.36v2.88h-5.23c.19-1.1.24-2.21.24-3.84v-8.53c0-1.58-.05-2.3-.19-3.26,1.58.14,2.01.14,3.55.14h12.85c2.11,0,2.64,0,3.74-.14-.1,1.01-.14,1.77-.14,3.36v6.33Zm-14.86-1.29h9.92v-4.08h-9.92v4.08Z"/><path class="cls-1" d="m350.38,19.8c0-1.05-.05-1.77-.14-2.78,1.01.1,2.06.14,3.36.14h10.45v-6.23h-10.02c-2.49,3.88-4.84,6.66-7.91,9.44-1.39-2.06-1.92-2.68-3.55-4.27,4.89-4.17,7.38-7.34,9.35-12.03.67-1.53,1.01-2.54,1.15-3.5l5.71,1.15c-.29.58-.38.72-.72,1.44-.05.14-.53,1.15-1.39,3.02h22.44c2.25,0,3.45-.05,4.89-.24v5.23c-1.49-.19-2.73-.24-4.89-.24h-9.78v6.23h7.72c2.21,0,3.5-.05,4.94-.24v5.08c-1.44-.14-2.73-.19-4.79-.19h-7.86v7.77h11.12c2.21,0,3.74-.1,5.23-.29v5.47c-1.49-.19-3.16-.29-5.23-.29h-11.12v5.99c0,2.45.05,3.74.29,5.13h-5.85c.19-1.39.29-2.68.29-5.23v-5.9h-16.11c-2.11,0-3.64.1-5.23.29v-5.47c1.53.19,3.07.29,5.23.29h2.45v-9.78Zm13.66,9.78v-7.77h-8.63v7.77h8.63Z"/><path class="cls-1" d="m411.78,30.3c-2.73,6.18-5.8,9.01-9.73,9.01-5.47,0-9.4-5.56-9.4-13.28,0-5.27,1.87-10.21,5.27-13.95,4.03-4.41,9.68-6.71,16.49-6.71,11.51,0,18.99,7,18.99,17.79,0,8.29-4.31,14.91-11.65,17.88-2.3.96-4.17,1.44-7.53,2.01-.81-2.54-1.39-3.6-2.92-5.61,4.41-.58,7.29-1.34,9.54-2.64,4.17-2.3,6.66-6.86,6.66-11.99,0-4.6-2.06-8.34-5.9-10.64-1.49-.86-2.73-1.25-4.84-1.44-.91,7.53-2.59,14.14-4.99,19.56Zm-7.05-17.16c-4.03,2.88-6.52,7.81-6.52,12.94,0,3.93,1.68,7.05,3.79,7.05,1.58,0,3.21-2.01,4.94-6.14,1.82-4.31,3.4-10.79,3.98-16.2-2.49.29-4.22.96-6.18,2.35Z"/><path class="cls-1" d="m465.4,23.35h11.27c2.21,0,3.4-.05,4.65-.19v4.17c-1.29-.19-2.4-.24-4.6-.24h-12.66v2.54h13.62c2.92,0,4.17-.05,5.47-.24v4.84c-1.58-.24-3.02-.29-5.47-.29h-9.54c3.69,2.68,9.78,4.99,15.87,6.04-.96,1.29-1.34,1.92-1.77,2.83-.05.1-.24.53-.53,1.2-.1.19-.24.53-.43.91-3.79-1.01-6.62-2.01-9.59-3.5-3.36-1.68-5.42-3.12-7.77-5.37.1,1.39.14,2.64.14,3.16v2.78c0,1.77.05,2.49.29,3.45h-5.71c.24-1.05.29-1.82.29-3.4v-2.83c0-1.1.05-2.01.14-3.16-2.45,2.45-4.84,4.08-8.68,5.85-2.64,1.25-5.13,2.11-8.53,2.97-.77-1.82-1.58-3.31-2.68-4.79,4.08-.67,7-1.53,10.36-3.07,2.3-1.05,3.74-1.87,5.18-3.07h-9.25c-2.45,0-3.84.05-5.42.29v-4.84c1.29.19,2.49.24,5.42.24h13.47v-2.54h-9.49c-1.87,0-2.92.05-4.08.14.14-1.05.19-2.3.19-3.84v-5.94c0-1.53.05-2.83.14-4.17-1.39,1.63-2.44,2.64-4.41,4.17-.82-2.06-1.39-3.16-2.49-4.7,3.74-2.64,6.33-5.37,8.77-9.25.67-1.05,1.2-2.16,1.53-3.12l5.56.91q-1.82,2.92-2.64,4.03h8.58c1.2-1.77,1.87-3.07,2.49-4.84l5.42.67c-1.2,2.16-1.68,2.97-2.49,4.17h10.31c2.16,0,3.4-.05,4.7-.24v4.46c-1.2-.14-2.16-.19-3.98-.19h-11.65v2.3h9.2c2.35,0,3.12-.05,4.55-.24v3.93c-1.44-.19-1.97-.19-4.55-.19h-9.2v2.3h9.2c2.4,0,3.07-.05,4.55-.24v3.93c-1.29-.14-2.01-.19-4.55-.19h-9.2v2.4Zm-4.99-14h-9.88v2.3h9.88v-2.3Zm0,5.8h-9.88v2.3h9.88v-2.3Zm-9.88,5.8v2.4h9.88v-2.4h-9.88Z"/><path class="cls-1" d="m514.76,17.88c1.2,4.31,3.74,8.97,6.9,12.56,3.55,4.03,7.53,6.76,13.23,9.11-1.63,1.92-2.3,2.92-3.5,5.51-5.13-2.64-8.44-5.08-11.84-8.77-3.12-3.31-5.47-7.14-7.24-11.6-1.44,4.94-3.98,9.06-7.81,12.85-3.26,3.21-6.71,5.47-11.46,7.53-.82-1.82-1.82-3.31-3.36-5.03,3.45-1.39,5.37-2.4,7.77-4.08,6.42-4.55,9.64-9.92,10.79-18.07h-11.31c-3.02,0-4.41.1-5.99.34v-6.09c1.49.24,3.21.34,6.04.34h11.75c.1-2.4.14-3.16.14-5.66,0-2.01-.14-3.45-.34-4.79h6.33c-.24,1.68-.29,2.4-.34,5.61,0,1.97-.05,3.07-.1,4.84h12.7c2.73,0,4.41-.1,6.04-.34v6.09c-1.92-.24-3.36-.34-5.99-.34h-12.42Z"/><path class="cls-1" d="m581.78,17.88q-.29.72-1.05,2.54c-2.11,5.18-4.03,8.68-6.47,11.99.91,1.68,1.87,3.02,2.88,4.12.81.86,1.87,1.73,2.16,1.73.19,0,.38-.29.62-.91q.34-1.1.91-5.61c1.63,1.63,2.25,2.11,4.31,3.21-1.1,6.47-2.78,9.3-5.42,9.3-2.45,0-6.23-3.21-9.01-7.72-3.6,3.55-7.34,6.28-11.6,8.39-1.49-2.21-2.01-2.78-3.64-4.17,5.03-2.06,9.25-4.94,12.9-8.82-2.01-4.94-3.07-10.69-3.6-19.13h-14.86q-.05,4.6-.1,6.33h8.82c1.68,0,2.4-.05,3.4-.19-.1.86-.19,2.21-.29,4.08-.48,8.63-.77,11.17-1.58,13.18-.77,1.92-2.49,2.64-6.18,2.64-1.34,0-2.11-.05-3.64-.14-.24-2.06-.53-3.21-1.25-5.08,2.54.34,3.26.38,4.65.38,1.49,0,1.92-.29,2.16-1.49.38-1.68.62-4.79.72-8.68h-7c-.34,5.47-.77,8.77-1.49,12.03-.86,3.84-1.82,5.99-3.93,9.35-1.49-1.92-2.45-2.83-4.17-4.08,1.68-2.59,2.68-4.84,3.31-7.57.96-4.03,1.44-10.4,1.44-18.94,0-3.69-.05-4.89-.29-6.81,1.73.14,3.69.24,6.18.24h13.9c-.05-.38-.05-1.63-.14-3.74-.05-1.77-.05-1.97-.24-3.02h5.71c-.14,1.01-.24,2.97-.24,4.55v2.21h6.33c-1.34-1.77-2.25-2.78-4.22-4.41l3.69-2.35c2.21,1.87,3.02,2.68,4.84,5.03l-2.49,1.73h1.44c2.54,0,3.84-.05,5.08-.29v5.27c-1.58-.14-3.4-.24-5.85-.24h-8.63c.43,6.28,1.1,10.69,2.21,14.33,2.4-3.88,4.03-7.86,4.6-11.22l5.13,1.97Z"/><path class="cls-1" d="m606.42,2.06c.19,3.21,1.63,10.12,3.16,15.01q3.12-1.15,12.42-4.22c.86-.29,1.1-.38,1.82-.72l2.06,6.04c-4.17.82-10.45,2.64-15.82,4.6-7,2.59-10.5,5.66-10.5,9.11s3.26,4.99,10.98,4.99c5.99,0,11.89-.72,15.49-1.97l.53,6.57c-1.05,0-1.29.05-3.88.34-5.18.53-7.86.72-11.22.72-6.66,0-10.84-.81-13.9-2.64-2.64-1.58-4.17-4.55-4.17-8.01,0-3.21,1.53-6.28,4.27-8.58,1.87-1.58,3.4-2.54,6.52-4.12-1.2-3.88-2.01-7.1-3.21-12.99-.48-2.3-.53-2.4-.77-3.12l6.23-1.01Z"/><path class="cls-1" d="m653.14,2.35q-.29.91-.77,3.21c-.24,1.15-.48,2.11-1.01,4.22,3.31-.34,5.8-.77,7.67-1.34l.14,5.51c-.53.05-.62.05-1.53.24-1.73.29-4.65.62-7.62.86-1.39,4.79-3.12,9.35-5.27,13.9-1.1,2.35-1.53,3.21-3.36,6.57q-.62,1.15-.91,1.73l-5.51-3.07c1.68-2.21,3.02-4.36,4.65-7.67,1.87-3.84,2.68-5.8,4.51-11.31-2.16.05-2.45.05-3.02.05-.62,0-.91,0-1.92-.05l-2.54-.05v-5.47c1.73.34,3.55.43,6.47.43.58,0,1.39,0,2.45-.05.81-3.4,1.34-6.28,1.44-8.34l6.14.62Zm21.72,38.83c-1.73-2.06-4.51-4.31-7.34-5.94.05.43.1.77.1.96,0,1.77-.82,3.84-2.06,5.08-1.68,1.73-4.55,2.68-7.96,2.68-6.33,0-10.45-3.16-10.45-8.05s4.27-8.25,10.36-8.25c1.44,0,2.45.1,4.46.43-.14-2.21-.24-4.08-.24-5.51,0-1.87.1-3.26.38-4.84l5.56.29c-.48,1.77-.58,2.88-.58,4.84s.1,3.84.43,6.57c3.45,1.53,3.93,1.77,7.57,4.41.72.48.91.67,1.68,1.29q.38.38.72.67l-2.64,5.37Zm-17.02-8.77c-3.12,0-5.13,1.29-5.13,3.31s1.73,3.12,4.7,3.12c3.26,0,4.84-1.34,4.84-4.03,0-.48-.1-1.63-.1-1.63-1.68-.58-2.83-.77-4.31-.77Zm17.26-13.28c-4.17-2.78-8.44-4.84-13.81-6.71l2.88-4.65c5.66,2.16,9.25,3.84,13.52,6.42l-2.59,4.94Z"/><path class="cls-1" d="m696.71,21.67c4.36-1.73,6.47-2.21,10.07-2.21,8.2,0,13.47,4.22,13.47,10.79,0,4.55-2.25,8.2-6.52,10.6-3.12,1.77-7.19,2.73-11.6,2.73-4.03,0-7.38-.77-9.3-2.21-1.82-1.34-2.88-3.36-2.88-5.51,0-3.98,3.45-6.86,8.25-6.86,3.36,0,6.28,1.39,8.29,3.93.96,1.2,1.49,2.25,2.21,4.31,3.98-1.49,5.71-3.55,5.71-6.95,0-3.74-3.69-6.18-9.49-6.18-7,0-14,2.83-19.75,8.05l-3.26-5.18c1.68-.82,3.6-2.11,6.76-4.51,4.46-3.4,10.69-8.77,14.33-12.47.1-.1.57-.58.86-.86l-.05-.05c-1.82.24-4.89.43-13.57.82-1.05.05-1.39.1-2.3.24l-.24-5.75c1.63.19,3.02.29,5.66.29,4.07,0,9.92-.24,14.57-.58,1.68-.14,2.21-.24,2.97-.62l2.97,4.22c-.82.43-1.15.72-2.49,1.97-2.4,2.21-5.9,5.32-7.53,6.71-.86.72-4.31,3.31-5.27,3.93q-1.2.82-1.97,1.25l.1.1Zm1.44,11.94c-1.73,0-2.83.86-2.83,2.21,0,1.92,2.16,3.02,5.71,3.02.91,0,1.15,0,2.49-.19-.86-3.31-2.68-5.03-5.37-5.03Z"/><path class="cls-1" d="m764.35,43.05c-3.98-4.89-9.49-10.26-14.72-14.24-5.42,6.04-10.93,10.26-18.27,13.86-1.34-2.49-1.92-3.26-3.88-5.32,3.69-1.44,5.99-2.73,9.59-5.27,7.24-5.08,12.99-12.03,16.11-19.51l.53-1.25q-.77.05-15.87.29c-2.3.05-3.6.14-5.23.38l-.19-6.14c1.34.24,2.25.29,4.22.29h1.15l16.88-.24c2.68-.05,3.07-.1,4.27-.53l3.16,3.26c-.62.72-1.01,1.39-1.53,2.59-2.21,5.13-4.55,9.3-7.48,13.23,3.02,2.01,5.61,4.03,8.87,6.95q1.2,1.05,7,6.66l-4.6,4.99Z"/><path class="cls-1" d="m798.13,21.91c-.24,5.51-1.29,9.49-3.36,12.9-2.54,4.22-6.04,6.86-12.51,9.44-1.2-2.45-1.82-3.26-3.88-5.27,5.75-1.77,9.35-4.31,11.36-8.01,1.25-2.21,1.97-5.32,2.11-9.06h-11.7c-3.26,0-4.36.05-6.09.24v-5.71c1.82.29,2.88.34,6.18.34h28.05c3.26,0,4.36-.05,6.18-.34v5.71c-1.73-.19-2.83-.24-6.09-.24h-10.26Zm-19.22-17.55c1.77.29,2.73.34,6.18.34h18.41c3.45,0,4.41-.05,6.18-.34v5.85c-1.58-.19-2.73-.24-6.09-.24h-18.6c-3.36,0-4.51.05-6.09.24v-5.85Z"/><path class="cls-1" d="m822.76,19.75c2.11.29,3.02.34,7.77.34h25.55c4.75,0,5.66-.05,7.77-.34v6.66c-1.92-.24-2.45-.24-7.81-.24h-25.46c-5.37,0-5.9,0-7.81.24v-6.66Z"/><path class="cls-1" d="m874.98,15.39c4.46,1.77,9.16,4.17,12.75,6.52l-2.97,5.42c-3.16-2.45-8.58-5.37-12.99-7l3.21-4.94Zm-2.16,21.48c3.74-.05,8.77-1.15,13.86-3.12,8.77-3.07,15.96-10.93,19.42-21.14,1.87,2.01,2.78,2.78,4.99,4.27-5.94,14.53-16.06,22.39-33.22,25.74-2.06.43-2.45.53-3.36.82l-1.68-6.57Zm5.85-33.08c4.51,1.73,9.3,4.03,12.75,6.18l-3.07,5.27c-3.88-2.64-9.3-5.47-12.8-6.57l3.12-4.89Zm24.93-.96c2.11,2.25,3.4,4.08,5.03,7.05l-3.36,1.77c-1.58-2.92-2.92-4.84-5.03-7.14l3.36-1.68Zm7.43,5.8c-1.44-2.64-3.02-4.89-4.89-6.95l3.21-1.68c2.16,2.21,3.5,4.03,4.99,6.76l-3.31,1.87Z"/><path class="cls-1" d="m923.35,30.49c4.41,3.36,7.1,5.99,10.79,10.55l-4.46,4.17c-3.5-4.75-6.23-7.62-10.4-10.93l4.08-3.79Z"/><path class="cls-1" d="m8.82,105.96c-3.74,0-4.51.05-6.18.24.29-2.73.62-4.41,1.25-6.14,1.29-3.5,3.45-6.57,6.57-9.4,1.68-1.49,3.12-2.59,7.91-5.8,4.41-3.02,5.75-4.6,5.75-7.05,0-3.26-2.54-5.27-6.62-5.27-2.78,0-4.89.96-6.09,2.83-.81,1.15-1.15,2.21-1.49,4.41l-6.86-.81c.67-3.64,1.53-5.61,3.31-7.67,2.4-2.78,6.18-4.27,10.98-4.27,8.39,0,13.57,4.03,13.57,10.6,0,3.16-1.05,5.47-3.4,7.67-1.34,1.25-1.82,1.63-8.05,5.9-2.11,1.49-4.51,3.5-5.71,4.79-1.44,1.53-2.01,2.49-2.73,4.31h13.42c3.02,0,5.42-.14,7-.38v6.33c-2.25-.19-4.17-.29-7.24-.29h-15.39Z"/><path class="cls-1" d="m40.83,102.85c-1.44-1.44-2.54-3.12-3.16-4.84-1.25-3.4-1.87-7.14-1.87-11.03,0-5.08,1.15-10.36,2.92-13.28,2.59-4.31,6.9-6.66,12.22-6.66,4.08,0,7.58,1.34,10.12,3.88,1.44,1.44,2.54,3.12,3.16,4.84,1.25,3.36,1.87,7.19,1.87,11.12,0,5.9-1.29,11.07-3.55,14.19-2.68,3.74-6.66,5.66-11.65,5.66-4.08,0-7.53-1.34-10.07-3.88Zm15.29-3.69c2.16-2.25,3.36-6.71,3.36-12.32s-1.2-9.92-3.36-12.27c-1.15-1.29-3.07-2.01-5.23-2.01-2.3,0-3.98.77-5.37,2.45-2.11,2.49-3.16,6.42-3.16,11.65s.91,9.2,2.45,11.41c1.49,2.11,3.5,3.12,6.14,3.12,2.11,0,3.98-.72,5.18-2.01Z"/><path class="cls-1" d="m76.48,105.96c-3.74,0-4.51.05-6.18.24.29-2.73.62-4.41,1.25-6.14,1.29-3.5,3.45-6.57,6.57-9.4,1.68-1.49,3.12-2.59,7.91-5.8,4.41-3.02,5.75-4.6,5.75-7.05,0-3.26-2.54-5.27-6.62-5.27-2.78,0-4.89.96-6.09,2.83-.81,1.15-1.15,2.21-1.49,4.41l-6.86-.81c.67-3.64,1.53-5.61,3.31-7.67,2.4-2.78,6.18-4.27,10.98-4.27,8.39,0,13.57,4.03,13.57,10.6,0,3.16-1.05,5.47-3.4,7.67-1.34,1.25-1.82,1.63-8.05,5.9-2.11,1.49-4.51,3.5-5.71,4.79-1.44,1.53-2.01,2.49-2.73,4.31h13.42c3.02,0,5.42-.14,7-.38v6.33c-2.25-.19-4.17-.29-7.24-.29h-15.39Z"/><path class="cls-1" d="m110.44,95.56c.62,2.21,1.05,2.97,2.25,3.93,1.58,1.25,3.5,1.87,5.8,1.87,4.75,0,7.77-2.45,7.77-6.23,0-2.21-.96-4.03-2.68-5.03-1.15-.67-3.4-1.15-5.51-1.15s-3.5.05-5.13.24v-5.94c1.53.19,2.59.24,4.65.24,4.79,0,7.62-2.21,7.62-5.9,0-3.31-2.25-5.18-6.33-5.18-2.35,0-4.08.53-5.23,1.49-.96.91-1.44,1.73-2.01,3.69l-6.86-1.15c1.2-3.55,2.3-5.23,4.55-6.86,2.45-1.77,5.56-2.64,9.4-2.64,8.01,0,13.18,4.03,13.18,10.26,0,2.88-1.25,5.51-3.31,7.05-1.05.82-2.11,1.2-4.65,1.87,3.4.53,5.18,1.34,6.86,3.21,1.58,1.77,2.3,3.79,2.3,6.62,0,2.59-1.1,5.23-2.88,7-2.64,2.54-6.66,3.88-11.79,3.88-5.61,0-9.44-1.44-12.18-4.55-1.2-1.34-1.82-2.59-2.68-5.37l6.86-1.34Z"/><path class="cls-1" d="m154.08,70.04l-14.42,37.82h-4.91l14.46-37.82h4.87Z"/><path class="cls-1" d="m163.03,96.04c.43,1.39.77,2.01,1.44,2.78,1.34,1.63,3.36,2.45,5.9,2.45,4.75,0,7.86-3.16,7.86-7.91s-2.97-7.72-7.53-7.72c-2.35,0-4.46.77-5.94,2.21-.67.67-1.01,1.1-1.44,2.16l-5.99-.58c.48-3.4.53-3.64.62-4.99l1.1-11.89c.05-.86.14-2.49.19-4.89,1.44.1,2.54.14,5.08.14h11.79c3.31,0,4.51-.05,6.66-.38v6.04c-2.11-.29-3.98-.38-6.62-.38h-11.27l-.77,8.39c-.05.38-.14,1.05-.29,2.01,2.35-2.01,4.89-2.92,8.2-2.92,3.88,0,7,1.15,9.35,3.6,2.35,2.3,3.4,5.18,3.4,9.01,0,8.44-5.51,13.66-14.43,13.66-4.75,0-8.29-1.34-10.93-4.17-1.29-1.39-1.97-2.54-3.02-5.23l6.62-1.39Z"/><path class="cls-1" d="m205.62,70.04l-14.42,37.82h-4.91l14.46-37.82h4.87Z"/><path class="cls-1" d="m214.78,105.96c-3.74,0-4.51.05-6.18.24.29-2.73.62-4.41,1.25-6.14,1.29-3.5,3.45-6.57,6.57-9.4,1.68-1.49,3.12-2.59,7.91-5.8,4.41-3.02,5.75-4.6,5.75-7.05,0-3.26-2.54-5.27-6.62-5.27-2.78,0-4.89.96-6.09,2.83-.81,1.15-1.15,2.21-1.49,4.41l-6.86-.81c.67-3.64,1.53-5.61,3.31-7.67,2.4-2.78,6.18-4.27,10.98-4.27,8.39,0,13.57,4.03,13.57,10.6,0,3.16-1.05,5.47-3.4,7.67-1.34,1.25-1.82,1.63-8.05,5.9-2.11,1.49-4.51,3.5-5.71,4.79-1.44,1.53-2.01,2.49-2.73,4.31h13.42c3.02,0,5.42-.14,7-.38v6.33c-2.25-.19-4.17-.29-7.24-.29h-15.39Z"/><path class="cls-1" d="m246.78,102.85c-1.44-1.44-2.54-3.12-3.16-4.84-1.25-3.4-1.87-7.14-1.87-11.03,0-5.08,1.15-10.36,2.92-13.28,2.59-4.31,6.9-6.66,12.22-6.66,4.08,0,7.58,1.34,10.12,3.88,1.44,1.44,2.54,3.12,3.16,4.84,1.25,3.36,1.87,7.19,1.87,11.12,0,5.9-1.29,11.07-3.55,14.19-2.68,3.74-6.66,5.66-11.65,5.66-4.08,0-7.53-1.34-10.07-3.88Zm15.29-3.69c2.16-2.25,3.36-6.71,3.36-12.32s-1.2-9.92-3.36-12.27c-1.15-1.29-3.07-2.01-5.23-2.01-2.3,0-3.98.77-5.37,2.45-2.11,2.49-3.16,6.42-3.16,11.65s.91,9.2,2.45,11.41c1.49,2.11,3.5,3.12,6.14,3.12,2.11,0,3.98-.72,5.18-2.01Z"/><path class="cls-1" d="m287.58,104.94c-1.79-2.59-2.52-3.9-3.39-6.07-1.28-3.1-1.85-6.17-1.85-9.52,0-2.78.42-5.5,1.25-7.96.86-2.65,1.79-4.41,3.99-7.57l3.39,2.17c-1.85,2.68-2.62,4.12-3.32,6.36-.74,2.21-1.09,4.54-1.09,7.06s.35,4.83,1.02,6.93c.7,2.17,1.47,3.61,3.32,6.33l-3.32,2.27Z"/><path class="cls-1" d="m308.83,76.37c0-1.37-.06-2.56-.22-3.74h4.15c-.16,1.15-.22,2.3-.22,3.74v5.78h6.36c1.82,0,2.91-.06,4.12-.19v3.74c-1.25-.13-2.43-.19-4.12-.19h-6.36v11.57h8.37c1.82,0,3.32-.06,4.47-.19v3.8c-1.28-.16-2.68-.22-4.47-.22h-19.81c-1.82,0-3.29.06-4.57.22v-3.8c1.18.13,2.65.19,4.57.19h7.73v-11.57h-5.78c-1.69,0-2.94.06-4.15.19v-3.74c1.12.13,2.43.19,4.15.19h5.78v-5.78Z"/><path class="cls-1" d="m330.91,102.67c1.85-2.72,2.62-4.15,3.32-6.33.67-2.14,1.02-4.41,1.02-6.93s-.35-4.86-1.09-7.06c-.7-2.24-1.47-3.67-3.32-6.36l3.39-2.17c2.21,3.16,3.13,4.92,4.03,7.57.8,2.49,1.21,5.14,1.21,7.96,0,3.39-.57,6.42-1.82,9.52-.89,2.17-1.63,3.48-3.42,6.07l-3.32-2.27Z"/><path class="cls-1" d="m362.06,70.04c-2.45,0-4.03.05-5.8.29v-5.27c1.68.24,3.45.34,6.14.34h12.66c-.05-1.97-.1-2.78-.34-4.31h5.85c-.24,1.49-.29,2.49-.29,4.31h13.09c2.97,0,4.79-.1,6.28-.34v5.27c-1.58-.19-3.6-.29-5.94-.29h-13.42v2.68h10.02c2.92,0,3.84-.05,5.32-.19-.14,1.44-.19,3.02-.19,4.84v8.87q0,2.68.19,4.89c-1.39-.19-2.73-.24-5.37-.24h-5.75c4.27,4.03,9.35,6.52,16.64,8.2-1.25,1.92-1.68,2.78-2.73,5.08-3.88-1.29-6.76-2.59-9.83-4.36-3.55-2.11-5.8-3.93-8.39-6.9.05,1.58.1,2.49.1,3.31v3.45c0,2.45.05,3.84.34,5.47h-5.9c.24-1.87.34-3.26.34-5.47v-3.45c0-.58.05-2.35.1-3.26-2.45,3.02-5.37,5.42-9.16,7.57-2.3,1.34-5.32,2.68-8.2,3.69-1.05-2.4-1.49-3.21-2.68-4.84,3.6-1.01,6.09-1.97,9.01-3.55,2.92-1.58,5.23-3.26,6.86-4.94h-5.18c-2.97,0-3.93.05-5.42.24q0-.48.14-1.39,0-.19.05-3.5v-8.82c0-2.49-.05-3.26-.19-4.94,1.29.19,2.45.24,5.23.24h9.44v-2.68h-12.99Zm3.6,6.81v2.92h9.4v-2.92h-9.4Zm0,6.9v3.02h9.4v-3.02h-9.4Zm14.62-3.98h10.07v-2.92h-10.07v2.92Zm0,7h10.07v-3.02h-10.07v3.02Z"/><path class="cls-1" d="m420,91.32c-3.64,5.75-6.04,8.25-11.55,12.37-1.1-1.82-1.87-2.78-3.4-4.17,3.12-1.92,4.46-2.97,6.28-4.84,1.77-1.82,2.68-3.12,4.22-5.9l4.46,2.54Zm4.17-26.7c0-1.29-.1-2.4-.29-3.5h5.94c-.19.96-.29,2.01-.29,3.45v1.44h13.71c2.49,0,4.12-.1,5.61-.34v5.42c-1.34-.24-2.64-.29-5.27-.29h-32.55c-2.59,0-3.79.05-5.18.29v-5.42c1.39.24,3.16.34,5.75.34h12.56v-1.39Zm-8.63,23.35c-2.11,0-3.02.05-4.31.14.14-1.2.19-2.11.19-3.79v-6.86c0-1.63-.05-2.49-.05-2.59,0-.05-.05-.29-.1-.67,0-.14,0-.34-.05-.62q.38.05,1.15.1c.43.05,1.97.1,3.16.1h23.06q3.31-.05,4.36-.19c-.14,1.15-.19,2.16-.19,3.88v6.86c0,1.68.05,2.49.14,3.79-1.1-.1-2.49-.14-4.36-.14h-8.39v11.99c0,3.69-1.58,4.75-7.24,4.75-.77,0-1.25,0-3.88-.05-.24-2.11-.58-3.36-1.39-5.13,2.01.29,3.55.43,5.23.43s1.97-.19,1.97-1.01v-10.98h-9.3Zm.96-4.75h21.19v-4.94h-21.19v4.94Zm21.67,5.61c1.82,2.78,2.83,3.98,4.75,5.71,1.97,1.82,3.45,2.83,6.62,4.55-1.49,1.53-2.35,2.73-3.4,4.6-3.31-2.25-4.7-3.45-7.14-5.94-1.97-2.11-2.97-3.36-4.99-6.23l4.17-2.68Z"/><path class="cls-1" d="m467.36,67.59c-.43-2.35-.62-3.16-1.15-4.51l6.33-1.01c.05,1.25.24,2.64.57,4.51l.77,4.17,10.12-1.58c2.35-.38,3.36-.62,4.6-1.05l1.01,5.75q-1.29.1-4.6.62l-10.12,1.58,1.44,7.86,11.27-1.77c2.01-.34,3.69-.72,4.99-1.1l1.05,5.75c-1.01.05-1.2.05-2.21.24-.29,0-.53.05-.77.1-.34.05-.96.14-1.92.29l-11.41,1.82,1.73,9.3c.58,3.16.62,3.31,1.15,4.94l-6.42,1.15c-.05-1.44-.24-2.78-.62-5.03l-1.73-9.44-11.84,1.87c-2.3.38-3.16.58-4.89,1.05l-.96-5.9c1.63,0,3.02-.14,5.08-.48l11.65-1.87-1.44-7.86-8.92,1.39c-2.21.38-3.98.72-5.27,1.1l-.96-5.9c1.73-.05,3.26-.24,5.27-.53l8.92-1.39-.72-4.08Z"/><path class="cls-1" d="m516.23,104.46c.19-1.29.29-2.68.29-4.27v-12.51c-.48.38-.82.58-1.44.91-3.6,1.92-7.67,3.55-13.52,5.37-.91-2.3-1.34-3.12-2.83-5.23,4.75-1.01,8.49-2.25,13.33-4.46,5.56-2.54,10.74-6.04,14.86-10.16h-1.01q-.29.05-17.55.14c-2.78,0-3.31.05-5.08.24v-5.8c1.25.29,3.07.43,5.13.43h8.01v-3.93c-.05-1.77-.05-2.45-.24-3.45h6.42c-.19.91-.24,1.77-.24,3.36v3.98h8.1c1.44,0,2.35-.14,3.26-.43l2.78,3.26c-.81.62-.86.67-2.11,2.06-2.68,3.12-5.18,5.37-9.78,8.97,5.8,1.82,11.03,4.17,16.73,7.53l-3.16,5.03c-4.89-3.16-8.63-5.13-14.62-7.67-.62-.29-.72-.29-1.2-.53.05.58.1,1.92.1,2.35v10.55c0,2.11,0,2.88.24,4.27h-6.47Z"/><path class="cls-1" d="m554.59,78.38c2.54,2.11,3.98,3.4,5.94,5.32q2.64,2.68,2.97,2.97c2.49-2.11,4.51-4.03,6.28-6.04,2.06-2.3,4.7-5.9,5.85-7.81q.14-.24.29-.43t.1-.24c-.48.05-1.2.1-2.21.1h-22.87c-3.88.05-4.36.05-6.14.24v-6.09c1.87.29,2.97.34,6.23.34l26.66-.05c2.06,0,2.78-.05,3.98-.38l3.36,3.79c-.72.77-1.01,1.1-2.11,2.83-4.55,7.33-9.59,13.23-15.49,18.17,2.01,2.3,3.84,4.6,6.33,8.01l-5.03,4.03c-2.68-4.31-5.23-7.62-9.25-12.08-3.69-4.08-6.09-6.42-9.59-9.25l4.7-3.4Z"/><path class="cls-1" d="m597.05,100.05c0,2.06.05,3.64.24,5.56h-5.51c.19-1.87.29-3.26.29-5.61v-13.9c0-.77.05-2.59.14-5.37-1.77,2.78-2.16,3.31-3.36,4.65-.58-2.01-1.29-3.98-2.21-5.75,3.21-3.31,5.8-7.57,7.67-12.75.91-2.45,1.49-4.55,1.68-6.14l5.37,1.53c-1.92,5.85-2.49,7.34-4.31,11.03v26.75Zm6.66-5.37c-2.49,0-3.45.05-4.7.19v-4.94c1.34.19,2.54.24,4.7.24h23.44c2.06,0,3.26-.05,4.6-.24v4.99c-1.58-.19-2.64-.24-4.6-.24h-5.9c3.98,3.16,5.9,4.17,11.36,5.85-1.49,1.77-2.06,2.68-3.12,4.65-5.71-2.4-7.43-3.45-12.47-7.67l2.78-2.83h-9.59l3.12,2.73c-4.07,3.79-6.86,5.56-12.13,7.72-.96-1.63-1.58-2.49-3.4-4.41,5.61-1.87,7.57-2.92,11.03-6.04h-5.13Zm3.6-6.52c-1.63,0-2.68.05-4.27.19.1-1.29.14-2.78.14-4.36v-17.12c0-2.11-.05-3.02-.14-4.27,1.2.14,2.01.19,4.41.19h15.96c2.3,0,3.16-.05,4.41-.19-.14,1.2-.19,2.3-.19,4.31v17.02c0,1.87.05,2.68.19,4.41-.62-.05-2.06-.14-4.32-.19h-16.2Zm.81-18.17h14.53v-2.92h-14.53v2.92Zm0,6.95h14.53v-2.88h-14.53v2.88Zm0,6.95h14.53v-2.88h-14.53v2.88Z"/><path class="cls-1" d="m653.43,84.42c-1.44,0-2.68.05-3.69.14.1-1.1.14-2.25.14-3.98v-11.22c0-2.01,0-2.3-.14-3.88,1.2.14,1.73.14,3.79.14h1.53c.72-1.77,1.15-3.07,1.53-4.89l5.32.62c-.91,2.21-1.53,3.64-1.82,4.27h4.03c1.97,0,2.45,0,3.69-.14-.14,1.15-.14,1.68-.14,3.88v11.22c0,2.06.05,3.07.14,3.98-1.05-.1-2.21-.14-3.6-.14h-2.97v3.16h12.94c2.83,0,4.51-.1,5.75-.29v5.18c-1.44-.19-3.16-.29-5.8-.29h-9.3c2.83,2.21,4.51,3.26,6.9,4.36,3.21,1.44,5.42,2.21,9.54,3.12-1.25,1.68-2.01,2.92-2.97,4.94-4.55-1.44-6.28-2.16-9.11-3.79-3.36-1.97-6.04-4.08-8.1-6.42q0,.58.05,1.29c0,.14.05,1.73.05,1.87v2.78c0,2.4.05,3.36.34,4.94h-5.85c.24-1.53.34-2.83.34-4.94v-2.73c0-.91.05-1.82.14-3.16-2.68,2.83-4.46,4.31-7.34,5.99-2.64,1.53-5.8,2.97-9.2,4.12-.96-1.97-1.68-3.07-3.12-4.7,6.57-1.68,11.99-4.31,15.68-7.67h-8.73c-2.49,0-4.36.1-5.71.29v-5.18c1.34.19,3.16.29,5.71.29h12.51v-3.16h-2.54Zm-4.22-5.03c-2.78,1.87-4.55,2.88-8.58,4.84-.91.43-.96.48-1.97,1.01l-1.87-4.84c3.07-.77,6.71-2.59,11.22-5.42l1.2,4.41Zm-7.77-15.87c2.64,2.11,4.55,3.93,7.29,6.95l-3.5,3.69c-2.45-3.12-4.6-5.27-7.29-7.33l3.5-3.31Zm13.18,9.4h8.29v-3.12h-8.29v3.12Zm0,7.33h8.29v-3.36h-8.29v3.36Zm16.2-5.08c4.79,2.45,7.34,3.88,10.21,5.8l-2.78,4.12c-3.5-2.59-6.47-4.41-10.12-6.18l2.68-3.74Zm9.16-8.29c-3.5,3.69-5.75,5.75-8.2,7.67l-3.26-3.55c3.6-2.83,5.13-4.36,7.57-7.53l3.88,3.4Z"/><path class="cls-1" d="m706.18,78.72c2.06,0,3.21-.05,4.12-.24v5.27c-1.05-.19-2.3-.24-3.88-.24h-16.06c-2.35,0-3.4.05-4.79.24v-5.27c1.29.19,2.4.24,4.84.24h9.44c1.15-2.68,1.87-4.89,2.49-7.81l4.94,1.25c-.67,2.3-1.49,4.36-2.54,6.57h1.44Zm-.67-12.94c2.16,0,3.21-.05,4.36-.24v5.18c-1.01-.19-1.97-.24-4.03-.24h-15.34c-1.77,0-2.88.05-3.93.24v-5.18c1.1.19,2.21.24,4.55.24h4.89v-1.34c0-1.34-.1-2.4-.29-3.36h5.71c-.14.96-.24,1.97-.24,3.36v1.34h4.31Zm-12.08,39.41h-5.18c.14-1.34.19-2.49.19-4.51v-10.4c0-1.97-.05-2.83-.14-3.93,1.1.1,2.06.14,3.84.14h12.37c1.97,0,2.78-.05,3.5-.14-.1.86-.14,1.49-.14,3.55v11.65c0,1.68.05,2.54.19,3.6h-5.27v-2.73h-9.35v2.78Zm.77-34.66c1.1,2.21,1.77,4.03,2.49,6.71l-4.75,1.44c-.67-2.88-1.2-4.51-2.25-6.71l4.51-1.44Zm-.77,27.28h9.4v-6.71h-9.4v6.71Zm36.53-32.27c-.34.62-.53,1.01-.96,2.11-1.63,4.27-3.16,7.57-5.18,11.41,2.64,3.02,3.69,4.6,4.6,6.95.86,2.06,1.34,4.51,1.34,6.66,0,3.02-1.25,5.23-3.4,5.99-1.2.48-2.54.62-4.89.62-.81,0-1.25,0-2.4-.1-.1-2.49-.34-3.64-1.1-5.23,1.25.19,2.21.29,3.6.29,2.4,0,3.16-.53,3.16-2.06,0-2.01-.53-4.12-1.53-6.18-1.1-2.21-2.16-3.6-4.99-6.23,2.78-5.13,4.22-8.53,5.27-12.56h-6.66v32.65c0,2.59.1,4.22.34,5.61h-5.66c.19-1.53.29-3.4.29-5.47v-33.7c0-1.39-.05-2.73-.19-4.03,1.29.14,2.35.19,3.93.19h8.29c1.87,0,2.88-.05,3.79-.24l2.35,3.31Z"/><path class="cls-1" d="m737.41,102.88c-.05-.86-.1-1.15-.24-2.25-.91-5.8-1.25-9.49-1.25-14.33,0-6.18.58-11.65,1.97-18.75.53-2.68.62-3.16.72-4.46l6.33.67c-1.15,2.83-2.25,8.2-3.02,14.33-.48,3.6-.67,6.42-.72,10.6,0,1.05-.05,1.44-.1,2.64.53-1.68.62-2.01,2.49-6.33l3.84,1.73c-2.64,5.56-4.27,11.12-4.27,14.53,0,.29,0,.67.05,1.29l-5.8.34Zm20.42-18.94c-2.4,2.78-3.4,4.84-3.4,6.9,0,2.73,2.64,4.17,7.62,4.17,4.22,0,8.39-.67,11.41-1.82l.48,6.09c-.67.05-.86.1-1.97.29-3.84.62-6.76.91-9.92.91-5.94,0-9.78-1.34-11.89-4.17-.91-1.2-1.44-2.97-1.44-4.7,0-3.12,1.44-6.33,4.41-9.88l4.7,2.21Zm-7.91-15.87c2.16.58,4.7.77,8.87.77,5.32,0,9.88-.43,13.04-1.29l.29,5.8c-.38.05-1.1.14-3.4.43-3.07.38-6.71.58-10.26.58s-3.55,0-8.63-.53l.1-5.75Z"/><path class="cls-1" d="m779.51,68.07c1.05.05,1.58.05,1.82.05q.86,0,7.91-.48c2.68-.14,10.64-.58,23.92-1.2,3.93-.19,4.65-.24,5.51-.48l.34,6.14q-.53-.05-1.01-.05c-2.88,0-6.42.96-9.49,2.59-6.09,3.16-9.68,7.96-9.68,12.8,0,3.74,2.35,6.62,6.38,7.81,2.35.72,5.42,1.25,7.14,1.25.05,0,.48,0,.96-.05l-.86,6.52c-.57-.14-.81-.19-1.63-.29-5.27-.67-8.29-1.53-11.22-3.16-4.41-2.49-6.86-6.57-6.86-11.55,0-4.08,1.63-8.1,4.55-11.31,1.82-1.97,3.55-3.21,6.66-4.79-3.88.58-5.75.72-16.16,1.49-3.21.24-6.09.58-7.96.96l-.34-6.23Z"/><path class="cls-1" d="m825.95,73.3c3.45,1.92,5.18,3.16,8.63,6.04l-3.07,4.46c-3.26-3.02-5.18-4.46-8.63-6.57l3.07-3.93Zm8.49,16.3c-1.82,5.47-3.07,8.49-5.27,12.66-.34.62-1.34,2.4-1.49,2.68l-4.55-3.98c2.68-3.26,4.6-7.14,7.1-14.38l4.22,3.02Zm-6.42-28.14c3.36,1.97,5.23,3.4,8.39,6.38l-3.36,4.31c-3.02-3.16-4.55-4.41-8.39-6.86l3.36-3.84Zm24.88,25.03c2.88,6.23,7.53,10.45,14.67,13.33-1.29,1.68-1.82,2.78-2.83,5.47-7.14-3.69-12.56-9.06-15.01-15.01-2.35,6.81-6.47,11.36-13.95,15.34-.86-1.92-1.68-3.07-3.31-4.84,7.57-3.21,11.51-7.48,13.09-14.29h-4.6c-2.21,0-3.93.1-5.37.29v-5.71c1.44.19,3.26.29,5.32.29h5.37c.24-2.73.34-5.51.38-8.2h-3.98c-1.97,0-3.88.1-5.08.24v-5.42c1.49.14,3.07.24,5.08.24h3.93v-2.59c0-2.21-.1-3.16-.34-4.51h5.85c-.29,1.39-.34,2.25-.34,4.46v2.64h7.34c2.25,0,3.36-.05,4.46-.19-.14.96-.19,2.01-.19,3.84v9.49c1.97-.05,2.01-.05,4.03-.29v5.71c-1.58-.19-3.16-.29-5.32-.29h-9.2Zm5.47-5.13v-8.2h-6.62c-.05,3.84-.14,5.71-.38,8.2h7Z"/><path class="cls-1" d="m891.68,79.63h-7.05c-2.11,0-3.45.05-4.84.24v-5.08c1.25.19,2.64.24,4.84.24h18.36c2.25,0,3.64-.05,4.94-.24v5.08c-1.34-.19-2.73-.24-4.94-.24h-6.28v6.14h9.06c2.21,0,3.4-.05,4.7-.29v5.13c-1.44-.19-2.59-.24-4.7-.24h-9.06v8.25c2.35.34,4.99.48,7.81.48s6.04-.14,10.93-.58c-.77,1.97-1.1,3.26-1.34,5.47-3.93.1-6.42.14-10.21.14-11.22,0-17.5-2.45-21.43-8.25-1.53,3.31-3.36,5.94-6.57,9.4-1.25-1.77-1.92-2.4-4.12-3.93,3.93-3.55,6.71-8.15,8.25-13.57.53-1.97.91-4.12.96-5.18l5.32,1.01c-.24.82-.24.86-.67,2.83-.24.96-.53,2.06-1.25,4.31,1.92,3.4,3.88,5.18,7.29,6.66v-17.79Zm-.82-15.39c0-1.2-.1-2.01-.29-3.07h5.9c-.19,1.01-.24,1.77-.24,3.02v1.82h12.94c1.92,0,3.55-.05,5.32-.19-.14,1.1-.19,2.16-.19,3.55v3.74c0,1.39.05,2.49.19,3.74h-5.18v-5.99h-30.97v5.99h-5.32c.19-1.15.24-2.11.24-3.79v-3.69c0-1.25-.1-2.45-.19-3.55,1.73.14,3.36.19,5.27.19h12.51v-1.77Z"/><path class="cls-1" d="m925,91.76c.05-1.01.1-1.49.1-2.06q0-.53-.14-3.4l-.67-16.3c-.1-2.11-.24-4.51-.43-5.85h7.86c-.14,1.29-.34,3.79-.43,5.85l-.67,16.3q-.1,2.78-.1,3.45c0,.58,0,1.05.1,2.01h-5.61Zm-.67,10.5v-6.57h6.95v6.57h-6.95Z"/><path class="cls-1" d="m270.99,139.04l-.03.42c-.54,8.88-4.12,13.96-12.43,17.67-.73-1.53-1.37-2.36-2.65-3.52,4.44-1.44,8.02-4.35,9.52-7.73.83-1.76,1.34-4.09,1.53-7.25h-7.67c-1.73,2.81-3.16,4.54-5.31,6.49-1.12-1.25-1.82-1.76-3.26-2.52,2.68-2.11,5.15-5.27,6.74-8.79.99-2.11,1.41-3.32,1.6-4.57l4.15.99c-.13.22-.22.42-.26.48-.13.32-.13.35-.96,2.27-.29.67-.61,1.37-.96,2.08h.99c.22,0,4.54-.03,12.97-.03,2.24,0,2.75-.03,4.03-.19v3.93c-.54-.06-.89-.1-1.02-.1-.64,0-1.66,0-3.04-.03h-3.93l-.03.42Zm3.32-10.23c1.25,1.66,1.98,2.94,2.84,5.05l-2.36.93c-.86-2.14-1.6-3.45-2.81-5.11l2.33-.86Zm4.51,4.38c-.77-1.89-1.66-3.52-2.75-4.95l2.27-.89c1.31,1.69,2.08,2.97,2.81,4.86l-2.33.99Z"/><path class="cls-1" d="m305.73,156.3c-2.65-3.26-6.33-6.84-9.81-9.49-3.61,4.03-7.29,6.84-12.18,9.24-.89-1.66-1.28-2.17-2.59-3.55,2.46-.96,3.99-1.82,6.39-3.52,4.83-3.39,8.66-8.02,10.74-13.01l.35-.83q-.51.03-10.58.19c-1.53.03-2.4.1-3.48.26l-.13-4.09c.89.16,1.5.19,2.81.19h.77l11.25-.16c1.79-.03,2.05-.06,2.84-.35l2.11,2.17c-.42.48-.67.93-1.02,1.73-1.47,3.42-3.04,6.2-4.99,8.82,2.01,1.34,3.74,2.68,5.91,4.63q.8.7,4.67,4.44l-3.07,3.32Z"/><path class="cls-1" d="m314.32,156.68c.16-1.02.19-1.89.19-3.58v-20.48c0-1.57-.06-2.4-.19-3.26h4.38c-.13.96-.13,1.37-.13,3.36v5.94c4.38,1.53,9.4,3.87,14.51,6.74l-2.24,3.77c-2.65-1.82-5.98-3.64-11.31-6.1-.73-.35-.83-.38-1.09-.54.1.89.13,1.28.13,2.17v8.44c0,1.66.03,2.49.13,3.55h-4.38Z"/><path class="cls-1" d="m338.6,156.23c-.03-.58-.06-.77-.16-1.5-.61-3.87-.83-6.33-.83-9.55,0-4.12.38-7.77,1.31-12.5.35-1.79.42-2.11.48-2.97l4.22.45c-.77,1.89-1.5,5.46-2.01,9.55-.32,2.4-.45,4.28-.48,7.06,0,.7-.03.96-.06,1.76.35-1.12.42-1.34,1.66-4.22l2.56,1.15c-1.76,3.71-2.84,7.41-2.84,9.68,0,.19,0,.45.03.86l-3.87.22Zm13.61-12.62c-1.6,1.85-2.27,3.23-2.27,4.6,0,1.82,1.76,2.78,5.08,2.78,2.81,0,5.59-.45,7.61-1.21l.32,4.06c-.45.03-.58.06-1.31.19-2.56.42-4.51.61-6.61.61-3.96,0-6.52-.89-7.93-2.78-.61-.8-.96-1.98-.96-3.13,0-2.08.96-4.22,2.94-6.58l3.13,1.47Zm-5.27-10.58c1.44.38,3.13.51,5.91.51,3.55,0,6.58-.29,8.69-.86l.19,3.87c-.26.03-.74.1-2.27.29-2.05.26-4.47.38-6.84.38s-2.36,0-5.75-.35l.06-3.83Z"/><path class="cls-1" d="m394.52,149.07c0,1.89.03,2.75.22,4.15-2.27,1.25-3.42,1.76-5.11,2.2-1.44.38-3.13.61-4.7.61-3.99,0-7.06-1.25-9.08-3.68-1.95-2.3-3-5.75-3-9.71,0-5.08,1.79-8.98,5.11-11.22,1.98-1.31,4.15-1.89,7.09-1.89s5.56.99,7.35,2.75c1.12,1.09,1.69,2.01,2.36,3.8l-4.38,1.18c-1.05-2.91-2.59-3.93-5.88-3.93-1.89,0-3.64.7-4.86,1.95-1.6,1.66-2.36,4.03-2.36,7.29s.73,5.78,2.17,7.48c1.31,1.53,3.04,2.21,5.56,2.21,2.17,0,3.8-.42,5.43-1.44v-5.21h-1.73c-1.63,0-2.3.03-3.26.19v-4.12c1.15.16,1.85.19,3.83.19h1.66c1.47,0,2.4-.03,3.77-.13-.16,1.18-.22,2.17-.22,3.96v3.36Z"/><path class="cls-1" d="m415.73,155.63c-.19-1.05-.54-2.43-.89-3.36l-1.28-3.48h-10.23l-1.28,3.48c-.58,1.53-.7,2.01-.96,3.36h-5.24c.48-.86,1.12-2.3,1.69-3.77l7.03-18.44c.61-1.6.86-2.4,1.02-3.23h5.56c.16.77.35,1.28,1.09,3.23l7.09,18.44c.8,2.05,1.18,2.94,1.63,3.77h-5.24Zm-6.74-19.97c-.13-.35-.22-.74-.57-1.79q-.51,1.5-.61,1.79l-3.32,9.46h7.93l-3.42-9.46Z"/><path class="cls-1" d="m440.79,155.85c-1.15-.16-2.27-.22-4.54-.22h-9.46c-1.79,0-2.91.03-4.06.1.19-1.18.26-2.36.26-4.22v-16.59c0-2.2-.06-3.36-.26-4.73h4.83c-.19,1.31-.26,2.36-.26,4.7v16.87h8.95c2.17,0,3.2-.06,4.54-.22v4.31Z"/><path class="cls-1" d="m459.13,155.63c-.54-1.09-1.12-2.01-2.05-3.42l-8.25-12.43c-.61-.96-1.41-2.33-2.17-3.83q.03.45.13,1.63c.03.61.1,2.05.1,2.78v10.48c0,2.14.1,3.64.26,4.79h-4.67c.16-1.05.26-2.65.26-4.83v-16.49c0-1.66-.06-2.81-.26-4.12h4.99c.29.8.86,1.76,1.95,3.39l8.08,12.18c.77,1.15,1.79,2.81,2.49,4.09-.13-1.25-.22-3.16-.22-4.51v-10.74c0-1.89-.06-3.2-.26-4.41h4.67c-.19,1.28-.26,2.46-.26,4.41v16.9c0,1.79.06,3,.26,4.12h-5.05Z"/><path class="cls-1" d="m485.73,155.85c-1.15-.16-2.17-.22-4.12-.22h-9.97c-1.92,0-2.78.03-4.06.1.19-1.28.26-2.33.26-4.22v-17.29c0-1.66-.06-2.62-.26-4.12,1.28.06,2.11.1,4.06.1h9.65c1.6,0,2.65-.06,4.12-.22v4.22c-1.21-.16-2.24-.22-4.12-.22h-9.2v6.58h7.77c1.66,0,2.75-.06,4.15-.22v4.19c-1.31-.19-2.17-.22-4.15-.22h-7.8v7.54h9.59c1.79,0,2.72-.06,4.09-.22v4.25Z"/><path class="cls-1" d="m504.25,155.63c-.06-.77-.61-2.4-1.66-5.11-1.73-4.41-2.84-5.59-5.3-5.59h-4.76v6.52c0,1.92.06,2.94.26,4.19h-4.76c.19-1.34.26-2.2.26-4.15v-17.22c0-1.69-.06-2.65-.26-4.15,1.34.06,2.33.1,4.09.1h7.67c4.86,0,7.64,2.43,7.64,6.65,0,2.05-.54,3.64-1.63,4.76-.89.93-1.73,1.34-3.55,1.85,2.01.64,2.62,1.53,5.78,9.01.26.58,1.05,2.3,1.5,3.16h-5.27Zm-5.31-14.35c1.18,0,2.3-.42,3.04-1.15.67-.67,1.02-1.6,1.02-2.81,0-2.3-1.31-3.48-3.93-3.48h-6.55v7.45h6.42Z"/><path class="cls-1" d="m517.57,155.63c.16-1.21.26-2.49.26-4.12v-6.33l-7.38-11.7c-.48-.77-1.21-1.82-2.24-3.29h5.59c.26.86.67,1.73,1.53,3.13l4.63,7.86,4.7-7.83c.8-1.37,1.28-2.33,1.5-3.16h5.56c-.45.64-1.66,2.4-2.21,3.29l-7.38,11.73v6.3c0,1.6.06,2.91.26,4.12h-4.83Z"/><path class="cls-1" d="m554.85,130.19c-.19,1.18-.26,2.33-.26,4.35v11.34c0,6.61-3.93,10.32-10.9,10.32-3.55,0-6.49-1.09-8.24-3-1.63-1.76-2.4-4.15-2.4-7.35v-11.28c0-1.98-.06-3.23-.26-4.38h4.76c-.19,1.09-.26,2.3-.26,4.38v11.28c0,4.31,2.24,6.58,6.55,6.58s6.49-2.27,6.49-6.61v-11.25c0-2.05-.06-3.2-.26-4.38h4.76Z"/><path class="cls-1" d="m561.56,147.7c.13,1.44.32,2.08.89,2.81.93,1.21,2.59,1.89,4.67,1.89,3.2,0,5.11-1.44,5.11-3.83,0-1.31-.61-2.4-1.6-2.94-.96-.51-1.15-.54-5.56-1.57-2.4-.54-3.67-1.05-4.83-1.95-1.63-1.28-2.46-3.04-2.46-5.18,0-4.44,3.58-7.32,9.08-7.32,3.64,0,6.39,1.12,7.96,3.23.8,1.05,1.18,2.01,1.57,3.71l-4.57.54c-.19-1.09-.42-1.63-.96-2.27-.83-.99-2.24-1.53-3.99-1.53-2.78,0-4.67,1.41-4.67,3.48,0,1.34.7,2.27,2.17,2.91.7.29.96.35,4.51,1.15,2.52.54,4.06,1.15,5.21,1.95,1.82,1.34,2.65,3.1,2.65,5.5,0,2.27-.7,4.12-2.01,5.43-1.69,1.63-4.22,2.43-7.64,2.43-2.62,0-5.18-.64-6.71-1.66-1.28-.86-2.21-2.08-2.81-3.64-.29-.74-.42-1.34-.61-2.65l4.6-.48Z"/><path class="cls-1" d="m587.96,132.27c1.31.29,3.36.42,7.41.42.86-1.92,1.15-2.88,1.28-3.96l4.19.45q-.19.32-1.28,2.88c-.16.35-.22.45-.29.58q.26-.03,2.01-.13c3.71-.22,6.61-.58,8.37-1.09l.22,3.64q-.89.06-2.52.26c-2.33.29-6.39.54-9.62.64-.93,1.82-1.82,3.1-2.94,4.25l.03.06q.22-.16.64-.48c1.18-.89,2.88-1.44,4.51-1.44,2.49,0,4.06,1.18,4.57,3.39,2.46-.89,4.09-1.47,4.89-1.73,1.73-.61,1.85-.64,2.36-.96l1.5,3.67c-.89.13-1.85.38-3.55.86-.45.13-2.05.67-4.79,1.63v.35q.03.83.03,1.28v1.28c-.03.54-.03.83-.03,1.05,0,.7.03,1.15.1,1.69l-3.71.1c.13-.58.19-2.21.19-3.71v-.77c-1.57.74-2.4,1.18-3.07,1.66-1.12.83-1.66,1.69-1.66,2.62,0,1.66,1.53,2.33,5.4,2.33s7.13-.48,9.4-1.34l.32,4.12c-.54,0-.7.03-1.47.13-2.3.35-5.37.58-8.18.58-3.39,0-5.5-.38-7.13-1.34-1.47-.83-2.33-2.36-2.33-4.12,0-1.31.38-2.33,1.41-3.55,1.44-1.79,3.26-3,6.87-4.51-.16-1.18-.8-1.73-1.95-1.73-1.85,0-4.09,1.12-6.55,3.29-1.34,1.12-2.08,1.92-2.78,2.91l-2.91-2.88c.83-.64,1.76-1.53,2.88-2.84,1.25-1.47,3.2-4.25,3.83-5.46q.13-.26.26-.42c-.13,0-.54.03-.54.03-.51,0-3.32-.06-4.03-.06q-.61-.03-.89-.03c-.1,0-.29,0-.51.03l.06-3.64Z"/><path class="cls-1" d="m615.89,140.41c.8.13,1.31.16,2.56.16h2.4c1.12,0,1.6-.03,2.43-.13-.13.93-.13,1.5-.13,3.45v6.71c.51.93.77,1.25,1.44,1.69,1.63,1.12,3.39,1.41,8.6,1.41,4.79,0,9.81-.22,12.65-.58-.67,2.05-.77,2.4-.96,3.83-2.88.13-7.25.19-10.9.19-3.83,0-6.68-.22-8.18-.67-1.89-.51-2.81-1.15-4.35-2.97-.89.89-2.21,2.01-2.84,2.49-.51.35-.89.67-1.21.89q-.32.29-.57.48l-1.57-3.64c1.15-.48,2.97-1.76,4.54-3.16v-6.87h-1.76c-.89,0-1.37.03-2.14.16v-3.45Zm2.88-11.66c2.33,2.01,3.67,3.39,5.5,5.59l-2.75,2.62c-1.85-2.56-2.97-3.77-5.3-5.82l2.56-2.4Zm10.29,17.22c1.6-.61,2.05-.77,3.64-1.47l.06,3.29c-2.46,1.09-2.84,1.25-6.14,2.43-1.05.38-1.25.48-1.73.67l-1.05-3.52c.13-.03.26-.06.32-.06q.73-.13,1.53-.35v-13.07c0-1.63-.03-2.3-.13-3.1,2.62-.22,6.14-1.37,7.64-2.49l1.76,2.17h6.49c1.6,0,2.4-.03,2.88-.1-.1.73-.13,1.47-.13,2.81v13.33c0,2.46-1.09,3.13-5.08,3.13h-.7c-.16-1.44-.32-2.17-.7-3.29.73.16,1.44.22,2.21.22s.93-.16.93-.86v-12.21h-3.74v15.95c0,1.63.03,2.59.16,3.42h-3.74c.13-.83.19-1.85.19-3.42v-16.23c0-.45-.03-.73-.03-1.28-1.53.64-2.81,1.09-4.63,1.57v12.46Z"/><path class="cls-1" d="m650.88,137.38c.86.1,1.18.1,1.89.1,3.1,0,7.35-.26,11.34-.7,1.44-.16,2.01-.26,2.56-.51l2.14,2.75c-.61.42-1.28.99-2.72,2.4-1.73,1.66-4.47,4.12-5.46,4.89.8-.29,1.21-.38,1.95-.38,1.21,0,2.05.42,2.65,1.34.45.7.57,1.15.7,2.94.22,2.52.64,2.97,2.75,2.97s4.63-.48,6.3-1.21l.48,3.96c-.54.03-.73.06-2.81.38-1.95.29-3.1.38-4.47.38-2.27,0-3.55-.35-4.47-1.21-.89-.83-1.15-1.6-1.31-4.12-.06-1.21-.13-1.66-.32-2.05-.22-.42-.73-.67-1.34-.67-1.5,0-2.94.89-5.53,3.39-1.63,1.57-3.36,3.42-4.51,4.76l-2.94-3.32q1.41-.96,7.41-6.39c.74-.67,1.31-1.21,3.71-3.51.86-.83,2.11-2.01,3.74-3.55-1.82.29-2.65.42-4.15.54q-.45.03-3.23.26-.61.06-1.66.16c-1.18.1-1.41.13-2.46.26l-.22-3.83Zm3.96-8.28c3.61,1.12,7.77,1.69,12.72,1.79l-.61,3.58c-6.36-.38-8.85-.77-13.26-1.89l1.15-3.48Z"/><path class="cls-1" d="m680.57,147.92c2.94,2.24,4.73,3.99,7.19,7.03l-2.97,2.78c-2.33-3.16-4.15-5.08-6.93-7.29l2.72-2.52Z"/><path class="cls-1" d="m24.86,171.37c1.69,0,2.49-.03,3.39-.13-.13,1.15-.16,1.98-.16,3.61v21.19c0,2.68-.96,3.32-5.05,3.32-.67,0-2.01-.03-3.52-.1-.19-1.31-.45-2.2-.99-3.48,2.05.22,3.61.32,4.67.32,1.34,0,1.5-.06,1.5-.77v-20.87H6.65v3.64c0,8.31-.38,13.07-1.34,16.33-.64,2.24-1.18,3.45-2.43,5.5-.77-1.02-1.63-1.92-2.88-2.81,1.09-1.53,1.73-2.97,2.17-4.76.73-3.04,1.09-7.89,1.09-15.56,0-3.23-.03-4.09-.16-5.56.99.1,1.76.13,3.39.13h18.37Zm-10.96,8.47h-3.1c-1.02,0-1.79.03-2.43.13v-3.07c.73.1,1.41.13,2.46.13h3.04c0-1.05-.03-1.25-.1-1.92h3.55c-.1.64-.1.89-.13,1.92h3.23c.99,0,1.66-.03,2.43-.13v3.07c-.67-.1-1.41-.13-2.43-.13h-3.23v2.2h3.96c1.37,0,2.21-.03,2.88-.16v3.16c-.8-.1-1.57-.13-2.88-.13h-10.99c-1.28,0-2.11.03-2.88.13v-3.16c.73.13,1.37.16,2.91.16h3.71v-2.2Zm8.05,13.1c0,.89.03,1.66.1,2.14-.86-.06-1.47-.1-2.4-.1h-7.57v1.92h-3.48c.13-.74.16-1.47.16-2.56v-5.69c0-1.05-.03-1.53-.13-2.17,1.05.1,1.34.1,2.37.1h8.56c1.41,0,1.76,0,2.49-.1-.06.67-.1,1.18-.1,2.24v4.22Zm-9.91-.86h6.61v-2.72h-6.61v2.72Z"/><path class="cls-1" d="m36.05,182.74c0-.7-.03-1.18-.1-1.85.67.06,1.37.1,2.24.1h6.97v-4.15h-6.68c-1.66,2.59-3.23,4.44-5.27,6.3-.93-1.37-1.28-1.79-2.37-2.84,3.26-2.78,4.92-4.89,6.23-8.02.45-1.02.67-1.69.77-2.33l3.8.77c-.19.38-.26.48-.48.96-.03.1-.35.77-.93,2.01h14.96c1.5,0,2.3-.03,3.26-.16v3.48c-.99-.13-1.82-.16-3.26-.16h-6.52v4.15h5.14c1.47,0,2.33-.03,3.29-.16v3.39c-.96-.1-1.82-.13-3.2-.13h-5.24v5.18h7.41c1.47,0,2.49-.06,3.48-.19v3.64c-.99-.13-2.11-.19-3.48-.19h-7.41v3.99c0,1.63.03,2.49.19,3.42h-3.9c.13-.93.19-1.79.19-3.48v-3.93h-10.74c-1.41,0-2.43.06-3.48.19v-3.64c1.02.13,2.05.19,3.48.19h1.63v-6.52Zm9.11,6.52v-5.18h-5.75v5.18h5.75Z"/><path class="cls-1" d="m72.37,196.36q-3.04.58-6.49,1.09c-2.56.35-3.67.54-4.47.7l-.73-3.29c.22.03.35.03.51.03.51,0,1.41-.06,2.75-.16v-9.91c-1.41,0-2.21.03-3.16.16v-3.1c.86.16,1.69.19,3.29.19h22.59c1.63,0,2.43-.03,3.32-.19v3.1c-1.02-.13-1.79-.16-3.36-.16h-11.09v11.7c1.66-.61,3.1-1.34,4.31-2.27-1.12-1.28-1.76-2.17-2.91-4.06l2.72-1.21h-.83c-1.02,0-1.6.03-2.4.13v-3c.73.1,1.37.13,2.68.13h5.37c1.09,0,1.89-.03,2.4-.13l1.66,1.82c-.22.32-.29.45-.51.93-1.05,2.11-2.33,4.03-3.64,5.46,1.44.93,3.2,1.63,5.66,2.27-.64.96-1.15,1.95-1.63,3.13-3.39-1.31-4.28-1.79-6.26-3.32-1.6,1.31-2.88,2.11-4.95,3.1-.42-1.02-.96-1.95-1.66-2.68,0,1.31.03,2.24.16,3.07h-3.52c.13-.77.19-1.63.19-3.23v-.29Zm14.19-18.12c0,1.25.03,2.01.13,2.78-.73-.06-1.89-.1-2.97-.1h-16.23c-1.44,0-2.3.03-3.29.1.1-.8.13-1.6.13-2.75v-4.31c0-1.18-.03-1.98-.13-2.78,1.05.1,1.92.13,3.39.13h15.72c1.47,0,2.3-.03,3.39-.13-.1.77-.13,1.53-.13,2.78v4.28Zm-14.19,6.58h-5.3v1.44h5.3v-1.44Zm0,3.77h-5.3v1.53h5.3v-1.53Zm0,3.87h-5.3v1.98c1.57-.16,2.3-.26,5.3-.7v-1.28Zm-4.76-17.42h15.63v-1.28h-15.63v1.28Zm0,3.52h15.63v-1.31h-15.63v1.31Zm12.21,10.42c.86,1.63,1.31,2.33,2.27,3.36.99-1.02,1.53-1.82,2.36-3.36h-4.63Z"/><path class="cls-1" d="m95.33,186.39c-.61.77-1.28,1.41-2.36,2.3-.54-1.69-.8-2.21-1.5-3.39,2.05-1.44,3.83-3.2,5.3-5.14.93-1.21,1.57-2.3,1.92-3.16l2.88,1.89c-.29.38-.57.83-.86,1.31-.06.06-.19.26-.38.51-.57.83-1.37,1.92-1.63,2.3v12.94c0,1.79.03,2.72.13,3.77h-3.71c.13-.86.19-1.92.19-3.52v-5.88l.03-3.93Zm5.94-14.48c-1.18,1.53-1.21,1.57-2.01,2.49-1.57,1.76-3.45,3.36-5.56,4.7-.54-1.25-.96-1.89-1.79-2.94,3.07-1.73,5.21-3.77,6.52-6.26l2.84,2.01Zm10.19-.42q-.29.35-.83,1.09c-.8,1.12-2.21,2.81-3.39,4.09.89.77,1.21,1.05,1.92,1.76,2.65-2.88,4.15-4.79,4.79-6.07l3.26,1.76c-.22.22-.45.51-1.15,1.37-1.66,1.98-4.12,4.57-6.26,6.55q2.49-.1,6.07-.38c-.51-.7-.8-1.09-1.69-2.21l2.65-1.63c1.79,2.21,3.07,4.06,4.92,7.03l-2.88,1.85c-.77-1.37-.96-1.76-1.41-2.52q-4.54.51-7.45.73c-.38.77-.54,1.05-.96,1.69h4.92c1.05,0,2.01-.06,2.59-.13l1.98,1.82c-.22.29-.29.35-.51.67-1.25,1.69-2.91,3.42-4.73,4.95,2.46,1.12,5.3,1.89,8.53,2.27-.77,1.37-1.05,1.98-1.57,3.48-3.8-.67-7.32-1.95-9.97-3.61-2.97,1.89-5.82,3-9.68,3.77-.61-1.57-.83-2.01-1.6-3.1,3.32-.51,5.85-1.34,8.47-2.78-1.25-1.09-2.01-1.85-2.65-2.68-1.25,1.05-2.08,1.6-3.77,2.56-.89-1.47-1.05-1.69-2.11-2.78,3.39-1.5,5.88-3.55,7.22-5.88q-4.83.29-5.72.45l-.42-3.45c.61.06,1.18.1,1.95.1h1.15q.48-.03,2.17-.06l1.53-1.41c-1.85-1.79-2.94-2.68-5.88-4.76l2.27-2.46c.83.61,1.05.77,1.66,1.21,1.53-1.66,2.97-3.68,3.36-4.76l3.2,1.47Zm-4.12,17.8c.96,1.25,1.69,1.95,3,2.88,1.41-1.05,2.17-1.76,3.13-2.88h-6.14Z"/><path class="cls-1" d="m136.59,189.74c-1.82,4.12-3.87,6.01-6.49,6.01-3.64,0-6.26-3.71-6.26-8.85,0-3.52,1.25-6.81,3.51-9.3,2.68-2.94,6.46-4.47,10.99-4.47,7.67,0,12.65,4.67,12.65,11.86,0,5.53-2.88,9.94-7.77,11.92-1.53.64-2.78.96-5.02,1.34-.54-1.69-.93-2.4-1.95-3.74,2.94-.38,4.86-.89,6.36-1.76,2.78-1.53,4.44-4.57,4.44-7.99,0-3.07-1.37-5.56-3.93-7.09-.99-.58-1.82-.83-3.23-.96-.61,5.02-1.73,9.43-3.32,13.04Zm-4.7-11.44c-2.68,1.92-4.35,5.21-4.35,8.63,0,2.62,1.12,4.7,2.52,4.7,1.05,0,2.14-1.34,3.29-4.09,1.21-2.88,2.27-7.19,2.65-10.8-1.66.19-2.81.64-4.12,1.57Z"/><path class="cls-1" d="m155.19,175.14c0-1.25-.06-2.36-.16-3.42,1.02.13,2.08.16,3.55.16h15.47c1.5,0,2.49-.03,3.45-.16-.13,1.21-.16,2.14-.16,3.26v20.64c0,1.66.06,2.72.19,3.87h-3.87v-1.92h-14.86v1.92h-3.8c.13-1.09.19-2.36.19-3.87v-20.48Zm3.61,7.54h14.86v-7.41h-14.86v7.41Zm0,11.54h14.86v-8.18h-14.86v8.18Z"/><path class="cls-1" d="m193.19,171.4c-.1.29-.19.64-.26.99-.06.42-.1.58-.19,1.09q-.1.67-.54,3.07c-.13.7-.13.77-.22,1.18.93-.06,1.37-.1,1.98-.1,2.11,0,3.67.58,4.73,1.69,1.09,1.21,1.5,2.75,1.5,5.66,0,5.5-.93,9.87-2.46,11.63-.89,1.05-1.85,1.44-3.55,1.44-1.47,0-2.78-.26-4.92-.93.03-.64.06-1.09.06-1.41,0-.83-.06-1.47-.32-2.72,1.73.77,3.55,1.25,4.67,1.25.93,0,1.44-.61,1.92-2.17.51-1.66.83-4.57.83-7.29,0-2.94-.74-3.8-3.26-3.8-.64,0-1.12.03-1.85.1-.96,3.9-1.25,4.86-1.95,6.93-1.12,3.2-1.98,5.24-3.83,8.98q-.16.32-.48.96c-.1.19-.1.22-.26.54l-3.71-2.05c.96-1.28,2.24-3.58,3.32-6.01,1.37-3.13,1.82-4.47,3.1-9.04-1.63.19-4.67.73-5.72,1.02l-.38-3.77c1.18,0,5.05-.38,6.81-.64.58-3.45.83-5.4.83-6.46v-.61l4.15.45Zm10.58,4.09c3.2,3.74,5.21,7.54,6.58,12.46l-3.64,1.85c-.61-2.75-1.34-4.86-2.56-7.25-1.15-2.36-2.17-3.83-3.67-5.46l3.29-1.6Z"/><path class="cls-1" d="m219.3,177.38c-.48,1.76-1.02,4.73-1.44,7.86q-.06.45-.16.93l.06.06c1.85-1.79,5.82-3.04,9.68-3.04,5.43,0,9.01,2.68,9.01,6.77,0,2.33-1.25,4.7-3.29,6.17-2.08,1.5-4.73,2.17-8.44,2.17-2.75,0-4.51-.22-8.15-1.12-.03-1.98-.1-2.62-.48-4.12,3.13,1.09,5.88,1.6,8.6,1.6,4.51,0,7.64-1.89,7.64-4.6,0-2.14-2.01-3.42-5.4-3.42-2.84,0-5.82.86-7.96,2.33-.57.42-.77.61-1.44,1.37l-4.03-.13c.1-.57.1-.7.26-1.92.26-1.98.77-5.53,1.34-9.3.13-.77.16-1.15.19-1.85l3.99.22Zm.42-6.26c2.21,1.21,8.31,3.04,11.92,3.55l-1.31,3.68c-5.46-1.25-8.82-2.3-12.46-3.99l1.85-3.23Z"/><path class="cls-1" d="m242.53,183.77c-1.34,0-2.08.03-2.91.13v-3.42c.8.13,1.47.16,2.97.16h.77c-.45-1.79-.77-2.62-1.41-3.77l2.81-.7h-1.5c-1.41,0-2.14.03-3,.13v-3.42c.8.13,1.53.16,3.07.16h2.43v-.48c0-1.09-.03-1.53-.16-2.33h3.87c-.13.77-.16,1.18-.16,2.33v.48h2.17c1.5,0,2.14-.03,2.97-.16v3.42c-.86-.1-1.63-.13-3-.13h-1.31l2.72.77q-.19.42-.48,1.12-.19.32-.54,1.18c-.22.54-.35.77-.7,1.41h.64c1.44,0,2.11-.03,2.94-.16v3.42c-.89-.1-1.57-.13-2.94-.13h-2.59v2.27h2.46c1.37,0,2.08-.03,2.91-.16v3.36c-.83-.1-1.57-.13-2.91-.13h-1.18c.96,1.12,1.76,1.79,3.29,2.81-.7,1.18-1.05,1.85-1.53,3.04-1.6-1.44-2.11-1.98-3.13-3.45q.03.42.06,1.25c0,.1.03,1.09.03,1.25v3.2c0,1.12.06,1.89.19,2.65h-3.67c.1-.73.16-1.5.16-2.52v-3.2c0-.61.03-1.44.1-2.17-1.31,2.46-2.78,4.12-5.27,5.91-.45-1.31-.89-2.2-1.63-3.26,2.43-1.5,4.22-3.26,5.59-5.5h-2.08c-1.37,0-2.05.03-2.91.16v-3.39c.83.13,1.47.16,2.97.16h3.23v-2.27h-3.32Zm2.46-7.61c.7,1.37.96,2.05,1.37,3.71l-2.84.77h4.38c.89-1.66,1.31-2.68,1.79-4.47h-4.7Zm21.35,3.87c1.41,0,2.21-.06,2.91-.19v3.55c-.8-.1-1.31-.13-2.56-.13h-.8v12.88c0,1.92.03,2.81.19,3.77h-3.74c.16-.99.19-1.92.19-3.77v-12.88h-3.42c-.03,4.06-.42,7.41-1.18,10.32-.64,2.49-1.63,4.73-2.84,6.42-1.28-1.05-1.82-1.41-3.16-2.11,3.04-3.71,3.83-7.89,3.83-20,0-2.68-.03-3.71-.19-4.98,3.61-.1,9.14-1.5,10.77-2.72l2.62,3.1c-.35.1-.48.16-1.05.35-2.56.96-4.57,1.44-8.76,2.17v4.22h7.19Z"/><path class="cls-1" d="m271.74,175.97c1.15.19,2.43.29,4.28.29.38,0,.73,0,1.47-.03.29-1.53.61-3.99.61-4.89,0-.13,0-.32-.03-.58l4.22.38q-.22.74-.61,3.07c-.16.89-.19,1.09-.32,1.82,2.37-.22,3.87-.48,5.46-.96l.16,3.67q-.26.03-1.02.16c-1.63.32-4.19.64-5.24.67-.35,1.98-1.15,5.37-1.98,8.28-.93,3.32-1.47,4.92-3.58,10.58l-4.03-1.57c2.21-4.06,4.67-11.5,5.72-17.19-.22.03-.35.03-.41.03h-1.85c-.16,0-.48,0-1.02-.03-.58-.03-1.02-.03-1.28-.03-.16,0-.32,0-.61.03l.06-3.71Zm15.85,12.4c-1.28,1.6-1.66,2.4-1.66,3.52,0,1.63,1.6,2.46,4.79,2.46,2.33,0,5.4-.51,7.25-1.18l.29,3.93c-.57.06-.83.1-1.57.22-2.65.38-4.06.51-5.94.51-2.84,0-4.89-.42-6.42-1.28-1.37-.8-2.27-2.33-2.27-3.93,0-1.69.61-3.13,2.36-5.53l3.16,1.28Zm9.49-4.19c-1.53-.16-2.43-.22-4.03-.22-3.16,0-5.27.22-8.44.93l-.29-3.52c4.54-.86,6.07-1.02,9.52-1.02.86,0,1.15,0,3.16.03l.06,3.8Z"/><path class="cls-1" d="m302.4,198.18c-.03-.58-.06-.77-.16-1.5-.61-3.87-.83-6.33-.83-9.55,0-4.12.38-7.77,1.31-12.5.35-1.79.42-2.11.48-2.97l4.22.45c-.77,1.89-1.5,5.46-2.01,9.55-.32,2.4-.45,4.28-.48,7.06,0,.7-.03.96-.06,1.76.35-1.12.42-1.34,1.66-4.22l2.56,1.15c-1.76,3.71-2.84,7.41-2.84,9.68,0,.19,0,.45.03.86l-3.87.22Zm13.61-12.62c-1.6,1.85-2.27,3.23-2.27,4.6,0,1.82,1.76,2.78,5.08,2.78,2.81,0,5.59-.45,7.61-1.21l.32,4.06c-.45.03-.58.06-1.31.19-2.56.42-4.51.61-6.61.61-3.96,0-6.52-.89-7.93-2.78-.61-.8-.96-1.98-.96-3.13,0-2.08.96-4.22,2.94-6.58l3.13,1.47Zm-5.27-10.58c1.44.38,3.13.51,5.91.51,3.55,0,6.58-.29,8.69-.86l.19,3.87c-.26.03-.74.1-2.27.29-2.05.26-4.47.38-6.84.38s-2.36,0-5.75-.35l.06-3.83Z"/><path class="cls-1" d="m354.32,198.24c-2.65-3.26-6.33-6.84-9.81-9.49-3.61,4.03-7.29,6.84-12.18,9.24-.89-1.66-1.28-2.17-2.59-3.55,2.46-.96,3.99-1.82,6.39-3.52,4.83-3.39,8.66-8.02,10.74-13.01l.35-.83q-.51.03-10.58.19c-1.53.03-2.4.1-3.48.26l-.13-4.09c.89.16,1.5.19,2.81.19h.77l11.25-.16c1.79-.03,2.05-.06,2.84-.35l2.11,2.17c-.42.48-.67.93-1.02,1.73-1.47,3.42-3.04,6.2-4.99,8.82,2.01,1.34,3.74,2.68,5.91,4.63q.8.7,4.67,4.44l-3.07,3.32Z"/><path class="cls-1" d="m383.69,176.38c-.41.54-.48.67-.99,2.14-1.02,2.91-2.78,6.65-4.09,8.79-3.26,5.3-7.77,9.08-14.57,12.21-1.02-1.73-1.44-2.27-2.65-3.29,2.72-1.12,4.31-1.92,6.23-3.2,2.27-1.47,3.61-2.62,5.24-4.44-2.24-1.92-4.15-3.26-6.55-4.57l2.43-2.84c2.68,1.5,4.03,2.4,6.42,4.28,1.5-2.3,2.59-4.54,3.58-7.54l-9.94.1c-1.98,3.29-4.25,5.88-7.48,8.6-1.05-1.18-1.53-1.6-3.2-2.56,3.52-2.62,6.07-5.53,8.02-9.11.93-1.69,1.57-3.26,1.85-4.44l4.15.93q-.35.58-.96,1.79c-.38.86-.61,1.25-.77,1.53q.51-.06,8.31-.13c1.31-.03,1.98-.1,2.81-.38l2.14,2.14Z"/><path class="cls-1" d="m385.99,182.71c1.41.19,2.01.22,5.18.22h17.03c3.16,0,3.77-.03,5.18-.22v4.44c-1.28-.16-1.63-.16-5.21-.16h-16.97c-3.58,0-3.93,0-5.21.16v-4.44Z"/><path class="cls-1" d="m419.83,198.63c.16-1.02.19-1.89.19-3.58v-20.48c0-1.57-.06-2.4-.19-3.26h4.38c-.13.96-.13,1.37-.13,3.36v5.94c4.38,1.53,9.4,3.87,14.51,6.74l-2.24,3.77c-2.65-1.82-5.98-3.64-11.31-6.1-.73-.35-.83-.38-1.09-.54.1.89.13,1.28.13,2.17v8.44c0,1.66.03,2.49.13,3.55h-4.38Z"/><path class="cls-1" d="m443.61,174.21c1.31.29,3.36.42,7.41.42.86-1.92,1.15-2.88,1.28-3.96l4.19.45q-.19.32-1.28,2.88c-.16.35-.22.45-.29.58q.26-.03,2.01-.13c3.71-.22,6.61-.58,8.37-1.09l.22,3.64q-.89.06-2.52.26c-2.33.29-6.39.54-9.62.64-.93,1.82-1.82,3.1-2.94,4.25l.03.06q.22-.16.64-.48c1.18-.89,2.88-1.44,4.51-1.44,2.49,0,4.06,1.18,4.57,3.39,2.46-.89,4.09-1.47,4.89-1.73,1.73-.61,1.85-.64,2.36-.96l1.5,3.67c-.89.13-1.85.38-3.55.86-.45.13-2.05.67-4.79,1.63v.35q.03.83.03,1.28v1.28c-.03.54-.03.83-.03,1.05,0,.7.03,1.15.1,1.69l-3.71.1c.13-.58.19-2.21.19-3.71v-.77c-1.57.74-2.4,1.18-3.07,1.66-1.12.83-1.66,1.69-1.66,2.62,0,1.66,1.53,2.33,5.4,2.33s7.13-.48,9.4-1.34l.32,4.12c-.54,0-.7.03-1.47.13-2.3.35-5.37.58-8.18.58-3.39,0-5.5-.38-7.13-1.34-1.47-.83-2.33-2.36-2.33-4.12,0-1.31.38-2.33,1.41-3.55,1.44-1.79,3.26-3,6.87-4.51-.16-1.18-.8-1.73-1.95-1.73-1.85,0-4.09,1.12-6.55,3.29-1.34,1.12-2.08,1.92-2.78,2.91l-2.91-2.88c.83-.64,1.76-1.53,2.88-2.84,1.25-1.47,3.2-4.25,3.83-5.46q.13-.26.26-.42c-.13,0-.54.03-.54.03-.51,0-3.32-.06-4.03-.06q-.61-.03-.89-.03c-.1,0-.29,0-.51.03l.06-3.64Z"/><path class="cls-1" d="m471.55,182.36c.8.13,1.31.16,2.56.16h2.4c1.12,0,1.6-.03,2.43-.13-.13.93-.13,1.5-.13,3.45v6.71c.51.93.77,1.25,1.44,1.69,1.63,1.12,3.39,1.41,8.6,1.41,4.79,0,9.81-.22,12.65-.58-.67,2.05-.77,2.4-.96,3.83-2.88.13-7.25.19-10.9.19-3.83,0-6.68-.22-8.18-.67-1.89-.51-2.81-1.15-4.35-2.97-.89.89-2.21,2.01-2.84,2.49-.51.35-.89.67-1.21.89q-.32.29-.57.48l-1.57-3.64c1.15-.48,2.97-1.76,4.54-3.16v-6.87h-1.76c-.89,0-1.37.03-2.14.16v-3.45Zm2.88-11.66c2.33,2.01,3.67,3.39,5.5,5.59l-2.75,2.62c-1.85-2.56-2.97-3.77-5.3-5.82l2.56-2.4Zm10.29,17.22c1.6-.61,2.05-.77,3.64-1.47l.06,3.29c-2.46,1.09-2.84,1.25-6.14,2.43-1.05.38-1.25.48-1.73.67l-1.05-3.52c.13-.03.26-.06.32-.06q.73-.13,1.53-.35v-13.07c0-1.63-.03-2.3-.13-3.1,2.62-.22,6.14-1.37,7.64-2.49l1.76,2.17h6.49c1.6,0,2.4-.03,2.88-.1-.1.73-.13,1.47-.13,2.81v13.33c0,2.46-1.09,3.13-5.08,3.13h-.7c-.16-1.44-.32-2.17-.7-3.29.73.16,1.44.22,2.21.22s.93-.16.93-.86v-12.21h-3.74v15.95c0,1.63.03,2.59.16,3.42h-3.74c.13-.83.19-1.85.19-3.42v-16.23c0-.45-.03-.73-.03-1.28-1.53.64-2.81,1.09-4.63,1.57v12.46Z"/><path class="cls-1" d="m506.54,179.32c.86.1,1.18.1,1.89.1,3.1,0,7.35-.26,11.34-.7,1.44-.16,2.01-.26,2.56-.51l2.14,2.75c-.61.42-1.28.99-2.72,2.4-1.73,1.66-4.47,4.12-5.46,4.89.8-.29,1.21-.38,1.95-.38,1.21,0,2.05.42,2.65,1.34.45.7.57,1.15.7,2.94.22,2.52.64,2.97,2.75,2.97s4.63-.48,6.3-1.21l.48,3.96c-.54.03-.73.06-2.81.38-1.95.29-3.1.38-4.47.38-2.27,0-3.55-.35-4.47-1.21-.89-.83-1.15-1.6-1.31-4.12-.06-1.21-.13-1.66-.32-2.05-.22-.42-.73-.67-1.34-.67-1.5,0-2.94.89-5.53,3.39-1.63,1.57-3.36,3.42-4.51,4.76l-2.94-3.32q1.41-.96,7.41-6.39c.74-.67,1.31-1.21,3.71-3.51.86-.83,2.11-2.01,3.74-3.55-1.82.29-2.65.42-4.15.54q-.45.03-3.23.26-.61.06-1.66.16c-1.18.1-1.41.13-2.46.26l-.22-3.83Zm3.96-8.28c3.61,1.12,7.77,1.69,12.72,1.79l-.61,3.58c-6.36-.38-8.85-.77-13.26-1.89l1.15-3.48Z"/><path class="cls-1" d="m541.32,183.99c2.91-1.15,4.31-1.47,6.71-1.47,5.46,0,8.98,2.81,8.98,7.19,0,3.04-1.5,5.46-4.35,7.06-2.08,1.18-4.79,1.82-7.73,1.82-2.68,0-4.92-.51-6.2-1.47-1.21-.89-1.92-2.24-1.92-3.67,0-2.65,2.3-4.57,5.5-4.57,2.24,0,4.19.93,5.53,2.62.64.8.99,1.5,1.47,2.88,2.65-.99,3.8-2.36,3.8-4.63,0-2.49-2.46-4.12-6.33-4.12-4.67,0-9.33,1.89-13.17,5.37l-2.17-3.45c1.12-.54,2.4-1.41,4.51-3,2.97-2.27,7.13-5.85,9.55-8.31.06-.06.38-.38.58-.58l-.03-.03c-1.21.16-3.26.29-9.04.54-.7.03-.93.06-1.53.16l-.16-3.83c1.09.13,2.01.19,3.77.19,2.72,0,6.61-.16,9.71-.38,1.12-.1,1.47-.16,1.98-.42l1.98,2.81c-.54.29-.77.48-1.66,1.31-1.6,1.47-3.93,3.55-5.02,4.47-.58.48-2.88,2.21-3.52,2.62q-.8.54-1.31.83l.06.06Zm.96,7.96c-1.15,0-1.89.58-1.89,1.47,0,1.28,1.44,2.01,3.8,2.01.61,0,.77,0,1.66-.13-.58-2.21-1.79-3.36-3.58-3.36Z"/><path class="cls-1" d="m568.95,178.43c-.06.16-.1.29-.13.38-.1.38-.1.42-.19.77-1.47,6.71-2.81,10.13-5.75,14.7-1.31-1.09-2.24-1.69-3.39-2.27,3.07-4.22,5.21-9.75,5.59-14.57l3.87.99Zm8.02-7.7c-.13.99-.19,2.24-.19,3.9v21.12c0,1.53-.42,2.49-1.31,3-.64.38-1.57.54-3.32.54-1.21,0-2.56-.06-4.09-.16-.19-1.44-.45-2.4-1.02-3.74,1.98.29,3.32.42,4.57.42,1.05,0,1.37-.16,1.37-.77v-20.45c0-1.63-.06-2.88-.19-3.87h4.19Zm7.06,6.58c.22,1.69.64,3.39,1.47,5.62,1.18,3.26,2.68,6.04,4.76,8.82-1.28.73-2.37,1.6-3.23,2.49-2.68-3.83-4.31-7.32-5.69-12.11-.03-.13-.35-1.37-.99-3.77l3.67-1.05Z"/><path class="cls-1" d="m595.05,185.49c-1.05,0-2.01.03-2.68.1.06-.99.13-2.08.13-3.16v-7.89c0-1.25-.03-2.14-.13-2.94.96.1,1.85.13,3.07.13h7.89c1.34,0,2.11-.03,2.94-.13-.06.83-.1,1.63-.1,2.97v8.18c0,1.63,0,2.2.06,2.84-.61-.06-1.47-.1-2.56-.1h-2.84v2.62h2.84c1.28,0,2.05-.03,2.94-.16v3.36c-.86-.13-1.63-.16-2.94-.16h-2.84v2.81c2.3-.35,3.26-.51,5.82-1.09l.06,2.94c-4.63,1.09-7.09,1.53-11.31,2.17-2.17.32-2.4.35-3.36.58l-.67-3.71c1.92-.03,3.1-.1,6.42-.48v-3.23h-2.88c-1.12,0-2.01.06-2.91.16v-3.36c.86.1,1.76.16,2.91.16h2.88v-2.62h-2.75Zm.26-10.74v2.46h2.49v-2.46h-2.49Zm0,5.3v2.56h2.49v-2.56h-2.49Zm5.53-2.84h2.56v-2.46h-2.56v2.46Zm0,5.4h2.56v-2.56h-2.56v2.56Zm15.91-2.62l-1.53,1.63h1.66c1.34,0,2.01-.03,2.62-.13l1.73,2.11c-.35.73-.38.8-.74,1.57-1.02,2.27-1.82,3.67-3.16,5.5-1.37-1.05-1.63-1.21-2.59-1.73,1.15-1.37,1.85-2.4,2.62-3.96h-2.84v11.44c0,2.43-.99,3.13-4.44,3.13-.54,0-1.28-.03-2.4-.1-.13-1.37-.22-1.82-.77-3.39,1.28.19,2.56.32,3.26.32.77,0,1.02-.19,1.02-.77v-10.64h-1.5c-1.31,0-2.01.03-2.88.16v-3.67c.86.13,1.47.16,2.88.16h3.99c-1.41-1.18-3.1-2.3-5.69-3.77l1.82-2.27c1.6.86,2.11,1.15,3.1,1.79,1.15-.96,1.82-1.63,2.46-2.43h-5.05c-1.12,0-1.98.06-2.88.16v-3.58c.86.13,1.76.16,3.1.16h5.18c1.34,0,2.01-.03,2.62-.13l1.85,2.11c-.51.61-.74.93-1.25,1.57-1.63,2.01-2.17,2.59-3.52,3.83l1.31.93Z"/><path class="cls-1" d="m635.29,175.11h-8.37c-1.5,0-2.72.06-4.06.19v-3.61c1.21.13,2.46.19,4.03.19h18.5c1.5,0,2.75-.06,4.06-.19v3.61c-1.28-.13-2.65-.19-4.06-.19h-6.42v7.8h5.46c1.53,0,2.56-.06,3.58-.19v3.55c-.99-.13-2.17-.19-3.58-.19h-5.46v9.04h7.32c1.6,0,2.94-.06,4.22-.22v3.71c-1.25-.16-2.49-.22-4.19-.22h-20.42c-1.6,0-2.84.06-4.22.22v-3.71c1.18.19,2.05.22,4.15.22h.67v-10.32c0-1.66-.06-2.97-.22-4.15h4.06c-.16,1.12-.22,2.46-.22,4.12v10.35h5.18v-20Z"/><path class="cls-1" d="m658.1,175.71c-2.08.42-2.75.51-4.67.8-.26-1.09-.57-1.85-1.18-3.07,5.27-.54,10.32-1.79,12.3-3.07l2.08,2.94c-2.3.8-3.77,1.25-5.18,1.63v4.12h2.56c1.15,0,1.95-.03,2.68-.16v3.48c-.8-.13-1.57-.16-2.75-.16h-2.33c1.25,2.3,2.75,4.06,5.11,5.98-.64.86-1.28,2.08-1.69,3.13-1.89-1.92-2.59-2.91-3.74-5.11.1,1.09.16,2.4.16,4.03v5.56c0,2.01.03,2.94.19,4.06h-3.8c.16-1.18.22-2.24.22-4.06v-5.34c0-1.28.06-2.75.16-3.83-.93,2.33-1.37,3.23-2.17,4.51-.89,1.37-1.57,2.24-2.78,3.51-.64-1.5-1.12-2.4-1.79-3.36,1.37-1.28,2.4-2.52,3.48-4.28.83-1.34,2.08-3.71,2.49-4.79h-2.3c-1.25,0-2.05.06-2.94.19v-3.55c.83.16,1.57.19,3,.19h2.88v-3.36Zm14.06-3c-.16,1.05-.19,1.98-.19,3.87v12.08c0,2.05.03,2.84.16,3.8h-3.77c.13-.93.16-1.6.16-3.74v-12.14c0-1.85-.03-2.75-.19-3.87h3.83Zm7.61-1.92c-.16,1.28-.22,2.52-.22,4.35v20.55c0,1.69-.42,2.62-1.44,3.16-.77.42-1.85.54-4.44.54-.8,0-1.28,0-2.36-.06-.26-1.44-.51-2.17-1.09-3.55,1.82.19,3.04.29,4.22.29,1.41,0,1.63-.13,1.63-.96v-19.97c0-1.6-.06-2.94-.19-4.35h3.9Z"/><path class="cls-1" d="m683.64,174.21c1.31.29,3.36.42,7.41.42.86-1.92,1.15-2.88,1.28-3.96l4.19.45q-.19.32-1.28,2.88c-.16.35-.22.45-.29.58q.26-.03,2.01-.13c3.71-.22,6.61-.58,8.37-1.09l.22,3.64q-.89.06-2.52.26c-2.33.29-6.39.54-9.62.64-.93,1.82-1.82,3.1-2.94,4.25l.03.06q.22-.16.64-.48c1.18-.89,2.88-1.44,4.51-1.44,2.49,0,4.06,1.18,4.57,3.39,2.46-.89,4.09-1.47,4.89-1.73,1.73-.61,1.85-.64,2.37-.96l1.5,3.67c-.89.13-1.85.38-3.55.86-.45.13-2.05.67-4.79,1.63v.35q.03.83.03,1.28v1.28c-.03.54-.03.83-.03,1.05,0,.7.03,1.15.1,1.69l-3.71.1c.13-.58.19-2.21.19-3.71v-.77c-1.57.74-2.4,1.18-3.07,1.66-1.12.83-1.66,1.69-1.66,2.62,0,1.66,1.53,2.33,5.4,2.33s7.13-.48,9.4-1.34l.32,4.12c-.54,0-.7.03-1.47.13-2.3.35-5.37.58-8.18.58-3.39,0-5.5-.38-7.13-1.34-1.47-.83-2.33-2.36-2.33-4.12,0-1.31.38-2.33,1.41-3.55,1.44-1.79,3.26-3,6.87-4.51-.16-1.18-.8-1.73-1.95-1.73-1.85,0-4.09,1.12-6.55,3.29-1.34,1.12-2.08,1.92-2.78,2.91l-2.91-2.88c.83-.64,1.76-1.53,2.88-2.84,1.25-1.47,3.2-4.25,3.83-5.46q.13-.26.26-.42c-.13,0-.54.03-.54.03-.51,0-3.32-.06-4.03-.06q-.61-.03-.89-.03c-.1,0-.29,0-.51.03l.06-3.64Z"/><path class="cls-1" d="m713.93,182.52c-1.15.1-1.66.16-2.72.35l-.26-3.74c.48.03.83.03.93.03.26,0,2.01-.1,5.24-.29v-1.21c0-3.42-.03-4.03-.22-5.21h4.31c-.22,1.15-.22,1.57-.29,6.23l4.54-.22,1.44-.06,3.26-.16v-3.29c0-1.21-.03-1.63-.19-2.68h3.93c-.1.7-.13,1.15-.13,1.95v1.12c.03.35.03.64.03.8,0,.29,0,.58-.03.96v1.02l3.87-.13c1.15-.03,1.5-.06,2.33-.16l.1,3.8c-.77-.1-1.02-.1-1.95-.1-1.12,0-2.65,0-4.35.03-.03,3.23-.32,5.62-.83,6.77-.7,1.6-2.01,2.4-3.87,2.4-1.53,0-2.91-.32-4.6-1.09.06-.64.06-.83.06-1.28,0-.86-.06-1.47-.22-2.62,1.69.99,3.23,1.57,4.19,1.57.83,0,1.15-.42,1.37-1.66.16-.93.26-2.2.29-3.99l-4.79.19c-.16,0-.7.03-1.37.06l-3.16.19c.03.35.03.54.03.77q0,.26-.03,1.95v.67c0,1.66.1,5.14.16,5.78.26,2.68,1.63,3.36,6.84,3.36,4.12,0,7.13-.38,9.2-1.21l.29,4.28-.48.03-.99.13c-2.33.26-6.52.48-8.63.48-5.98,0-8.56-1.15-9.52-4.22-.45-1.44-.58-3.26-.58-8.56v-3.26l-3.2.22Zm22.02-12.46c.99,1.57,1.66,3.1,2.21,4.99l-2.21.64c-.57-2.05-1.25-3.61-2.17-5.02l2.17-.61Zm3.9,4.63c-.51-1.73-1.28-3.51-2.14-4.89l2.05-.64c.86,1.34,1.57,2.84,2.17,4.79l-2.08.73Z"/><path class="cls-1" d="m744.02,173.12c.61.06.86.1,1.6.1,3.74,0,7.73-.45,9.08-1.02l2.01,3.45c-1.53.96-2.59,1.89-3.93,3.45-2.72,3.2-4.12,6.42-4.12,9.46,0,3.45,2.2,5.78,5.46,5.78,2.62,0,4.83-1.5,5.85-3.96.83-1.95,1.18-4.06,1.18-6.93,0-3.58-.7-7.45-1.73-9.71l3.83-1.15c.51,1.76,1.5,3.83,2.75,5.78,1.63,2.49,4.09,5.11,5.78,6.04l-1.98,3.77c-.26-.26-.29-.29-.73-.67-1.31-1.18-2.49-2.56-3.51-4.03-.13-.19-.64-1.02-1.6-2.56.54,2.3.67,3.42.67,5.62,0,6.84-4.35,11.73-10.39,11.73-2.01,0-4.03-.54-5.5-1.5-2.46-1.63-3.96-4.7-3.96-8.15,0-2.46.8-5.27,2.21-7.67.73-1.31,2.05-2.97,3.23-4.12q.13-.13.54-.51c.1-.1.13-.13.35-.32q-.38.06-.89.16c-1.34.29-1.76.35-5.18.64-.54.03-.61.03-.96.1l-.06-3.77Z"/><path class="cls-1" d="m780.71,186.26c-2.01,1.69-2.91,3.04-2.91,4.41,0,2.08,2.33,2.97,7.73,2.97,3.8,0,7.99-.58,10.03-1.37l.35,4.38c-.57.03-.67.03-1.41.13-3.83.58-5.88.74-8.63.74-3.48,0-6.3-.35-7.99-1.05-2.75-1.09-4.09-2.84-4.09-5.34s1.25-4.57,4.12-6.97l2.78,2.11Zm-4.86-13.13c2.46.58,5.3.8,9.59.8,4.06,0,6.33-.16,8.44-.61l.13,3.61c-1.92.83-5.85,3.29-8.53,5.27l-2.78-2.21c2.01-1.28,2.36-1.5,3.16-1.95.32-.19.42-.26.83-.51.26-.13.29-.13.7-.38-1.41.19-2.78.26-4.79.26-1.63,0-4.28-.16-5.85-.38-.38-.03-.61-.06-.73-.06-.06,0-.22-.03-.45-.03l.29-3.8Zm16.87,7.09c1.41,1.5,2.27,2.72,3.36,4.7l-2.24,1.18c-1.05-1.95-1.95-3.23-3.36-4.76l2.24-1.12Zm4.95,3.87c-.96-1.76-2.01-3.26-3.26-4.63l2.14-1.12c1.44,1.47,2.33,2.68,3.32,4.51l-2.21,1.25Z"/><path class="cls-1" d="m808.47,194.41c-1.28,0-2.78.03-3.39.1.06-.54.13-1.89.13-3.2v-6.17c0-.99,0-1.41-.06-2.3.64.06,1.66.1,3.2.1h14.7c1.6,0,2.24-.03,3.1-.13-.06.7-.1,1.18-.1,2.3v6.01c0,1.44.06,2.94.13,3.39-.64-.06-1.98-.1-3.36-.1h-2.78v1.44c0,.83.35.96,2.84.96,2.65,0,3.48-.13,3.87-.58.26-.32.38-1.12.48-3,1.25.61,2.05.86,3.16,1.09-.29,2.62-.67,3.74-1.47,4.38-.8.67-2.27.89-6.04.89-5.18,0-6.2-.42-6.2-2.49v-2.68h-3.04c-1.53,3.48-5.15,5.34-10.96,5.59-.48-1.28-.74-1.82-1.6-3.13.42.03.73.03.96.03,3.77,0,6.46-.86,7.89-2.49h-1.47Zm3.26-14.25h1.92c1.31,0,2.14-.03,2.62-.13v2.17c-.86-.06-1.47-.1-2.62-.1h-8.85c-1.02,0-1.6.03-2.49.1.06-.86.1-1.6.1-3.2v-4.7c0-1.5-.03-2.52-.13-3.26.8.06,1.66.1,3.26.1h7.64c1.44,0,2.24-.03,3.07-.16v2.52c-.67-.06-1.41-.1-2.52-.1h-1.98v1.02h1.66c.99,0,1.69-.03,2.14-.06-.06.45-.06.51-.1,1.53,1.95-1.66,3-3.29,3.67-5.62l3.36.64c-.41.96-.57,1.31-.86,1.85h5.3c1.18,0,2.05-.06,2.81-.16v3.1c-.8-.13-1.66-.16-2.81-.16h-6.93c-.99,1.41-1.66,2.14-3.04,3.36-.54-.77-.74-1.02-1.5-1.82v.54c0,.8.03,1.02.1,1.53-.64-.03-1.21-.06-2.27-.06h-1.53v1.05Zm-2.91-5.72v-1.02h-3.39v1.02h3.39Zm3.74,2.81v-.96h-7.13v.96h7.13Zm-7.13,1.85v1.05h3.39v-1.05h-3.39Zm3.07,6.97h14.22v-1.05h-14.22v1.05Zm0,3h14.22v-1.09h-14.22v1.09Zm0,3.07h14.22v-1.15h-14.22v1.15Zm9.75-14.32c.54.1,1.57.13,2.56.13h5.11c1.31,0,2.08-.03,2.78-.13v2.94c-.8-.1-1.47-.13-2.75-.13h-4.95c-1.21,0-2.05.03-2.75.13v-2.94Z"/><path class="cls-1" d="m849.93,173.48c-.54.38-1.15.93-3.93,3.52-1.63,1.5-3.87,3.29-7.61,6.14-.99.73-1.21.99-1.21,1.34,0,.48.06.54,2.88,2.65,4.99,3.77,5.91,4.57,10.07,8.34.32.32.51.48.93.8l-3.29,3.32c-.83-1.15-1.98-2.36-4.15-4.38-2.27-2.11-3.32-2.97-8.24-6.81-2.11-1.63-2.68-2.49-2.68-3.96,0-.96.35-1.82,1.05-2.59.42-.45.45-.48,2.81-2.3,3.45-2.62,5.24-4.15,7.38-6.23,1.44-1.44,1.79-1.85,2.33-2.65l3.67,2.81Z"/><path class="cls-1" d="m856.76,176.26c1.15.19,2.43.29,4.28.29.38,0,.74,0,1.47-.03.29-1.53.61-3.99.61-4.89,0-.13,0-.32-.03-.58l4.22.38c-.19.7-.22.86-.51,2.49-.06.38-.13.83-.22,1.41-.03.16-.1.42-.19.99,2.08-.19,3.96-.51,5.46-.96l.16,3.68c-.16.03-.26.03-.29.03l-.73.13c-2.14.38-4.47.67-5.24.67-1.18,6.17-2.78,11.5-5.56,18.82l-4.03-1.57c2.08-3.71,4.63-11.41,5.72-17.13h-.32l-.7-.03h-2.27c-.45-.03-1.02-.03-1.28-.03-.16,0-.32,0-.61.03l.06-3.71Zm15.85,12.37c-1.28,1.63-1.66,2.4-1.66,3.55,0,1.63,1.6,2.46,4.79,2.46,2.33,0,5.4-.51,7.25-1.18l.29,3.9c-.57.06-.73.1-1.57.22-2.65.42-4.06.54-5.94.54-2.84,0-4.89-.42-6.42-1.28-1.37-.8-2.27-2.33-2.27-3.93,0-1.69.61-3.13,2.36-5.56l3.16,1.28Zm9.49-4.19c-1.53-.16-2.43-.22-4.03-.22-3.16,0-5.27.22-8.44.96l-.29-3.55c4.51-.86,6.07-1.02,9.52-1.02.96,0,1.69,0,3.16.03l.06,3.8Zm-5.27-12.53c1.41,1.5,2.27,2.72,3.36,4.7l-2.24,1.18c-1.05-1.95-1.95-3.23-3.36-4.76l2.24-1.12Zm4.95,3.87c-.96-1.76-2.01-3.26-3.26-4.63l2.14-1.12c1.44,1.47,2.33,2.68,3.32,4.51l-2.21,1.25Z"/><path class="cls-1" d="m886.5,176.93c.96.13,1.79.16,3.1.16,2.4,0,6.65-.29,8.63-.54-.54-1.41-1.92-4.79-2.08-5.05l4.12-.54c.19,1.09.77,2.78,1.76,5.11,3.29-.58,6.14-1.25,7.83-1.89l.45,3.8c-.83.13-1.18.22-2.27.45-.48.13-2.05.45-4.7.96,1.15,2.14,1.89,3.48,2.21,4.06.86,1.47,2.27,3.55,3.39,5.05l-3.71,1.69c-.8-.74-1.31-1.05-2.21-1.37-1.44-.48-3.13-.73-5.05-.73-4.35,0-6.9,1.31-6.9,3.58,0,2.08,2.37,3.23,6.71,3.23,3.39,0,7.13-.83,9.62-2.14l.51,4.09c-3.96,1.21-6.93,1.73-10.13,1.73-4.09,0-7.25-.86-8.88-2.43-1.21-1.15-1.89-2.72-1.89-4.31,0-1.82.83-3.52,2.3-4.76,1.85-1.57,4.51-2.3,8.15-2.3,2.08,0,3.93.32,5.53.96-1.31-1.79-1.34-1.89-3.45-5.82-2.81.38-7.54.7-11.34.77-.8.03-.93.03-1.41.1l-.29-3.83Z"/><path class="cls-1" d="m918.81,173.7c-.16,1.18-.26,2.75-.26,4.86,0,2.78.26,6.61.61,8.56.54,3.32,1.57,5.37,2.59,5.37.48,0,.93-.48,1.31-1.37.77-1.73,1.34-3.64,1.69-5.78,1.12,1.28,1.63,1.76,3.2,2.91-1.66,6.23-3.52,8.82-6.23,8.82-2.14,0-3.87-1.57-5.15-4.63-1.31-3.2-1.89-7.83-2.01-16.68-.03-1.12-.03-1.34-.13-2.05h4.38Zm15.12,1.44c4.03,4.83,6.26,10.16,7.19,17.19l-3.96,1.5c-.19-3-.93-6.33-2.05-9.24-1.09-2.91-2.62-5.5-4.54-7.86l3.36-1.6Z"/></g></svg>