<?xml version="1.0" encoding="UTF-8"?><svg id="_レイヤー_2" xmlns="http://www.w3.org/2000/svg" xmlns:xlink="http://www.w3.org/1999/xlink" viewBox="0 0 472 472"><defs><style>.cls-1{fill:url(#_名称未設定グラデーション_19);}</style><linearGradient id="_名称未設定グラデーション_19" x1="-39.42" y1="353.66" x2="494.42" y2="125.6" gradientUnits="userSpaceOnUse"><stop offset="0" stop-color="#0f0609"/><stop offset=".11" stop-color="#2d8b86"/><stop offset=".25" stop-color="#0a3428"/><stop offset=".34" stop-color="#449e9c"/><stop offset=".52" stop-color="#21756f"/><stop offset=".56" stop-color="#12493e"/><stop offset=".7" stop-color="#3c988e"/><stop offset=".78" stop-color="#1b7b6e"/><stop offset=".86" stop-color="#205743"/><stop offset="1" stop-color="#1b3e25"/></linearGradient></defs><g id="contents_1"><path class="cls-1" d="m464,8v456H8V8h456m8-8H0v472h472V0h0ZM175.17,165.89c-.07.18-.11.32-.14.43-.11.43-.11.47-.21.86-1.65,7.51-3.15,11.34-6.44,16.46-1.47-1.22-2.5-1.9-3.79-2.54,3.43-4.72,5.83-10.91,6.26-16.31l4.33,1.11Zm8.98-8.62c-.14,1.11-.21,2.5-.21,4.36v23.65c0,1.72-.47,2.79-1.47,3.36-.72.43-1.75.61-3.72.61-1.36,0-2.86-.07-4.58-.18-.21-1.61-.5-2.68-1.14-4.19,2.22.32,3.72.47,5.12.47,1.18,0,1.54-.18,1.54-.86v-22.9c0-1.82-.07-3.22-.21-4.33h4.69Zm7.91,7.37c.25,1.9.72,3.79,1.65,6.3,1.32,3.65,3.01,6.76,5.33,9.87-1.43.82-2.65,1.79-3.61,2.79-3.01-4.29-4.83-8.19-6.37-13.56-.04-.14-.39-1.54-1.11-4.22l4.11-1.18Zm14.84,9.16c-1.18,0-2.25.04-3.01.11.07-1.11.14-2.33.14-3.54v-8.84c0-1.4-.04-2.4-.14-3.29,1.07.11,2.07.14,3.43.14h8.84c1.5,0,2.36-.04,3.29-.14-.07.93-.11,1.82-.11,3.33v9.16c0,1.82,0,2.47.07,3.18-.68-.07-1.65-.11-2.86-.11h-3.18v2.93h3.18c1.43,0,2.29-.04,3.29-.18v3.76c-.97-.14-1.82-.18-3.29-.18h-3.18v3.15c2.58-.39,3.65-.57,6.51-1.22l.07,3.29c-5.19,1.22-7.94,1.72-12.66,2.43-2.43.36-2.68.39-3.76.64l-.75-4.15c2.15-.04,3.47-.11,7.19-.54v-3.61h-3.22c-1.25,0-2.25.07-3.26.18v-3.76c.97.11,1.97.18,3.26.18h3.22v-2.93h-3.08Zm.29-12.02v2.75h2.79v-2.75h-2.79Zm0,5.94v2.86h2.79v-2.86h-2.79Zm6.19-3.18h2.86v-2.75h-2.86v2.75Zm0,6.05h2.86v-2.86h-2.86v2.86Zm17.82-2.93l-1.72,1.82h1.86c1.5,0,2.25-.04,2.93-.14l1.93,2.36c-.39.82-.43.89-.82,1.75-1.14,2.54-2.04,4.11-3.54,6.15-1.54-1.18-1.82-1.36-2.9-1.93,1.29-1.54,2.07-2.68,2.93-4.44h-3.18v12.81c0,2.72-1.11,3.51-4.97,3.51-.61,0-1.43-.04-2.68-.11-.14-1.54-.25-2.04-.86-3.79,1.43.21,2.86.36,3.65.36.86,0,1.14-.21,1.14-.86v-11.91h-1.68c-1.47,0-2.25.04-3.22.18v-4.11c.97.14,1.65.18,3.22.18h4.47c-1.57-1.32-3.47-2.58-6.37-4.22l2.04-2.54c1.79.97,2.36,1.29,3.47,2,1.29-1.07,2.04-1.82,2.75-2.72h-5.65c-1.25,0-2.22.07-3.22.18v-4.01c.97.14,1.97.18,3.47.18h5.8c1.5,0,2.25-.04,2.93-.14l2.07,2.36c-.57.68-.82,1.04-1.4,1.75-1.82,2.25-2.43,2.9-3.94,4.29l1.47,1.04Zm23.23-5.47h-9.37c-1.68,0-3.04.07-4.54.21v-4.04c1.36.14,2.75.21,4.51.21h20.71c1.68,0,3.08-.07,4.54-.21v4.04c-1.43-.14-2.97-.21-4.54-.21h-7.19v8.73h6.12c1.72,0,2.86-.07,4.01-.21v3.97c-1.11-.14-2.43-.21-4.01-.21h-6.12v10.12h8.19c1.79,0,3.29-.07,4.72-.25v4.15c-1.4-.18-2.79-.25-4.69-.25h-22.86c-1.79,0-3.18.07-4.72.25v-4.15c1.32.21,2.29.25,4.65.25h.75v-11.56c0-1.86-.07-3.33-.25-4.65h4.54c-.18,1.25-.25,2.75-.25,4.61v11.59h5.8v-22.4Zm28.01.68c-2.33.47-3.08.57-5.22.89-.29-1.22-.64-2.07-1.32-3.43,5.9-.61,11.55-2,13.77-3.43l2.33,3.29c-2.58.89-4.22,1.4-5.8,1.82v4.61h2.86c1.29,0,2.18-.04,3.01-.18v3.9c-.89-.14-1.75-.18-3.08-.18h-2.61c1.4,2.58,3.08,4.54,5.72,6.69-.72.97-1.43,2.33-1.9,3.51-2.11-2.15-2.9-3.26-4.19-5.72.11,1.22.18,2.68.18,4.51v6.22c0,2.25.04,3.29.21,4.54h-4.26c.18-1.32.25-2.5.25-4.54v-5.97c0-1.43.07-3.08.18-4.29-1.04,2.61-1.54,3.61-2.43,5.04-1,1.54-1.75,2.5-3.11,3.94-.72-1.68-1.25-2.68-2-3.76,1.54-1.43,2.68-2.83,3.9-4.79.93-1.5,2.33-4.15,2.79-5.37h-2.58c-1.4,0-2.29.07-3.29.21v-3.97c.93.18,1.75.21,3.36.21h3.22v-3.76Zm15.74-3.36c-.18,1.18-.21,2.22-.21,4.33v13.52c0,2.29.04,3.18.18,4.26h-4.22c.14-1.04.18-1.79.18-4.19v-13.59c0-2.07-.04-3.08-.21-4.33h4.29Zm8.51-2.15c-.18,1.43-.25,2.83-.25,4.87v23c0,1.9-.47,2.93-1.61,3.54-.86.47-2.07.61-4.97.61-.89,0-1.43,0-2.65-.07-.29-1.61-.57-2.43-1.22-3.97,2.04.21,3.4.32,4.72.32,1.57,0,1.82-.14,1.82-1.07v-22.36c0-1.79-.07-3.29-.21-4.87h4.36ZM48.45,218.92v-2.9c1.44,0,2.4-.16,2.9-.48.88-.56,1.32-1.47,1.32-2.71,0-.96-.32-1.74-.96-2.34-.63-.61-1.45-.92-2.46-.92-.94,0-1.67.23-2.18.68-.49.47-.86,1.25-1.11,2.36h-3.38c.35-2.12,1.07-3.67,2.15-4.65,1.09-.98,2.61-1.48,4.56-1.48s3.58.58,4.82,1.75c1.24,1.15,1.86,2.64,1.86,4.47,0,2.06-.82,3.66-2.45,4.8,1.86,1.1,2.79,2.88,2.79,5.34,0,2.02-.68,3.67-2.04,4.95-1.36,1.28-3.1,1.92-5.23,1.92-2.71,0-4.72-.99-6.03-2.98-.54-.83-.89-1.99-1.03-3.46h3.28c.17,1.09.6,1.92,1.27,2.5.67.58,1.56.87,2.64.87s2-.36,2.72-1.09c.72-.75,1.08-1.69,1.08-2.84,0-1.51-.54-2.59-1.62-3.23-.63-.37-1.61-.55-2.93-.55Zm11.49-.95c0-3.58.83-6.44,2.5-8.57,1.49-1.93,3.3-2.9,5.43-2.9s3.94.97,5.43,2.9c1.67,2.13,2.5,5.04,2.5,8.72s-.83,6.57-2.5,8.7c-1.49,1.93-3.3,2.9-5.41,2.9s-3.93-.97-5.44-2.9c-1.67-2.13-2.5-5.08-2.5-8.85Zm3.33.01c0,2.49.43,4.57,1.3,6.22.86,1.62,1.97,2.43,3.3,2.43s2.43-.81,3.3-2.43c.87-1.61,1.31-3.64,1.31-6.1s-.44-4.49-1.31-6.11c-.87-1.61-1.97-2.42-3.3-2.42s-2.42.81-3.29,2.42c-.87,1.6-1.31,3.6-1.31,6Zm19.61.25v11.12h-3.28v-11.12h-1.4v-3.06h1.4v-5.2h3.28v5.2h2.55v3.06h-2.55Zm4.86-13.46h3.28v11.59c1.16-1.05,2.45-1.57,3.86-1.57,1.6,0,2.88.52,3.84,1.56.82.9,1.22,2.34,1.22,4.32v8.69h-3.28v-8.38c0-1.14-.2-1.96-.6-2.47s-1.05-.76-1.94-.76c-1.14,0-1.95.35-2.42,1.06-.46.72-.68,1.95-.68,3.7v6.86h-3.28v-24.58Zm36,10.41h3.29v14.18h-3.29v-1.48c-1.35,1.26-2.8,1.89-4.35,1.89-1.96,0-3.58-.71-4.86-2.13-1.27-1.45-1.91-3.25-1.91-5.41s.64-3.9,1.91-5.31c1.27-1.42,2.86-2.13,4.77-2.13,1.65,0,3.13.68,4.44,2.04v-1.64Zm-7.77,7.04c0,1.36.36,2.46,1.09,3.32.75.86,1.69,1.3,2.82,1.3,1.21,0,2.19-.42,2.94-1.25.75-.86,1.12-1.96,1.12-3.29s-.37-2.43-1.12-3.29c-.75-.84-1.72-1.27-2.91-1.27-1.13,0-2.07.43-2.82,1.28-.75.86-1.12,1.93-1.12,3.2Zm15.11-7.04h3.29v1.31c1.14-1.14,2.44-1.7,3.87-1.7,1.65,0,2.94.52,3.86,1.56.8.88,1.19,2.32,1.19,4.32v8.69h-3.29v-7.92c0-1.4-.19-2.36-.58-2.9-.38-.54-1.07-.82-2.07-.82-1.09,0-1.86.36-2.31,1.08-.45.71-.67,1.95-.67,3.71v6.84h-3.29v-14.18Zm16.24,0h3.29v1.31c1.14-1.14,2.44-1.7,3.87-1.7,1.65,0,2.94.52,3.86,1.56.8.88,1.19,2.32,1.19,4.32v8.69h-3.29v-7.92c0-1.4-.19-2.36-.58-2.9-.38-.54-1.07-.82-2.07-.82-1.09,0-1.86.36-2.31,1.08-.45.71-.67,1.95-.67,3.71v6.84h-3.29v-14.18Zm15.73-5.9c0-.57.21-1.07.63-1.48.42-.42.92-.63,1.5-.63s1.1.21,1.51.63c.42.41.63.91.63,1.5s-.21,1.1-.63,1.51c-.41.42-.91.63-1.5.63s-1.1-.21-1.51-.63c-.42-.42-.63-.93-.63-1.53Zm3.77,5.9v14.18h-3.28v-14.18h3.28Zm5.92,0l3.67,7.96,3.65-7.96h3.68l-7.37,15.15-7.31-15.15h3.67Zm25.41,7.86h-10.16c.09,1.16.47,2.09,1.14,2.78.67.68,1.53,1.02,2.58,1.02.82,0,1.49-.19,2.02-.58.52-.39,1.12-1.11,1.79-2.15l2.77,1.54c-.43.73-.88,1.35-1.35,1.87-.48.52-.98.95-1.53,1.28s-1.13.58-1.76.74c-.63.16-1.32.23-2.05.23-2.12,0-3.81-.68-5.09-2.04-1.28-1.37-1.92-3.18-1.92-5.44s.62-4.06,1.86-5.44c1.25-1.37,2.91-2.05,4.98-2.05s3.74.66,4.95,1.99c1.2,1.32,1.8,3.15,1.8,5.49v.77Zm-3.36-2.68c-.46-1.75-1.56-2.62-3.3-2.62-.4,0-.77.06-1.12.18-.35.12-.67.3-.95.52-.29.23-.53.5-.74.82s-.36.68-.47,1.09h6.58Zm6.8-5.18h3.28v1.27c.6-.63,1.14-1.06,1.6-1.3.48-.24,1.04-.36,1.69-.36.86,0,1.77.28,2.71.84l-1.5,3c-.62-.45-1.23-.67-1.82-.67-1.79,0-2.68,1.35-2.68,4.05v7.35h-3.28v-14.18Zm19.24,2.42l-2.71,1.44c-.43-.87-.96-1.31-1.59-1.31-.3,0-.56.1-.77.3-.21.2-.32.45-.32.76,0,.54.63,1.08,1.89,1.62,1.74.75,2.91,1.44,3.51,2.07.6.63.9,1.48.9,2.55,0,1.37-.5,2.51-1.51,3.44-.98.87-2.16,1.31-3.55,1.31-2.38,0-4.06-1.16-5.05-3.48l2.79-1.3c.39.68.68,1.11.89,1.3.4.37.87.55,1.43.55,1.11,0,1.66-.5,1.66-1.51,0-.58-.43-1.13-1.28-1.63-.33-.16-.66-.32-.99-.48-.33-.16-.66-.32-1-.48-.95-.47-1.62-.93-2.01-1.4-.49-.59-.74-1.35-.74-2.29,0-1.23.42-2.25,1.27-3.06.86-.81,1.91-1.21,3.14-1.21,1.81,0,3.16.94,4.05,2.81Zm14.21-2.42h3.29v14.18h-3.29v-1.48c-1.35,1.26-2.8,1.89-4.35,1.89-1.96,0-3.58-.71-4.86-2.13-1.27-1.45-1.91-3.25-1.91-5.41s.64-3.9,1.91-5.31c1.27-1.42,2.86-2.13,4.77-2.13,1.65,0,3.13.68,4.44,2.04v-1.64Zm-7.77,7.04c0,1.36.36,2.46,1.09,3.32.75.86,1.69,1.3,2.82,1.3,1.21,0,2.19-.42,2.94-1.25.75-.86,1.12-1.96,1.12-3.29s-.37-2.43-1.12-3.29c-.75-.84-1.72-1.27-2.91-1.27-1.13,0-2.07.43-2.82,1.28-.75.86-1.12,1.93-1.12,3.2Zm15.11-7.04h3.28v1.27c.6-.63,1.14-1.06,1.6-1.3.48-.24,1.04-.36,1.69-.36.86,0,1.77.28,2.71.84l-1.5,3c-.62-.45-1.23-.67-1.82-.67-1.79,0-2.68,1.35-2.68,4.05v7.35h-3.28v-14.18Zm16.76,11.54l-6.38-11.54h3.8l4.34,8.15,4.05-8.15h3.7l-11.3,21.89h-3.74l5.53-10.35Zm27.76-16.65v19.29h-3.39v-19.29h-5.17v-3.19h13.71v3.19h-5.15Zm5.96,7.95c0-3.16,1.16-5.88,3.48-8.15,2.31-2.27,5.09-3.41,8.33-3.41s5.95,1.15,8.24,3.44c2.3,2.29,3.45,5.04,3.45,8.25s-1.15,5.97-3.46,8.22c-2.32,2.26-5.12,3.39-8.4,3.39-2.9,0-5.51-1-7.82-3.01-2.54-2.22-3.81-5.13-3.81-8.73Zm3.42.04c0,2.48.83,4.53,2.5,6.13,1.66,1.6,3.58,2.4,5.75,2.4,2.36,0,4.35-.82,5.97-2.45,1.62-1.65,2.43-3.66,2.43-6.03s-.8-4.41-2.4-6.03c-1.59-1.63-3.56-2.45-5.91-2.45s-4.31.82-5.92,2.45c-1.61,1.61-2.42,3.6-2.42,5.97Zm27.31-11.18v13.54c0,1.93.32,3.34.95,4.24.94,1.29,2.27,1.94,3.97,1.94s3.05-.65,3.99-1.94c.63-.86.95-2.28.95-4.24v-13.54h3.39v14.47c0,2.37-.74,4.32-2.21,5.85-1.66,1.71-3.7,2.56-6.11,2.56s-4.45-.85-6.1-2.56c-1.48-1.53-2.21-3.48-2.21-5.85v-14.47h3.39Zm25.93,12.9l6.96,9.58h-4.15l-6.42-9.2h-.61v9.2h-3.39v-22.47h3.97c2.97,0,5.11.56,6.43,1.67,1.46,1.24,2.18,2.88,2.18,4.92,0,1.59-.46,2.96-1.37,4.1-.91,1.15-2.12,1.88-3.61,2.2Zm-4.22-2.58h1.08c3.21,0,4.82-1.23,4.82-3.68,0-2.3-1.56-3.45-4.69-3.45h-1.21v7.13Zm24.89-2.02l3.67,7.96,3.65-7.96h3.68l-7.37,15.15-7.31-15.15h3.67Zm11.73,6.99c0-2.05.73-3.79,2.2-5.23,1.47-1.44,3.25-2.15,5.36-2.15s3.91.72,5.39,2.17c1.46,1.45,2.18,3.22,2.18,5.33s-.73,3.91-2.2,5.34c-1.48,1.43-3.28,2.14-5.43,2.14s-3.91-.73-5.34-2.18c-1.44-1.44-2.15-3.24-2.15-5.41Zm3.35.06c0,1.42.38,2.54,1.14,3.36.78.83,1.8,1.25,3.07,1.25s2.3-.41,3.07-1.24c.77-.82,1.15-1.93,1.15-3.3s-.38-2.48-1.15-3.3c-.78-.83-1.8-1.25-3.07-1.25s-2.27.42-3.04,1.25c-.78.83-1.16,1.91-1.16,3.23Zm18.36-17.45v24.58h-3.28v-24.58h3.28Zm4.22,22.95c0-.54.2-1.01.6-1.41.4-.4.87-.6,1.43-.6s1.03.2,1.43.6c.4.4.6.87.6,1.43s-.2,1.04-.6,1.44c-.39.39-.86.58-1.43.58s-1.05-.19-1.44-.58-.58-.87-.58-1.46Zm13.81-1.56h8.37v3.19h-15.09l7.8-9.45c.77-.94,1.41-1.76,1.93-2.45.52-.69.91-1.27,1.19-1.73.55-.91.83-1.73.83-2.46,0-1.05-.37-1.93-1.11-2.63-.74-.71-1.65-1.06-2.74-1.06-2.27,0-3.57,1.34-3.9,4.03h-3.38c.54-4.74,2.94-7.1,7.18-7.1,2.05,0,3.76.65,5.15,1.95,1.4,1.3,2.1,2.91,2.1,4.83,0,1.22-.33,2.42-.98,3.6-.33.61-.81,1.34-1.45,2.18-.64.84-1.44,1.83-2.41,2.98l-3.49,4.13Zm-370.39,54.01h-6.25l-1.58-22.82h9.41l-1.58,22.82Zm13.45,0h-6.25l-1.58-22.82h9.41l-1.58,22.82Zm31.29,9.74l17.57,24.18h-10.47l-16.21-23.23h-1.54v23.23h-8.56v-56.75h10.03c7.5,0,12.91,1.41,16.24,4.23,3.68,3.14,5.51,7.28,5.51,12.42,0,4.02-1.15,7.47-3.45,10.36-2.3,2.89-5.34,4.74-9.11,5.55Zm-10.66-6.51h2.72c8.11,0,12.17-3.1,12.17-9.3,0-5.81-3.95-8.71-11.84-8.71h-3.05v18.01Zm64.68,14.74h-25.65c.22,2.94,1.18,5.28,2.87,7.02,1.69,1.72,3.86,2.57,6.51,2.57,2.06,0,3.76-.49,5.11-1.47,1.32-.98,2.83-2.79,4.52-5.44l6.98,3.9c-1.08,1.84-2.22,3.41-3.42,4.72-1.2,1.31-2.49,2.39-3.86,3.23-1.37.85-2.85,1.46-4.45,1.86-1.59.39-3.32.59-5.18.59-5.34,0-9.63-1.71-12.86-5.15-3.23-3.45-4.85-8.04-4.85-13.75s1.57-10.24,4.7-13.75c3.16-3.45,7.35-5.18,12.57-5.18s9.43,1.68,12.5,5.04c3.04,3.33,4.56,7.95,4.56,13.86l-.04,1.95Zm-8.49-6.76c-1.15-4.41-3.93-6.62-8.34-6.62-1.01,0-1.95.15-2.83.46-.88.31-1.68.75-2.41,1.32-.72.58-1.34,1.27-1.86,2.08s-.91,1.73-1.18,2.76h16.61Zm15.13-9.04c0-1.35.5-2.52,1.51-3.53,1-1,2.21-1.51,3.6-1.51s2.6.5,3.6,1.51c1,1,1.51,2.21,1.51,3.6s-.5,2.63-1.51,3.64c-.98.98-2.18,1.47-3.6,1.47s-2.63-.5-3.64-1.51c-.98-.98-1.47-2.21-1.47-3.68Zm0,27.64c0-1.37.5-2.56,1.51-3.57,1-1,2.21-1.51,3.6-1.51s2.6.5,3.6,1.51c1,1,1.51,2.21,1.51,3.6s-.5,2.63-1.51,3.64c-.98.98-2.18,1.47-3.6,1.47s-2.66-.49-3.64-1.47c-.98-.98-1.47-2.21-1.47-3.68Zm40.01-20.07l17.57,24.18h-10.47l-16.21-23.23h-1.54v23.23h-8.56v-56.75h10.03c7.5,0,12.91,1.41,16.24,4.23,3.68,3.14,5.51,7.28,5.51,12.42,0,4.02-1.15,7.47-3.45,10.36-2.3,2.89-5.34,4.74-9.11,5.55Zm-10.66-6.51h2.72c8.11,0,12.17-3.1,12.17-9.3,0-5.81-3.95-8.71-11.84-8.71h-3.05v18.01Zm64.68,14.74h-25.65c.22,2.94,1.18,5.28,2.87,7.02,1.69,1.72,3.86,2.57,6.51,2.57,2.06,0,3.76-.49,5.11-1.47,1.32-.98,2.83-2.79,4.52-5.44l6.98,3.9c-1.08,1.84-2.22,3.41-3.42,4.72-1.2,1.31-2.49,2.39-3.86,3.23-1.37.85-2.85,1.46-4.45,1.86-1.59.39-3.32.59-5.18.59-5.34,0-9.63-1.71-12.86-5.15-3.23-3.45-4.85-8.04-4.85-13.75s1.57-10.24,4.7-13.75c3.16-3.45,7.35-5.18,12.57-5.18s9.43,1.68,12.5,5.04c3.04,3.33,4.56,7.95,4.56,13.86l-.04,1.95Zm-8.49-6.76c-1.15-4.41-3.93-6.62-8.34-6.62-1.01,0-1.95.15-2.83.46-.88.31-1.68.75-2.41,1.32-.72.58-1.34,1.27-1.86,2.08s-.91,1.73-1.18,2.76h16.61Zm24.72-39.36v30.43c3.31-3.43,7.06-5.15,11.25-5.15,4.83,0,8.85,1.8,12.05,5.4,3.21,3.58,4.82,8.04,4.82,13.38s-1.62,10.07-4.85,13.67c-3.21,3.58-7.26,5.37-12.17,5.37-4.14,0-7.84-1.59-11.1-4.78v3.75h-8.27v-62.08h8.27Zm19.66,44.43c0-3.43-.93-6.22-2.79-8.38-1.89-2.21-4.25-3.31-7.09-3.31-3.04,0-5.51,1.07-7.42,3.2-1.89,2.11-2.83,4.85-2.83,8.23s.93,6.26,2.79,8.34c1.86,2.13,4.31,3.2,7.35,3.2,2.87,0,5.24-1.07,7.13-3.2,1.91-2.16,2.87-4.85,2.87-8.09Zm14.78-33.04c0-1.45.53-2.7,1.58-3.75,1.05-1.05,2.32-1.58,3.79-1.58s2.77.53,3.82,1.58c1.05,1.03,1.58,2.29,1.58,3.79s-.53,2.77-1.58,3.82c-1.03,1.05-2.29,1.58-3.79,1.58s-2.77-.53-3.82-1.58c-1.05-1.05-1.58-2.34-1.58-3.86Zm9.52,14.88v35.8h-8.27v-35.8h8.27Zm9.58,0h8.27v3.2c1.52-1.59,2.87-2.68,4.04-3.27,1.2-.61,2.62-.92,4.26-.92,2.18,0,4.46.71,6.84,2.13l-3.79,7.57c-1.57-1.13-3.1-1.69-4.59-1.69-4.51,0-6.76,3.41-6.76,10.22v18.56h-8.27v-35.8Zm38.3,7.72v28.08h-8.27v-28.08h-3.53v-7.72h3.53v-13.12h8.27v13.12h6.43v7.72h-6.43Zm11.57-34h8.27v29.26c2.94-2.65,6.19-3.97,9.74-3.97,4.04,0,7.28,1.31,9.7,3.93,2.06,2.28,3.09,5.92,3.09,10.92v21.94h-8.27v-21.17c0-2.87-.51-4.94-1.53-6.23-1.02-1.29-2.65-1.93-4.91-1.93-2.89,0-4.92.89-6.1,2.68-1.15,1.81-1.73,4.92-1.73,9.34v17.31h-8.27v-62.08Zm44.53,28.15h-6.25l-1.58-22.82h9.41l-1.58,22.82Zm13.45,0h-6.25l-1.58-22.82h9.41l-1.58,22.82Z"/></g></svg>