<?xml version="1.0" encoding="UTF-8"?><svg id="_レイヤー_2" xmlns="http://www.w3.org/2000/svg" viewBox="0 0 808.3 170"><defs><style>.cls-1{fill:red;}</style></defs><g id="contents_1"><path class="cls-1" d="m14.18,12.75c-.1.24-.14.43-.19.58-.14.58-.14.62-.29,1.15-2.2,10.06-4.22,15.19-8.62,22.04-1.96-1.63-3.35-2.54-5.08-3.4,4.6-6.32,7.81-14.61,8.38-21.85l5.8,1.49ZM26.21,1.2c-.19,1.49-.29,3.35-.29,5.85v31.67c0,2.3-.62,3.74-1.96,4.5-.96.58-2.35.81-4.98.81-1.82,0-3.83-.1-6.13-.24-.29-2.16-.67-3.59-1.53-5.61,2.97.43,4.98.62,6.85.62,1.58,0,2.06-.24,2.06-1.15V7c0-2.44-.1-4.31-.29-5.8h6.28Zm10.59,9.87c.34,2.54.96,5.08,2.2,8.43,1.77,4.89,4.02,9.06,7.14,13.22-1.92,1.1-3.55,2.4-4.84,3.74-4.02-5.75-6.47-10.97-8.53-18.16-.05-.19-.53-2.06-1.49-5.65l5.51-1.58Z"/><path class="cls-1" d="m56.67,23.33c-1.58,0-3.02.05-4.03.14.1-1.49.19-3.11.19-4.74V6.9c0-1.87-.05-3.21-.19-4.41,1.44.14,2.78.19,4.6.19h11.84c2.01,0,3.16-.05,4.41-.19-.1,1.25-.14,2.44-.14,4.46v12.27c0,2.44,0,3.31.1,4.26-.91-.1-2.2-.14-3.83-.14h-4.26v3.93h4.26c1.92,0,3.07-.05,4.41-.24v5.03c-1.29-.19-2.44-.24-4.41-.24h-4.26v4.22c3.45-.53,4.89-.77,8.72-1.63l.1,4.41c-6.95,1.63-10.64,2.3-16.96,3.26-3.26.48-3.59.53-5.03.86l-1.01-5.56c2.88-.05,4.65-.14,9.63-.72v-4.84h-4.31c-1.68,0-3.02.1-4.36.24v-5.03c1.29.14,2.64.24,4.36.24h4.31v-3.93h-4.12Zm.38-16.1v3.69h3.74v-3.69h-3.74Zm0,7.95v3.83h3.74v-3.83h-3.74Zm8.29-4.26h3.83v-3.69h-3.83v3.69Zm0,8.1h3.83v-3.83h-3.83v3.83Zm23.86-3.93l-2.3,2.44h2.49c2.01,0,3.02-.05,3.93-.19l2.59,3.16c-.53,1.1-.58,1.2-1.1,2.35-1.53,3.4-2.73,5.51-4.74,8.24-2.06-1.58-2.44-1.82-3.88-2.59,1.72-2.06,2.78-3.59,3.93-5.94h-4.26v17.15c0,3.64-1.49,4.7-6.66,4.7-.81,0-1.92-.05-3.59-.14-.19-2.06-.34-2.73-1.15-5.08,1.92.29,3.83.48,4.89.48,1.15,0,1.53-.29,1.53-1.15v-15.96h-2.25c-1.96,0-3.02.05-4.31.24v-5.51c1.29.19,2.2.24,4.31.24h5.99c-2.11-1.77-4.65-3.45-8.53-5.65l2.73-3.4c2.4,1.29,3.16,1.72,4.65,2.68,1.73-1.44,2.73-2.44,3.69-3.64h-7.57c-1.68,0-2.97.1-4.31.24V2.4c1.29.19,2.64.24,4.65.24h7.76c2.01,0,3.02-.05,3.93-.19l2.78,3.16c-.77.91-1.1,1.39-1.87,2.35-2.44,3.02-3.26,3.88-5.27,5.75l1.96,1.39Z"/><path class="cls-1" d="m120.32,7.76h-12.55c-2.25,0-4.07.1-6.09.29V2.64c1.82.19,3.69.29,6.04.29h27.74c2.25,0,4.12-.1,6.09-.29v5.41c-1.92-.19-3.98-.29-6.09-.29h-9.63v11.69h8.19c2.3,0,3.83-.1,5.37-.29v5.32c-1.49-.19-3.26-.29-5.37-.29h-8.19v13.56h10.97c2.4,0,4.41-.1,6.32-.34v5.56c-1.87-.24-3.74-.34-6.28-.34h-30.62c-2.4,0-4.26.1-6.33.34v-5.56c1.77.29,3.07.34,6.23.34h1.01v-15.48c0-2.49-.1-4.46-.34-6.23h6.09c-.24,1.68-.34,3.69-.34,6.18v15.52h7.76V7.76Z"/><path class="cls-1" d="m157.84,8.67c-3.11.62-4.12.77-7,1.2-.38-1.63-.86-2.78-1.77-4.6,7.91-.81,15.48-2.68,18.45-4.6l3.11,4.41c-3.45,1.2-5.65,1.87-7.76,2.44v6.18h3.83c1.72,0,2.92-.05,4.02-.24v5.22c-1.2-.19-2.35-.24-4.12-.24h-3.5c1.87,3.45,4.12,6.09,7.67,8.96-.96,1.29-1.92,3.11-2.54,4.7-2.83-2.87-3.88-4.36-5.61-7.67.14,1.63.24,3.59.24,6.04v8.34c0,3.02.05,4.41.29,6.09h-5.7c.24-1.77.34-3.35.34-6.09v-8c0-1.92.1-4.12.24-5.75-1.39,3.5-2.06,4.84-3.26,6.76-1.34,2.06-2.35,3.35-4.17,5.27-.96-2.25-1.68-3.59-2.68-5.03,2.06-1.92,3.59-3.79,5.22-6.42,1.25-2.01,3.11-5.56,3.74-7.19h-3.45c-1.87,0-3.07.1-4.41.29v-5.32c1.25.24,2.35.29,4.5.29h4.31v-5.03Zm21.08-4.5c-.24,1.58-.29,2.97-.29,5.8v18.11c0,3.07.05,4.26.24,5.7h-5.65c.19-1.39.24-2.4.24-5.61V9.97c0-2.78-.05-4.12-.29-5.8h5.75Zm11.4-2.87c-.24,1.92-.34,3.79-.34,6.52v30.81c0,2.54-.62,3.93-2.16,4.74-1.15.62-2.78.81-6.66.81-1.2,0-1.92,0-3.55-.1-.38-2.16-.77-3.26-1.63-5.32,2.73.29,4.55.43,6.32.43,2.11,0,2.44-.19,2.44-1.44V7.81c0-2.4-.1-4.41-.29-6.52h5.85Z"/><path class="cls-1" d="m217.19,29.71c-2.73,6.18-5.8,9.01-9.73,9.01-5.46,0-9.39-5.56-9.39-13.27,0-5.27,1.87-10.21,5.27-13.94,4.02-4.41,9.68-6.71,16.48-6.71,11.5,0,18.97,7,18.97,17.78,0,8.29-4.31,14.9-11.64,17.87-2.3.96-4.17,1.44-7.52,2.01-.81-2.54-1.39-3.59-2.92-5.61,4.41-.58,7.28-1.34,9.54-2.64,4.17-2.3,6.66-6.85,6.66-11.98,0-4.6-2.06-8.34-5.89-10.64-1.49-.86-2.73-1.25-4.84-1.44-.91,7.52-2.59,14.14-4.98,19.55Zm-7.04-17.15c-4.02,2.88-6.52,7.81-6.52,12.94,0,3.93,1.68,7.04,3.78,7.04,1.58,0,3.21-2.01,4.94-6.13,1.82-4.31,3.4-10.78,3.98-16.2-2.49.29-4.22.96-6.18,2.35Z"/><path class="cls-1" d="m261.66,24.31v-5.24c2.6,0,4.34-.29,5.24-.87,1.6-1.02,2.39-2.65,2.39-4.9,0-1.74-.58-3.15-1.74-4.24-1.14-1.11-2.62-1.66-4.45-1.66-1.7,0-3.02.41-3.95,1.24-.89.84-1.56,2.26-2,4.26h-6.11c.63-3.82,1.93-6.63,3.9-8.41,1.96-1.78,4.71-2.67,8.24-2.67s6.47,1.05,8.71,3.16c2.25,2.09,3.37,4.78,3.37,8.08,0,3.72-1.47,6.61-4.42,8.69,3.37,1.98,5.05,5.2,5.05,9.66,0,3.65-1.23,6.63-3.68,8.95-2.46,2.32-5.61,3.47-9.45,3.47-4.9,0-8.53-1.8-10.9-5.4-.98-1.51-1.61-3.6-1.87-6.26h5.92c.32,1.97,1.08,3.47,2.3,4.51,1.22,1.04,2.81,1.57,4.78,1.57s3.62-.66,4.92-1.97c1.3-1.35,1.95-3.06,1.95-5.13,0-2.74-.97-4.68-2.92-5.84-1.14-.67-2.9-1-5.29-1Z"/><path class="cls-1" d="m284.87,22.6c0-6.47,1.51-11.64,4.53-15.5,2.7-3.49,5.97-5.24,9.82-5.24s7.11,1.75,9.82,5.24c3.02,3.86,4.53,9.12,4.53,15.76s-1.51,11.88-4.53,15.74c-2.7,3.49-5.97,5.24-9.79,5.24s-7.11-1.75-9.84-5.24c-3.02-3.86-4.53-9.19-4.53-16Zm6.03.03c0,4.51.78,8.26,2.34,11.24,1.56,2.93,3.55,4.4,5.97,4.4s4.4-1.46,5.97-4.4c1.58-2.91,2.37-6.59,2.37-11.03s-.79-8.12-2.37-11.05c-1.58-2.91-3.57-4.37-5.97-4.37s-4.37,1.46-5.95,4.37c-1.58,2.9-2.37,6.51-2.37,10.84Z"/><path class="cls-1" d="m356.01,2.16c2.54,0,3.74-.05,5.08-.19-.19,1.72-.24,2.97-.24,5.41v31.77c0,4.02-1.44,4.98-7.57,4.98-1.01,0-3.02-.05-5.27-.14-.29-1.96-.67-3.31-1.49-5.22,3.07.34,5.41.48,7,.48,2.01,0,2.25-.1,2.25-1.15V6.8h-27.07v5.46c0,12.46-.57,19.6-2.01,24.48-.96,3.35-1.77,5.17-3.64,8.24-1.15-1.53-2.44-2.87-4.31-4.22,1.63-2.3,2.59-4.46,3.26-7.14,1.1-4.55,1.63-11.84,1.63-23.33,0-4.84-.05-6.13-.24-8.34,1.49.14,2.64.19,5.08.19h27.55Zm-16.44,12.7h-4.65c-1.53,0-2.68.05-3.64.19v-4.6c1.1.14,2.11.19,3.69.19h4.55c0-1.58-.05-1.87-.14-2.87h5.32c-.14.96-.14,1.34-.19,2.87h4.84c1.49,0,2.49-.05,3.64-.19v4.6c-1.01-.14-2.11-.19-3.64-.19h-4.84v3.31h5.94c2.06,0,3.31-.05,4.31-.24v4.74c-1.2-.14-2.35-.19-4.31-.19h-16.48c-1.92,0-3.16.05-4.31.19v-4.74c1.1.19,2.06.24,4.36.24h5.56v-3.31Zm12.07,19.65c0,1.34.05,2.49.14,3.21-1.29-.1-2.2-.14-3.59-.14h-11.36v2.88h-5.22c.19-1.1.24-2.2.24-3.83v-8.53c0-1.58-.05-2.3-.19-3.26,1.58.14,2.01.14,3.55.14h12.84c2.11,0,2.64,0,3.74-.14-.1,1.01-.14,1.77-.14,3.35v6.32Zm-14.85-1.29h9.92v-4.07h-9.92v4.07Z"/><path class="cls-1" d="m376.1,19.21c0-1.05-.05-1.77-.14-2.78,1.01.1,2.06.14,3.35.14h10.45v-6.23h-10.01c-2.49,3.88-4.84,6.66-7.91,9.44-1.39-2.06-1.92-2.68-3.55-4.26,4.89-4.17,7.38-7.33,9.34-12.03.67-1.53,1.01-2.54,1.15-3.5l5.7,1.15c-.29.57-.38.72-.72,1.44-.05.14-.53,1.15-1.39,3.02h22.42c2.25,0,3.45-.05,4.89-.24v5.22c-1.49-.19-2.73-.24-4.89-.24h-9.77v6.23h7.71c2.2,0,3.5-.05,4.94-.24v5.08c-1.44-.14-2.73-.19-4.79-.19h-7.86v7.76h11.12c2.2,0,3.74-.1,5.22-.29v5.46c-1.49-.19-3.16-.29-5.22-.29h-11.12v5.99c0,2.44.05,3.74.29,5.13h-5.85c.19-1.39.29-2.68.29-5.22v-5.89h-16.1c-2.11,0-3.64.1-5.22.29v-5.46c1.53.19,3.07.29,5.22.29h2.44v-9.77Zm13.66,9.77v-7.76h-8.62v7.76h8.62Z"/><path class="cls-1" d="m418.65,6.42c1.96.43,5.03.62,11.12.62,1.29-2.88,1.72-4.31,1.92-5.94l6.28.67q-.29.48-1.92,4.31c-.24.53-.34.67-.43.86q.38-.05,3.02-.19c5.56-.34,9.92-.86,12.55-1.63l.34,5.46q-1.34.1-3.78.38c-3.5.43-9.58.81-14.42.96-1.39,2.73-2.73,4.65-4.41,6.37l.05.1q.34-.24.96-.72c1.77-1.34,4.31-2.16,6.76-2.16,3.74,0,6.09,1.77,6.85,5.08,3.69-1.34,6.13-2.2,7.33-2.59,2.59-.91,2.78-.96,3.55-1.44l2.25,5.51c-1.34.19-2.78.58-5.32,1.29-.67.19-3.07,1.01-7.19,2.44v.53q.05,1.25.05,1.92v1.92c-.05.81-.05,1.25-.05,1.58,0,1.05.05,1.73.14,2.54l-5.56.14c.19-.86.29-3.31.29-5.56v-1.15c-2.35,1.1-3.59,1.77-4.6,2.49-1.68,1.25-2.49,2.54-2.49,3.93,0,2.49,2.3,3.5,8.1,3.5s10.69-.72,14.09-2.01l.48,6.18c-.81,0-1.05.05-2.2.19-3.45.53-8.05.86-12.27.86-5.08,0-8.24-.58-10.69-2.01-2.2-1.25-3.5-3.55-3.5-6.18,0-1.96.58-3.5,2.11-5.32,2.16-2.68,4.89-4.5,10.3-6.76-.24-1.77-1.2-2.59-2.92-2.59-2.78,0-6.13,1.68-9.82,4.94-2.01,1.68-3.11,2.87-4.17,4.36l-4.36-4.31c1.25-.96,2.64-2.3,4.31-4.26,1.87-2.2,4.79-6.37,5.75-8.19q.19-.38.38-.62c-.19,0-.81.05-.81.05-.77,0-4.98-.1-6.04-.1q-.91-.05-1.34-.05c-.14,0-.43,0-.77.05l.1-5.46Z"/><path class="cls-1" d="m473.91,39.48c0,2.4.1,3.69.29,5.17h-5.61c.24-1.53.29-2.73.29-5.17v-11.64c-1.87,1.82-2.97,2.73-5.51,4.6-.58-2.06-1.1-3.35-2.2-5.27,3.02-1.82,4.94-3.5,7.47-6.28,2.44-2.64,3.79-4.6,5.41-7.86h-7.14c-1.77,0-2.83.05-4.02.19v-5.03c1.1.14,2.01.19,3.74.19h2.25v-4.26c0-1.29-.1-2.35-.29-3.74h5.61c-.14,1.1-.24,2.3-.24,3.79v4.22h1.34c1.39,0,2.25-.05,2.88-.14l2.4,2.78q-.48.81-2.16,4.41c-.58,1.25-1.92,3.35-3.4,5.46,1.68,1.73,3.69,3.21,6.61,4.84-1.05,1.58-1.63,2.68-2.4,4.7-2.01-1.34-3.21-2.35-5.32-4.5v13.56Zm10.83-17.54c-1.53,0-2.54.05-3.88.19.14-1.29.19-2.35.19-4.02V6.52c0-1.39-.05-2.68-.19-4.12,1.29.14,2.44.19,4.5.19h14.18c1.96,0,3.07-.05,4.36-.19-.14,1.25-.19,2.54-.19,4.12v11.5c0,1.63.05,2.87.19,4.12-1.25-.14-2.35-.19-3.93-.19h-1.87v16.39c0,.77.29.91,1.72.91s1.96-.1,2.25-.43c.38-.48.43-1.15.48-8,1.72,1.2,2.68,1.63,4.55,2.01-.34,8-.62,9.44-2.16,10.35-.96.62-2.87.86-6.13.86-2.92,0-4.02-.24-4.89-1.1-.57-.58-.77-1.25-.77-2.68v-18.3h-2.49c-.24,5.51-.81,8.48-2.35,12.22-1.15,2.87-2.59,4.98-4.6,7-1.53,1.49-2.64,2.25-5.13,3.64-1.2-1.82-1.92-2.68-3.59-4.31,3.07-1.34,4.65-2.44,6.42-4.55,2.83-3.35,4.17-7.71,4.36-13.99h-1.05Zm1.34-4.65h12.65V7.38h-12.65v9.92Z"/><path class="cls-1" d="m523.16,2.68c-.29,1.39-.38,2.78-.58,6.47-.19,4.46-.48,14.18-.48,17.58,0,4.55.29,6.28,1.25,7.71,1.1,1.58,3.4,2.49,6.42,2.49,5.17,0,9.34-2.92,11.6-8.19,1.05-2.49,1.68-4.74,2.2-8.05,2.59,2.11,3.45,2.64,5.8,3.69-1.92,6.47-3.35,9.58-5.7,12.22-3.59,4.07-8.34,6.09-14.37,6.09-3.31,0-6.37-.77-8.39-2.11-3.31-2.2-4.7-5.89-4.7-12.31,0-2.49.1-7.28.38-19.31.05-1.44.05-2.44.05-3.11,0-1.34-.05-2.01-.19-3.26l6.71.1Z"/><path class="cls-1" d="m552.83,7.57c1.05.05,1.58.05,1.82.05q.86,0,7.91-.48c2.68-.14,10.64-.57,23.91-1.2,3.93-.19,4.65-.24,5.51-.48l.34,6.13q-.53-.05-1.01-.05c-2.88,0-6.42.96-9.49,2.59-6.09,3.16-9.68,7.95-9.68,12.79,0,3.74,2.35,6.61,6.37,7.81,2.35.72,5.41,1.25,7.14,1.25.05,0,.48,0,.96-.05l-.86,6.52c-.57-.14-.81-.19-1.63-.29-5.27-.67-8.29-1.53-11.21-3.16-4.41-2.49-6.85-6.56-6.85-11.55,0-4.07,1.63-8.1,4.55-11.31,1.82-1.96,3.55-3.21,6.66-4.79-3.88.58-5.75.72-16.15,1.49-3.21.24-6.09.57-7.95.96l-.34-6.23Z"/><path class="cls-1" d="m633.9,2.16c2.54,0,3.74-.05,5.08-.19-.19,1.72-.24,2.97-.24,5.41v31.77c0,4.02-1.44,4.98-7.57,4.98-1.01,0-3.02-.05-5.27-.14-.29-1.96-.67-3.31-1.49-5.22,3.07.34,5.41.48,7,.48,2.01,0,2.25-.1,2.25-1.15V6.8h-27.07v5.46c0,12.46-.58,19.6-2.01,24.48-.96,3.35-1.77,5.17-3.64,8.24-1.15-1.53-2.44-2.87-4.31-4.22,1.63-2.3,2.59-4.46,3.26-7.14,1.1-4.55,1.63-11.84,1.63-23.33,0-4.84-.05-6.13-.24-8.34,1.49.14,2.64.19,5.08.19h27.55Zm-16.44,12.7h-4.65c-1.53,0-2.68.05-3.64.19v-4.6c1.1.14,2.11.19,3.69.19h4.55c0-1.58-.05-1.87-.14-2.87h5.32c-.14.96-.14,1.34-.19,2.87h4.84c1.49,0,2.49-.05,3.64-.19v4.6c-1.01-.14-2.11-.19-3.64-.19h-4.84v3.31h5.94c2.06,0,3.31-.05,4.31-.24v4.74c-1.2-.14-2.35-.19-4.31-.19h-16.48c-1.92,0-3.16.05-4.31.19v-4.74c1.1.19,2.06.24,4.36.24h5.56v-3.31Zm12.07,19.65c0,1.34.05,2.49.14,3.21-1.29-.1-2.2-.14-3.59-.14h-11.36v2.88h-5.22c.19-1.1.24-2.2.24-3.83v-8.53c0-1.58-.05-2.3-.19-3.26,1.58.14,2.01.14,3.55.14h12.84c2.11,0,2.64,0,3.74-.14-.1,1.01-.14,1.77-.14,3.35v6.32Zm-14.85-1.29h9.92v-4.07h-9.92v4.07Z"/><path class="cls-1" d="m653.99,19.21c0-1.05-.05-1.77-.14-2.78,1.01.1,2.06.14,3.35.14h10.45v-6.23h-10.01c-2.49,3.88-4.84,6.66-7.91,9.44-1.39-2.06-1.92-2.68-3.55-4.26,4.89-4.17,7.38-7.33,9.34-12.03.67-1.53,1.01-2.54,1.15-3.5l5.7,1.15c-.29.57-.38.72-.72,1.44-.05.14-.53,1.15-1.39,3.02h22.42c2.25,0,3.45-.05,4.89-.24v5.22c-1.49-.19-2.73-.24-4.89-.24h-9.77v6.23h7.71c2.2,0,3.5-.05,4.94-.24v5.08c-1.44-.14-2.73-.19-4.79-.19h-7.86v7.76h11.12c2.2,0,3.74-.1,5.22-.29v5.46c-1.49-.19-3.16-.29-5.22-.29h-11.12v5.99c0,2.44.05,3.74.29,5.13h-5.85c.19-1.39.29-2.68.29-5.22v-5.89h-16.1c-2.11,0-3.64.1-5.22.29v-5.46c1.53.19,3.07.29,5.22.29h2.44v-9.77Zm13.66,9.77v-7.76h-8.62v7.76h8.62Z"/><path class="cls-1" d="m718.52,1.05c2.11,3.21,4.5,5.7,8.19,8.53,3.64,2.83,7.62,5.03,12.07,6.85-1.1,1.58-1.77,2.92-2.64,5.27-4.07-1.82-8.43-4.5-11.83-7.24-3.74-3.02-5.75-5.08-8.39-8.58-2.64,3.55-4.41,5.41-7.91,8.39-3.69,3.11-7.62,5.7-11.93,7.86-.81-2.2-1.34-3.26-2.68-5.13,4.17-1.82,8.15-4.26,11.79-7.24,3.35-2.73,5.8-5.51,7.81-8.72h5.51Zm1.1,37.13h11.93c2.68,0,4.5-.1,6.04-.34v5.75c-1.53-.24-3.5-.34-6.04-.34h-31.19c-2.68,0-4.6.1-6.13.34v-5.75c1.29.24,3.07.34,5.7.34h2.11v-11.5c0-2.2-.1-3.74-.29-5.46h5.89c-.24,1.49-.34,3.07-.34,5.41v11.55h7v-19.55c0-2.3-.1-3.79-.29-5.32h5.89c-.19,1.49-.29,2.78-.29,5.17v4.74h7.91c2.35,0,3.88-.1,5.27-.24v5.56c-1.44-.14-3.02-.24-5.22-.24h-7.95v9.87Z"/><path class="cls-1" d="m749.75,6.71c-2.16,0-3.93.1-5.89.29V1.72c1.77.19,3.55.29,5.8.29h31.62c2.16,0,4.02-.1,5.89-.29v5.27c-1.72-.19-3.88-.29-5.85-.29h-13.51v4.26h5.7c1.72,0,2.83-.05,3.93-.19-.14,1.05-.19,2.06-.19,3.59v17.15c0,1.77.05,2.49.19,3.55-1.25-.14-2.01-.19-4.22-.19h-15.48c-2.3,0-3.07.05-4.31.19.14-1.15.19-1.82.19-3.55V14.37c0-1.53-.05-2.4-.19-3.59,1.1.14,2.2.19,3.93.19h5.56v-4.26h-13.18Zm36.32,4.98c-.19,1.68-.29,3.69-.29,5.37v21.47c0,2.49.1,4.41.34,6.42h-5.56v-2.25h-30.23v2.25h-5.46c.19-2.01.29-3.83.29-6.37v-21.56c0-1.92-.1-3.59-.29-5.32h5.56c-.14,1.1-.19,2.11-.19,4.26v22.09h30.47V15.86c0-1.92-.05-2.97-.24-4.17h5.61Zm-27.79,3.74v5.03h4.65v-5.03h-4.65Zm0,9.34v5.85h4.65v-5.85h-4.65Zm9.54-4.31h4.84v-5.03h-4.84v5.03Zm0,10.16h4.84v-5.85h-4.84v5.85Z"/><path class="cls-1" d="m797.52,29.9c4.41,3.35,7.09,5.99,10.78,10.54l-4.46,4.17c-3.5-4.74-6.23-7.62-10.4-10.92l4.07-3.79Z"/><path class="cls-1" d="m168.93,95.27c-4.22,4.41-9.97,7.86-16.63,10.01-.96-1.77-1.68-2.83-3.11-4.55,6.66-1.58,12.31-4.41,16.34-8.1h-8.29c-.24.81-.38,1.25-.72,2.4l-5.61-.1c1.34-3.16,2.11-5.7,2.73-8.86.38-2.11.67-4.22.72-5.22.86.1,2.2.14,4.55.14h9.82l-.05-3.11h-10.73c-1.87,0-3.11.05-4.41.19v-4.65c-.53.53-.77.72-1.44,1.34-.96-1.58-1.96-2.83-3.11-3.88,4.07-3.11,6.42-6.13,7.52-9.73l5.13.96c-.67,1.25-.86,1.63-1.44,2.59h6.13c2.3,0,3.55-.05,4.7-.29v3.88c1.87-2.16,3.02-4.31,3.88-7.14l5.08.91c-.38,1.01-.43,1.1-1.2,2.68h9.1c2.59,0,3.69-.05,5.27-.29v4.94c-1.49-.19-2.88-.24-5.03-.24h-3.74c.91,1.34,1.34,2.06,2.11,3.31l-3.93,1.15h2.3c2.35,0,3.21-.05,4.46-.19-.14.96-.19,1.72-.19,3.45v4.94c0,1.72.05,2.49.19,3.5-1.2-.1-2.54-.14-4.46-.14h-11.07l.05,3.21h13.66c1.82,0,2.97-.05,4.12-.19-.1.67-.14.96-.19,1.49-.14,1.82-.34,3.35-.43,4.55-.48,4.65-.81,5.89-1.77,7-.91,1.05-2.35,1.44-5.61,1.44-1.44,0-2.4-.05-4.46-.19-.29-1.92-.58-3.02-1.2-4.7,1.82.24,4.12.48,5.17.48,2.64,0,2.78-.24,3.11-5.61h-12.36l.1,8c.05,2.54.14,3.83.38,5.32h-5.65c.24-1.39.29-2.25.29-4.12v-1.25l-.1-5.32Zm-6.8-21.66c-.58-1.58-1.2-2.83-2.16-4.5h-2.64c-1.25,1.72-2.16,2.78-3.74,4.31,1.1.14,2.16.19,4.36.19h4.17Zm6.66,11.55h-9.82c-.19,1.2-.24,1.49-.62,3.21h10.49l-.05-3.21Zm2.73-11.55c-.72-.96-1.72-1.87-3.07-2.87.81-.67,1.05-.91,1.72-1.53-.77-.05-1.68-.1-2.68-.1h-2.64c.58.91.86,1.39,1.92,3.26l-3.98,1.25h8.72Zm10.16,0c-.53-1.25-1.44-2.87-2.44-4.46h-2.92c-1.25,1.82-2.35,3.07-3.88,4.46h9.25Zm-7.91,7.38h10.4v-3.11h-10.45l.05,3.11Z"/><path class="cls-1" d="m241.71,85.97c-2.2-.24-4.41-.34-7.28-.34h-28.37c-2.68,0-5.17.14-7.33.34v-6.32c2.06.24,4.22.34,7.33.34h28.37c3.21,0,5.41-.1,7.28-.34v6.32Z"/><path class="cls-1" d="m259.48,84.39c1.87,0,2.68-.05,3.69-.14q-.05.72-.19,2.11c0,.14-.05,1.01-.1,2.3-.29,5.94-.96,10.64-1.92,12.94-1.1,2.68-2.78,3.5-7.19,3.5-.58,0-.86,0-3.69-.19-.05-2.2-.24-3.4-.96-5.27,1.68.24,3.78.43,4.74.43,2.01,0,2.44-.38,3.07-2.73.43-1.77.72-4.22.91-8.39h-5.17c-1.58,0-2.4.05-3.55.1.86-5.08,1.29-10.35,1.29-15.19,1.15.14,1.68.19,3.59.19h4.26v-5.85h-4.84c-1.77,0-3.02.1-4.17.24v-5.13c1.29.19,2.49.24,4.6.24h5.61c2.16,0,2.88-.05,3.88-.14-.1,1.1-.14,2.16-.14,3.64v7.24q0,2.92.14,4.36c-1.1-.1-1.63-.1-3.26-.1h-4.79c-.1,1.63-.24,3.59-.48,5.85h4.65Zm10.16,5.75c-1.87,0-3.26.05-4.5.19.1-1.1.14-2.01.14-4.17v-11.26c0-2.2-.05-3.21-.14-4.22.77.1,1.34.14,2.73.19-.91-2.92-1.53-4.26-3.35-7.38l4.6-1.63c1.63,2.92,2.54,4.84,3.45,7.38l-4.5,1.63h13.94c1.96-3.4,3.11-5.99,4.17-9.54l4.98,1.68c-1.87,4.22-2.44,5.46-3.88,7.86,1.77,0,2.54-.05,3.59-.19-.14,1.25-.19,2.64-.19,4.41v10.83c0,1.72.05,3.21.19,4.41-1.2-.14-2.44-.19-4.41-.19h-6.23v2.97h7.09c2.88,0,4.26-.05,5.61-.24v5.03c-1.82-.19-3.64-.29-5.65-.29h-7.04v3.02c0,2.73.05,3.88.29,5.37h-5.56c.24-1.49.29-2.68.29-5.41v-2.97h-5.94c-2.2,0-4.22.1-5.8.29v-5.03c1.25.14,3.02.24,5.7.24h6.04v-2.97h-5.61Zm.38-15.09v3.31h5.22v-3.31h-5.22Zm0,7.33v3.55h5.22v-3.55h-5.22Zm6.71-12.22c-.77-2.78-1.58-4.84-3.11-7.71l4.55-1.39c1.44,2.78,2.3,4.89,3.11,7.62l-4.55,1.49Zm3.5,8.19h5.65v-3.31h-5.65v3.31Zm0,7.57h5.65v-3.55h-5.65v3.55Z"/><path class="cls-1" d="m318.11,90.67c-2.73,6.18-5.8,9.01-9.73,9.01-5.46,0-9.39-5.56-9.39-13.27,0-5.27,1.87-10.21,5.27-13.94,4.02-4.41,9.68-6.71,16.48-6.71,11.5,0,18.97,7,18.97,17.78,0,8.29-4.31,14.9-11.64,17.87-2.3.96-4.17,1.44-7.52,2.01-.81-2.54-1.39-3.59-2.92-5.61,4.41-.58,7.28-1.34,9.54-2.64,4.17-2.3,6.66-6.85,6.66-11.98,0-4.6-2.06-8.34-5.89-10.64-1.49-.86-2.73-1.25-4.84-1.44-.91,7.52-2.59,14.13-4.98,19.55Zm-7.04-17.15c-4.02,2.87-6.52,7.81-6.52,12.94,0,3.93,1.68,7.04,3.78,7.04,1.58,0,3.21-2.01,4.94-6.13,1.82-4.31,3.4-10.78,3.98-16.2-2.49.29-4.22.96-6.18,2.35Z"/><path class="cls-1" d="m350.49,70.49c-2.44,0-4.02.05-5.8.29v-5.27c1.68.24,3.45.34,6.13.34h12.65c-.05-1.96-.1-2.78-.34-4.31h5.85c-.24,1.49-.29,2.49-.29,4.31h13.08c2.97,0,4.79-.1,6.28-.34v5.27c-1.58-.19-3.59-.29-5.94-.29h-13.42v2.68h10.01c2.92,0,3.83-.05,5.32-.19-.14,1.44-.19,3.02-.19,4.84v8.86q0,2.68.19,4.89c-1.39-.19-2.73-.24-5.37-.24h-5.75c4.26,4.02,9.34,6.52,16.63,8.19-1.25,1.92-1.68,2.78-2.73,5.08-3.88-1.29-6.76-2.59-9.82-4.36-3.55-2.11-5.8-3.93-8.39-6.9.05,1.58.1,2.49.1,3.31v3.45c0,2.44.05,3.83.34,5.46h-5.89c.24-1.87.34-3.26.34-5.46v-3.45c0-.58.05-2.35.1-3.26-2.44,3.02-5.37,5.41-9.15,7.57-2.3,1.34-5.32,2.68-8.19,3.69-1.05-2.4-1.49-3.21-2.68-4.84,3.59-1.01,6.08-1.96,9.01-3.55,2.92-1.58,5.22-3.26,6.85-4.94h-5.17c-2.97,0-3.93.05-5.41.24q0-.48.14-1.39,0-.19.05-3.5v-8.82c0-2.49-.05-3.26-.19-4.94,1.29.19,2.44.24,5.22.24h9.44v-2.68h-12.99Zm3.59,6.8v2.92h9.39v-2.92h-9.39Zm0,6.9v3.02h9.39v-3.02h-9.39Zm14.61-3.98h10.06v-2.92h-10.06v2.92Zm0,7h10.06v-3.02h-10.06v3.02Z"/><path class="cls-1" d="m407.27,73.75c3.11,2.2,3.21,2.25,5.99,4.79,3.35-2.73,5.08-4.5,8.19-8.29h-12.6c-3.74,4.02-7.62,7-12.94,9.97-.81-1.63-1.63-2.59-3.26-4.03,7.86-3.83,14.18-9.58,17.01-15.48l5.65,1.39c-1.25,1.82-1.68,2.4-2.49,3.5h9.82c1.82,0,2.97-.05,4.22-.24l2.83,3.02c-.58.72-.62.77-1.72,2.2-4.17,5.46-8.77,9.87-14.42,13.85h15.52c1.92,0,2.88-.05,4.02-.19-.19,1.29-.24,2.54-.24,4.41v12.31c0,1.92.1,3.5.29,4.74h-5.46v-2.59h-18.3v2.59h-5.56c.19-1.44.29-3.02.29-4.74v-10.4c-2.92,1.63-4.79,2.49-9.1,4.31-.81-2.06-1.49-3.07-3.07-4.79,4.12-1.34,8.05-3.02,11.5-4.89,1.53-.86,3.11-1.87,5.7-3.59-2.01-2.11-3.35-3.26-5.85-5.03l3.98-2.83Zm2.06,24.82h18.4v-9.44h-18.4v9.44Z"/><path class="cls-1" d="m442.07,67.38c0-1.73-.05-3.31-.14-4.6.91.1,1.77.14,3.11.14h8.19c1.58,0,2.35-.05,3.21-.19l2.49,3.59q-.24.43-.48,1.01s-.05.19-.14.38c-.05.1-.14.48-.34,1.01-1.01,2.73-2.06,5.03-4.17,9.2,2.44,3.79,3.5,6.71,3.5,9.77,0,4.7-2.25,6.71-7.52,6.71h-.96c-.05-2.44-.29-3.55-1.01-4.89,1.68.14,1.96.14,2.35.14.91,0,1.53-.1,1.77-.24.43-.29.67-.96.67-1.82,0-1.1-.29-2.44-.77-3.79-.77-2.01-1.53-3.21-3.59-5.46,2.16-3.5,3.16-5.85,4.74-10.83h-5.89v33.16c0,1.92.05,3.35.24,4.94h-5.56c.19-1.34.29-3.07.29-5.51v-32.73Zm40.82,9.49c-.38.96-.38,1.05-1.44,4.94-1.25,4.5-2.97,8.48-5.22,11.93,2.54,2.83,5.03,4.6,9.2,6.66-1.2,1.53-1.82,2.73-2.64,5.22-4.6-2.78-7.14-4.84-9.68-7.76-3.11,3.4-5.75,5.37-10.83,8-1.01-1.77-2.11-3.11-3.4-4.22,4.94-2.2,8.1-4.41,11.16-7.91-2.73-4.46-3.83-7.76-4.89-14.71h-.72c-.34,7.43-1.05,11.45-2.73,15.91-1.63,4.22-3.5,7-7.19,10.88-1.68-1.96-2.35-2.59-4.12-3.69,3.83-3.4,5.7-6.13,7.19-10.4.91-2.73,1.44-6.13,1.72-11.98.19-3.59.34-7.81.34-10.68,0-2.54-.05-4.36-.19-5.85,1.68.14,3.55.24,5.65.24h13.46c2.3,0,3.88-.1,5.37-.29v5.32c-1.63-.19-2.87-.24-5.22-.24h-14.09v6.13h11.88c1.92,0,3.02-.05,3.88-.24l2.49,2.73Zm-13.18,2.16c.81,4.65,1.77,7.62,3.4,10.45,1.82-3.16,2.64-5.37,3.88-10.45h-7.28Z"/><path class="cls-1" d="m496.65,67.38c2.49,4.41,4.02,8.1,5.8,14.09l-5.89,1.82c-1.34-5.37-3.21-10.3-5.46-14.28l5.56-1.63Zm34.07.24c-.43,1.05-.53,1.39-1.2,4.65-3.4,15.38-11.02,25.01-25.39,32.01-1.29-2.3-1.92-3.16-4.22-5.37,5.32-1.96,9.58-4.6,13.46-8.34,3.88-3.64,6.42-7.67,8.39-13.18,1.49-4.12,2.3-8.05,2.4-11.26l6.56,1.49Zm-21.56-2.54c2.3,3.93,4.12,8.19,5.75,13.56l-5.85,1.87c-1.39-5.32-2.83-9.01-5.37-13.9l5.46-1.53Z"/><path class="cls-1" d="m559.43,74.85c-.14.91-.14.96-.19,3.88-.19,8.19-1.49,12.79-4.74,16.96-2.87,3.69-6.37,6.13-12.36,8.63-1.25-2.59-1.87-3.45-3.79-5.46,3.88-1.15,6.04-2.2,8.39-4.07,4.89-3.88,6.42-8,6.42-17.06,0-1.44-.05-1.87-.24-2.87h6.52Zm19.45-6.04c-.67.81-.67.86-1.92,3.35-1.68,3.55-4.46,7.14-7.38,9.63-1.92,1.68-3.5,2.73-5.75,3.98-1.44-2.01-2.16-2.73-4.31-4.36,3.21-1.44,5.03-2.54,7-4.41,1.96-1.82,3.45-3.79,4.55-6.09h-25.16c-3.35,0-4.55.05-6.52.29v-5.99c1.82.29,3.31.38,6.61.38h25.01c2.88,0,3.31-.05,4.65-.43l3.21,3.64Z"/><path class="cls-1" d="m582.42,80.13c2.11.29,3.02.34,7.76.34h25.54c4.74,0,5.65-.05,7.76-.34v6.66c-1.92-.24-2.44-.24-7.81-.24h-25.44c-5.37,0-5.89,0-7.81.24v-6.66Z"/><path class="cls-1" d="m640.52,92.2c.05-1.01.1-1.49.1-2.06q0-.53-.14-3.4l-.67-16.29c-.1-2.11-.24-4.5-.43-5.85h7.86c-.14,1.29-.34,3.79-.43,5.85l-.67,16.29q-.1,2.78-.1,3.45c0,.58,0,1.05.1,2.01h-5.61Zm-.67,10.49v-6.56h6.95v6.56h-6.95Z"/><path class="cls-1" d="m78.47,149.25c-3.02,2.54-4.36,4.55-4.36,6.61,0,3.11,3.5,4.46,11.6,4.46,5.7,0,11.98-.86,15.05-2.06l.53,6.56c-.86.05-1.01.05-2.11.19-5.75.86-8.82,1.1-12.94,1.1-5.22,0-9.44-.53-11.98-1.58-4.12-1.63-6.13-4.26-6.13-8s1.87-6.85,6.18-10.45l4.17,3.16Zm-7.28-19.69c3.69.86,7.95,1.2,14.37,1.2,6.08,0,9.49-.24,12.65-.91l.19,5.41c-2.87,1.25-8.77,4.94-12.79,7.91l-4.17-3.31c3.02-1.92,3.55-2.25,4.74-2.92.48-.29.62-.38,1.25-.77.38-.19.43-.19,1.05-.57-2.11.29-4.17.38-7.19.38-2.44,0-6.42-.24-8.77-.57-.58-.05-.91-.1-1.1-.1-.1,0-.34-.05-.67-.05l.43-5.7Zm25.3,10.64c2.11,2.25,3.4,4.07,5.03,7.04l-3.35,1.77c-1.58-2.92-2.92-4.84-5.03-7.14l3.35-1.68Zm7.43,5.8c-1.44-2.64-3.02-4.89-4.89-6.95l3.21-1.68c2.16,2.2,3.5,4.02,4.98,6.76l-3.31,1.87Z"/><path class="cls-1" d="m118.74,150.35c-2.3,0-3.79.1-5.61.29v-5.41c1.63.24,2.92.29,5.56.29h4.12c-1.05-3.11-2.01-5.17-3.69-8l4.5-2.01c1.63,2.78,2.16,3.79,3.98,8.34l-3.79,1.68h7.71v-10.45h-10.83c-2.2,0-3.69.1-5.32.29v-5.37c1.68.24,3.16.34,5.61.34h10.54v-1.34c0-1.49-.1-2.4-.24-3.69h5.75c-.19,1.15-.24,2.11-.24,3.74v1.29h11.4c2.78,0,4.36-.1,5.7-.34v5.37c-1.44-.24-2.92-.29-5.37-.29h-11.74v10.45h3.26c2.16-3.45,3.55-6.28,4.7-9.68l5.03,1.63c-1.2,2.92-2.2,4.89-4.17,8.05h5.03c2.88,0,4.22-.05,5.51-.29v5.41c-1.63-.19-3.31-.29-5.75-.29h-10.54c4.12,5.61,9.34,9.44,17.2,12.65-1.44,1.72-2.2,2.92-3.21,5.03-4.74-2.44-7.67-4.36-10.88-7.24-2.59-2.35-4.22-4.22-6.37-7.38.14,2.59.19,3.55.19,4.55v6.76c0,1.82.1,3.35.34,4.89h-5.94c.24-1.53.34-2.87.34-4.89v-6.71c0-1.49,0-2.4.14-4.46-2.25,3.59-4.5,6.13-7.95,9.01-2.64,2.16-5.13,3.83-8.1,5.37-1.15-2.06-1.82-3.11-3.26-4.79,4.41-1.96,8.1-4.36,11.74-7.71,1.44-1.34,2.59-2.68,4.36-5.08h-9.73Z"/><path class="cls-1" d="m181.49,154.81c-2.01,1.77-3.07,2.49-5.89,4.07-.58-1.05-.81-1.39-1.82-2.54-2.73,1.68-5.08,2.92-9.54,5.03-.05.05-.29.19-.62.38-.1.05-.29.1-.48.24l-1.2-5.61c1.29-.29,3.02-.91,5.41-1.92v-12.7h-1.39c-1.39,0-2.49.05-3.74.24v-5.13c1.1.19,2.2.24,3.79.24h1.34v-5.94c0-2.44-.1-3.88-.29-5.32h5.56c-.24,1.53-.29,2.83-.29,5.37v5.89h.86c1.58,0,2.54-.05,3.4-.19v5.03c-1.15-.14-2.06-.19-3.35-.19h-.91v10.3c1.29-.67,1.68-.91,3.21-1.77v3.31c2.64-1.58,4.31-3.02,5.7-4.84h-1.05c-2.01,0-3.31.1-4.46.24v-4.79c1.1.19,2.35.24,4.5.24h20.94c2.3,0,3.79-.1,4.98-.29v4.79c-1.34-.14-2.88-.19-4.94-.19h-14.66c-.43.77-.67,1.1-1.29,1.96h15.24c2.35,0,3.26-.05,4.65-.14-.1.77-.14,1.39-.19,2.83-.24,6.04-.96,10.88-1.96,13.03-.96,2.2-2.49,2.83-6.71,2.83-1.29,0-2.16-.05-4.03-.14-.19-1.77-.57-3.02-1.29-4.41-2.59,2.25-4.6,3.59-7.91,5.27-1.05-1.58-1.82-2.4-3.45-3.64,4.22-1.82,6.23-3.02,8.72-5.17,1.96-1.68,3.5-3.64,4.98-6.37h-2.88c-2.92,4.46-7.04,7.71-13.27,10.49-.81-1.49-1.53-2.3-3.07-3.64,5.46-2.01,8.62-3.98,11.12-6.85h-3.74Zm1.44-12.36c-1.87,0-3.45.05-4.41.19.14-1.34.19-2.73.19-4.65v-7c0-2.06-.05-2.88-.19-4.36,1.49.19,2.59.24,4.84.24h13.94c2.4,0,3.74-.05,5.13-.24-.14,1.34-.19,2.3-.19,4.74v6.61c0,2.11.05,3.5.19,4.6-1.01-.1-2.44-.14-4.36-.14h-15.14Zm.72-9.34h13.56v-2.01h-13.56v2.01Zm0,5.46h13.56v-1.96h-13.56v1.96Zm14.61,16.24c-1.87,4.07-3.74,6.66-6.71,9.39,1.96.29,3.55.38,4.94.38,1.77,0,2.3-.48,2.73-2.54.34-1.68.57-3.79.81-7.24h-1.77Z"/><path class="cls-1" d="m243.69,139.05q-.19.38-.58,1.39c-.48,1.34-.53,1.39-.67,1.82,1.96.48,3.35,1.15,4.98,2.35,3.07,2.3,4.55,5.27,4.55,9.06,0,5.22-2.83,9.3-8.24,11.98-2.83,1.39-5.56,2.11-9.77,2.54-.53-2.06-.96-2.92-2.54-5.41,3.88-.05,6.32-.58,9.15-1.92,3.83-1.82,5.61-4.17,5.61-7.47,0-3.02-1.96-5.46-5.37-6.61-2.64,5.7-4.89,9.15-8.34,12.75-4.31,4.55-8.58,6.9-12.55,6.9-4.46,0-7.47-3.4-7.47-8.39,0-3.93,1.68-7.71,4.74-10.73,1.92-1.87,3.69-3.07,6.56-4.31,0-1.53.1-3.45.19-5.75-.53,0-3.11-.05-7.76-.19h-.91c-.14,0-.57,0-1.1.05v-5.37c2.16.48,4.98.72,8.96.72h1.05q.05-.96.19-2.88c.05-.62.1-1.82.1-2.73,0-.19,0-.38-.1-.77l5.94.29c-.38,1.29-.57,2.54-.86,5.89,7.67-.43,14.47-1.39,18.16-2.54l.24,5.51c-.67.05-.86.05-1.87.19-5.27.86-13.03,1.58-16.87,1.68-.14,2.06-.19,3.59-.24,4.6,2.59-.53,3.69-.62,6.61-.62.58,0,.96,0,1.82.1.53-1.53.81-2.54.96-3.64l5.41,1.53Zm-23.72,12.7c-1.44,1.87-2.16,3.83-2.16,5.85,0,2.16,1.05,3.5,2.73,3.5,1.34,0,2.64-.58,4.17-1.82-.62-3.11-.86-6.18-.86-10.83-2.11,1.39-2.92,2.11-3.88,3.31Zm9.39,3.98q.19-.29.53-.67c2.25-2.54,4.17-5.61,5.94-9.58-.53-.05-.77-.05-1.25-.05-2.11,0-3.83.24-5.75.86.05,4.41.05,4.89.34,8.24q.05.29.05.62c0,.24,0,.29.05.53l.1.05Z"/><path class="cls-1" d="m270.12,126.49c-.58,1.63-.81,2.88-1.72,9.25-.34,2.01-.53,3.64-.62,4.79h.14q.1-.29.29-1.05c.48-1.68,1.73-4.02,3.02-5.7,2.64-3.26,5.61-4.89,9.1-4.89,3.26,0,6.13,1.53,8.19,4.31,2.4,3.21,3.45,7.09,3.45,12.75,0,9.25-4.31,16.15-12.36,19.69-2.44,1.1-5.8,2.06-9.39,2.68-.96-2.73-1.49-3.78-2.83-5.65,4.79-.53,7.57-1.25,10.49-2.73,5.56-2.83,8.1-7.38,8.1-14.66,0-6.9-2.3-10.73-6.42-10.73-1.82,0-3.5.81-5.17,2.54-3.74,3.88-6.04,9.77-6.04,15.48v1.01l-5.75.1c.05-.29.05-.53.05-.62v-.91c-.05-1.39-.14-4.94-.14-5.89,0-3.88.29-9.2.67-12.51l.72-5.94c.1-.81.14-1.01.14-1.63l6.09.34Z"/><path class="cls-1" d="m318.63,129.37c-.24,1.39-.57,3.35-1.05,5.94q-.14.81-.29,1.44c1.44-.05,2.11-.1,2.97-.1,3.16,0,5.51.86,7.09,2.54,1.63,1.82,2.25,4.12,2.25,8.48,0,8.24-1.39,14.81-3.69,17.44-1.34,1.58-2.78,2.16-5.32,2.16-2.2,0-4.17-.38-7.38-1.44.05-.91.1-1.63.1-2.11,0-1.25-.1-2.2-.48-4.07,2.59,1.15,5.32,1.92,7,1.92,1.39,0,2.16-.91,2.88-3.26.77-2.49,1.25-6.85,1.25-10.92,0-4.41-1.1-5.7-4.79-5.7-1.01,0-1.77.05-2.88.14-2.35,9.82-4.5,15.62-9.77,26.07l-5.56-3.07c3.69-5.03,7.38-13.66,9.63-22.57q-.72.1-2.25.38l-4.36.72c-.77.14-1.29.29-1.96.48l-.58-5.65c2.16-.05,4.65-.29,10.21-1.01.91-5.32,1.25-8.05,1.25-9.68v-.86l6.23.62c-.14.38-.29,1.01-.38,1.49l-.1.62Zm14.57-1.96c2.11,2.25,3.4,4.07,5.03,7.04l-3.35,1.77c-1.58-2.92-2.92-4.84-5.03-7.14l3.35-1.68Zm4.46,9.49c3.31,4.55,5.8,9.73,7.19,15.24l-5.46,2.73c-.96-5.03-3.93-12.07-6.56-15.57l4.84-2.4Zm2.97-3.69c-1.44-2.64-3.02-4.89-4.89-6.95l3.21-1.68c2.16,2.2,3.5,4.02,4.98,6.76l-3.31,1.87Z"/><path class="cls-1" d="m366.07,126.25c.19,3.21,1.63,10.11,3.16,15q3.11-1.15,12.41-4.22c.86-.29,1.1-.38,1.82-.72l2.06,6.04c-4.17.81-10.45,2.64-15.81,4.6-7,2.59-10.49,5.65-10.49,9.1s3.26,4.98,10.97,4.98c5.99,0,11.88-.72,15.48-1.96l.53,6.56c-1.05,0-1.29.05-3.88.34-5.17.53-7.86.72-11.21.72-6.66,0-10.83-.81-13.9-2.64-2.64-1.58-4.17-4.55-4.17-8,0-3.21,1.53-6.28,4.26-8.58,1.87-1.58,3.4-2.54,6.52-4.12-1.2-3.88-2.01-7.09-3.21-12.98-.48-2.3-.53-2.4-.77-3.11l6.23-1.01Z"/><path class="cls-1" d="m396.43,141.78q1.25-.05,5.56-.81c6.8-1.2,10.97-1.63,15.05-1.63s6.85.62,9.06,1.96c2.97,1.77,4.65,4.98,4.65,8.77,0,5.46-3.31,10.45-9.1,13.75-3.93,2.25-7.28,3.26-15.09,4.5-.48-2.54-1.01-3.74-2.49-5.99,5.56-.24,10.73-1.58,14.42-3.64,3.78-2.11,5.85-5.13,5.85-8.43,0-3.59-2.54-5.41-7.52-5.41-5.41,0-15,1.68-18.97,3.31l-1.39-6.37Zm7.47-15.29c5.32,1.77,12.41,2.78,19.98,2.78h1.34l-.81,5.89c-8.72-.38-15.33-1.25-22.38-3.02l1.87-5.65Z"/><path class="cls-1" d="m451.51,149.25c-3.02,2.54-4.36,4.55-4.36,6.61,0,3.11,3.5,4.46,11.6,4.46,5.7,0,11.98-.86,15.05-2.06l.53,6.56c-.86.05-1.01.05-2.11.19-5.75.86-8.82,1.1-12.94,1.1-5.22,0-9.44-.53-11.98-1.58-4.12-1.63-6.13-4.26-6.13-8s1.87-6.85,6.18-10.45l4.17,3.16Zm-7.28-19.69c3.69.86,7.95,1.2,14.37,1.2,6.08,0,9.49-.24,12.65-.91l.19,5.41c-2.88,1.25-8.77,4.94-12.79,7.91l-4.17-3.31c3.02-1.92,3.55-2.25,4.74-2.92.48-.29.62-.38,1.25-.77.38-.19.43-.19,1.05-.57-2.11.29-4.17.38-7.19.38-2.44,0-6.42-.24-8.77-.57-.58-.05-.91-.1-1.1-.1-.1,0-.34-.05-.67-.05l.43-5.7Zm25.3,10.64c2.11,2.25,3.4,4.07,5.03,7.04l-3.35,1.77c-1.58-2.92-2.92-4.84-5.03-7.14l3.35-1.68Zm7.43,5.8c-1.44-2.64-3.02-4.89-4.89-6.95l3.21-1.68c2.16,2.2,3.5,4.02,4.98,6.76l-3.31,1.87Z"/><path class="cls-1" d="m507.99,127.59c.24,1.44.72,2.88,2.64,7.67,5.27-.96,5.75-1.05,8.48-1.87-1.01-1.72-2.3-3.45-3.88-5.13l3.35-1.68c2.11,2.25,3.4,4.07,5.03,7.04l-1.96,1.05.48,3.64-.86.14c-.53.1-.91.14-1.1.19,0,0-.57.14-1.15.24-1.34.29-3.45.77-6.42,1.34.38.67.62,1.2.67,1.29l.58,1.1c1.72,3.35,4.22,7.28,7.14,11.26l-5.56,2.54c-1.2-1.1-1.96-1.58-3.31-2.06-2.16-.72-4.7-1.1-7.57-1.1-6.52,0-10.35,1.96-10.35,5.32,0,3.11,3.55,4.84,10.06,4.84,5.08,0,10.68-1.25,14.42-3.16l.77,6.13c-.81.24-4.7,1.29-5.32,1.44-2.88.72-6.61,1.1-10.06,1.1-5.94,0-10.73-1.34-13.13-3.64-1.82-1.72-2.83-4.07-2.83-6.47,0-2.73,1.25-5.27,3.45-7.14,2.78-2.3,6.76-3.4,12.22-3.4,3.16,0,5.89.48,8.29,1.39-1.77-2.35-2.59-3.74-5.17-8.72-5.27.72-8.29.91-17.01,1.2q-1.34.05-2.11.14l-.43-5.75c1.44.19,2.68.24,4.65.24,3.59,0,9.97-.43,12.94-.86-.14-.43-1.39-3.55-1.53-3.83l-.81-1.87-.53-1.44s-.14-.19-.24-.43l6.18-.77Zm18.16,5.03c-1.44-2.64-3.02-4.89-4.89-6.95l3.21-1.68c2.2,2.2,3.5,4.02,4.98,6.76l-3.31,1.87Z"/><path class="cls-1" d="m542.74,130.42c-.24,1.77-.38,4.12-.38,7.28,0,4.17.38,9.92.91,12.84.81,4.98,2.35,8.05,3.88,8.05.72,0,1.39-.72,1.96-2.06,1.15-2.59,2.01-5.46,2.54-8.67,1.68,1.92,2.44,2.64,4.79,4.36-2.49,9.34-5.27,13.22-9.34,13.22-3.21,0-5.8-2.35-7.71-6.95-1.96-4.79-2.83-11.74-3.02-25.01-.05-1.68-.05-2.01-.19-3.07h6.56Zm22.66,2.16c6.04,7.24,9.39,15.24,10.78,25.78l-5.94,2.25c-.29-4.5-1.39-9.49-3.07-13.85-1.63-4.36-3.93-8.24-6.8-11.79l5.03-2.4Z"/><path class="cls-1" d="m617.86,166.17c-2.11-2.35-5.41-4.79-8.86-6.56-1.05-.57-1.44-.72-2.59-1.2v.53c0,3.02-.86,5.08-2.68,6.47-1.82,1.39-4.41,2.06-7.91,2.06-7,0-11.02-2.73-11.02-7.47,0-5.22,4.74-8.29,12.79-8.29,1.15,0,1.96.05,3.21.19q0-.58-.05-1.15v-1.05q-.05-.67-.1-2.59c-2.3.05-3.78.1-4.79.1-2.92,0-4.7-.05-8.67-.34-.62-.05-1.1-.05-1.82-.05l.1-5.17c2.06.48,6.61.81,11.16.81.96,0,2.59-.05,3.93-.1,0-.43,0-2.06-.05-4.79-1.53.05-2.3.05-3.02.05-2.35,0-8.53-.24-11.74-.48-.53-.05-.91-.05-1.05-.05h-.77l.05-5.32c2.44.62,7.38,1.01,12.89,1.01.77,0,2.4-.05,3.59-.1-.05-4.79-.05-4.84-.24-6.04h6.08c-.24,1.29-.29,1.92-.34,5.85,6.52-.38,10.69-.91,13.8-1.82l.24,5.32q-1.05.05-3.79.43c-4.22.58-6.09.72-10.3.96.05,1.2.05,1.77.1,4.74q2.4-.14,6.8-.62c3.02-.38,3.79-.48,5.94-1.05l.14,5.27c-.81.05-2.01.19-3.11.34-.72.1-2.88.34-6.47.67-.67.05-1.39.1-3.26.19q.14,4.65.19,5.8c4.22,1.25,7.95,3.11,13.13,6.76.81.53,1.05.72,1.72,1.1l-3.26,5.61Zm-20.94-9.73c-3.88,0-6.23,1.25-6.23,3.31,0,1.77,2.06,2.88,5.46,2.88,2.01,0,3.5-.58,4.17-1.53.38-.62.58-1.63.58-3.07v-1.15c-1.58-.34-2.54-.43-3.98-.43Z"/><path class="cls-1" d="m638.58,127.45c-.29,1.39-.38,2.78-.58,6.47-.19,4.46-.48,14.18-.48,17.58,0,4.55.29,6.28,1.25,7.71,1.1,1.58,3.4,2.49,6.42,2.49,5.17,0,9.34-2.92,11.6-8.19,1.05-2.49,1.68-4.74,2.2-8.05,2.59,2.11,3.45,2.64,5.8,3.69-1.92,6.47-3.35,9.58-5.7,12.22-3.59,4.07-8.34,6.08-14.37,6.08-3.31,0-6.37-.77-8.39-2.11-3.31-2.2-4.7-5.89-4.7-12.31,0-2.49.1-7.28.38-19.31.05-1.44.05-2.44.05-3.11,0-1.34-.05-2.01-.19-3.26l6.71.1Z"/><path class="cls-1" d="m670.89,133.82c1.72.29,3.64.43,6.42.43.57,0,1.1,0,2.2-.05.43-2.3.91-5.99.91-7.33,0-.19,0-.48-.05-.86l6.32.58q-.34,1.1-.91,4.6c-.24,1.34-.29,1.63-.48,2.73,3.55-.34,5.8-.72,8.19-1.44l.24,5.51q-.38.05-1.53.24c-2.44.48-6.28.96-7.86,1.01-.53,2.97-1.73,8.05-2.97,12.41-1.39,4.98-2.2,7.38-5.37,15.86l-6.04-2.35c3.31-6.09,7-17.25,8.58-25.78-.34.05-.53.05-.62.05h-2.78c-.24,0-.72,0-1.53-.05-.86-.05-1.53-.05-1.92-.05-.24,0-.48,0-.91.05l.1-5.56Zm23.77,18.59c-1.92,2.4-2.49,3.59-2.49,5.27,0,2.44,2.4,3.69,7.19,3.69,3.5,0,8.1-.77,10.88-1.77l.43,5.89c-.86.1-1.25.14-2.35.34-3.98.58-6.09.77-8.91.77-4.26,0-7.33-.62-9.63-1.92-2.06-1.2-3.4-3.5-3.4-5.89,0-2.54.91-4.7,3.55-8.29l4.74,1.92Zm14.23-6.28c-2.3-.24-3.64-.34-6.04-.34-4.74,0-7.91.34-12.65,1.39l-.43-5.27c6.8-1.29,9.1-1.53,14.28-1.53,1.29,0,1.72,0,4.74.05l.1,5.7Z"/><path class="cls-1" d="m726.76,156.01c.05-1.01.1-1.49.1-2.06q0-.53-.14-3.4l-.67-16.29c-.1-2.11-.24-4.5-.43-5.85h7.86c-.14,1.29-.34,3.78-.43,5.85l-.67,16.29q-.1,2.78-.1,3.45c0,.57,0,1.05.1,2.01h-5.61Zm-.67,10.49v-6.56h6.95v6.56h-6.95Z"/></g></svg>