<?xml version="1.0" encoding="UTF-8"?><svg id="_レイヤー_2" xmlns="http://www.w3.org/2000/svg" viewBox="0 0 968 112.36"><defs><style>.cls-1{fill:red;}</style></defs><g id="contents_1"><g><path class="cls-1" d="m5.23,20.98c-2.02,0-3.12.05-4.37.19v-5.14c1.2.19,2.21.24,4.46.24h1.15c-.67-2.69-1.15-3.94-2.11-5.66l4.22-1.06h-2.26c-2.11,0-3.22.05-4.51.19v-5.14c1.2.19,2.3.24,4.61.24h3.65v-.72c0-1.63-.05-2.3-.24-3.5h5.81c-.19,1.15-.24,1.78-.24,3.5v.72h3.26c2.26,0,3.22-.05,4.46-.24v5.14c-1.3-.14-2.45-.19-4.51-.19h-1.97l4.08,1.15q-.29.62-.72,1.68-.29.48-.82,1.78c-.34.82-.53,1.15-1.06,2.11h.96c2.16,0,3.17-.05,4.42-.24v5.14c-1.34-.14-2.35-.19-4.42-.19h-3.89v3.41h3.7c2.06,0,3.12-.05,4.37-.24v5.04c-1.25-.14-2.35-.19-4.37-.19h-1.78c1.44,1.68,2.64,2.69,4.94,4.22-1.06,1.78-1.58,2.78-2.3,4.56-2.4-2.16-3.17-2.98-4.7-5.18q.05.62.1,1.87c0,.14.05,1.63.05,1.87v4.8c0,1.68.1,2.83.29,3.98h-5.52c.14-1.1.24-2.26.24-3.79v-4.8c0-.91.05-2.16.14-3.26-1.97,3.7-4.18,6.19-7.92,8.88-.67-1.97-1.34-3.31-2.45-4.9,3.65-2.26,6.34-4.9,8.4-8.26h-3.12c-2.06,0-3.07.05-4.37.24v-5.09c1.25.19,2.21.24,4.46.24h4.85v-3.41h-4.99Zm3.7-11.43c1.06,2.06,1.44,3.07,2.06,5.57l-4.27,1.15h6.58c1.34-2.5,1.97-4.03,2.69-6.72h-7.06Zm32.07,5.81c2.11,0,3.31-.1,4.37-.29v5.33c-1.2-.14-1.97-.19-3.84-.19h-1.2v19.35c0,2.88.05,4.22.29,5.66h-5.62c.24-1.49.29-2.88.29-5.66v-19.35h-5.14c-.05,6.1-.62,11.14-1.78,15.51-.96,3.74-2.45,7.1-4.27,9.65-1.92-1.58-2.74-2.11-4.75-3.17,4.56-5.57,5.76-11.86,5.76-30.05,0-4.03-.05-5.57-.29-7.49,5.42-.14,13.73-2.26,16.18-4.08l3.94,4.66c-.53.14-.72.24-1.58.53-3.84,1.44-6.86,2.16-13.15,3.26v6.34h10.8Z"/><path class="cls-1" d="m75.17,9.12v-3.02c0-1.97-.05-3.31-.29-4.9h5.57c-.19,1.54-.29,2.98-.29,4.94v2.98h7.39c1.97,0,3.26-.05,4.9-.24-.14,1.58-.19,2.93-.19,4.56v26.64c0,1.87.1,3.31.29,4.9h-5.62v-2.21h-29.57v2.21h-5.57c.19-1.58.29-3.22.29-4.94V13.44c0-1.63-.05-2.88-.24-4.56,1.63.19,2.93.24,4.94.24h6.96v-3.02c0-1.87-.1-3.22-.34-4.9h5.62c-.19,1.54-.29,2.88-.29,4.94v2.98h6.43Zm-17.81,4.85v9.07h6.38v-9.07h-6.38Zm0,13.87v10.03h6.38v-10.03h-6.38Zm17.81-4.8v-9.07h-6.43v9.07h6.43Zm0,14.83v-10.03h-6.43v10.03h6.43Zm11.76-14.83v-9.07h-6.77v9.07h6.77Zm0,14.83v-10.03h-6.77v10.03h6.77Z"/><path class="cls-1" d="m107.37,25.83V.43h14.35v5.23h-8.64v20.16h-5.71Z"/><path class="cls-1" d="m139.92,40.08c0,2.11.1,3.55.29,5.04h-5.57c.19-1.63.29-3.07.29-5.04v-11.95c-1.82,1.73-2.83,2.5-5.28,4.18-.62-1.92-1.25-3.17-2.45-4.85,2.88-1.82,4.94-3.46,7.3-5.81,2.64-2.74,4.22-5.09,5.86-8.54h-7.82c-1.63,0-2.69.05-4.08.19v-5.04c1.1.14,2.16.19,3.79.19h2.64v-4.13c0-1.3-.1-2.5-.29-3.65h5.62c-.19,1.15-.29,2.26-.29,3.74v4.03h1.82c1.44,0,2.21-.05,2.74-.14l2.35,2.54c-.38.67-.72,1.34-1.1,2.21-1.39,3.17-2.35,4.85-4.46,7.87,1.73,1.92,3.74,3.6,6.77,5.52-1.15,1.39-1.73,2.4-2.64,4.37-2.35-1.78-3.65-2.93-5.47-4.9v14.16Zm14.21-19.44c-.14,5.71-.53,9.7-1.44,13.2-.62,2.54-1.63,5.09-2.98,7.44-.82,1.44-1.44,2.3-3.07,4.13-1.49-1.78-2.59-2.83-4.22-3.94,2.3-2.35,3.22-3.74,4.32-6.53,1.82-4.46,2.45-10.27,2.45-22.71,0-3.02-.05-4.56-.29-6.48,5.47-.38,9.55-1.1,13.83-2.5,2.45-.77,3.6-1.3,4.99-2.3l3.6,4.56c-6.38,2.5-10.7,3.55-17.14,4.27v6.1h13.11c2.06,0,3.31-.05,4.8-.29v5.28c-1.39-.19-2.59-.24-4.61-.24h-1.44v19.15c0,1.82.1,3.79.34,5.42h-5.81c.19-1.63.29-3.7.29-5.47v-19.11h-6.72Z"/><path class="cls-1" d="m192.52,19.97v25.39h-14.35v-5.23h8.64v-20.16h5.71Z"/><path class="cls-1" d="m230.45,4.8c-.24,1.39-.58,3.36-1.06,5.95q-.14.82-.29,1.44c1.44-.05,2.11-.1,2.98-.1,3.17,0,5.52.86,7.1,2.54,1.63,1.82,2.26,4.13,2.26,8.5,0,8.26-1.39,14.83-3.7,17.47-1.34,1.58-2.78,2.16-5.33,2.16-2.21,0-4.18-.38-7.39-1.44.05-.91.1-1.63.1-2.11,0-1.25-.1-2.21-.48-4.08,2.59,1.15,5.33,1.92,7.01,1.92,1.39,0,2.16-.91,2.88-3.26.77-2.5,1.25-6.86,1.25-10.94,0-4.42-1.1-5.71-4.8-5.71-1.01,0-1.78.05-2.88.14-2.35,9.84-4.51,15.65-9.79,26.11l-5.57-3.07c3.7-5.04,7.39-13.68,9.65-22.61q-.72.1-2.26.38l-4.37.72c-.77.14-1.3.29-1.97.48l-.58-5.66c2.16-.05,4.66-.29,10.23-1.01.91-5.33,1.25-8.06,1.25-9.7v-.86l6.24.62c-.14.38-.29,1.01-.38,1.49l-.1.62Zm14.59-1.97c2.11,2.26,3.41,4.08,5.04,7.06l-3.36,1.78c-1.58-2.93-2.93-4.85-5.04-7.15l3.36-1.68Zm4.46,9.5c3.31,4.56,5.81,9.74,7.2,15.27l-5.47,2.74c-.96-5.04-3.94-12.1-6.58-15.6l4.85-2.4Zm2.98-3.7c-1.44-2.64-3.02-4.9-4.9-6.96l3.22-1.68c2.16,2.21,3.5,4.03,4.99,6.77l-3.31,1.87Z"/><path class="cls-1" d="m283.81,14.11c-.14.91-.14.96-.19,3.89-.19,8.21-1.49,12.82-4.75,16.99-2.88,3.7-6.38,6.14-12.38,8.64-1.25-2.59-1.87-3.46-3.79-5.47,3.89-1.15,6.05-2.21,8.4-4.08,4.9-3.89,6.43-8.02,6.43-17.09,0-1.44-.05-1.87-.24-2.88h6.53Zm19.49-6.05c-.67.82-.67.86-1.92,3.36-1.68,3.55-4.46,7.15-7.39,9.65-1.92,1.68-3.5,2.74-5.76,3.98-1.44-2.02-2.16-2.74-4.32-4.37,3.22-1.44,5.04-2.54,7.01-4.42,1.97-1.82,3.46-3.79,4.56-6.1h-25.2c-3.36,0-4.56.05-6.53.29v-6c1.82.29,3.31.38,6.62.38h25.06c2.88,0,3.31-.05,4.66-.43l3.22,3.65Z"/><path class="cls-1" d="m308.23,31.35c1.82.29,2.88.34,6.14.34h27.55c3.26,0,4.32-.05,6.14-.34v6.43c-1.68-.19-2.93-.24-6.05-.24h-27.75c-3.12,0-4.37.05-6.05.24v-6.43Zm4.85-23.38c1.73.29,2.83.34,5.66.34h18.87c2.83,0,3.94-.05,5.66-.34v6.34c-1.58-.19-2.74-.24-5.62-.24h-18.96c-2.88,0-4.03.05-5.62.24v-6.34Z"/><path class="cls-1" d="m391,4.94c-.53.91-.72,1.3-1.68,3.46-3.02,7.15-4.9,10.8-6.77,13.59,4.03,3.41,6.53,5.76,10.71,10.18l-4.61,4.94c-2.5-3.26-5.38-6.24-9.75-10.13-2.06,2.74-4.56,5.42-7.49,8.02-3.46,3.02-6.53,5.18-11.42,7.92-1.3-2.3-2.06-3.17-4.22-4.99,5.33-2.64,8.64-4.85,12.43-8.3,2.3-2.06,4.22-4.13,6.1-6.53-3.84-3.17-8.45-6.29-12.72-8.64l4.22-4.22c3.5,2.06,5.57,3.41,7.92,5.09q3.6,2.59,3.98,2.83c3.07-5.04,6.14-12,6.77-15.46l6.53,2.26Z"/><path class="cls-1" d="m409.43,25.83V.43h14.35v5.23h-8.64v20.16h-5.71Z"/><path class="cls-1" d="m436.07,28.37c-.24,6.53-.58,9.6-1.68,14.4l-4.42-2.11c.72-2.3.96-3.31,1.3-5.86.43-2.93.53-4.61.53-7.15l4.27.72Zm9.79-1.44c-.24-1.06-.34-1.58-.53-2.26-2.16.29-2.21.29-2.83.34v15.17c0,2.45.05,3.6.29,5.04h-5.18c.19-1.58.29-2.98.29-5.09v-14.69c-1.78.14-3.79.29-4.42.34-1.63.1-1.97.1-2.83.24l-.53-4.85c1.15.05,1.58.1,2.4.1h.91l.48-.05c1.1-1.34,1.58-1.97,2.69-3.46-2.11-2.78-4.22-5.18-6.38-7.3l2.54-4.03q.82.86,1.63,1.73c1.78-2.98,3.12-5.9,3.5-7.82l4.7,1.73c-.29.38-.38.62-.72,1.3-2.11,4.22-3.22,6.24-4.56,8.26.91,1.1,1.15,1.49,1.82,2.35,2.64-4.08,4.08-6.72,4.61-8.26l4.27,2.3c-.38.53-.77,1.1-1.63,2.54-2.02,3.22-4.94,7.44-7.44,10.56,2.45-.14,3.5-.19,5.23-.38-.48-1.44-.67-2.02-1.39-3.6l3.55-1.63c1.34,2.88,1.97,4.61,2.88,7.54,2.83-1.15,5.81-2.83,8.11-4.56-1.49-1.63-2.45-2.88-3.74-4.9-1.1,1.2-1.87,1.92-4.18,3.7-.86-1.73-1.82-2.93-3.12-4.03,2.59-1.68,4.66-3.74,6.62-6.62,1.49-2.11,2.74-4.66,3.02-6.14l5.23,1.58c-.14.14-.67,1.15-1.68,2.98h6c2.16,0,3.12-.05,4.22-.24l2.4,2.83c-.1.24-.77,1.34-2.02,3.41-2.02,3.5-3.22,5.09-5.38,7.34,3.07,2.16,5.81,3.46,10.71,5.04-1.34,1.68-2.02,2.88-2.88,5.09-5.33-2.3-8.3-4.03-11.67-6.67-3.7,2.98-7.06,4.9-11.47,6.67-.38-1.1-.53-1.49-1.3-2.69l-2.26,1.1Zm1.63.72c.96,4.13,1.1,4.99,1.92,11.43l-4.13,1.2c-.19-3.84-.72-7.92-1.49-11.67l3.7-.96Zm22.03,17.67c-5.86-3.02-10.42-4.66-19.01-6.77l2.4-4.75c6.96,1.87,10.85,3.22,18.72,6.53l-2.11,4.99Zm-2.78-9.7c-3.89-2.69-7.68-4.66-12.1-6.38l2.78-4.13c5.09,2.06,8.3,3.65,11.9,5.9l-2.59,4.61Zm-9.79-26.21c-.14.19-.14.29-.29.48,1.68,2.69,2.26,3.41,4.32,5.38,1.82-1.78,2.69-2.93,4.37-5.86h-8.4Z"/><path class="cls-1" d="m516.45,7.25c3.12,0,4.56-.1,5.81-.34v5.52c-1.49-.24-3.02-.29-5.76-.29h-13.15v6.48h10.66c3.07,0,4.61-.1,5.81-.29v5.38c-1.58-.19-3.41-.29-5.81-.29h-8.4c2.35,3.36,3.79,4.94,6.82,7.49,3.55,2.93,7.25,5.28,11.23,7.01-1.34,1.68-2.26,3.12-3.26,5.18-3.89-2.02-6.77-4.03-9.98-6.96-3.17-2.93-4.9-4.99-7.2-8.54.1,2.74.14,3.5.14,4.46v8.02c0,1.87.1,3.6.34,5.14h-6.05c.24-1.58.34-2.98.34-5.14v-7.97c0-1.54,0-2.21.14-4.46-3.94,6.29-8.88,10.9-16.47,15.27-1.1-2.11-1.78-3.17-3.22-4.9,7.68-3.84,13.01-8.35,17.19-14.59h-7.54c-2.26,0-3.94.1-5.71.29v-5.38c1.68.24,2.98.29,5.71.29h9.89v-6.48h-12.15c-2.59,0-4.13.05-5.76.29v-5.52c1.58.24,2.98.34,5.71.34h12.19v-3.12c0-1.44-.05-2.35-.24-3.41h5.86c-.19,1.06-.24,1.73-.24,3.46v3.07h13.11Z"/><path class="cls-1" d="m547.3,29.95c-2.74,6.19-5.81,9.02-9.74,9.02-5.47,0-9.41-5.57-9.41-13.3,0-5.28,1.87-10.22,5.28-13.97,4.03-4.42,9.7-6.72,16.51-6.72,11.52,0,19.01,7.01,19.01,17.81,0,8.3-4.32,14.93-11.67,17.91-2.3.96-4.18,1.44-7.54,2.02-.82-2.54-1.39-3.6-2.93-5.62,4.42-.58,7.3-1.34,9.55-2.64,4.18-2.3,6.67-6.86,6.67-12,0-4.61-2.06-8.35-5.9-10.66-1.49-.86-2.74-1.25-4.85-1.44-.91,7.54-2.59,14.16-4.99,19.59Zm-7.06-17.19c-4.03,2.88-6.53,7.82-6.53,12.96,0,3.94,1.68,7.06,3.79,7.06,1.58,0,3.22-2.02,4.94-6.14,1.82-4.32,3.41-10.8,3.98-16.23-2.5.29-4.22.96-6.19,2.35Z"/><path class="cls-1" d="m614.23,8.02c-.48,1.39-.62,1.87-.82,3.41-1.54,11.23-3.79,16.9-8.78,22.27-3.74,3.98-8.54,7.06-14.88,9.5-1.39-2.59-1.97-3.41-3.94-5.52,4.08-1.2,6.62-2.35,9.74-4.46,6.86-4.66,10.47-11.71,11.43-22.13l-22.85.05v7.15q.05,3.41.19,4.22l-6.43.05c.14-1.15.19-1.97.19-4.13v-9.17c0-2.02,0-2.59-.14-3.89,1.3.14,2.83.24,3.98.24h23.23c3.22,0,4.22-.1,5.9-.53l3.17,2.93Z"/><path class="cls-1" d="m632.49,3.94q-.19,1.34-.48,10.75c-.34,9.36-1.39,14.79-3.89,19.73-1.63,3.31-3.46,5.76-6.62,8.88-1.87-2.4-2.59-3.12-4.85-4.66,2.35-1.92,3.5-3.22,4.94-5.52,3.46-5.52,4.56-11.71,4.56-25.15,0-2.64,0-3.07-.19-4.37l6.53.34Zm12.72-.58c-.24,1.39-.29,2.21-.34,4.56l-.24,27.31c3.36-1.58,5.28-3.02,7.34-5.47,2.21-2.59,3.6-5.23,4.7-8.78,1.68,2.16,2.3,2.78,4.51,4.51-1.97,4.75-4.46,8.35-7.63,11.19-2.74,2.35-5.23,3.79-10.23,5.76-1.06.38-1.44.58-2.06.86l-3.07-3.26c.34-1.39.38-2.45.43-5.09l.24-27.07v-1.44c0-1.2-.05-2.26-.19-3.17l6.53.1Z"/><path class="cls-1" d="m681.61,7.3c-.43-2.35-.62-3.17-1.15-4.51l6.34-1.01c.05,1.25.24,2.64.58,4.51l.77,4.18,10.13-1.58c2.35-.38,3.36-.62,4.61-1.06l1.01,5.76q-1.3.1-4.61.62l-10.13,1.58,1.44,7.87,11.28-1.78c2.02-.34,3.7-.72,4.99-1.1l1.06,5.76c-1.01.05-1.2.05-2.21.24-.29,0-.53.05-.77.1-.34.05-.96.14-1.92.29l-11.42,1.82,1.73,9.31c.58,3.17.62,3.31,1.15,4.94l-6.43,1.15c-.05-1.44-.24-2.78-.62-5.04l-1.73-9.46-11.86,1.87c-2.3.38-3.17.58-4.9,1.06l-.96-5.9c1.63,0,3.02-.14,5.09-.48l11.67-1.87-1.44-7.87-8.93,1.39c-2.21.38-3.98.72-5.28,1.1l-.96-5.9c1.73-.05,3.26-.24,5.28-.53l8.93-1.39-.72-4.08Z"/><path class="cls-1" d="m743.63,36.92c2.21,0,3.12-.05,4.42-.29v5.47c-1.3-.14-2.4-.19-4.42-.19h-24.91c-2.11,0-3.12.05-4.42.19v-5.47c1.34.24,2.21.29,4.42.29h14.16c.82-4.27,1.82-11.04,2.3-15.41h-11.9c-2.3,0-3.02.05-4.27.19v-5.42c1.2.19,2.54.29,4.42.29h12.15c1.68,0,2.4-.1,3.55-.43l2.64,2.3q-.58,1.49-1.1,5.47c-.72,5.28-1.25,8.69-2.06,13.01h5.04Z"/><path class="cls-1" d="m754.58,19.39c2.11.29,3.02.34,7.78.34h25.59c4.75,0,5.66-.05,7.78-.34v6.67c-1.92-.24-2.45-.24-7.82-.24h-25.49c-5.38,0-5.9,0-7.82.24v-6.67Z"/><path class="cls-1" d="m814.08,3.41c-.19,1.3-.24,2.5-.29,4.85l-.24,27.41c4.99-.96,9.5-2.78,13.11-5.28,4.42-3.02,7.39-6.34,9.79-10.99,1.87,2.5,2.5,3.17,4.56,4.9-3.31,5.09-6.38,8.3-10.71,11.18-4.8,3.22-9.7,5.09-17.47,6.58-1.3.24-1.87.43-2.88.82l-3.07-3.7c.34-1.3.43-2.16.43-4.94l.19-25.92q0-3.36-.24-4.94l6.82.05Z"/><path class="cls-1" d="m860.57,3.79c-.29,1.78-.38,3.31-.38,6.19v25.83c0,2.83.1,4.42.38,6.19h-7.2c.29-1.87.38-3.41.38-6.19V9.98c0-2.98-.1-4.22-.38-6.19h7.2Zm14.16,0c-.29,1.78-.38,3.31-.38,6.19v25.83c0,2.83.1,4.42.38,6.19h-7.2c.29-1.87.38-3.41.38-6.19V9.98c0-2.98-.1-4.22-.38-6.19h7.2Z"/><path class="cls-1" d="m906.65,19.97v25.39h-14.35v-5.23h8.64v-20.16h5.71Z"/><path class="cls-1" d="m946.35,29.95c-2.74,6.19-5.81,9.02-9.74,9.02-5.47,0-9.41-5.57-9.41-13.3,0-5.28,1.87-10.22,5.28-13.97,4.03-4.42,9.7-6.72,16.51-6.72,11.52,0,19.01,7.01,19.01,17.81,0,8.3-4.32,14.93-11.67,17.91-2.3.96-4.18,1.44-7.54,2.02-.82-2.54-1.39-3.6-2.93-5.62,4.42-.58,7.3-1.34,9.55-2.64,4.18-2.3,6.67-6.86,6.67-12,0-4.61-2.06-8.35-5.9-10.66-1.49-.86-2.74-1.25-4.85-1.44-.91,7.54-2.59,14.16-4.99,19.59Zm-7.06-17.19c-4.03,2.88-6.53,7.82-6.53,12.96,0,3.94,1.68,7.06,3.79,7.06,1.58,0,3.22-2.02,4.94-6.14,1.82-4.32,3.41-10.8,3.98-16.23-2.5.29-4.22.96-6.19,2.35Z"/><path class="cls-1" d="m214.4,81.93c-3.26,0-4.56.05-5.86.24v-5.52c1.68.24,3.12.29,5.81.29h27.75c2.45,0,4.08-.1,5.81-.29v5.52c-1.63-.19-2.98-.24-5.81-.24h-11.23v8.35h9.27c2.06,0,3.74-.1,5.18-.24v5.42c-1.54-.19-2.69-.24-5.04-.24h-9.41v9.94h12.82c2.54,0,4.32-.1,6.34-.29v5.66c-2.16-.24-3.7-.34-6.19-.34h-30.58c-2.83,0-4.42.1-6.53.34v-5.66c1.68.19,3.6.29,6.34.29h12.19v-9.94h-8.59c-2.45,0-3.84.05-5.42.24v-5.42c1.39.19,2.59.24,5.04.24h8.98v-8.35h-10.85Zm8.83-14.64c4.94,1.63,6.53,2.3,12.43,5.09l-3.6,4.32c-4.85-2.74-8.45-4.32-12.72-5.57l3.89-3.84Z"/><path class="cls-1" d="m266.65,91.67h-5.18c-2.5,0-3.36.05-4.61.24v-4.9c1.3.19,2.26.24,4.61.24h13.35c1.73,0,2.74-.05,3.98-.24v4.85c-1.44-.14-2.26-.19-4.42-.19h-2.98v3.89h2.5c1.54,0,2.69-.05,3.84-.19v4.66c-1.1-.19-2.16-.24-3.89-.24h-2.45v5.38c2.02.58,3.84.86,7.73,1.06-.86-1.1-1.58-1.87-2.64-2.74,3.31-1.25,5.47-2.59,7.39-4.85-1.82,0-2.69.05-3.74.14.1-1.06.14-2.3.14-3.94v-14.02c0-1.58-.05-2.74-.14-4.03,1.1.1,1.92.14,3.98.14h1.92c.48-1.1.86-2.16,1.2-3.17h-3.94c-1.87,0-3.5.1-4.75.24v-4.66c1.39.14,2.98.24,5.18.24h12.1c2.5,0,3.89-.1,5.04-.29v4.66c-1.15-.1-2.98-.19-4.61-.19h-4.18c-.48,1.39-.72,2.02-1.25,3.17h4.13c2.02,0,2.88-.05,4.03-.14-.14,1.15-.19,2.21-.19,4.08v13.35c0,1.82.05,3.22.19,4.56-1.2-.1-2.16-.14-3.94-.14h-.82c2.45,2.11,4.46,3.31,7.34,4.42-.96,1.06-1.49,1.73-2.21,2.88.86-.05,1.39-.1,2.64-.24-.77,1.68-1.1,2.98-1.49,5.33-3.26.14-8.74.24-12.91.24-8.35,0-13.73-.48-16.9-1.44-3.12-.96-5.86-2.83-7.78-5.28-.82,2.93-1.73,5.09-3.07,7.2-1.39-1.58-1.73-1.87-4.08-3.31,1.44-2.02,2.5-4.42,3.17-7.15.38-1.63.72-4.8.72-6.72,0-.43-.05-.77-.1-1.39l4.85.82c-.1.72-.14.82-.14,1.68-.05.96-.14,2.06-.38,3.84.72,1.01,1.44,1.78,2.74,2.98v-10.8Zm-7.3-18.29c0-1.73-.05-2.98-.19-4.18.96.14,2.11.19,4.22.19h9.31c2.4,0,3.22-.05,4.32-.19-.14,1.2-.19,2.06-.19,4.22v8.16c0,2.16.05,2.98.19,4.13-1.34-.14-2.54-.19-4.22-.19h-9.41c-1.73,0-2.88.05-4.22.19.14-1.25.19-2.11.19-4.18v-8.16Zm4.7,2.3h8.06v-2.35h-8.06v2.35Zm0,6.05h8.06v-2.5h-8.06v2.5Zm23.95,19.01c-1.92,2.21-4.51,4.42-6.58,5.57,1.68.05,3.36.1,4.8.1,3.36,0,7.82-.14,10.94-.29-2.45-1.34-4.37-2.78-6.96-5.33l2.93-2.16h-8.4l3.26,2.11Zm-3.12-17.62h9.31v-2.26h-9.31v2.26Zm0,5.76h9.31v-2.21h-9.31v2.21Zm0,5.76h9.31v-2.26h-9.31v2.26Z"/><path class="cls-1" d="m341.01,81.74c-.1.67-.14,1.39-.14,2.45,0,6.67,1.78,12.63,5.09,17.09,1.54,2.11,2.98,3.5,6,5.66-1.54,2.3-1.73,2.69-2.78,5.14-2.78-2.16-4.61-4.18-6.62-7.3-1.97-3.02-2.88-5.23-3.55-8.59-.96,4.56-1.92,7.1-3.84,10.08-1.68,2.54-3.07,4.13-5.38,5.9-.77-1.3-1.1-1.82-1.92-2.78-.53,1.06-1.01,1.44-2.4,1.78-.82.19-2.3.34-3.89.34-.58,0-1.34-.05-2.78-.1-.14-1.92-.34-2.88-1.01-4.75,1.54.24,3.22.38,4.18.38,1.2,0,1.49-.24,1.49-1.1v-12.63h-12.39c-2.16,0-3.31.05-4.61.19v-4.9c1.39.19,2.4.24,4.66.24h15.6c2.3,0,3.74-.1,4.99-.24v4.9c-1.15-.1-1.82-.14-3.5-.19v13.25c2.4-2.16,4.32-4.94,5.52-8.02,1.44-3.74,2.21-8.69,2.21-14.07,0-1.25-.05-1.87-.14-2.74h5.23Zm-4.37-2.69c-1.44,3.79-2.83,6.38-4.94,9.22-1.15-1.68-2.26-2.78-3.55-3.7-.34,1.44-.77,2.16-1.73,2.69-.91.48-2.06.62-4.75.62h-1.68c-.05-.96-.1-1.25-.29-2.02-.38,0-.67-.05-.91-.05h-5.9c-1.73,0-2.78.05-3.79.14.1-1.01.14-2.06.14-3.65v-2.93c0-1.58-.05-2.64-.14-3.65,1.01.1,2.06.14,3.79.14h4.66c1.78,0,2.83-.05,3.84-.14-.14,1.06-.14,1.68-.14,3.22v4.9h1.06c1.1,0,1.34-.19,1.34-.96v-8.93h-12.05c-2.11,0-3.22.05-4.56.24v-4.85c1.3.19,2.83.29,5.18.29h13.44c2.35,0,4.08-.1,5.47-.29v4.8c-.96-.1-1.54-.14-2.88-.19v9.12c0,.38,0,.62-.05,1.06,2.06-2.5,3.6-5.57,4.9-9.89.82-2.78,1.2-4.75,1.2-6.72l5.42.91c-.19.62-.29,1.1-.58,2.26-.1.58-.53,2.21-1.01,3.79h7.1c2.06,0,2.98-.05,3.89-.29l2.21,2.64q-.24.58-.72,2.78c-1.15,4.7-2.3,7.92-3.98,11.18-2.16-1.68-2.59-1.97-4.08-2.74,1.68-2.88,2.64-5.42,3.36-9.02h-9.26Zm-27.89,28.95c.19-1.06.24-2.21.24-3.94v-5.42c0-1.58-.05-2.59-.19-3.65,1.06.1,1.82.14,3.84.14h4.8c2.06,0,2.78-.05,3.79-.14-.05.91-.1,1.68-.1,3.36v4.22c0,1.92,0,2.35.1,3.26-.77-.1-1.49-.14-2.88-.14h-5.33v2.3h-4.27Zm4.27-5.81h4.27v-3.55h-4.27v3.55Zm.1-19.63h4.27v-3.46h-4.27v3.46Z"/><path class="cls-1" d="m387.26,75.52h-16.32v9.78h15.85v5.77h-15.85v13.61h16.32v5.77h-22.46v-40.71h22.46v5.77Z"/><path class="cls-1" d="m397.4,110.45v-40.71h8.54c4.1,0,7.33.4,9.7,1.21,2.55.79,4.86,2.14,6.93,4.03,4.2,3.83,6.3,8.87,6.3,15.11s-2.19,11.32-6.57,15.19c-2.2,1.93-4.5,3.28-6.91,4.03-2.25.76-5.44,1.13-9.57,1.13h-8.44Zm6.14-5.77h2.77c2.76,0,5.05-.29,6.88-.87,1.83-.61,3.48-1.59,4.96-2.93,3.02-2.76,4.54-6.35,4.54-10.78s-1.49-8.09-4.48-10.86c-2.69-2.48-6.65-3.72-11.89-3.72h-2.77v29.16Z"/><path class="cls-1" d="m466.17,88.55c-.24,5.52-1.3,9.5-3.36,12.91-2.54,4.22-6.05,6.86-12.53,9.46-1.2-2.45-1.82-3.26-3.89-5.28,5.76-1.78,9.36-4.32,11.38-8.02,1.25-2.21,1.97-5.33,2.11-9.07h-11.71c-3.26,0-4.37.05-6.1.24v-5.71c1.82.29,2.88.34,6.19.34h28.08c3.26,0,4.37-.05,6.19-.34v5.71c-1.73-.19-2.83-.24-6.1-.24h-10.27Zm-19.25-17.57c1.78.29,2.74.34,6.19.34h18.43c3.46,0,4.42-.05,6.19-.34v5.86c-1.58-.19-2.74-.24-6.1-.24h-18.63c-3.36,0-4.51.05-6.1.24v-5.86Z"/><path class="cls-1" d="m490.84,86.39c2.11.29,3.02.34,7.78.34h25.59c4.75,0,5.66-.05,7.78-.34v6.67c-1.92-.24-2.45-.24-7.82-.24h-25.49c-5.38,0-5.9,0-7.82.24v-6.67Z"/><path class="cls-1" d="m547.07,85.1c2.54,2.11,3.98,3.41,5.95,5.33q2.64,2.69,2.98,2.98c2.5-2.11,4.51-4.03,6.29-6.05,2.06-2.3,4.7-5.9,5.86-7.82q.14-.24.29-.43t.1-.24c-.48.05-1.2.1-2.21.1h-22.9c-3.89.05-4.37.05-6.14.24v-6.1c1.87.29,2.98.34,6.24.34l26.69-.05c2.06,0,2.78-.05,3.98-.38l3.36,3.79c-.72.77-1.01,1.1-2.11,2.83-4.56,7.34-9.6,13.25-15.51,18.19,2.02,2.3,3.84,4.61,6.34,8.02l-5.04,4.03c-2.69-4.32-5.23-7.63-9.26-12.1-3.7-4.08-6.1-6.43-9.6-9.26l4.7-3.41Z"/><path class="cls-1" d="m586.55,109.63c-.05-.86-.1-1.15-.24-2.26-.91-5.81-1.25-9.5-1.25-14.35,0-6.19.58-11.67,1.97-18.77.53-2.69.62-3.17.72-4.46l6.34.67c-1.15,2.83-2.26,8.21-3.02,14.35-.48,3.6-.67,6.43-.72,10.61,0,1.06-.05,1.44-.1,2.64.53-1.68.62-2.02,2.5-6.34l3.84,1.73c-2.64,5.57-4.27,11.14-4.27,14.55,0,.29,0,.67.05,1.3l-5.81.34Zm20.45-18.96c-2.4,2.78-3.41,4.85-3.41,6.91,0,2.74,2.64,4.18,7.63,4.18,4.22,0,8.4-.67,11.43-1.82l.48,6.1c-.67.05-.86.1-1.97.29-3.84.62-6.77.91-9.94.91-5.95,0-9.79-1.34-11.9-4.18-.91-1.2-1.44-2.98-1.44-4.7,0-3.12,1.44-6.34,4.42-9.89l4.7,2.21Zm-7.92-15.89c2.16.58,4.7.77,8.88.77,5.33,0,9.89-.43,13.06-1.3l.29,5.81c-.38.05-1.1.14-3.41.43-3.07.38-6.72.58-10.27.58s-3.55,0-8.64-.53l.1-5.76Z"/><path class="cls-1" d="m632.74,80.01c3.46,1.92,5.18,3.17,8.64,6.05l-3.07,4.46c-3.26-3.02-5.18-4.46-8.64-6.58l3.07-3.94Zm8.5,16.32c-1.82,5.47-3.07,8.5-5.28,12.67-.34.62-1.34,2.4-1.49,2.69l-4.56-3.98c2.69-3.26,4.61-7.15,7.1-14.4l4.22,3.02Zm-6.43-28.18c3.36,1.97,5.23,3.41,8.4,6.38l-3.36,4.32c-3.02-3.17-4.56-4.42-8.4-6.86l3.36-3.84Zm24.91,25.06c2.88,6.24,7.54,10.46,14.69,13.35-1.3,1.68-1.82,2.78-2.83,5.47-7.15-3.7-12.58-9.07-15.03-15.03-2.35,6.82-6.48,11.38-13.97,15.36-.86-1.92-1.68-3.07-3.31-4.85,7.58-3.22,11.52-7.49,13.11-14.31h-4.61c-2.21,0-3.94.1-5.38.29v-5.71c1.44.19,3.26.29,5.33.29h5.38c.24-2.74.34-5.52.38-8.21h-3.98c-1.97,0-3.89.1-5.09.24v-5.42c1.49.14,3.07.24,5.09.24h3.94v-2.59c0-2.21-.1-3.17-.34-4.51h5.86c-.29,1.39-.34,2.26-.34,4.46v2.64h7.34c2.26,0,3.36-.05,4.46-.19-.14.96-.19,2.02-.19,3.84v9.5c1.97-.05,2.02-.05,4.03-.29v5.71c-1.58-.19-3.17-.29-5.33-.29h-9.22Zm5.47-5.14v-8.21h-6.63c-.05,3.84-.14,5.71-.38,8.21h7.01Z"/><path class="cls-1" d="m699.99,86.35h-7.06c-2.11,0-3.46.05-4.85.24v-5.09c1.25.19,2.64.24,4.85.24h18.39c2.26,0,3.65-.05,4.94-.24v5.09c-1.34-.19-2.74-.24-4.94-.24h-6.29v6.14h9.07c2.21,0,3.41-.05,4.7-.29v5.14c-1.44-.19-2.59-.24-4.7-.24h-9.07v8.26c2.35.34,4.99.48,7.82.48s6.05-.14,10.94-.58c-.77,1.97-1.1,3.26-1.34,5.47-3.94.1-6.43.14-10.23.14-11.23,0-17.52-2.45-21.46-8.26-1.54,3.31-3.36,5.95-6.58,9.41-1.25-1.78-1.92-2.4-4.13-3.94,3.94-3.55,6.72-8.16,8.26-13.59.53-1.97.91-4.13.96-5.18l5.33,1.01c-.24.82-.24.86-.67,2.83-.24.96-.53,2.06-1.25,4.32,1.92,3.41,3.89,5.18,7.3,6.67v-17.81Zm-.82-15.41c0-1.2-.1-2.02-.29-3.07h5.9c-.19,1.01-.24,1.78-.24,3.02v1.82h12.96c1.92,0,3.55-.05,5.33-.19-.14,1.1-.19,2.16-.19,3.55v3.74c0,1.39.05,2.5.19,3.74h-5.18v-6h-31.01v6h-5.33c.19-1.15.24-2.11.24-3.79v-3.7c0-1.25-.1-2.45-.19-3.55,1.73.14,3.36.19,5.28.19h12.53v-1.78Z"/><path class="cls-1" d="m739.3,98.49c.05-1.01.1-1.49.1-2.06q0-.53-.14-3.41l-.67-16.32c-.1-2.11-.24-4.51-.43-5.86h7.87c-.14,1.3-.34,3.79-.43,5.86l-.67,16.32q-.1,2.78-.1,3.46c0,.58,0,1.06.1,2.02h-5.62Zm-.67,10.51v-6.58h6.96v6.58h-6.96Z"/></g></g></svg>