<?xml version="1.0" encoding="UTF-8"?><svg id="_レイヤー_2" xmlns="http://www.w3.org/2000/svg" viewBox="0 0 1200 160"><defs><style>.cls-1{fill:red;}</style></defs><g id="contents_1"><g><g><path class="cls-1" d="M5.21,41.6c-2.01,0-3.11,.05-4.35,.19v-5.11c1.19,.19,2.2,.24,4.44,.24h1.15c-.67-2.68-1.15-3.92-2.1-5.64l4.21-1.05h-2.25c-2.1,0-3.2,.05-4.49,.19v-5.11c1.19,.19,2.29,.24,4.59,.24h3.63v-.72c0-1.62-.05-2.29-.24-3.49h5.78c-.19,1.15-.24,1.77-.24,3.49v.72h3.25c2.25,0,3.2-.05,4.44-.24v5.11c-1.29-.14-2.44-.19-4.49-.19h-1.96l4.06,1.15q-.29,.62-.72,1.67-.29,.48-.81,1.77c-.33,.81-.53,1.15-1.05,2.1h.96c2.15,0,3.15-.05,4.4-.24v5.11c-1.34-.14-2.34-.19-4.4-.19h-3.87v3.39h3.68c2.05,0,3.11-.05,4.35-.24v5.02c-1.24-.14-2.34-.19-4.35-.19h-1.77c1.43,1.67,2.63,2.68,4.92,4.21-1.05,1.77-1.58,2.77-2.29,4.54-2.39-2.15-3.15-2.96-4.68-5.16q.05,.62,.1,1.86c0,.14,.05,1.62,.05,1.86v4.78c0,1.67,.1,2.82,.29,3.97h-5.5c.14-1.1,.24-2.25,.24-3.78v-4.78c0-.91,.05-2.15,.14-3.25-1.96,3.68-4.16,6.17-7.89,8.84-.67-1.96-1.34-3.3-2.44-4.88,3.63-2.25,6.31-4.87,8.36-8.22h-3.11c-2.06,0-3.06,.05-4.35,.24v-5.07c1.24,.19,2.2,.24,4.44,.24h4.83v-3.39H5.21Zm3.68-11.37c1.05,2.06,1.43,3.06,2.06,5.54l-4.25,1.15h6.55c1.34-2.49,1.96-4.01,2.68-6.69h-7.03Zm31.93,5.78c2.1,0,3.3-.1,4.35-.29v5.31c-1.19-.14-1.96-.19-3.82-.19h-1.19v19.26c0,2.87,.05,4.21,.29,5.64h-5.59c.24-1.48,.29-2.87,.29-5.64v-19.26h-5.11c-.05,6.07-.62,11.09-1.77,15.44-.96,3.73-2.44,7.07-4.25,9.61-1.91-1.58-2.72-2.1-4.73-3.15,4.54-5.54,5.74-11.81,5.74-29.92,0-4.01-.05-5.54-.29-7.46,5.4-.14,13.67-2.25,16.11-4.06l3.92,4.64c-.53,.14-.72,.24-1.58,.53-3.82,1.43-6.83,2.15-13.1,3.25v6.31h10.75Z"/><path class="cls-1" d="M72.45,29.79v-3.01c0-1.96-.05-3.3-.29-4.88h5.54c-.19,1.53-.29,2.96-.29,4.92v2.96h7.36c1.96,0,3.25-.05,4.88-.24-.14,1.58-.19,2.92-.19,4.54v26.53c0,1.86,.1,3.3,.29,4.88h-5.59v-2.2h-29.44v2.2h-5.54c.19-1.58,.29-3.2,.29-4.92v-26.48c0-1.62-.05-2.87-.24-4.54,1.62,.19,2.91,.24,4.92,.24h6.93v-3.01c0-1.86-.1-3.2-.33-4.88h5.59c-.19,1.53-.29,2.87-.29,4.92v2.96h6.4Zm-17.73,4.83v9.03h6.36v-9.03h-6.36Zm0,13.81v9.99h6.36v-9.99h-6.36Zm17.73-4.78v-9.03h-6.4v9.03h6.4Zm0,14.77v-9.99h-6.4v9.99h6.4Zm11.71-14.77v-9.03h-6.74v9.03h6.74Zm0,14.77v-9.99h-6.74v9.99h6.74Z"/><path class="cls-1" d="M117.97,37.92V0h21.44V7.81h-12.9v30.11h-8.53Z"/><path class="cls-1" d="M162.4,58.5c0,3.07,.14,5.16,.42,7.32h-8.08c.28-2.37,.42-4.46,.42-7.32v-17.36c-2.65,2.51-4.11,3.62-7.67,6.06-.91-2.79-1.81-4.6-3.55-7.04,4.18-2.65,7.18-5.02,10.59-8.43,3.83-3.97,6.13-7.39,8.5-12.41h-11.36c-2.37,0-3.9,.07-5.92,.28v-7.32c1.6,.21,3.14,.28,5.51,.28h3.83V6.58c0-1.88-.14-3.62-.42-5.3h8.15c-.28,1.67-.42,3.28-.42,5.44v5.85h2.65c2.09,0,3.21-.07,3.97-.21l3.41,3.69c-.56,.98-1.05,1.95-1.6,3.21-2.02,4.6-3.41,7.04-6.48,11.43,2.51,2.79,5.44,5.23,9.83,8.02-1.67,2.02-2.51,3.49-3.83,6.34-3.42-2.58-5.3-4.25-7.95-7.11v20.56Zm20.63-28.23c-.21,8.29-.77,14.08-2.09,19.17-.91,3.69-2.37,7.39-4.32,10.8-1.19,2.09-2.09,3.35-4.46,5.99-2.16-2.58-3.76-4.11-6.13-5.72,3.35-3.42,4.67-5.44,6.27-9.48,2.65-6.48,3.55-14.92,3.55-32.97,0-4.39-.07-6.62-.42-9.41,7.95-.56,13.87-1.6,20.07-3.62,3.55-1.12,5.23-1.88,7.25-3.35l5.23,6.62c-9.27,3.62-15.54,5.16-24.88,6.2v8.85h19.03c3,0,4.81-.07,6.97-.42v7.67c-2.02-.28-3.76-.35-6.69-.35h-2.09v27.81c0,2.65,.14,5.51,.49,7.88h-8.43c.28-2.37,.42-5.37,.42-7.95V30.28h-9.76Z"/><path class="cls-1" d="M235.98,29.18v37.92h-21.44v-7.81h12.9V29.18h8.53Z"/><path class="cls-1" d="M279.06,25.49c-.24,1.39-.57,3.35-1.05,5.93q-.14,.81-.29,1.43c1.43-.05,2.1-.1,2.96-.1,3.16,0,5.5,.86,7.07,2.53,1.63,1.82,2.25,4.11,2.25,8.46,0,8.22-1.39,14.77-3.68,17.4-1.34,1.58-2.77,2.15-5.31,2.15-2.2,0-4.16-.38-7.36-1.43,.05-.91,.1-1.63,.1-2.1,0-1.24-.1-2.2-.48-4.06,2.58,1.15,5.3,1.91,6.98,1.91,1.39,0,2.15-.91,2.87-3.25,.77-2.49,1.24-6.83,1.24-10.9,0-4.4-1.1-5.69-4.78-5.69-1,0-1.77,.05-2.87,.14-2.34,9.8-4.49,15.58-9.75,26l-5.54-3.06c3.68-5.02,7.36-13.62,9.61-22.51q-.72,.1-2.25,.38l-4.35,.72c-.76,.14-1.29,.29-1.96,.48l-.57-5.64c2.15-.05,4.64-.29,10.18-1,.91-5.31,1.24-8.03,1.24-9.65v-.86l6.21,.62c-.14,.38-.29,1-.38,1.48l-.1,.62Zm14.53-1.96c2.1,2.25,3.39,4.06,5.02,7.03l-3.35,1.77c-1.58-2.92-2.92-4.83-5.02-7.12l3.35-1.67Zm4.45,9.46c3.3,4.54,5.78,9.7,7.17,15.2l-5.45,2.72c-.96-5.02-3.92-12.04-6.55-15.53l4.83-2.39Zm2.96-3.68c-1.43-2.63-3.01-4.88-4.88-6.93l3.2-1.67c2.15,2.2,3.49,4.01,4.97,6.74l-3.3,1.86Z"/><path class="cls-1" d="M329.8,34.76c-.14,.91-.14,.96-.19,3.87-.19,8.17-1.48,12.76-4.73,16.92-2.87,3.68-6.36,6.12-12.33,8.6-1.24-2.58-1.86-3.44-3.78-5.45,3.87-1.15,6.02-2.2,8.36-4.06,4.88-3.87,6.4-7.98,6.4-17.01,0-1.43-.05-1.86-.24-2.87h6.5Zm19.4-6.02c-.67,.81-.67,.86-1.91,3.35-1.67,3.54-4.44,7.12-7.36,9.61-1.91,1.67-3.49,2.72-5.74,3.97-1.43-2.01-2.15-2.72-4.3-4.35,3.2-1.43,5.02-2.53,6.98-4.4,1.96-1.82,3.44-3.78,4.54-6.07h-25.09c-3.35,0-4.54,.05-6.5,.29v-5.97c1.82,.29,3.3,.38,6.6,.38h24.95c2.87,0,3.3-.05,4.64-.43l3.2,3.63Z"/><path class="cls-1" d="M351.72,51.92c1.82,.29,2.87,.33,6.12,.33h27.43c3.25,0,4.3-.05,6.12-.33v6.4c-1.67-.19-2.92-.24-6.02-.24h-27.62c-3.11,0-4.35,.05-6.02,.24v-6.4Zm4.83-23.28c1.72,.29,2.82,.33,5.64,.33h18.78c2.82,0,3.92-.05,5.64-.33v6.31c-1.58-.19-2.72-.24-5.59-.24h-18.88c-2.87,0-4.01,.05-5.59,.24v-6.31Z"/><path class="cls-1" d="M431.74,25.63c-.53,.91-.72,1.29-1.67,3.44-3.01,7.12-4.88,10.75-6.74,13.53,4.01,3.39,6.5,5.74,10.66,10.13l-4.59,4.92c-2.49-3.25-5.35-6.21-9.7-10.08-2.06,2.72-4.54,5.4-7.46,7.98-3.44,3.01-6.5,5.16-11.37,7.89-1.29-2.29-2.06-3.15-4.21-4.97,5.31-2.63,8.6-4.83,12.38-8.27,2.29-2.06,4.21-4.11,6.07-6.5-3.82-3.15-8.41-6.26-12.67-8.6l4.21-4.21c3.49,2.06,5.54,3.39,7.89,5.07q3.58,2.58,3.97,2.82c3.06-5.02,6.12-11.95,6.74-15.39l6.5,2.25Z"/><path class="cls-1" d="M463.54,37.92V0h21.43V7.81h-12.9v30.11h-8.53Z"/><path class="cls-1" d="M499.41,41.5c-.35,9.48-.84,13.94-2.44,20.91l-6.41-3.07c1.05-3.35,1.39-4.81,1.88-8.5,.63-4.25,.77-6.69,.77-10.39l6.2,1.05Zm14.22-2.09c-.35-1.53-.49-2.3-.77-3.28-3.14,.42-3.21,.42-4.11,.49v22.03c0,3.55,.07,5.23,.42,7.32h-7.53c.28-2.3,.42-4.32,.42-7.39v-21.33c-2.58,.21-5.51,.42-6.41,.49-2.37,.14-2.86,.14-4.11,.35l-.77-7.04c1.67,.07,2.3,.14,3.48,.14h1.32l.7-.07c1.6-1.95,2.3-2.86,3.9-5.02-3.07-4.04-6.13-7.53-9.27-10.59l3.69-5.85q1.18,1.25,2.37,2.51c2.58-4.32,4.53-8.57,5.09-11.36l6.83,2.51c-.42,.56-.56,.91-1.05,1.88-3.07,6.13-4.67,9.06-6.62,11.99,1.32,1.6,1.67,2.16,2.65,3.42,3.83-5.92,5.93-9.76,6.69-11.99l6.2,3.35c-.56,.77-1.12,1.6-2.37,3.69-2.93,4.67-7.18,10.8-10.8,15.33,3.56-.21,5.09-.28,7.6-.56-.7-2.09-.98-2.93-2.02-5.23l5.16-2.37c1.95,4.18,2.86,6.69,4.18,10.94,4.11-1.67,8.43-4.11,11.78-6.62-2.16-2.37-3.55-4.18-5.44-7.11-1.6,1.74-2.72,2.79-6.06,5.37-1.25-2.51-2.65-4.25-4.53-5.85,3.76-2.44,6.76-5.44,9.62-9.62,2.16-3.07,3.97-6.76,4.39-8.92l7.6,2.3c-.21,.21-.98,1.67-2.44,4.32h8.71c3.14,0,4.53-.07,6.13-.35l3.49,4.11c-.14,.35-1.12,1.95-2.93,4.95-2.93,5.09-4.67,7.39-7.81,10.66,4.46,3.14,8.43,5.02,15.54,7.32-1.95,2.44-2.93,4.18-4.18,7.39-7.74-3.35-12.06-5.85-16.94-9.69-5.37,4.32-10.25,7.11-16.66,9.69-.56-1.6-.77-2.16-1.88-3.9l-3.28,1.6Zm2.37,1.05c1.39,5.99,1.6,7.25,2.79,16.59l-5.99,1.74c-.28-5.58-1.05-11.5-2.16-16.94l5.37-1.39Zm31.99,25.65c-8.5-4.39-15.12-6.76-27.6-9.83l3.49-6.9c10.11,2.72,15.75,4.67,27.18,9.48l-3.07,7.25Zm-4.04-14.08c-5.65-3.9-11.15-6.76-17.57-9.27l4.04-5.99c7.39,3,12.06,5.3,17.29,8.57l-3.76,6.69Zm-14.22-38.06c-.21,.28-.21,.42-.42,.7,2.44,3.9,3.28,4.95,6.27,7.81,2.65-2.58,3.9-4.25,6.34-8.5h-12.2Z"/><path class="cls-1" d="M612.14,10.83c4.53,0,6.62-.14,8.43-.49v8.02c-2.16-.35-4.39-.42-8.36-.42h-19.1v9.41h15.47c4.46,0,6.69-.14,8.43-.42v7.81c-2.3-.28-4.95-.42-8.43-.42h-12.2c3.42,4.88,5.51,7.18,9.9,10.87,5.16,4.25,10.52,7.67,16.31,10.18-1.95,2.44-3.28,4.53-4.74,7.53-5.65-2.93-9.83-5.85-14.5-10.11-4.6-4.25-7.11-7.25-10.45-12.41,.14,3.97,.21,5.09,.21,6.48v11.64c0,2.72,.14,5.23,.49,7.46h-8.78c.35-2.3,.49-4.32,.49-7.46v-11.57c0-2.23,0-3.21,.21-6.48-5.72,9.13-12.89,15.82-23.91,22.16-1.6-3.07-2.58-4.6-4.67-7.11,11.15-5.58,18.89-12.13,24.95-21.19h-10.94c-3.28,0-5.72,.14-8.29,.42v-7.81c2.44,.35,4.32,.42,8.29,.42h14.36v-9.41h-17.63c-3.76,0-5.99,.07-8.36,.42V10.34c2.3,.35,4.32,.49,8.29,.49h17.7V6.3c0-2.09-.07-3.42-.35-4.95h8.5c-.28,1.53-.35,2.51-.35,5.02v4.46h19.03Z"/><path class="cls-1" d="M652.87,43.8c-3.97,8.99-8.43,13.1-14.15,13.1-7.95,0-13.66-8.09-13.66-19.31,0-7.67,2.72-14.85,7.67-20.28,5.86-6.41,14.08-9.76,23.98-9.76,16.73,0,27.6,10.18,27.6,25.86,0,12.06-6.27,21.68-16.94,26-3.35,1.39-6.06,2.09-10.94,2.93-1.19-3.69-2.02-5.23-4.25-8.16,6.41-.84,10.59-1.95,13.87-3.83,6.06-3.35,9.69-9.97,9.69-17.43,0-6.69-3-12.13-8.57-15.47-2.16-1.25-3.97-1.81-7.04-2.09-1.32,10.94-3.76,20.56-7.25,28.44Zm-10.25-24.95c-5.86,4.18-9.48,11.36-9.48,18.82,0,5.72,2.44,10.25,5.51,10.25,2.3,0,4.67-2.93,7.18-8.92,2.65-6.27,4.95-15.68,5.79-23.56-3.62,.42-6.13,1.39-8.99,3.42Z"/><path class="cls-1" d="M745.96,11.94c-.7,2.02-.91,2.72-1.19,4.95-2.23,16.31-5.51,24.53-12.76,32.34-5.44,5.79-12.41,10.25-21.61,13.8-2.02-3.76-2.86-4.95-5.72-8.02,5.92-1.74,9.62-3.42,14.15-6.48,9.97-6.76,15.19-17.01,16.59-32.13l-33.18,.07v10.39q.07,4.95,.28,6.13l-9.34,.07c.21-1.67,.28-2.86,.28-5.99V13.76c0-2.93,0-3.76-.21-5.65,1.88,.21,4.11,.35,5.79,.35h33.74c4.67,0,6.13-.14,8.57-.77l4.6,4.25Z"/><path class="cls-1" d="M768.2,6.02q-.28,1.95-.7,15.61c-.49,13.59-2.02,21.47-5.65,28.65-2.37,4.81-5.02,8.36-9.62,12.89-2.72-3.49-3.76-4.53-7.04-6.76,3.42-2.79,5.09-4.67,7.18-8.02,5.02-8.02,6.62-17.01,6.62-36.52,0-3.83,0-4.46-.28-6.34l9.48,.49Zm18.47-.84c-.35,2.02-.42,3.21-.49,6.62l-.35,39.66c4.88-2.3,7.67-4.39,10.66-7.95,3.21-3.76,5.23-7.6,6.83-12.76,2.44,3.14,3.35,4.04,6.55,6.55-2.86,6.9-6.48,12.13-11.08,16.24-3.97,3.42-7.6,5.51-14.85,8.36-1.53,.56-2.09,.84-3,1.25l-4.46-4.74c.49-2.02,.56-3.55,.63-7.39l.35-39.31v-2.09c0-1.74-.07-3.28-.28-4.6l9.48,.14Z"/><path class="cls-1" d="M835.53,10.9c-.63-3.42-.91-4.6-1.67-6.55l9.2-1.46c.07,1.81,.35,3.83,.84,6.55l1.12,6.06,14.71-2.3c3.42-.56,4.88-.91,6.69-1.53l1.46,8.36q-1.88,.14-6.69,.91l-14.71,2.3,2.09,11.43,16.38-2.58c2.93-.49,5.37-1.05,7.25-1.6l1.53,8.36c-1.46,.07-1.74,.07-3.21,.35-.42,0-.77,.07-1.12,.14-.49,.07-1.39,.21-2.79,.42l-16.59,2.65,2.51,13.52c.84,4.6,.91,4.81,1.67,7.18l-9.34,1.67c-.07-2.09-.35-4.04-.91-7.32l-2.51-13.73-17.22,2.72c-3.35,.56-4.6,.84-7.11,1.53l-1.39-8.57c2.37,0,4.39-.21,7.39-.7l16.94-2.72-2.09-11.43-12.96,2.02c-3.21,.56-5.79,1.05-7.67,1.6l-1.39-8.57c2.51-.07,4.74-.35,7.67-.77l12.96-2.02-1.05-5.92Z"/><path class="cls-1" d="M921.32,53.9c3.21,0,4.53-.07,6.41-.42v7.95c-1.88-.21-3.48-.28-6.41-.28h-36.17c-3.07,0-4.53,.07-6.41,.28v-7.95c1.95,.35,3.21,.42,6.41,.42h20.56c1.19-6.2,2.65-16.03,3.35-22.37h-17.29c-3.35,0-4.39,.07-6.2,.28v-7.88c1.74,.28,3.69,.42,6.41,.42h17.63c2.44,0,3.48-.14,5.16-.63l3.83,3.35q-.84,2.16-1.6,7.95c-1.05,7.67-1.81,12.62-3,18.89h7.32Z"/><path class="cls-1" d="M931.73,28.46c2.45,.42,3.51,.49,9.03,.49h29.72c5.52,0,6.58-.07,9.03-.49v9.69c-2.23-.35-2.84-.35-9.09-.35h-29.61c-6.24,0-6.86,0-9.09,.35v-9.69Z"/><path class="cls-1" d="M1000.95,5.25c-.28,1.88-.35,3.62-.42,7.04l-.35,39.8c7.25-1.39,13.8-4.04,19.03-7.67,6.41-4.39,10.73-9.2,14.22-15.96,2.72,3.62,3.62,4.6,6.62,7.11-4.81,7.39-9.27,12.06-15.54,16.24-6.97,4.67-14.08,7.39-25.37,9.55-1.88,.35-2.72,.63-4.18,1.18l-4.46-5.37c.49-1.88,.63-3.14,.63-7.18l.28-37.64q0-4.88-.35-7.18l9.9,.07Z"/><path class="cls-1" d="M1097.58,8.13l-7.79,.08V58.98l7.79,.08v2.04h-51v-2.04l7.79-.08V8.2l-7.79-.08v-2.04h51v2.04Zm-32.01,.08V58.98h13.02V8.2h-13.02Z"/><path class="cls-1" d="M1134.07,29.18v37.92h-21.43v-7.81h12.9V29.18h8.53Z"/><path class="cls-1" d="M1178.45,50.53c-2.72,6.17-5.78,8.99-9.7,8.99-5.45,0-9.37-5.54-9.37-13.24,0-5.26,1.86-10.18,5.26-13.91,4.01-4.4,9.65-6.69,16.44-6.69,11.47,0,18.93,6.98,18.93,17.73,0,8.27-4.3,14.86-11.61,17.83-2.29,.96-4.16,1.43-7.5,2.01-.81-2.53-1.39-3.58-2.92-5.59,4.4-.57,7.26-1.34,9.51-2.63,4.16-2.29,6.64-6.83,6.64-11.95,0-4.59-2.06-8.32-5.88-10.61-1.48-.86-2.72-1.24-4.83-1.43-.91,7.5-2.58,14.1-4.97,19.5Zm-7.03-17.11c-4.01,2.87-6.5,7.79-6.5,12.9,0,3.92,1.67,7.03,3.78,7.03,1.58,0,3.2-2.01,4.92-6.12,1.82-4.3,3.39-10.75,3.97-16.15-2.49,.29-4.21,.96-6.17,2.34Z"/></g><g><path class="cls-1" d="M234.68,115.81c-4.74,0-6.62,.07-8.5,.35v-8.02c2.44,.35,4.53,.42,8.43,.42h40.29c3.55,0,5.92-.14,8.43-.42v8.02c-2.37-.28-4.32-.35-8.43-.35h-16.31v12.13h13.45c3,0,5.44-.14,7.53-.35v7.88c-2.23-.28-3.9-.35-7.32-.35h-13.66v14.43h18.61c3.69,0,6.27-.14,9.2-.42v8.22c-3.14-.35-5.37-.49-8.99-.49h-44.4c-4.11,0-6.41,.14-9.48,.49v-8.22c2.44,.28,5.23,.42,9.2,.42h17.7v-14.43h-12.48c-3.55,0-5.58,.07-7.88,.35v-7.88c2.02,.28,3.76,.35,7.32,.35h13.03v-12.13h-15.75Zm12.82-21.26c7.18,2.37,9.48,3.35,18.05,7.39l-5.23,6.27c-7.04-3.97-12.27-6.27-18.47-8.09l5.65-5.58Z"/><path class="cls-1" d="M306.64,129.96h-7.53c-3.62,0-4.88,.07-6.69,.35v-7.11c1.88,.28,3.28,.35,6.69,.35h19.38c2.51,0,3.97-.07,5.79-.35v7.04c-2.09-.21-3.28-.28-6.41-.28h-4.32v5.65h3.62c2.23,0,3.9-.07,5.58-.28v6.76c-1.6-.28-3.14-.35-5.65-.35h-3.55v7.81c2.93,.84,5.58,1.25,11.22,1.53-1.25-1.6-2.3-2.72-3.83-3.97,4.81-1.81,7.95-3.76,10.73-7.04-2.65,0-3.9,.07-5.44,.21,.14-1.53,.21-3.35,.21-5.72v-20.35c0-2.3-.07-3.97-.21-5.85,1.6,.14,2.79,.21,5.79,.21h2.79c.7-1.6,1.26-3.14,1.74-4.6h-5.72c-2.72,0-5.09,.14-6.9,.35v-6.76c2.02,.21,4.32,.35,7.53,.35h17.57c3.62,0,5.65-.14,7.32-.42v6.76c-1.67-.14-4.32-.28-6.69-.28h-6.06c-.7,2.02-1.05,2.93-1.81,4.6h5.99c2.93,0,4.18-.07,5.86-.21-.21,1.67-.28,3.21-.28,5.92v19.38c0,2.65,.07,4.67,.28,6.62-1.74-.14-3.14-.21-5.72-.21h-1.19c3.55,3.07,6.48,4.81,10.66,6.41-1.39,1.53-2.16,2.51-3.21,4.18,1.25-.07,2.02-.14,3.83-.35-1.12,2.44-1.6,4.32-2.16,7.74-4.74,.21-12.69,.35-18.75,.35-12.13,0-19.93-.7-24.53-2.09-4.53-1.39-8.5-4.11-11.29-7.67-1.19,4.25-2.51,7.39-4.46,10.45-2.02-2.3-2.51-2.72-5.93-4.81,2.09-2.93,3.62-6.41,4.6-10.39,.56-2.37,1.05-6.97,1.05-9.76,0-.63-.07-1.12-.14-2.02l7.04,1.18c-.14,1.05-.21,1.18-.21,2.44-.07,1.39-.21,3-.56,5.58,1.05,1.46,2.09,2.58,3.97,4.32v-15.68Zm-10.59-26.56c0-2.51-.07-4.32-.28-6.06,1.39,.21,3.07,.28,6.13,.28h13.52c3.49,0,4.67-.07,6.27-.28-.21,1.74-.28,3-.28,6.13v11.85c0,3.14,.07,4.32,.28,5.99-1.95-.21-3.69-.28-6.13-.28h-13.66c-2.51,0-4.18,.07-6.13,.28,.21-1.81,.28-3.07,.28-6.06v-11.85Zm6.83,3.35h11.71v-3.42h-11.71v3.42Zm0,8.78h11.71v-3.62h-11.71v3.62Zm34.78,27.6c-2.79,3.21-6.55,6.41-9.55,8.09,2.44,.07,4.88,.14,6.97,.14,4.88,0,11.36-.21,15.89-.42-3.55-1.95-6.34-4.04-10.11-7.74l4.25-3.14h-12.2l4.74,3.07Zm-4.53-25.58h13.52v-3.28h-13.52v3.28Zm0,8.36h13.52v-3.21h-13.52v3.21Zm0,8.36h13.52v-3.28h-13.52v3.28Z"/><path class="cls-1" d="M410.68,115.53c-.14,.98-.21,2.02-.21,3.55,0,9.69,2.58,18.33,7.39,24.81,2.23,3.07,4.32,5.09,8.71,8.22-2.23,3.35-2.51,3.9-4.04,7.46-4.04-3.14-6.69-6.06-9.62-10.59-2.86-4.39-4.18-7.6-5.16-12.48-1.39,6.62-2.79,10.32-5.58,14.64-2.44,3.69-4.46,5.99-7.81,8.57-1.12-1.88-1.6-2.65-2.79-4.04-.77,1.53-1.46,2.09-3.48,2.58-1.19,.28-3.35,.49-5.65,.49-.84,0-1.95-.07-4.04-.14-.21-2.79-.49-4.18-1.46-6.9,2.23,.35,4.67,.56,6.06,.56,1.74,0,2.16-.35,2.16-1.6v-18.33h-17.98c-3.14,0-4.81,.07-6.69,.28v-7.11c2.02,.28,3.49,.35,6.76,.35h22.65c3.35,0,5.44-.14,7.25-.35v7.11c-1.67-.14-2.65-.21-5.09-.28v19.24c3.48-3.14,6.27-7.18,8.02-11.64,2.09-5.44,3.21-12.62,3.21-20.42,0-1.81-.07-2.72-.21-3.97h7.6Zm-6.34-3.9c-2.09,5.51-4.11,9.27-7.18,13.38-1.67-2.44-3.28-4.04-5.16-5.37-.49,2.09-1.12,3.14-2.51,3.9-1.32,.7-3,.91-6.9,.91h-2.44c-.07-1.39-.14-1.81-.42-2.93-.56,0-.98-.07-1.32-.07h-8.57c-2.51,0-4.04,.07-5.51,.21,.14-1.46,.21-3,.21-5.3v-4.25c0-2.3-.07-3.83-.21-5.3,1.46,.14,3,.21,5.51,.21h6.76c2.58,0,4.11-.07,5.58-.21-.21,1.53-.21,2.44-.21,4.67v7.11h1.53c1.6,0,1.95-.28,1.95-1.39v-12.96h-17.5c-3.07,0-4.67,.07-6.62,.35v-7.04c1.88,.28,4.11,.42,7.53,.42h19.52c3.42,0,5.93-.14,7.95-.42v6.97c-1.39-.14-2.23-.21-4.18-.28v13.24c0,.56,0,.91-.07,1.53,3-3.62,5.23-8.09,7.11-14.36,1.19-4.04,1.74-6.9,1.74-9.76l7.88,1.32c-.28,.91-.42,1.6-.84,3.28-.14,.84-.77,3.21-1.46,5.51h10.32c3,0,4.32-.07,5.65-.42l3.21,3.83q-.35,.84-1.05,4.04c-1.67,6.83-3.35,11.5-5.79,16.24-3.14-2.44-3.76-2.86-5.93-3.97,2.44-4.18,3.83-7.88,4.88-13.1h-13.45Zm-40.5,42.03c.28-1.53,.35-3.21,.35-5.72v-7.88c0-2.3-.07-3.76-.28-5.3,1.53,.14,2.65,.21,5.58,.21h6.97c3,0,4.04-.07,5.51-.21-.07,1.32-.14,2.44-.14,4.88v6.13c0,2.79,0,3.42,.14,4.74-1.12-.14-2.16-.21-4.18-.21h-7.74v3.35h-6.2Zm6.2-8.43h6.2v-5.16h-6.2v5.16Zm.14-28.51h6.2v-5.02h-6.2v5.02Z"/><path class="cls-1" d="M479.19,155.19c-2.51-.35-4.74-.49-8.99-.49h-21.75c-4.18,0-6.06,.07-8.85,.21,.42-2.79,.56-5.09,.56-9.2v-37.71c0-3.62-.14-5.72-.56-8.99,2.79,.14,4.6,.21,8.85,.21h21.05c3.49,0,5.79-.14,8.99-.49v9.2c-2.65-.35-4.88-.49-8.99-.49h-20.07v14.36h16.94c3.62,0,5.99-.14,9.06-.49v9.13c-2.86-.42-4.74-.49-9.06-.49h-17.01v16.45h20.91c3.9,0,5.92-.14,8.92-.49v9.27Z"/><path class="cls-1" d="M485.61,108.07c0-3.9-.14-5.99-.56-9.06,2.79,.14,4.46,.21,8.85,.21h12.62c8.71,0,14.36,1.81,18.82,6.13,5.09,4.81,7.74,12.06,7.74,21.12s-2.79,17.01-8.22,22.16c-4.46,4.18-10.04,6.06-18.26,6.06h-12.69c-4.25,0-5.99,.07-8.85,.21,.42-2.86,.56-5.02,.56-9.2v-37.64Zm20.35,38.41c5.72,0,9.41-1.32,12.34-4.46,3.35-3.55,5.09-8.92,5.09-15.47s-1.6-11.57-4.81-14.92c-2.86-3-6.48-4.18-12.55-4.18h-11.15v39.03h11.08Z"/><path class="cls-1" d="M583.67,125.43c-.35,8.02-1.88,13.8-4.88,18.75-3.69,6.13-8.78,9.97-18.19,13.73-1.74-3.55-2.65-4.74-5.65-7.67,8.36-2.58,13.59-6.27,16.52-11.64,1.81-3.21,2.86-7.74,3.07-13.17h-17.01c-4.74,0-6.34,.07-8.85,.35v-8.29c2.65,.42,4.18,.49,8.99,.49h40.77c4.74,0,6.34-.07,8.99-.49v8.29c-2.51-.28-4.11-.35-8.85-.35h-14.92Zm-27.95-25.51c2.58,.42,3.97,.49,8.99,.49h26.77c5.02,0,6.41-.07,8.99-.49v8.5c-2.3-.28-3.97-.35-8.85-.35h-27.04c-4.88,0-6.55,.07-8.85,.35v-8.5Z"/><path class="cls-1" d="M613,122.29c2.45,.42,3.51,.49,9.03,.49h29.72c5.52,0,6.58-.07,9.03-.49v9.69c-2.23-.35-2.84-.35-9.09-.35h-29.61c-6.24,0-6.86,0-9.09,.35v-9.69Z"/><path class="cls-1" d="M676.28,120.41c3.69,3.07,5.79,4.95,8.64,7.74q3.83,3.9,4.32,4.32c3.62-3.07,6.55-5.85,9.13-8.78,3-3.35,6.83-8.57,8.5-11.36q.21-.35,.42-.63t.14-.35c-.7,.07-1.74,.14-3.21,.14h-33.25c-5.65,.07-6.34,.07-8.92,.35v-8.85c2.72,.42,4.32,.49,9.06,.49l38.75-.07c3,0,4.04-.07,5.79-.56l4.88,5.51c-1.05,1.12-1.46,1.6-3.07,4.11-6.62,10.66-13.94,19.24-22.51,26.42,2.93,3.35,5.58,6.69,9.2,11.64l-7.32,5.85c-3.9-6.27-7.6-11.08-13.45-17.56-5.37-5.92-8.85-9.34-13.94-13.45l6.83-4.95Z"/><path class="cls-1" d="M729.51,156.03c-.07-1.25-.14-1.67-.35-3.28-1.32-8.43-1.81-13.8-1.81-20.84,0-8.99,.84-16.94,2.86-27.25,.77-3.9,.91-4.6,1.05-6.48l9.2,.98c-1.67,4.11-3.28,11.92-4.39,20.84-.7,5.23-.98,9.34-1.05,15.4,0,1.53-.07,2.09-.14,3.83,.77-2.44,.91-2.93,3.62-9.2l5.58,2.51c-3.83,8.09-6.2,16.17-6.2,21.12,0,.42,0,.98,.07,1.88l-8.43,.49Zm29.69-27.53c-3.48,4.04-4.95,7.04-4.95,10.04,0,3.97,3.83,6.06,11.08,6.06,6.13,0,12.2-.98,16.59-2.65l.7,8.85c-.98,.07-1.25,.14-2.86,.42-5.58,.91-9.83,1.32-14.43,1.32-8.64,0-14.22-1.95-17.29-6.06-1.32-1.74-2.09-4.32-2.09-6.83,0-4.53,2.09-9.2,6.41-14.36l6.83,3.21Zm-11.5-23.07c3.14,.84,6.83,1.12,12.89,1.12,7.74,0,14.36-.63,18.96-1.88l.42,8.43c-.56,.07-1.6,.21-4.95,.63-4.46,.56-9.76,.84-14.92,.84s-5.16,0-12.55-.77l.14-8.36Z"/><path class="cls-1" d="M792.56,113.02c5.02,2.79,7.53,4.6,12.55,8.78l-4.46,6.48c-4.74-4.39-7.53-6.48-12.55-9.55l4.46-5.72Zm12.34,23.7c-2.65,7.95-4.46,12.34-7.67,18.4-.49,.91-1.95,3.49-2.16,3.9l-6.62-5.79c3.9-4.74,6.69-10.39,10.32-20.91l6.13,4.39Zm-9.34-40.91c4.88,2.86,7.6,4.95,12.2,9.27l-4.88,6.27c-4.39-4.6-6.62-6.41-12.2-9.97l4.88-5.58Zm36.17,36.38c4.18,9.06,10.94,15.19,21.33,19.38-1.88,2.44-2.65,4.04-4.11,7.95-10.38-5.37-18.26-13.17-21.82-21.82-3.42,9.9-9.41,16.52-20.28,22.3-1.26-2.79-2.44-4.46-4.81-7.04,11.01-4.67,16.73-10.87,19.03-20.77h-6.69c-3.21,0-5.72,.14-7.81,.42v-8.29c2.09,.28,4.74,.42,7.74,.42h7.81c.35-3.97,.49-8.02,.56-11.92h-5.79c-2.86,0-5.65,.14-7.39,.35v-7.88c2.16,.21,4.46,.35,7.39,.35h5.72v-3.76c0-3.21-.14-4.6-.49-6.55h8.5c-.42,2.02-.49,3.28-.49,6.48v3.83h10.66c3.28,0,4.88-.07,6.48-.28-.21,1.39-.28,2.93-.28,5.58v13.8c2.86-.07,2.93-.07,5.86-.42v8.29c-2.3-.28-4.6-.42-7.74-.42h-13.38Zm7.95-7.46v-11.92h-9.62c-.07,5.58-.21,8.29-.56,11.92h10.18Z"/><path class="cls-1" d="M886.28,122.22h-10.25c-3.07,0-5.02,.07-7.04,.35v-7.39c1.81,.28,3.83,.35,7.04,.35h26.7c3.28,0,5.3-.07,7.18-.35v7.39c-1.95-.28-3.97-.35-7.18-.35h-9.13v8.92h13.17c3.21,0,4.95-.07,6.83-.42v7.46c-2.09-.28-3.76-.35-6.83-.35h-13.17v11.99c3.42,.49,7.25,.7,11.36,.7s8.78-.21,15.89-.84c-1.12,2.86-1.6,4.74-1.95,7.95-5.72,.14-9.34,.21-14.85,.21-16.31,0-25.44-3.55-31.16-11.99-2.23,4.81-4.88,8.64-9.55,13.66-1.81-2.58-2.79-3.49-5.99-5.72,5.72-5.16,9.76-11.85,11.99-19.73,.77-2.86,1.32-5.99,1.39-7.53l7.74,1.46c-.35,1.18-.35,1.25-.98,4.11-.35,1.39-.77,3-1.81,6.27,2.79,4.95,5.65,7.53,10.59,9.69v-25.86Zm-1.19-22.37c0-1.74-.14-2.93-.42-4.46h8.57c-.28,1.46-.35,2.58-.35,4.39v2.65h18.82c2.79,0,5.16-.07,7.74-.28-.21,1.6-.28,3.14-.28,5.16v5.44c0,2.02,.07,3.62,.28,5.44h-7.53v-8.71h-45.03v8.71h-7.74c.28-1.67,.35-3.07,.35-5.51v-5.37c0-1.81-.14-3.55-.28-5.16,2.51,.21,4.88,.28,7.67,.28h18.19v-2.58Z"/><path class="cls-1" d="M940.1,140.93c.08-1.59,.15-2.35,.15-3.25q0-.83-.23-5.37l-1.06-25.73c-.15-3.33-.38-7.11-.68-9.23h12.41c-.23,2.04-.53,5.98-.68,9.23l-1.06,25.73q-.15,4.39-.15,5.45c0,.91,0,1.66,.15,3.18h-8.85Zm-1.06,16.57v-10.37h10.97v10.37h-10.97Z"/></g></g></g></svg>